
CASCADE Topology V1, (c) Matra-Datavision
Locations 99
1
1.000000000000000 0.000000000000000 0.000000000000000 0.000000000000000 
0.000000000000000 1.000000000000000 0.000000000000000 0.000000000000000 
0.000000000000000 0.000000000000000 1.000000000000000 0.000000000000000 
1
1.000000000000000 0.000000000000000 0.000000000000000 0.000000000000000 
0.000000000000000 1.000000000000000 0.000000000000000 0.000000000000000 
0.000000000000000 0.000000000000000 1.000000000000000 0.000000000000000 
1
1.000000000000000 0.000000000000000 0.000000000000000 0.000000000000000 
0.000000000000000 1.000000000000000 0.000000000000000 0.000000000000000 
0.000000000000000 0.000000000000000 1.000000000000000 0.000000000000000 
1
1.000000000000000 0.000000000000000 0.000000000000000 0.000000000000000 
0.000000000000000 1.000000000000000 0.000000000000000 0.000000000000000 
0.000000000000000 0.000000000000000 1.000000000000000 0.000000000000000 
2  2 1 3 1 4 -1 0
1
1.000000000000000 0.000000000000000 0.000000000000000 -0.000000000000000 
0.000000000000000 1.000000000000000 0.000000000000000 -0.000000000000000 
0.000000000000000 0.000000000000000 1.000000000000000 -10.000000000000000 
2  2 1 3 1 4 -1 6 1 0
2  4 1 3 -1 2 -1 0
2  6 -1 4 1 3 -1 2 -1 0
2  3 -1 2 -1 0
1
1.000000000000000 0.000000000000000 0.000000000000000 0.000000000000000 
0.000000000000000 1.000000000000000 0.000000000000000 0.000000000000000 
0.000000000000000 0.000000000000000 1.000000000000000 0.000000000000000 
1
1.000000000000000 0.000000000000000 0.000000000000000 0.000000000000000 
0.000000000000000 1.000000000000000 0.000000000000000 0.000000000000000 
0.000000000000000 0.000000000000000 1.000000000000000 0.000000000000000 
2  11 1 12 -1 0
1
1.000000000000000 0.000000000000000 0.000000000000000 0.000000000000000 
0.000000000000000 1.000000000000000 0.000000000000000 0.000000000000000 
0.000000000000000 0.000000000000000 1.000000000000000 0.000000000000000 
1
1.000000000000000 0.000000000000000 0.000000000000000 0.000000000000000 
0.000000000000000 1.000000000000000 0.000000000000000 0.000000000000000 
0.000000000000000 0.000000000000000 1.000000000000000 0.000000000000000 
2  14 1 15 -1 0
1
1.000000000000000 0.000000000000000 0.000000000000000 0.000000000000000 
0.000000000000000 1.000000000000000 0.000000000000000 0.000000000000000 
0.000000000000000 0.000000000000000 1.000000000000000 0.000000000000000 
1
1.000000000000000 0.000000000000000 0.000000000000000 0.000000000000000 
0.000000000000000 1.000000000000000 0.000000000000000 0.000000000000000 
0.000000000000000 0.000000000000000 1.000000000000000 0.000000000000000 
2  17 1 18 -1 0
1
1.000000000000000 0.000000000000000 0.000000000000000 0.000000000000000 
0.000000000000000 1.000000000000000 0.000000000000000 0.000000000000000 
0.000000000000000 0.000000000000000 1.000000000000000 0.000000000000000 
1
1.000000000000000 0.000000000000000 0.000000000000000 0.000000000000000 
0.000000000000000 1.000000000000000 0.000000000000000 0.000000000000000 
0.000000000000000 0.000000000000000 1.000000000000000 0.000000000000000 
2  20 1 21 -1 0
1
1.000000000000000 0.000000000000000 0.000000000000000 0.000000000000000 
0.000000000000000 1.000000000000000 0.000000000000000 0.000000000000000 
0.000000000000000 0.000000000000000 1.000000000000000 0.000000000000000 
1
1.000000000000000 0.000000000000000 0.000000000000000 0.000000000000000 
0.000000000000000 1.000000000000000 0.000000000000000 0.000000000000000 
0.000000000000000 0.000000000000000 1.000000000000000 0.000000000000000 
1
1.000000000000000 0.000000000000000 0.000000000000000 0.000000000000000 
0.000000000000000 1.000000000000000 0.000000000000000 0.000000000000000 
0.000000000000000 0.000000000000000 1.000000000000000 0.000000000000000 
1
1.000000000000000 0.000000000000000 0.000000000000000 0.000000000000000 
0.000000000000000 1.000000000000000 0.000000000000000 0.000000000000000 
0.000000000000000 0.000000000000000 1.000000000000000 0.000000000000000 
2  23 1 24 -1 25 -1 26 1 1 -1 0
1
1.000000000000000 0.000000000000000 0.000000000000000 0.000000000000000 
0.000000000000000 1.000000000000000 0.000000000000000 0.000000000000000 
0.000000000000000 0.000000000000000 1.000000000000000 0.000000000000000 
1
1.000000000000000 0.000000000000000 0.000000000000000 0.000000000000000 
0.000000000000000 1.000000000000000 0.000000000000000 0.000000000000000 
0.000000000000000 0.000000000000000 1.000000000000000 0.000000000000000 
1
1.000000000000000 0.000000000000000 0.000000000000000 0.000000000000000 
0.000000000000000 1.000000000000000 0.000000000000000 0.000000000000000 
0.000000000000000 0.000000000000000 1.000000000000000 0.000000000000000 
2  28 1 29 -1 30 -1 26 1 1 -1 0
1
1.000000000000000 0.000000000000000 0.000000000000000 0.000000000000000 
0.000000000000000 1.000000000000000 0.000000000000000 0.000000000000000 
0.000000000000000 0.000000000000000 1.000000000000000 0.000000000000000 
1
1.000000000000000 0.000000000000000 0.000000000000000 0.000000000000000 
0.000000000000000 1.000000000000000 0.000000000000000 0.000000000000000 
0.000000000000000 0.000000000000000 1.000000000000000 0.000000000000000 
1
1.000000000000000 0.000000000000000 0.000000000000000 0.000000000000000 
0.000000000000000 1.000000000000000 0.000000000000000 0.000000000000000 
0.000000000000000 0.000000000000000 1.000000000000000 0.000000000000000 
2  32 1 33 -1 34 -1 26 1 1 -1 0
1
1.000000000000000 0.000000000000000 0.000000000000000 0.000000000000000 
0.000000000000000 1.000000000000000 0.000000000000000 0.000000000000000 
0.000000000000000 0.000000000000000 1.000000000000000 0.000000000000000 
1
1.000000000000000 0.000000000000000 0.000000000000000 0.000000000000000 
0.000000000000000 1.000000000000000 0.000000000000000 0.000000000000000 
0.000000000000000 0.000000000000000 1.000000000000000 0.000000000000000 
1
1.000000000000000 0.000000000000000 0.000000000000000 0.000000000000000 
0.000000000000000 1.000000000000000 0.000000000000000 0.000000000000000 
0.000000000000000 0.000000000000000 1.000000000000000 0.000000000000000 
1
1.000000000000000 0.000000000000000 0.000000000000000 0.000000000000000 
0.000000000000000 1.000000000000000 0.000000000000000 0.000000000000000 
0.000000000000000 0.000000000000000 1.000000000000000 0.000000000000000 
2  36 1 37 -1 38 -1 39 1 1 -1 0
1
1.000000000000000 0.000000000000000 0.000000000000000 0.000000000000000 
0.000000000000000 1.000000000000000 0.000000000000000 0.000000000000000 
0.000000000000000 0.000000000000000 1.000000000000000 0.000000000000000 
1
1.000000000000000 0.000000000000000 0.000000000000000 0.000000000000000 
0.000000000000000 1.000000000000000 0.000000000000000 0.000000000000000 
0.000000000000000 0.000000000000000 1.000000000000000 0.000000000000000 
1
1.000000000000000 0.000000000000000 0.000000000000000 0.000000000000000 
0.000000000000000 1.000000000000000 0.000000000000000 0.000000000000000 
0.000000000000000 0.000000000000000 1.000000000000000 0.000000000000000 
1
1.000000000000000 0.000000000000000 0.000000000000000 0.000000000000000 
0.000000000000000 1.000000000000000 0.000000000000000 0.000000000000000 
0.000000000000000 0.000000000000000 1.000000000000000 0.000000000000000 
2  41 1 42 -1 43 -1 44 1 1 -1 0
1
1.000000000000000 0.000000000000000 0.000000000000000 0.000000000000000 
0.000000000000000 1.000000000000000 0.000000000000000 0.000000000000000 
0.000000000000000 0.000000000000000 1.000000000000000 0.000000000000000 
1
1.000000000000000 0.000000000000000 0.000000000000000 0.000000000000000 
0.000000000000000 1.000000000000000 0.000000000000000 0.000000000000000 
0.000000000000000 0.000000000000000 1.000000000000000 0.000000000000000 
2  46 1 47 -1 44 1 1 -1 0
1
1.000000000000000 0.000000000000000 0.000000000000000 0.000000000000000 
0.000000000000000 1.000000000000000 0.000000000000000 0.000000000000000 
0.000000000000000 0.000000000000000 1.000000000000000 0.000000000000000 
1
1.000000000000000 0.000000000000000 0.000000000000000 0.000000000000000 
0.000000000000000 1.000000000000000 0.000000000000000 0.000000000000000 
0.000000000000000 0.000000000000000 1.000000000000000 0.000000000000000 
2  49 1 50 -1 44 1 1 -1 0
1
1.000000000000000 0.000000000000000 0.000000000000000 0.000000000000000 
0.000000000000000 1.000000000000000 0.000000000000000 0.000000000000000 
0.000000000000000 0.000000000000000 1.000000000000000 0.000000000000000 
1
1.000000000000000 0.000000000000000 0.000000000000000 0.000000000000000 
0.000000000000000 1.000000000000000 0.000000000000000 0.000000000000000 
0.000000000000000 0.000000000000000 1.000000000000000 0.000000000000000 
1
1.000000000000000 0.000000000000000 0.000000000000000 0.000000000000000 
0.000000000000000 1.000000000000000 0.000000000000000 0.000000000000000 
0.000000000000000 0.000000000000000 1.000000000000000 0.000000000000000 
1
1.000000000000000 0.000000000000000 0.000000000000000 0.000000000000000 
0.000000000000000 1.000000000000000 0.000000000000000 0.000000000000000 
0.000000000000000 0.000000000000000 1.000000000000000 0.000000000000000 
2  52 1 53 -1 54 -1 55 1 1 -1 0
1
1.000000000000000 0.000000000000000 0.000000000000000 0.000000000000000 
0.000000000000000 1.000000000000000 0.000000000000000 0.000000000000000 
0.000000000000000 0.000000000000000 1.000000000000000 0.000000000000000 
1
1.000000000000000 0.000000000000000 0.000000000000000 0.000000000000000 
0.000000000000000 1.000000000000000 0.000000000000000 0.000000000000000 
0.000000000000000 0.000000000000000 1.000000000000000 0.000000000000000 
2  57 1 58 -1 54 -1 55 1 1 -1 0
1
1.000000000000000 0.000000000000000 0.000000000000000 0.000000000000000 
0.000000000000000 1.000000000000000 0.000000000000000 0.000000000000000 
0.000000000000000 0.000000000000000 1.000000000000000 0.000000000000000 
1
1.000000000000000 0.000000000000000 0.000000000000000 0.000000000000000 
0.000000000000000 1.000000000000000 0.000000000000000 0.000000000000000 
0.000000000000000 0.000000000000000 1.000000000000000 0.000000000000000 
1
1.000000000000000 0.000000000000000 0.000000000000000 0.000000000000000 
0.000000000000000 1.000000000000000 0.000000000000000 0.000000000000000 
0.000000000000000 0.000000000000000 1.000000000000000 0.000000000000000 
1
1.000000000000000 0.000000000000000 0.000000000000000 0.000000000000000 
0.000000000000000 1.000000000000000 0.000000000000000 0.000000000000000 
0.000000000000000 0.000000000000000 1.000000000000000 0.000000000000000 
2  60 1 61 -1 62 -1 63 1 1 -1 0
1
1.000000000000000 0.000000000000000 0.000000000000000 0.000000000000000 
0.000000000000000 1.000000000000000 0.000000000000000 0.000000000000000 
0.000000000000000 0.000000000000000 1.000000000000000 0.000000000000000 
1
1.000000000000000 0.000000000000000 0.000000000000000 0.000000000000000 
0.000000000000000 1.000000000000000 0.000000000000000 0.000000000000000 
0.000000000000000 0.000000000000000 1.000000000000000 0.000000000000000 
1
1.000000000000000 0.000000000000000 0.000000000000000 0.000000000000000 
0.000000000000000 1.000000000000000 0.000000000000000 0.000000000000000 
0.000000000000000 0.000000000000000 1.000000000000000 0.000000000000000 
2  65 1 66 -1 67 -1 44 1 1 -1 0
1
1.000000000000000 0.000000000000000 0.000000000000000 0.000000000000000 
0.000000000000000 1.000000000000000 0.000000000000000 0.000000000000000 
0.000000000000000 0.000000000000000 1.000000000000000 0.000000000000000 
1
1.000000000000000 0.000000000000000 0.000000000000000 0.000000000000000 
0.000000000000000 1.000000000000000 0.000000000000000 0.000000000000000 
0.000000000000000 0.000000000000000 1.000000000000000 0.000000000000000 
2  69 1 70 -1 67 -1 44 1 1 -1 0
2  4 -1 14 1 15 -1 4 1 3 -1 2 -1 0
2  4 -1 6 1 14 1 15 -1 6 -1 4 1 3 -1 2 -1 0
2  4 -1 17 1 18 -1 4 1 3 -1 2 -1 0
2  4 -1 6 1 17 1 18 -1 6 -1 4 1 3 -1 2 -1 0
2  4 -1 20 1 21 -1 4 1 3 -1 2 -1 0
2  4 -1 6 1 20 1 21 -1 6 -1 4 1 3 -1 2 -1 0
1
1.000000000000000 0.000000000000000 0.000000000000000 0.000000000000000 
0.000000000000000 1.000000000000000 0.000000000000000 0.000000000000000 
0.000000000000000 0.000000000000000 1.000000000000000 0.000000000000000 
1
1.000000000000000 0.000000000000000 0.000000000000000 -0.000000000000000 
0.000000000000000 1.000000000000000 0.000000000000000 -0.000000000000000 
0.000000000000000 0.000000000000000 1.000000000000000 -10.000000000000000 
2  78 -1 79 1 52 1 53 -1 54 -1 55 1 1 -1 6 -1 4 1 3 -1 2 -1 0
2  78 -1 79 1 57 1 58 -1 54 -1 55 1 1 -1 6 -1 4 1 3 -1 2 -1 0
2  78 -1 79 1 60 1 61 -1 62 -1 63 1 1 -1 6 -1 4 1 3 -1 2 -1 0
2  78 -1 79 1 23 1 24 -1 25 -1 26 1 1 -1 6 -1 4 1 3 -1 2 -1 0
2  78 -1 79 1 28 1 29 -1 30 -1 26 1 1 -1 6 -1 4 1 3 -1 2 -1 0
2  78 -1 32 1 33 -1 34 -1 26 1 1 -1 4 1 3 -1 2 -1 0
2  78 -1 79 1 32 1 33 -1 34 -1 26 1 1 -1 6 -1 4 1 3 -1 2 -1 0
2  78 -1 36 1 37 -1 38 -1 39 1 1 -1 4 1 3 -1 2 -1 0
2  78 -1 79 1 36 1 37 -1 38 -1 39 1 1 -1 6 -1 4 1 3 -1 2 -1 0
2  78 -1 41 1 42 -1 43 -1 44 1 1 -1 4 1 3 -1 2 -1 0
2  78 -1 79 1 41 1 42 -1 43 -1 44 1 1 -1 6 -1 4 1 3 -1 2 -1 0
2  78 -1 46 1 47 -1 44 1 1 -1 4 1 3 -1 2 -1 0
2  78 -1 79 1 46 1 47 -1 44 1 1 -1 6 -1 4 1 3 -1 2 -1 0
2  78 -1 49 1 50 -1 44 1 1 -1 4 1 3 -1 2 -1 0
2  78 -1 79 1 49 1 50 -1 44 1 1 -1 6 -1 4 1 3 -1 2 -1 0
2  4 -1 11 1 12 -1 4 1 3 -1 2 -1 0
2  4 -1 6 1 11 1 12 -1 6 -1 4 1 3 -1 2 -1 0
2  4 -1 0
2  2 1 3 1 0
2  4 -1 6 1 0
Curve2ds 98
1 0.00000000000000000 0.00000000000000000 0.00000000000000000 -1.00000000000000000 
1 6.28318530717958623 0.00000000000000000 0.00000000000000000 -1.00000000000000000 
1 0.00000000000000000 0.00000000000000000 1.00000000000000000 0.00000000000000000 
1 0.00000000000000000 -10.00000000000000000 1.00000000000000000 0.00000000000000000 
2 0.00000000000000000 -0.00000000000000017 1.00000000000000000 0.00000000000000000 -0.00000000000000000 1.00000000000000000 2.50000000000000000
1 0.00000000000000000 0.00000000000000000 0.00000000000000000 -1.00000000000000000 
1 0.00000000000000000 0.00000000000000000 0.00000000000000000 -1.00000000000000000 
1 15.92052595301114870 0.00000000000000000 0.00000000000000000 -1.00000000000000000 
1 5.59999999999999787 0.00000000000000000 0.00000000000000000 -1.00000000000000000 
1 11.90000000000000036 -21.99999961443941388 1.00000000000000000 0.00000000000000000 
1 0.00000000000000000 0.00000000000000000 1.00000000000000000 0.00000000000000000 
1 0.00000000000000000 -10.00000000000000000 1.00000000000000000 0.00000000000000000 
1 4.63032970417439937 0.00000000000000000 0.00000000000000000 -1.00000000000000000 
1 0.00000000000000000 0.00000000000000000 0.00000000000000000 -1.00000000000000000 
1 1.65285560300518708 0.00000000000000000 0.00000000000000000 -1.00000000000000000 
1 17.50000000000000000 -6.07947366142826517 0.00000000000000000 -1.00000000000000000 
1 0.00000000000000000 0.00000000000000000 1.00000000000000000 0.00000000000000000 
1 0.00000000000000000 -10.00000000000000000 1.00000000000000000 0.00000000000000000 
1 1.57056855002190443 0.00000000000000000 0.00000000000000000 -1.00000000000000000 
1 6.40000008101933560 0.00000000000000000 0.00000000000000000 -1.00000000000000000 
1 1.57102410356788869 0.00000000000000000 0.00000000000000000 -1.00000000000000000 
1 1.57102410356788869 0.00000000000000000 0.00000000000000000 -1.00000000000000000 
1 1.57102410356788869 0.00000000000000000 0.00000000000000000 -1.00000000000000000 
1 1.57102410356788869 0.00000000000000000 0.00000000000000000 -1.00000000000000000 
1 1.57102410356788869 0.00000000000000000 0.00000000000000000 -1.00000000000000000 
1 1.57102410356788869 0.00000000000000000 0.00000000000000000 -1.00000000000000000 
1 1.57102410356788869 0.00000000000000000 0.00000000000000000 -1.00000000000000000 
1 1.57102410356788869 0.00000000000000000 0.00000000000000000 -1.00000000000000000 
1 1.57102410356788869 0.00000000000000000 0.00000000000000000 -1.00000000000000000 
1 1.57102410356788869 0.00000000000000000 0.00000000000000000 -1.00000000000000000 
1 0.00000000000000000 0.00000000000000000 1.00000000000000000 0.00000000000000000 
1 0.00000000000000000 -10.00000000000000000 1.00000000000000000 0.00000000000000000 
2 18.00000000000000000 -0.00000000000000038 1.00000000000000000 0.00000000000000000 -0.00000000000000000 1.00000000000000000 6.09999999999999964
1 1.57068517080475800 0.00000000000000000 0.00000000000000000 -1.00000000000000000 
1 0.00000000000000000 0.00000000000000000 0.00000000000000000 -1.00000000000000000 
1 1.57090543668515625 0.00000000000000000 0.00000000000000000 -1.00000000000000000 
1 1.57090543668515625 0.00000000000000000 0.00000000000000000 -1.00000000000000000 
1 1.57090543668515625 0.00000000000000000 0.00000000000000000 -1.00000000000000000 
1 1.57090543668515625 0.00000000000000000 0.00000000000000000 -1.00000000000000000 
1 1.57090543668515625 0.00000000000000000 0.00000000000000000 -1.00000000000000000 
1 1.57090543668515625 0.00000000000000000 0.00000000000000000 -1.00000000000000000 
1 1.57090543668515625 0.00000000000000000 0.00000000000000000 -1.00000000000000000 
1 1.57090543668515625 0.00000000000000000 0.00000000000000000 -1.00000000000000000 
1 1.57090543668515625 0.00000000000000000 0.00000000000000000 -1.00000000000000000 
1 1.57090543668515625 0.00000000000000000 0.00000000000000000 -1.00000000000000000 
1 1.57090543668515625 0.00000000000000000 0.00000000000000000 -1.00000000000000000 
1 1.57090543668515625 0.00000000000000000 0.00000000000000000 -1.00000000000000000 
1 1.57090543668515625 0.00000000000000000 0.00000000000000000 -1.00000000000000000 
1 18.00138943830323868 12.49999992277844818 0.00000000000000000 -1.00000000000000000 
1 0.00000000000000000 0.00000000000000000 1.00000000000000000 0.00000000000000000 
1 0.00000000000000000 -10.00000000000000000 1.00000000000000000 0.00000000000000000 
1 17.99861056169676132 12.49999992277844818 0.00000000000000000 -1.00000000000000000 
1 17.99861056169676132 12.49999992277844818 0.00000000000000000 -1.00000000000000000 
1 17.99861056169676132 12.49999992277844818 0.00000000000000000 -1.00000000000000000 
1 17.99861056169676132 12.49999992277844818 0.00000000000000000 -1.00000000000000000 
1 17.99861056169676132 12.49999992277844818 0.00000000000000000 -1.00000000000000000 
1 17.99861056169676132 12.49999992277844818 0.00000000000000000 -1.00000000000000000 
1 17.99861056169676132 12.49999992277844818 0.00000000000000000 -1.00000000000000000 
1 17.99861056169676132 12.49999992277844818 0.00000000000000000 -1.00000000000000000 
1 17.99861056169676132 12.49999992277844818 0.00000000000000000 -1.00000000000000000 
1 17.99861056169676132 12.49999992277844818 0.00000000000000000 -1.00000000000000000 
1 17.99861056169676132 12.49999992277844818 0.00000000000000000 -1.00000000000000000 
1 17.99861056169676132 12.49999992277844818 0.00000000000000000 -1.00000000000000000 
1 17.99861056169676132 12.49999992277844818 0.00000000000000000 -1.00000000000000000 
1 17.99861056169676132 12.49999992277844818 0.00000000000000000 -1.00000000000000000 
1 17.99861056169676132 12.49999992277844818 0.00000000000000000 -1.00000000000000000 
1 17.99861056169676132 12.49999992277844818 0.00000000000000000 -1.00000000000000000 
1 17.99861056169676132 12.49999992277844818 0.00000000000000000 -1.00000000000000000 
1 17.99861056169676132 12.49999992277844818 0.00000000000000000 -1.00000000000000000 
1 17.99861056169676132 12.49999992277844818 0.00000000000000000 -1.00000000000000000 
1 17.99861056169676132 12.49999992277844818 0.00000000000000000 -1.00000000000000000 
1 17.99861056169676132 12.49999992277844818 0.00000000000000000 -1.00000000000000000 
1 1.88017240676783359 0.00000000000000000 0.00000000000000000 -1.00000000000000000 
1 17.39614728423559598 0.00000000000000000 0.00000000000000000 -1.00000000000000000 
1 0.00000000000000000 0.00000000000000000 1.00000000000000000 0.00000000000000000 
1 0.00000000000000000 -10.00000000000000000 1.00000000000000000 0.00000000000000000 
2 17.99998709319136481 -0.11601028367996444 1.00000000000000000 0.00000000000000000 -0.00000000000000000 1.00000000000000000 12.61601028439794092
1 1.91747618025950084 0.00000000000000000 0.00000000000000000 -1.00000000000000000 
1 0.00000000000000000 0.00000000000000000 0.00000000000000000 -1.00000000000000000 
1 4.36570912692008850 0.00000000000000000 0.00000000000000000 -1.00000000000000000 
1 -2.54832801138006104 7.05379503150011544 0.96039593516328858 0.27863891996961321 
1 0.00000000000000000 0.00000000000000000 1.00000000000000000 0.00000000000000000 
1 0.00000000000000000 -10.00000000000000000 1.00000000000000000 0.00000000000000000 
1 -2.54832801138006104 -7.05379503150011544 0.96039593516328858 -0.27863891996961321 
1 -2.54832801138006104 -7.05379503150011544 0.96039593516328858 -0.27863891996961321 
1 4.36679896572048332 0.00000000000000000 0.00000000000000000 -1.00000000000000000 
1 15.03549370005715957 0.00000000000000000 0.00000000000000000 -1.00000000000000000 
1 0.00000000000000000 0.00000000000000000 1.00000000000000000 0.00000000000000000 
1 0.00000000000000000 -10.00000000000000000 1.00000000000000000 0.00000000000000000 
2 0.00000000000000355 0.00000000000003637 1.00000000000000000 0.00000000000000000 -0.00000000000000000 1.00000000000000000 7.49999999999996447
1 0.00000000000000000 0.00000000000000000 0.00000000000000000 -1.00000000000000000 
1 10.74971377259879013 0.00000000000000000 0.00000000000000000 -1.00000000000000000 
1 11.89815600000000018 -11.25028599999999912 -0.96031399354350544 0.27892119640594609 
1 0.00000000000000000 0.00000000000000000 1.00000000000000000 0.00000000000000000 
1 0.00000000000000000 -10.00000000000000000 1.00000000000000000 0.00000000000000000 
1 11.90000000000000036 -21.99999961443941388 -0.00017153945109688 0.99999998528710832 
1 0.00000000000000000 0.00000000000000000 1.00000000000000000 0.00000000000000000 
1 0.00000000000000000 -10.00000000000000000 1.00000000000000000 0.00000000000000000 
Curves 20
1 -15.50000000000000000 0.00000000000000000 0.00000000000000000 -0.00000000000000000 -0.00000000000000000 -1.00000000000000000 
2 -18.00000000000000000 0.00000000000000000 0.00000000000000000 0.00000000000000000 0.00000000000000000 1.00000000000000000 1.00000000000000000 0.00000000000000000 -0.00000000000000000 -0.00000000000000000 1.00000000000000000 0.00000000000000000 2.50000000000000000
1 -6.09999999999999964 -21.99999961443941388 0.00000000000000000 -0.00000000000000000 -0.00000000000000000 -1.00000000000000000 
1 -0.50000000000000167 -21.99999961443941388 0.00000000000000000 -0.00000000000000000 -0.00000000000000000 -1.00000000000000000 
1 -6.09999999999999964 -21.99999961443941388 0.00000000000000000 1.00000000000000000 0.00000000000000000 0.00000000000000000 
1 -0.50000000000000155 -6.07947366142826517 0.00000000000000000 -0.00000000000000000 -0.00000000000000000 -1.00000000000000000 
1 -0.50000000000000155 -6.07947366142826517 0.00000000000000000 0.00000000000000000 -1.00000000000000000 0.00000000000000000 
1 0.00138943830323767 6.09999984175911258 0.00000000000000000 -0.00000000000000000 -0.00000000000000000 -1.00000000000000000 
2 -0.00000000000000015 -0.00000000000000021 0.00000000000000000 0.00000000000000000 0.00000000000000000 1.00000000000000000 1.00000000000000000 0.00000000000000000 -0.00000000000000000 -0.00000000000000000 1.00000000000000000 0.00000000000000000 6.09999999999999964
1 0.00138943830323804 12.49999992277844818 0.00000000000000000 -0.00000000000000000 -0.00000000000000000 -1.00000000000000000 
1 0.00138943830323767 12.49999992277844818 0.00000000000000000 0.00000000000000000 -1.00000000000000000 0.00000000000000000 
1 -3.84113887209831262 11.90103872241184213 0.00000000000000000 -0.00000000000000000 -0.00000000000000000 -1.00000000000000000 
2 -0.00001290680863501 -0.11601028367996427 0.00000000000000000 0.00000000000000000 0.00000000000000000 1.00000000000000000 1.00000000000000000 0.00000000000000000 -0.00000000000000000 -0.00000000000000000 1.00000000000000000 0.00000000000000000 12.61601028439794092
1 -20.54832801138006104 7.05379503150011544 0.00000000000000000 -0.00000000000000000 -0.00000000000000000 -1.00000000000000000 
1 -20.54832801138006104 7.05379503150011544 0.00000000000000000 0.96039593516328858 0.27863891996961321 0.00000000000000000 
1 -20.54063900000010534 -7.05656810862599126 0.00000000000000000 -0.00000000000000000 -0.00000000000000000 -1.00000000000000000 
2 -17.99999999999999645 0.00000000000003654 0.00000000000000000 0.00000000000000000 0.00000000000000000 1.00000000000000000 1.00000000000000000 0.00000000000000000 -0.00000000000000000 -0.00000000000000000 1.00000000000000000 0.00000000000000000 7.49999999999996447
1 -6.10184399999999982 -11.25028599999999912 0.00000000000000000 -0.00000000000000000 -0.00000000000000000 -1.00000000000000000 
1 -6.10184399999999982 -11.25028599999999912 0.00000000000000000 -0.96031399354350544 0.27892119640594609 0.00000000000000000 
1 -6.09999999999999964 -21.99999961443941388 0.00000000000000000 -0.00017153945109688 0.99999998528710832 0.00000000000000000 
Polygon3D 0
PolygonOnTriangulations 0
Surfaces 59
2 -18.00000000000000000 0.00000000000000000 0.00000000000000000 0.00000000000000000 0.00000000000000000 1.00000000000000000 1.00000000000000000 0.00000000000000000 -0.00000000000000000 -0.00000000000000000 1.00000000000000000 0.00000000000000000 2.50000000000000000
1 -18.00000000000000000 0.00000000000000017 0.00000000000000000 0.00000000000000000 0.00000000000000000 1.00000000000000000 1.00000000000000000 0.00000000000000000 -0.00000000000000000 -0.00000000000000000 1.00000000000000000 0.00000000000000000 
1 -6.09999999999999964 -21.99999961443941388 0.00000000000000000 0.00000000000000000 -1.00000000000000000 0.00000000000000000 1.00000000000000000 0.00000000000000000 0.00000000000000000 -0.00000000000000000 0.00000000000000000 1.00000000000000000 
1 -6.09999999999999964 -21.99999961443941388 0.00000000000000000 0.99999998528710832 0.00017153945109688 -0.00000000000000000 -0.00017153945109688 0.99999998528710832 0.00000000000000000 0.00000000000000000 0.00000000000000000 1.00000000000000000 
1 -0.50000000000000155 -6.07947366142826517 0.00000000000000000 -1.00000000000000000 0.00000000000000000 0.00000000000000000 0.00000000000000000 -1.00000000000000000 0.00000000000000000 0.00000000000000000 0.00000000000000000 1.00000000000000000 
2 -0.00000000000000015 -0.00000000000000021 0.00000000000000000 0.00000000000000000 0.00000000000000000 1.00000000000000000 1.00000000000000000 0.00000000000000000 -0.00000000000000000 -0.00000000000000000 1.00000000000000000 0.00000000000000000 6.09999999999999964
2 -0.00000000000000015 0.00000000000000021 0.00000000000000000 -0.00000000000000000 -0.00000000000000000 1.00000000000000000 1.00000000000000000 0.00000000000000000 0.00000000000000000 0.00000000000000000 -1.00000000000000000 -0.00000000000000000 6.09999999999999964
1 0.00138943830323767 12.49999992277844818 0.00000000000000000 -1.00000000000000000 0.00000000000000000 0.00000000000000000 0.00000000000000000 -1.00000000000000000 0.00000000000000000 0.00000000000000000 0.00000000000000000 1.00000000000000000 
2 0.00000000000000015 -0.00000000000000021 0.00000000000000000 -0.00000000000000000 -0.00000000000000000 1.00000000000000000 -1.00000000000000000 0.00000000000000000 0.00000000000000000 0.00000000000000000 1.00000000000000000 0.00000000000000000 6.09999999999999964
2 0.00000000000000015 -0.00000000000000021 0.00000000000000000 -0.00000000000000000 -0.00000000000000000 1.00000000000000000 -1.00000000000000000 0.00000000000000000 0.00000000000000000 0.00000000000000000 1.00000000000000000 0.00000000000000000 6.09999999999999964
2 0.00000000000000015 -0.00000000000000021 0.00000000000000000 -0.00000000000000000 -0.00000000000000000 1.00000000000000000 -1.00000000000000000 0.00000000000000000 0.00000000000000000 0.00000000000000000 1.00000000000000000 0.00000000000000000 6.09999999999999964
2 0.00000000000000015 -0.00000000000000021 0.00000000000000000 -0.00000000000000000 -0.00000000000000000 1.00000000000000000 -1.00000000000000000 0.00000000000000000 0.00000000000000000 0.00000000000000000 1.00000000000000000 0.00000000000000000 6.09999999999999964
2 0.00000000000000015 -0.00000000000000021 0.00000000000000000 -0.00000000000000000 -0.00000000000000000 1.00000000000000000 -1.00000000000000000 0.00000000000000000 0.00000000000000000 0.00000000000000000 1.00000000000000000 0.00000000000000000 6.09999999999999964
2 0.00000000000000015 -0.00000000000000021 0.00000000000000000 -0.00000000000000000 -0.00000000000000000 1.00000000000000000 -1.00000000000000000 0.00000000000000000 0.00000000000000000 0.00000000000000000 1.00000000000000000 0.00000000000000000 6.09999999999999964
2 0.00000000000000015 -0.00000000000000021 0.00000000000000000 -0.00000000000000000 -0.00000000000000000 1.00000000000000000 -1.00000000000000000 0.00000000000000000 0.00000000000000000 0.00000000000000000 1.00000000000000000 0.00000000000000000 6.09999999999999964
2 0.00000000000000015 -0.00000000000000021 0.00000000000000000 -0.00000000000000000 -0.00000000000000000 1.00000000000000000 -1.00000000000000000 0.00000000000000000 0.00000000000000000 0.00000000000000000 1.00000000000000000 0.00000000000000000 6.09999999999999964
2 0.00000000000000015 -0.00000000000000021 0.00000000000000000 -0.00000000000000000 -0.00000000000000000 1.00000000000000000 -1.00000000000000000 0.00000000000000000 0.00000000000000000 0.00000000000000000 1.00000000000000000 0.00000000000000000 6.09999999999999964
2 0.00000000000000015 -0.00000000000000021 0.00000000000000000 -0.00000000000000000 -0.00000000000000000 1.00000000000000000 -1.00000000000000000 0.00000000000000000 0.00000000000000000 0.00000000000000000 1.00000000000000000 0.00000000000000000 6.09999999999999964
2 -0.00001290680863501 -0.11601028367996427 0.00000000000000000 0.00000000000000000 0.00000000000000000 1.00000000000000000 1.00000000000000000 0.00000000000000000 -0.00000000000000000 -0.00000000000000000 1.00000000000000000 0.00000000000000000 12.61601028439794092
2 0.00001290680863501 -0.11601028367996427 0.00000000000000000 -0.00000000000000000 -0.00000000000000000 1.00000000000000000 -1.00000000000000000 0.00000000000000000 0.00000000000000000 0.00000000000000000 1.00000000000000000 0.00000000000000000 12.61601028439794092
2 0.00001290680863501 -0.11601028367996427 0.00000000000000000 -0.00000000000000000 -0.00000000000000000 1.00000000000000000 -1.00000000000000000 0.00000000000000000 0.00000000000000000 0.00000000000000000 1.00000000000000000 0.00000000000000000 12.61601028439794092
2 0.00001290680863501 -0.11601028367996427 0.00000000000000000 -0.00000000000000000 -0.00000000000000000 1.00000000000000000 -1.00000000000000000 0.00000000000000000 0.00000000000000000 0.00000000000000000 1.00000000000000000 0.00000000000000000 12.61601028439794092
2 0.00001290680863501 -0.11601028367996427 0.00000000000000000 -0.00000000000000000 -0.00000000000000000 1.00000000000000000 -1.00000000000000000 0.00000000000000000 0.00000000000000000 0.00000000000000000 1.00000000000000000 0.00000000000000000 12.61601028439794092
2 0.00001290680863501 -0.11601028367996427 0.00000000000000000 -0.00000000000000000 -0.00000000000000000 1.00000000000000000 -1.00000000000000000 0.00000000000000000 0.00000000000000000 0.00000000000000000 1.00000000000000000 0.00000000000000000 12.61601028439794092
2 0.00001290680863501 -0.11601028367996427 0.00000000000000000 -0.00000000000000000 -0.00000000000000000 1.00000000000000000 -1.00000000000000000 0.00000000000000000 0.00000000000000000 0.00000000000000000 1.00000000000000000 0.00000000000000000 12.61601028439794092
2 0.00001290680863501 -0.11601028367996427 0.00000000000000000 -0.00000000000000000 -0.00000000000000000 1.00000000000000000 -1.00000000000000000 0.00000000000000000 0.00000000000000000 0.00000000000000000 1.00000000000000000 0.00000000000000000 12.61601028439794092
2 0.00001290680863501 -0.11601028367996427 0.00000000000000000 -0.00000000000000000 -0.00000000000000000 1.00000000000000000 -1.00000000000000000 0.00000000000000000 0.00000000000000000 0.00000000000000000 1.00000000000000000 0.00000000000000000 12.61601028439794092
2 0.00001290680863501 -0.11601028367996427 0.00000000000000000 -0.00000000000000000 -0.00000000000000000 1.00000000000000000 -1.00000000000000000 0.00000000000000000 0.00000000000000000 0.00000000000000000 1.00000000000000000 0.00000000000000000 12.61601028439794092
2 0.00001290680863501 -0.11601028367996427 0.00000000000000000 -0.00000000000000000 -0.00000000000000000 1.00000000000000000 -1.00000000000000000 0.00000000000000000 0.00000000000000000 0.00000000000000000 1.00000000000000000 0.00000000000000000 12.61601028439794092
2 0.00001290680863501 -0.11601028367996427 0.00000000000000000 -0.00000000000000000 -0.00000000000000000 1.00000000000000000 -1.00000000000000000 0.00000000000000000 0.00000000000000000 0.00000000000000000 1.00000000000000000 0.00000000000000000 12.61601028439794092
2 0.00001290680863501 -0.11601028367996427 0.00000000000000000 -0.00000000000000000 -0.00000000000000000 1.00000000000000000 -1.00000000000000000 0.00000000000000000 0.00000000000000000 0.00000000000000000 1.00000000000000000 0.00000000000000000 12.61601028439794092
2 0.00001290680863501 -0.11601028367996427 0.00000000000000000 -0.00000000000000000 -0.00000000000000000 1.00000000000000000 -1.00000000000000000 0.00000000000000000 0.00000000000000000 0.00000000000000000 1.00000000000000000 0.00000000000000000 12.61601028439794092
1 18.00000000000000000 0.00000000000000017 0.00000000000000000 -0.00000000000000000 -0.00000000000000000 1.00000000000000000 -1.00000000000000000 0.00000000000000000 0.00000000000000000 0.00000000000000000 1.00000000000000000 0.00000000000000000 
1 18.00000000000000000 0.00000000000000017 0.00000000000000000 -0.00000000000000000 -0.00000000000000000 1.00000000000000000 -1.00000000000000000 0.00000000000000000 0.00000000000000000 0.00000000000000000 1.00000000000000000 0.00000000000000000 
1 18.00000000000000000 0.00000000000000017 0.00000000000000000 -0.00000000000000000 -0.00000000000000000 1.00000000000000000 -1.00000000000000000 0.00000000000000000 0.00000000000000000 0.00000000000000000 1.00000000000000000 0.00000000000000000 
1 18.00000000000000000 0.00000000000000017 0.00000000000000000 -0.00000000000000000 -0.00000000000000000 1.00000000000000000 -1.00000000000000000 0.00000000000000000 0.00000000000000000 0.00000000000000000 1.00000000000000000 0.00000000000000000 
1 18.00000000000000000 0.00000000000000017 0.00000000000000000 -0.00000000000000000 -0.00000000000000000 1.00000000000000000 -1.00000000000000000 0.00000000000000000 0.00000000000000000 0.00000000000000000 1.00000000000000000 0.00000000000000000 
1 18.00000000000000000 0.00000000000000017 0.00000000000000000 -0.00000000000000000 -0.00000000000000000 1.00000000000000000 -1.00000000000000000 0.00000000000000000 0.00000000000000000 0.00000000000000000 1.00000000000000000 0.00000000000000000 
1 18.00000000000000000 0.00000000000000017 0.00000000000000000 -0.00000000000000000 -0.00000000000000000 1.00000000000000000 -1.00000000000000000 0.00000000000000000 0.00000000000000000 0.00000000000000000 1.00000000000000000 0.00000000000000000 
1 18.00000000000000000 0.00000000000000017 0.00000000000000000 -0.00000000000000000 -0.00000000000000000 1.00000000000000000 -1.00000000000000000 0.00000000000000000 0.00000000000000000 0.00000000000000000 1.00000000000000000 0.00000000000000000 
1 18.00000000000000000 0.00000000000000017 0.00000000000000000 -0.00000000000000000 -0.00000000000000000 1.00000000000000000 -1.00000000000000000 0.00000000000000000 0.00000000000000000 0.00000000000000000 1.00000000000000000 0.00000000000000000 
1 18.00000000000000000 0.00000000000000017 0.00000000000000000 -0.00000000000000000 -0.00000000000000000 1.00000000000000000 -1.00000000000000000 0.00000000000000000 0.00000000000000000 0.00000000000000000 1.00000000000000000 0.00000000000000000 
1 18.00000000000000000 0.00000000000000017 0.00000000000000000 -0.00000000000000000 -0.00000000000000000 1.00000000000000000 -1.00000000000000000 0.00000000000000000 0.00000000000000000 0.00000000000000000 1.00000000000000000 0.00000000000000000 
1 18.00000000000000000 0.00000000000000017 0.00000000000000000 -0.00000000000000000 -0.00000000000000000 1.00000000000000000 -1.00000000000000000 0.00000000000000000 0.00000000000000000 0.00000000000000000 1.00000000000000000 0.00000000000000000 
1 18.00000000000000000 0.00000000000000017 0.00000000000000000 -0.00000000000000000 -0.00000000000000000 1.00000000000000000 -1.00000000000000000 0.00000000000000000 0.00000000000000000 0.00000000000000000 1.00000000000000000 0.00000000000000000 
1 18.00000000000000000 0.00000000000000017 0.00000000000000000 -0.00000000000000000 -0.00000000000000000 1.00000000000000000 -1.00000000000000000 0.00000000000000000 0.00000000000000000 0.00000000000000000 1.00000000000000000 0.00000000000000000 
1 18.00000000000000000 0.00000000000000017 0.00000000000000000 -0.00000000000000000 -0.00000000000000000 1.00000000000000000 -1.00000000000000000 0.00000000000000000 0.00000000000000000 0.00000000000000000 1.00000000000000000 0.00000000000000000 
1 18.00000000000000000 0.00000000000000017 0.00000000000000000 -0.00000000000000000 -0.00000000000000000 1.00000000000000000 -1.00000000000000000 0.00000000000000000 0.00000000000000000 0.00000000000000000 1.00000000000000000 0.00000000000000000 
1 18.00000000000000000 0.00000000000000017 0.00000000000000000 -0.00000000000000000 -0.00000000000000000 1.00000000000000000 -1.00000000000000000 0.00000000000000000 0.00000000000000000 0.00000000000000000 1.00000000000000000 0.00000000000000000 
1 18.00000000000000000 0.00000000000000017 0.00000000000000000 -0.00000000000000000 -0.00000000000000000 1.00000000000000000 -1.00000000000000000 0.00000000000000000 0.00000000000000000 0.00000000000000000 1.00000000000000000 0.00000000000000000 
1 18.00000000000000000 0.00000000000000017 0.00000000000000000 -0.00000000000000000 -0.00000000000000000 1.00000000000000000 -1.00000000000000000 0.00000000000000000 0.00000000000000000 0.00000000000000000 1.00000000000000000 0.00000000000000000 
1 18.00000000000000000 0.00000000000000017 0.00000000000000000 -0.00000000000000000 -0.00000000000000000 1.00000000000000000 -1.00000000000000000 0.00000000000000000 0.00000000000000000 0.00000000000000000 1.00000000000000000 0.00000000000000000 
1 18.00000000000000000 0.00000000000000017 0.00000000000000000 -0.00000000000000000 -0.00000000000000000 1.00000000000000000 -1.00000000000000000 0.00000000000000000 0.00000000000000000 0.00000000000000000 1.00000000000000000 0.00000000000000000 
1 -20.54832801138006104 7.05379503150011544 0.00000000000000000 0.27863891996961321 -0.96039593516328858 0.00000000000000000 0.96039593516328858 0.27863891996961321 0.00000000000000000 -0.00000000000000000 0.00000000000000000 1.00000000000000000 
2 -17.99999999999999645 0.00000000000003654 0.00000000000000000 0.00000000000000000 0.00000000000000000 1.00000000000000000 1.00000000000000000 0.00000000000000000 -0.00000000000000000 -0.00000000000000000 1.00000000000000000 0.00000000000000000 7.49999999999996447
2 -17.99999999999999645 -0.00000000000003654 0.00000000000000000 -0.00000000000000000 -0.00000000000000000 1.00000000000000000 1.00000000000000000 0.00000000000000000 0.00000000000000000 0.00000000000000000 -1.00000000000000000 -0.00000000000000000 7.49999999999996447
1 -18.00000000000000000 -0.00000000000000017 0.00000000000000000 -0.00000000000000000 -0.00000000000000000 1.00000000000000000 1.00000000000000000 0.00000000000000000 0.00000000000000000 0.00000000000000000 -1.00000000000000000 -0.00000000000000000 
1 -18.00000000000000000 -0.00000000000000017 0.00000000000000000 -0.00000000000000000 -0.00000000000000000 1.00000000000000000 1.00000000000000000 0.00000000000000000 0.00000000000000000 0.00000000000000000 -1.00000000000000000 -0.00000000000000000 
1 -6.10184399999999982 -11.25028599999999912 0.00000000000000000 0.27892119640594609 0.96031399354350544 -0.00000000000000000 -0.96031399354350544 0.27892119640594609 0.00000000000000000 0.00000000000000000 0.00000000000000000 1.00000000000000000 
Triangulations 0

TShapes 55
Ve
0.000000100000000
-15.500000000000000 0.000000000000000 0.000000000000000
0 0

0101101
*
Ed
 0.000000100000000 1 1 0
1  1 0 0.000000000000000 10.000000000000000
3  1 2CN 1 0 0.000000000000000 10.000000000000000
0

0101000
+55 5 -55 7 *
Ed
 0.000000100000000 1 1 0
1  2 0 0.000000000000000 6.283185307179586
2  3 1 8 0.000000000000000 6.283185307179586
2  4 1 9 0.000000000000000 6.283185307179586
2  5 2 10 0.000000000000000 6.283185307179586
0

0101000
+55 0 -55 0 *
Wi

0101100
+54 0 -54 0 -53 5 +53 7 *
Fa
0  0.000000100000000 1 0

0111000
+52 0 *
Ve
0.000000100000000
-6.100000000000000 -21.999999614439414 0.000000000000000
0 0

0101101
*
Ed
 0.000000100000000 1 1 0
1  3 0 0.000000000000000 10.000000000000000
2  6 4 0 0.000000000000000 10.000000000000000
2  7 3 0 0.000000000000000 10.000000000000000
0

0101000
+50 5 -50 7 *
Ve
0.000000100000000
-0.500000000000002 -21.999999614439414 0.000000000000000
0 0

0101101
*
Ed
 0.000000100000000 1 1 0
1  4 0 0.000000000000000 10.000000000000000
2  8 5 0 0.000000000000000 10.000000000000000
2  9 3 0 0.000000000000000 10.000000000000000
0

0101000
+48 5 -48 7 *
Ed
 0.000000100000000 1 1 0
1  5 0 0.000000000000000 5.599999999999998
2  10 2 10 0.000000000000000 5.599999999999998
2  11 3 8 0.000000000000000 5.599999999999998
2  12 3 9 0.000000000000000 5.599999999999998
0

0101000
+50 0 -48 0 *
Wi

0101100
+49 0 -47 0 -46 5 +46 7 *
Fa
0  0.000000100000000 3 0

0111000
+45 0 *
Ve
0.000000100000003
-0.500000000000002 -6.079473661428265 0.000000000000000
0 0

0101101
*
Ed
 0.000000100000000 1 1 0
1  6 0 0.000000000000000 10.000000000000000
2  13 6 0 0.000000000000000 10.000000000000000
2  14 5 0 0.000000000000000 10.000000000000000
2  15 7 13 0.000000000000000 10.000000000000000
0

0101000
+43 5 -43 7 *
Ed
 0.000000100000000 1 1 0
1  7 0 0.000000000000000 15.920525953011149
2  16 2 10 0.000000000000000 15.920525953011149
2  17 5 8 0.000000000000000 15.920525953011149
2  18 5 9 0.000000000000000 15.920525953011149
0

0101000
+43 0 -48 0 *
Wi

0101100
+42 0 -47 0 -41 5 +41 7 *
Fa
0  0.000000100000000 5 0

0111000
+40 0 *
Ve
0.000000100000001
0.001389438303238 6.099999841759113 0.000000000000000
0 0

0101101
*
Ed
 0.000000100000000 1 1 0
1  8 0 0.000000000000000 10.000000000000000
2  19 6 0 0.000000000000000 10.000000000000000
2  20 8 0 0.000000000000000 10.000000000000000
2  21 9 16 0.000000000000000 10.000000000000000
2  22 10 19 0.000000000000000 10.000000000000000
2  23 11 22 0.000000000000000 10.000000000000000
2  24 12 27 0.000000000000000 10.000000000000000
2  25 13 31 0.000000000000000 10.000000000000000
2  26 14 35 0.000000000000000 10.000000000000000
2  27 15 40 0.000000000000000 10.000000000000000
2  28 16 45 0.000000000000000 10.000000000000000
2  29 17 48 0.000000000000000 10.000000000000000
2  30 18 51 0.000000000000000 10.000000000000000
0

0101000
+38 5 -38 7 *
Ed
 0.000000100000000 1 1 0
1  9 0 1.570568550021904 4.630329704174399
2  31 6 8 1.570568550021904 4.630329704174399
2  32 6 9 1.570568550021904 4.630329704174399
2  33 2 10 1.570568550021904 4.630329704174399
0

0101000
+38 0 -43 0 *
Wi

0101100
+37 0 -42 0 -36 5 +36 7 *
Fa
0  0.000000100000000 6 0

0111000
+35 0 *
Ve
0.000000102842928
0.001389438303238 12.499999922778448 0.000000000000000
0 0

0101101
*
Ed
 0.000000102842928 1 1 0
1  10 0 0.000000000000000 10.000000000000000
2  34 19 0 0.000000000000000 10.000000000000000
2  35 8 0 0.000000000000000 10.000000000000000
2  36 20 16 0.000000000000000 10.000000000000000
2  37 21 19 0.000000000000000 10.000000000000000
2  38 22 22 0.000000000000000 10.000000000000000
2  39 23 56 0.000000000000000 10.000000000000000
2  40 24 59 0.000000000000000 10.000000000000000
2  41 25 64 0.000000000000000 10.000000000000000
2  42 26 35 0.000000000000000 10.000000000000000
2  43 27 40 0.000000000000000 10.000000000000000
2  44 28 45 0.000000000000000 10.000000000000000
2  45 29 48 0.000000000000000 10.000000000000000
2  46 30 51 0.000000000000000 10.000000000000000
2  47 31 68 0.000000000000000 10.000000000000000
2  48 32 71 0.000000000000000 10.000000000000000
0

0101000
+33 5 -33 7 *
Ed
 0.000000100000000 1 1 0
1  11 0 0.000000000000000 6.400000081019336
2  49 2 10 0.000000000000000 6.400000081019336
2  50 8 8 0.000000000000000 6.400000081019336
2  51 8 9 0.000000000000000 6.400000081019336
2  52 33 72 0.000000000000000 6.400000081019336
2  53 34 73 0.000000000000000 6.400000081019336
2  54 35 74 0.000000000000000 6.400000081019336
2  55 36 75 0.000000000000000 6.400000081019336
2  56 37 76 0.000000000000000 6.400000081019336
2  57 38 77 0.000000000000000 6.400000081019336
2  58 39 80 0.000000000000000 6.400000081019336
2  59 40 81 0.000000000000000 6.400000081019336
2  60 41 82 0.000000000000000 6.400000081019336
2  61 42 83 0.000000000000000 6.400000081019336
2  62 43 84 0.000000000000000 6.400000081019336
2  63 44 85 0.000000000000000 6.400000081019336
2  64 45 86 0.000000000000000 6.400000081019336
2  65 46 87 0.000000000000000 6.400000081019336
2  66 47 88 0.000000000000000 6.400000081019336
2  67 48 89 0.000000000000000 6.400000081019336
2  68 49 90 0.000000000000000 6.400000081019336
2  69 50 91 0.000000000000000 6.400000081019336
2  70 51 92 0.000000000000000 6.400000081019336
2  71 52 93 0.000000000000000 6.400000081019336
2  72 53 94 0.000000000000000 6.400000081019336
0

0101000
+33 0 -38 0 *
Wi

0101100
+32 0 -37 0 -31 5 +31 7 *
Fa
0  0.000000100000000 8 0

0111000
+30 0 *
Ve
0.000000100000000
-3.841138872098313 11.901038722411842 0.000000000000000
0 0

0101101
*
Ed
 0.000000100000000 1 1 0
1  12 0 0.000000000000000 10.000000000000000
2  73 19 0 0.000000000000000 10.000000000000000
2  74 54 0 0.000000000000000 10.000000000000000
0

0101000
+28 5 -28 7 *
Ed
 0.000000100000000 1 1 0
1  13 0 1.570685170804758 1.880172406767834
2  75 19 8 1.570685170804758 1.880172406767834
2  76 19 9 1.570685170804758 1.880172406767834
2  77 2 10 1.570685170804758 1.880172406767834
0

0101000
+33 0 -28 0 *
Wi

0101100
+32 0 -27 0 -26 5 +26 7 *
Fa
0  0.000000100000000 19 0

0111000
+25 0 *
Ve
0.000000100000069
-20.548328011380061 7.053795031500115 0.000000000000000
0 0

0101101
*
Ed
 0.000000100000069 1 1 0
1  14 0 0.000000000000000 10.000000000000000
2  78 55 0 0.000000000000000 10.000000000000000
2  79 54 0 0.000000000000000 10.000000000000000
2  80 56 13 0.000000000000000 10.000000000000000
0

0101000
+23 5 -23 7 *
Ed
 0.000000100000000 1 1 0
1  15 0 0.000000000000000 17.396147284235596
2  81 2 10 0.000000000000000 17.396147284235596
2  82 54 8 0.000000000000000 17.396147284235596
2  83 54 9 0.000000000000000 17.396147284235596
2  84 57 95 0.000000000000000 17.396147284235596
2  85 58 96 0.000000000000000 17.396147284235596
0

0101000
+23 0 -28 0 *
Wi

0101100
+22 0 -27 0 -21 5 +21 7 *
Fa
0  0.000000100000000 54 0

0111000
+20 0 *
Ve
0.000000100000000
-20.540639000000105 -7.056568108625991 0.000000000000000
0 0

0101101
*
Ed
 0.000000100000000 1 1 0
1  16 0 0.000000000000000 10.000000000000000
2  86 55 0 0.000000000000000 10.000000000000000
2  87 59 0 0.000000000000000 10.000000000000000
0

0101000
+18 5 -18 7 *
Ed
 0.000000100000000 1 1 0
1  17 0 1.917476180259501 4.366798965720483
2  88 55 8 1.917476180259501 4.366798965720483
2  89 55 9 1.917476180259501 4.366798965720483
2  90 2 10 1.917476180259501 4.366798965720483
0

0101000
+23 0 -18 0 *
Wi

0101100
+22 0 -17 0 -16 5 +16 7 *
Fa
0  0.000000100000000 55 0

0111000
+15 0 *
Ve
0.000100000000000
-6.101844000000000 -11.250285999999999 0.000000000000000
0 0

0101101
*
Ed
 0.000000100000000 1 1 0
1  18 0 0.000000000000000 10.000000000000000
2  91 59 0 0.000000000000000 10.000000000000000
2  92 4 0 0.000000000000000 10.000000000000000
0

0101000
+13 5 -13 7 *
Ed
 0.000000100000000 1 1 0
1  19 0 0.000000000000000 15.035493700057158
2  93 2 10 0.000000000000000 15.035493700057158
2  94 59 8 0.000000000000000 15.035493700057158
2  95 59 9 0.000000000000000 15.035493700057158
0

0101000
+13 0 -18 0 *
Wi

0101100
+12 0 -17 0 -11 5 +11 7 *
Fa
0  0.000000100000000 59 0

0111000
+10 0 *
Ed
 0.000000100000000 1 1 0
1  20 0 0.000000000000000 10.749713772598790
2  96 2 10 0.000000000000000 10.749713772598790
2  97 4 8 0.000000000000000 10.749713772598790
2  98 4 9 0.000000000000000 10.749713772598790
0

0101000
+50 0 -13 0 *
Wi

0101100
+49 0 -12 0 -8 5 +8 7 *
Fa
0  0.000000100000000 4 0

0111000
+7 0 *
Wi

0101100
-53 98 *
Wi

0101100
+46 98 -41 98 -36 98 -31 98 +26 98 -21 98 +16 98 -11 98 -8 98 *
Fa
0  0.000000100000000 2 0

0111000
+5 0 +4 0 *
Sh

0101100
-51 0 +44 0 -39 0 -34 0 -29 0 +24 0 -19 0 +14 0 -9 0 -6 0 
+3 97 -3 99 *
So

1100000
+2 0 *

+1 1 