
CASCADE Topology V1, (c) Matra-Datavision
Locations 12
1
1.000000000000000 0.000000000000000 0.000000000000000 0.000000000000000 
0.000000000000000 1.000000000000000 0.000000000000000 0.000000000000000 
0.000000000000000 0.000000000000000 1.000000000000000 0.000000000000000 
1
0.000000000000000 0.000000000000000 1.000000000000000 0.000000000000000 
0.000000000000000 -1.000000000000000 0.000000000000000 -17.000000000000000 
1.000000000000000 0.000000000000000 -0.000000000000000 -5.000000000000002 
1
1.000000000000000 0.000000000000000 0.000000000000000 0.000000000000000 
0.000000000000000 1.000000000000000 0.000000000000000 0.000000000000000 
0.000000000000000 0.000000000000000 1.000000000000000 0.000000000000000 
2  1 1 2 1 3 -1 0
1
1.000000000000000 0.000000000000000 0.000000000000000 -89.126526246478548 
0.000000000000000 1.000000000000000 0.000000000000000 0.000000000000000 
0.000000000000000 0.000000000000000 1.000000000000000 0.000000000000020 
2  1 1 2 1 3 -1 5 1 0
2  3 1 2 -1 1 -1 0
2  5 -1 3 1 2 -1 1 -1 0
2  2 -1 1 -1 0
2  3 -1 0
2  1 1 2 1 0
2  3 -1 5 1 0
Curve2ds 24
1 0.00460899046065656 0.00000000000000000 0.00000000000000000 -1.00000000000000000 
1 0.00000000000000000 0.00000000000000000 0.00000000000000000 -1.00000000000000000 
1 3.13698366314751897 0.00000000000000000 0.00000000000000000 -1.00000000000000000 
1 5.08374431932769255 0.00000000000000000 0.00000000000000000 -1.00000000000000000 
1 0.00000000000000000 0.00000000000000000 1.00000000000000000 0.00000000000000000 
1 0.00000000000000000 -89.12652624647854793 1.00000000000000000 0.00000000000000000 
2 -0.00000000002492406 -3.42728888785589803 -1.00000000000000000 -0.00000000000000000 -0.00000000000000000 1.00000000000000000 5.04999999999999982
1 0.00000000000000000 0.00000000000000000 0.00000000000000000 -1.00000000000000000 
1 10.09989272408534688 0.00000000000000000 0.00000000000000000 -1.00000000000000000 
1 0.00000000000000000 0.00000000000000000 1.00000000000000000 0.00000000000000000 
1 0.00000000000000000 -89.12652624647854793 1.00000000000000000 0.00000000000000000 
1 5.04994636201796254 1.63318011214410319 0.00000000000000000 -1.00000000000000000 
1 0.00000000000000000 0.00000000000000000 0.00000000000000000 -1.00000000000000000 
1 5.03719368057935668 0.00000000000000000 0.00000000000000000 -1.00000000000000000 
1 0.00000000000000000 0.00000000000000000 1.00000000000000000 0.00000000000000000 
1 0.00000000000000025 -89.12652624647854793 1.00000000000000000 0.00000000000000000 
1 -5.04994636206738257 1.63318011214410319 1.00000000000000000 0.00000000000000000 
1 0.00000000000000000 0.00000000000000000 1.00000000000000000 0.00000000000000000 
1 0.00000000000000000 -89.12652624647854793 1.00000000000000000 0.00000000000000000 
1 -5.04994636206738257 -3.40401356843525349 0.00000000000000000 1.00000000000000000 
1 0.00000000000000000 0.00000000000000000 0.00000000000000000 -1.00000000000000000 
1 6.28318530717958623 0.00000000000000000 0.00000000000000000 -1.00000000000000000 
1 0.00000000000000000 0.00000000000000000 1.00000000000000000 0.00000000000000000 
1 0.00000000000000000 -89.12652624647854793 1.00000000000000000 0.00000000000000000 
Curves 10
1 0.00000000000000112 -17.02327531942064454 0.04994636204245673 -1.00000000000000000 0.00000000000000000 0.00000000000000022 
1 -0.00000000000000112 -16.97672468067230866 -10.04994636204288838 -1.00000000000000000 0.00000000000000000 0.00000000000000022 
2 -0.00000000000000000 -0.00000000000000000 0.00000000000000000 0.00000000000000000 0.00000000000000000 1.00000000000000000 1.00000000000000000 0.00000000000000000 -0.00000000000000000 -0.00000000000000000 1.00000000000000000 0.00000000000000000 5.04999999999999982
1 -0.00000000000000112 -22.06046900000000122 -10.04994636204289016 -1.00000000000000000 0.00000000000000000 0.00000000000000022 
1 -5.04994636204288749 5.06046900000000033 0.00000000000000000 0.00000000000000000 -1.00000000000000000 0.00000000000000000 
1 0.00000000000000112 -22.06046900000000122 0.04994636204245673 -1.00000000000000000 0.00000000000000000 0.00000000000000022 
1 5.04994636204245850 5.06046900000000033 0.00000000000000000 -1.00000000000000000 0.00000000000000000 0.00000000000000000 
1 5.04994636204245850 0.02327531942064574 0.00000000000000000 0.00000000000000000 1.00000000000000000 0.00000000000000000 
1 0.00000000000000056 -17.00000000000000000 -2.50000000000000178 -1.00000000000000000 0.00000000000000000 0.00000000000000022 
2 -0.00000000000000000 -0.00000000000000000 0.00000000000000000 0.00000000000000000 0.00000000000000000 1.00000000000000000 1.00000000000000000 0.00000000000000000 -0.00000000000000000 -0.00000000000000000 1.00000000000000000 0.00000000000000000 2.50000000000000000
Polygon3D 0
PolygonOnTriangulations 0
Surfaces 7
2 -0.00000000000000000 -17.00000000000000000 -5.00000000000000178 1.00000000000000000 0.00000000000000000 -0.00000000000000022 0.00000000000000022 0.00000000000000000 1.00000000000000000 0.00000000000000000 -1.00000000000000000 0.00000000000000000 5.04999999999999982
1 0.00000000000000112 -17.02327531942064454 0.04994636204245673 0.00000000000000022 0.00000000000000000 1.00000000000000000 0.00000000000000000 -1.00000000000000000 0.00000000000000000 1.00000000000000000 0.00000000000000000 -0.00000000000000022 
1 -0.00000000000000112 -22.06046900000000122 -10.04994636204288838 -0.00000000000000022 0.00000000000000000 -1.00000000000000000 0.00000000000000000 1.00000000000000000 0.00000000000000000 1.00000000000000000 0.00000000000000000 -0.00000000000000022 
1 -0.00000000000000000 -20.42728888785589803 -5.00000000002492584 -1.00000000000000000 -0.00000000000000000 0.00000000000000022 -0.00000000000000022 0.00000000000000000 -1.00000000000000000 0.00000000000000000 -1.00000000000000000 -0.00000000000000000 
1 0.00000000000000112 -22.06046900000000122 0.04994636204245673 -0.00000000000000000 -1.00000000000000000 0.00000000000000000 -0.00000000000000022 0.00000000000000000 -1.00000000000000000 1.00000000000000000 -0.00000000000000000 -0.00000000000000022 
2 -0.00000000000000000 -17.00000000000000000 -5.00000000000000178 1.00000000000000000 0.00000000000000000 -0.00000000000000022 0.00000000000000022 0.00000000000000000 1.00000000000000000 0.00000000000000000 -1.00000000000000000 0.00000000000000000 2.50000000000000000
1 -0.00000000000000000 -16.99999999999999645 -5.00000000000000178 1.00000000000000000 0.00000000000000000 -0.00000000000000022 0.00000000000000022 0.00000000000000000 1.00000000000000000 0.00000000000000000 -1.00000000000000000 0.00000000000000000 
Triangulations 0

TShapes 34
Ve
0.000000100000000
5.049946362042459 0.023275319420646 0.000000000000000
0 0

0101101
*
Ed
 0.000000100000000 1 1 0
1  1 0 0.000000000000000 89.126526246478548
2  1 1 0 0.000000000000000 89.126526246478548
2  2 2 0 0.000000000000000 89.126526246478548
0

0101000
+34 4 -34 6 *
Ve
0.046550643310571
-5.049946362042887 -0.023275319327691 0.000000000000000
0 0

0101101
*
Ed
 0.046550643310571 1 1 0
1  2 0 0.000000000000000 89.126526246478548
2  3 1 0 0.000000000000000 89.126526246478548
2  4 3 0 0.000000000000000 89.126526246478548
0

0101000
+32 4 -32 6 *
Ed
 0.000000100000000 1 1 0
1  3 0 0.004608990460657 3.136983663147519
2  5 1 7 0.004608990460657 3.136983663147519
2  6 1 8 0.004608990460657 3.136983663147519
2  7 4 9 0.004608990460657 3.136983663147519
0

0101000
+34 0 -32 0 *
Wi

0101100
+33 0 -31 0 -30 4 +30 6 *
Fa
0  0.000000100000000 1 0

0111000
+29 0 *
Ve
0.000000100000000
-5.049946362042888 5.060469000000000 0.000000000000000
0 0

0101101
*
Ed
 0.000000100000000 1 1 0
1  4 0 0.000000000000000 89.126526246478548
2  8 3 0 0.000000000000000 89.126526246478548
2  9 5 0 0.000000000000000 89.126526246478548
0

0101000
+27 4 -27 6 *
Ed
 0.000000100000000 1 1 0
1  5 0 0.000000000000000 5.037193680672186
2  10 3 7 0.000000000000000 5.037193680672186
2  11 3 8 0.000000000000000 5.037193680672186
2  12 4 9 0.000000000000000 5.037193680672186
0

0101000
+27 0 -32 0 *
Wi

0101100
+26 0 -31 0 -25 4 +25 6 *
Fa
0  0.000000100000000 3 0

0111000
+24 0 *
Ve
0.000000100000000
5.049946362042459 5.060469000000000 0.000000000000000
0 0

0101101
*
Ed
 0.000000100000000 1 1 0
1  6 0 0.000000000000000 89.126526246478548
2  13 5 0 0.000000000000000 89.126526246478548
2  14 2 0 0.000000000000000 89.126526246478548
0

0101000
+22 4 -22 6 *
Ed
 0.000000100000000 1 1 0
1  7 0 0.000000000000000 10.099892724085347
2  15 5 7 0.000000000000000 10.099892724085347
2  16 5 8 0.000000000000000 10.099892724085347
2  17 4 9 0.000000000000000 10.099892724085347
0

0101000
+22 0 -27 0 *
Wi

0101100
+21 0 -26 0 -20 4 +20 6 *
Fa
0  0.000000100000000 5 0

0111000
+19 0 *
Ed
 0.000000100000000 1 1 0
1  8 0 0.000000000000000 5.037193680579355
2  18 2 7 0.000000000000000 5.037193680579355
2  19 2 8 0.000000000000000 5.037193680579355
2  20 4 9 0.000000000000000 5.037193680579355
0

0101000
+34 0 -22 0 *
Wi

0101100
+33 0 -21 0 -17 4 +17 6 *
Fa
0  0.000000100000000 2 0

0111000
+16 0 *
Wi

0101100
+30 11 -25 11 -20 11 -17 11 *
Fa
0  0.000000100000000 4 0

0111000
+14 0 *
Sh

0101100
+28 0 -23 0 -18 0 -15 0 +13 10 -13 12 *
So

0100000
-12 0 *
Ve
0.000000100000000
2.500000000000000 -0.000000000000000 0.000000000000000
0 0

0101101
*
Ed
 0.000000100000000 1 1 0
1  9 0 0.000000000000000 89.126526246478548
3  21 22CN 6 0 0.000000000000000 89.126526246478548
0

0101000
+10 4 -10 6 *
Ed
 0.000000100000000 1 1 0
1  10 0 0.000000000000000 6.283185307179586
2  23 6 7 0.000000000000000 6.283185307179586
2  24 6 8 0.000000000000000 6.283185307179586
0

0101000
+10 0 -10 0 *
Wi

0101100
+9 0 -9 0 -8 4 +8 6 *
Fa
0  0.000000100000000 6 0

0111000
+7 0 *
Wi

0101100
+8 0 *
Fa
0  0.000000100000000 7 0

0111000
+5 11 *
Sh

0101100
+6 0 +4 10 -4 12 *
So

0100000
+3 0 *
Co

1100000
+11 0 +2 0 *

+1 0 