
CASCADE Topology V1, (c) Matra-Datavision
Locations 32
1
1.000000000000000 0.000000000000000 0.000000000000000 0.000000000000000 
0.000000000000000 1.000000000000000 0.000000000000000 0.000000000000000 
0.000000000000000 0.000000000000000 1.000000000000000 0.000000000000000 
1
1.000000000000000 0.000000000000000 0.000000000000000 0.000000000000000 
0.000000000000000 1.000000000000000 0.000000000000000 0.000000000000000 
0.000000000000000 0.000000000000000 1.000000000000000 0.000000000000000 
1
1.000000000000000 0.000000000000000 0.000000000000000 0.000000000000000 
0.000000000000000 1.000000000000000 0.000000000000000 0.000000000000000 
0.000000000000000 0.000000000000000 1.000000000000000 0.000000000000000 
2  1 1 2 1 3 -1 0
1
1.000000000000000 0.000000000000000 0.000000000000000 -0.000000000000000 
0.000000000000000 1.000000000000000 0.000000000000000 -0.000000000000000 
0.000000000000000 0.000000000000000 1.000000000000000 -10.000000000000000 
2  1 1 2 1 3 -1 5 1 0
2  3 1 2 -1 1 -1 0
2  5 -1 3 1 2 -1 1 -1 0
2  2 -1 1 -1 0
1
1.000000000000000 0.000000000000000 0.000000000000000 0.000000000000000 
0.000000000000000 1.000000000000000 0.000000000000000 0.000000000000000 
0.000000000000000 0.000000000000000 1.000000000000000 0.000000000000000 
1
1.000000000000000 0.000000000000000 0.000000000000000 0.000000000000000 
0.000000000000000 1.000000000000000 0.000000000000000 0.000000000000000 
0.000000000000000 0.000000000000000 1.000000000000000 0.000000000000000 
2  10 1 11 -1 0
1
1.000000000000000 0.000000000000000 0.000000000000000 0.000000000000000 
0.000000000000000 1.000000000000000 0.000000000000000 0.000000000000000 
0.000000000000000 0.000000000000000 1.000000000000000 0.000000000000000 
1
1.000000000000000 0.000000000000000 0.000000000000000 0.000000000000000 
0.000000000000000 1.000000000000000 0.000000000000000 0.000000000000000 
0.000000000000000 0.000000000000000 1.000000000000000 0.000000000000000 
2  13 1 14 -1 0
1
1.000000000000000 0.000000000000000 0.000000000000000 0.000000000000000 
0.000000000000000 1.000000000000000 0.000000000000000 0.000000000000000 
0.000000000000000 0.000000000000000 1.000000000000000 0.000000000000000 
1
1.000000000000000 0.000000000000000 0.000000000000000 0.000000000000000 
0.000000000000000 1.000000000000000 0.000000000000000 0.000000000000000 
0.000000000000000 0.000000000000000 1.000000000000000 0.000000000000000 
2  16 1 17 -1 0
1
1.000000000000000 0.000000000000000 0.000000000000000 0.000000000000000 
0.000000000000000 1.000000000000000 0.000000000000000 0.000000000000000 
0.000000000000000 0.000000000000000 1.000000000000000 0.000000000000000 
1
1.000000000000000 0.000000000000000 0.000000000000000 0.000000000000000 
0.000000000000000 1.000000000000000 0.000000000000000 0.000000000000000 
0.000000000000000 0.000000000000000 1.000000000000000 0.000000000000000 
2  19 1 20 -1 0
2  3 -1 13 1 14 -1 3 1 2 -1 1 -1 0
2  3 -1 5 1 13 1 14 -1 5 -1 3 1 2 -1 1 -1 0
2  3 -1 16 1 17 -1 3 1 2 -1 1 -1 0
2  3 -1 5 1 16 1 17 -1 5 -1 3 1 2 -1 1 -1 0
2  3 -1 19 1 20 -1 3 1 2 -1 1 -1 0
2  3 -1 5 1 19 1 20 -1 5 -1 3 1 2 -1 1 -1 0
2  3 -1 10 1 11 -1 3 1 2 -1 1 -1 0
2  3 -1 5 1 10 1 11 -1 5 -1 3 1 2 -1 1 -1 0
2  3 -1 0
2  1 1 2 1 0
2  3 -1 5 1 0
Curve2ds 62
1 0.00000000000000000 0.00000000000000000 0.00000000000000000 -1.00000000000000000 
1 6.28318530717958623 0.00000000000000000 0.00000000000000000 -1.00000000000000000 
1 0.00000000000000000 0.00000000000000000 1.00000000000000000 0.00000000000000000 
1 0.00000000000000000 -10.00000000000000000 1.00000000000000000 0.00000000000000000 
2 0.00000000000000000 -0.00000000000000017 1.00000000000000000 0.00000000000000000 -0.00000000000000000 1.00000000000000000 2.50000000000000000
1 0.00000000000000000 0.00000000000000000 0.00000000000000000 -1.00000000000000000 
1 15.92052595301114870 0.00000000000000000 0.00000000000000000 -1.00000000000000000 
1 11.90000000000000036 -21.99999961443941388 1.00000000000000000 0.00000000000000000 
1 4.63032970417439937 0.00000000000000000 0.00000000000000000 -1.00000000000000000 
1 0.00000000000000000 0.00000000000000000 0.00000000000000000 -1.00000000000000000 
1 1.65285560300518708 0.00000000000000000 0.00000000000000000 -1.00000000000000000 
1 17.50000000000000000 -6.07947366142826517 0.00000000000000000 -1.00000000000000000 
1 0.00000000000000000 0.00000000000000000 1.00000000000000000 0.00000000000000000 
1 0.00000000000000000 -10.00000000000000000 1.00000000000000000 0.00000000000000000 
1 1.57056855002190443 0.00000000000000000 0.00000000000000000 -1.00000000000000000 
1 6.40000008101933560 0.00000000000000000 0.00000000000000000 -1.00000000000000000 
1 1.57102410356788869 0.00000000000000000 0.00000000000000000 -1.00000000000000000 
1 1.57102410356788869 0.00000000000000000 0.00000000000000000 -1.00000000000000000 
1 1.57102410356788869 0.00000000000000000 0.00000000000000000 -1.00000000000000000 
1 0.00000000000000000 0.00000000000000000 1.00000000000000000 0.00000000000000000 
1 0.00000000000000000 -10.00000000000000000 1.00000000000000000 0.00000000000000000 
2 18.00000000000000000 -0.00000000000000038 1.00000000000000000 0.00000000000000000 -0.00000000000000000 1.00000000000000000 6.09999999999999964
1 1.57068517080475800 0.00000000000000000 0.00000000000000000 -1.00000000000000000 
1 0.00000000000000000 0.00000000000000000 0.00000000000000000 -1.00000000000000000 
1 1.57090543668515625 0.00000000000000000 0.00000000000000000 -1.00000000000000000 
1 1.57090543668515625 0.00000000000000000 0.00000000000000000 -1.00000000000000000 
1 1.57090543668515625 0.00000000000000000 0.00000000000000000 -1.00000000000000000 
1 18.00138943830323868 12.49999992277844818 0.00000000000000000 -1.00000000000000000 
1 0.00000000000000000 0.00000000000000000 1.00000000000000000 0.00000000000000000 
1 0.00000000000000000 -10.00000000000000000 1.00000000000000000 0.00000000000000000 
1 17.99861056169676132 12.49999992277844818 0.00000000000000000 -1.00000000000000000 
1 17.99861056169676132 12.49999992277844818 0.00000000000000000 -1.00000000000000000 
1 17.99861056169676132 12.49999992277844818 0.00000000000000000 -1.00000000000000000 
1 17.99861056169676132 12.49999992277844818 0.00000000000000000 -1.00000000000000000 
1 17.99861056169676132 12.49999992277844818 0.00000000000000000 -1.00000000000000000 
1 17.99861056169676132 12.49999992277844818 0.00000000000000000 -1.00000000000000000 
1 1.88017240676783359 0.00000000000000000 0.00000000000000000 -1.00000000000000000 
1 17.39614728423559598 0.00000000000000000 0.00000000000000000 -1.00000000000000000 
1 0.00000000000000000 0.00000000000000000 1.00000000000000000 0.00000000000000000 
1 0.00000000000000000 -10.00000000000000000 1.00000000000000000 0.00000000000000000 
2 17.99998709319136481 -0.11601028367996444 1.00000000000000000 0.00000000000000000 -0.00000000000000000 1.00000000000000000 12.61601028439794092
1 1.91747618025950084 0.00000000000000000 0.00000000000000000 -1.00000000000000000 
1 0.00000000000000000 0.00000000000000000 0.00000000000000000 -1.00000000000000000 
1 4.36570912692008850 0.00000000000000000 0.00000000000000000 -1.00000000000000000 
1 -2.54832801138006104 7.05379503150011544 0.96039593516328858 0.27863891996961321 
1 0.00000000000000000 0.00000000000000000 1.00000000000000000 0.00000000000000000 
1 0.00000000000000000 -10.00000000000000000 1.00000000000000000 0.00000000000000000 
1 -2.54832801138006104 -7.05379503150011544 0.96039593516328858 -0.27863891996961321 
1 -2.54832801138006104 -7.05379503150011544 0.96039593516328858 -0.27863891996961321 
1 4.36679896572048332 0.00000000000000000 0.00000000000000000 -1.00000000000000000 
1 15.03549370005715957 0.00000000000000000 0.00000000000000000 -1.00000000000000000 
1 0.00000000000000000 0.00000000000000000 1.00000000000000000 0.00000000000000000 
1 0.00000000000000000 -10.00000000000000000 1.00000000000000000 0.00000000000000000 
2 0.00000000000000355 0.00000000000003637 1.00000000000000000 0.00000000000000000 -0.00000000000000000 1.00000000000000000 7.49999999999996447
1 0.00000000000000000 0.00000000000000000 0.00000000000000000 -1.00000000000000000 
1 10.74971377259879013 0.00000000000000000 0.00000000000000000 -1.00000000000000000 
1 11.89815600000000018 -11.25028599999999912 -0.96031399354350544 0.27892119640594609 
1 0.00000000000000000 0.00000000000000000 1.00000000000000000 0.00000000000000000 
1 0.00000000000000000 -10.00000000000000000 1.00000000000000000 0.00000000000000000 
1 11.90000000000000036 -21.99999961443941388 -0.00017153945109688 0.99999998528710832 
1 0.00000000000000000 0.00000000000000000 1.00000000000000000 0.00000000000000000 
1 0.00000000000000000 -10.00000000000000000 1.00000000000000000 0.00000000000000000 
Curves 20
1 -15.50000000000000000 0.00000000000000000 0.00000000000000000 -0.00000000000000000 -0.00000000000000000 -1.00000000000000000 
2 -18.00000000000000000 0.00000000000000000 0.00000000000000000 0.00000000000000000 0.00000000000000000 1.00000000000000000 1.00000000000000000 0.00000000000000000 -0.00000000000000000 -0.00000000000000000 1.00000000000000000 0.00000000000000000 2.50000000000000000
1 -6.09999999999999964 -21.99999961443941388 0.00000000000000000 -0.00000000000000000 -0.00000000000000000 -1.00000000000000000 
1 -0.50000000000000167 -21.99999961443941388 0.00000000000000000 -0.00000000000000000 -0.00000000000000000 -1.00000000000000000 
1 -6.09999999999999964 -21.99999961443941388 0.00000000000000000 1.00000000000000000 0.00000000000000000 0.00000000000000000 
1 -0.50000000000000155 -6.07947366142826517 0.00000000000000000 -0.00000000000000000 -0.00000000000000000 -1.00000000000000000 
1 -0.50000000000000155 -6.07947366142826517 0.00000000000000000 0.00000000000000000 -1.00000000000000000 0.00000000000000000 
1 0.00138943830323767 6.09999984175911258 0.00000000000000000 -0.00000000000000000 -0.00000000000000000 -1.00000000000000000 
2 -0.00000000000000015 -0.00000000000000021 0.00000000000000000 0.00000000000000000 0.00000000000000000 1.00000000000000000 1.00000000000000000 0.00000000000000000 -0.00000000000000000 -0.00000000000000000 1.00000000000000000 0.00000000000000000 6.09999999999999964
1 0.00138943830323804 12.49999992277844818 0.00000000000000000 -0.00000000000000000 -0.00000000000000000 -1.00000000000000000 
1 0.00138943830323767 12.49999992277844818 0.00000000000000000 0.00000000000000000 -1.00000000000000000 0.00000000000000000 
1 -3.84113887209831262 11.90103872241184213 0.00000000000000000 -0.00000000000000000 -0.00000000000000000 -1.00000000000000000 
2 -0.00001290680863501 -0.11601028367996427 0.00000000000000000 0.00000000000000000 0.00000000000000000 1.00000000000000000 1.00000000000000000 0.00000000000000000 -0.00000000000000000 -0.00000000000000000 1.00000000000000000 0.00000000000000000 12.61601028439794092
1 -20.54832801138006104 7.05379503150011544 0.00000000000000000 -0.00000000000000000 -0.00000000000000000 -1.00000000000000000 
1 -20.54832801138006104 7.05379503150011544 0.00000000000000000 0.96039593516328858 0.27863891996961321 0.00000000000000000 
1 -20.54063900000010534 -7.05656810862599126 0.00000000000000000 -0.00000000000000000 -0.00000000000000000 -1.00000000000000000 
2 -17.99999999999999645 0.00000000000003654 0.00000000000000000 0.00000000000000000 0.00000000000000000 1.00000000000000000 1.00000000000000000 0.00000000000000000 -0.00000000000000000 -0.00000000000000000 1.00000000000000000 0.00000000000000000 7.49999999999996447
1 -6.10184399999999982 -11.25028599999999912 0.00000000000000000 -0.00000000000000000 -0.00000000000000000 -1.00000000000000000 
1 -6.10184399999999982 -11.25028599999999912 0.00000000000000000 -0.96031399354350544 0.27892119640594609 0.00000000000000000 
1 -6.09999999999999964 -21.99999961443941388 0.00000000000000000 -0.00017153945109688 0.99999998528710832 0.00000000000000000 
Polygon3D 0
PolygonOnTriangulations 0
Surfaces 27
2 -18.00000000000000000 0.00000000000000000 0.00000000000000000 0.00000000000000000 0.00000000000000000 1.00000000000000000 1.00000000000000000 0.00000000000000000 -0.00000000000000000 -0.00000000000000000 1.00000000000000000 0.00000000000000000 2.50000000000000000
1 -18.00000000000000000 0.00000000000000017 0.00000000000000000 0.00000000000000000 0.00000000000000000 1.00000000000000000 1.00000000000000000 0.00000000000000000 -0.00000000000000000 -0.00000000000000000 1.00000000000000000 0.00000000000000000 
1 -6.09999999999999964 -21.99999961443941388 0.00000000000000000 0.00000000000000000 -1.00000000000000000 0.00000000000000000 1.00000000000000000 0.00000000000000000 0.00000000000000000 -0.00000000000000000 0.00000000000000000 1.00000000000000000 
1 -6.09999999999999964 -21.99999961443941388 0.00000000000000000 0.99999998528710832 0.00017153945109688 -0.00000000000000000 -0.00017153945109688 0.99999998528710832 0.00000000000000000 0.00000000000000000 0.00000000000000000 1.00000000000000000 
1 -0.50000000000000155 -6.07947366142826517 0.00000000000000000 -1.00000000000000000 0.00000000000000000 0.00000000000000000 0.00000000000000000 -1.00000000000000000 0.00000000000000000 0.00000000000000000 0.00000000000000000 1.00000000000000000 
2 -0.00000000000000015 -0.00000000000000021 0.00000000000000000 0.00000000000000000 0.00000000000000000 1.00000000000000000 1.00000000000000000 0.00000000000000000 -0.00000000000000000 -0.00000000000000000 1.00000000000000000 0.00000000000000000 6.09999999999999964
2 -0.00000000000000015 0.00000000000000021 0.00000000000000000 -0.00000000000000000 -0.00000000000000000 1.00000000000000000 1.00000000000000000 0.00000000000000000 0.00000000000000000 0.00000000000000000 -1.00000000000000000 -0.00000000000000000 6.09999999999999964
1 0.00138943830323767 12.49999992277844818 0.00000000000000000 -1.00000000000000000 0.00000000000000000 0.00000000000000000 0.00000000000000000 -1.00000000000000000 0.00000000000000000 0.00000000000000000 0.00000000000000000 1.00000000000000000 
2 0.00000000000000015 -0.00000000000000021 0.00000000000000000 -0.00000000000000000 -0.00000000000000000 1.00000000000000000 -1.00000000000000000 0.00000000000000000 0.00000000000000000 0.00000000000000000 1.00000000000000000 0.00000000000000000 6.09999999999999964
2 0.00000000000000015 -0.00000000000000021 0.00000000000000000 -0.00000000000000000 -0.00000000000000000 1.00000000000000000 -1.00000000000000000 0.00000000000000000 0.00000000000000000 0.00000000000000000 1.00000000000000000 0.00000000000000000 6.09999999999999964
2 0.00000000000000015 -0.00000000000000021 0.00000000000000000 -0.00000000000000000 -0.00000000000000000 1.00000000000000000 -1.00000000000000000 0.00000000000000000 0.00000000000000000 0.00000000000000000 1.00000000000000000 0.00000000000000000 6.09999999999999964
2 -0.00001290680863501 -0.11601028367996427 0.00000000000000000 0.00000000000000000 0.00000000000000000 1.00000000000000000 1.00000000000000000 0.00000000000000000 -0.00000000000000000 -0.00000000000000000 1.00000000000000000 0.00000000000000000 12.61601028439794092
2 0.00001290680863501 -0.11601028367996427 0.00000000000000000 -0.00000000000000000 -0.00000000000000000 1.00000000000000000 -1.00000000000000000 0.00000000000000000 0.00000000000000000 0.00000000000000000 1.00000000000000000 0.00000000000000000 12.61601028439794092
2 0.00001290680863501 -0.11601028367996427 0.00000000000000000 -0.00000000000000000 -0.00000000000000000 1.00000000000000000 -1.00000000000000000 0.00000000000000000 0.00000000000000000 0.00000000000000000 1.00000000000000000 0.00000000000000000 12.61601028439794092
2 0.00001290680863501 -0.11601028367996427 0.00000000000000000 -0.00000000000000000 -0.00000000000000000 1.00000000000000000 -1.00000000000000000 0.00000000000000000 0.00000000000000000 0.00000000000000000 1.00000000000000000 0.00000000000000000 12.61601028439794092
1 18.00000000000000000 0.00000000000000017 0.00000000000000000 -0.00000000000000000 -0.00000000000000000 1.00000000000000000 -1.00000000000000000 0.00000000000000000 0.00000000000000000 0.00000000000000000 1.00000000000000000 0.00000000000000000 
1 18.00000000000000000 0.00000000000000017 0.00000000000000000 -0.00000000000000000 -0.00000000000000000 1.00000000000000000 -1.00000000000000000 0.00000000000000000 0.00000000000000000 0.00000000000000000 1.00000000000000000 0.00000000000000000 
1 18.00000000000000000 0.00000000000000017 0.00000000000000000 -0.00000000000000000 -0.00000000000000000 1.00000000000000000 -1.00000000000000000 0.00000000000000000 0.00000000000000000 0.00000000000000000 1.00000000000000000 0.00000000000000000 
1 18.00000000000000000 0.00000000000000017 0.00000000000000000 -0.00000000000000000 -0.00000000000000000 1.00000000000000000 -1.00000000000000000 0.00000000000000000 0.00000000000000000 0.00000000000000000 1.00000000000000000 0.00000000000000000 
1 18.00000000000000000 0.00000000000000017 0.00000000000000000 -0.00000000000000000 -0.00000000000000000 1.00000000000000000 -1.00000000000000000 0.00000000000000000 0.00000000000000000 0.00000000000000000 1.00000000000000000 0.00000000000000000 
1 18.00000000000000000 0.00000000000000017 0.00000000000000000 -0.00000000000000000 -0.00000000000000000 1.00000000000000000 -1.00000000000000000 0.00000000000000000 0.00000000000000000 0.00000000000000000 1.00000000000000000 0.00000000000000000 
1 -20.54832801138006104 7.05379503150011544 0.00000000000000000 0.27863891996961321 -0.96039593516328858 0.00000000000000000 0.96039593516328858 0.27863891996961321 0.00000000000000000 -0.00000000000000000 0.00000000000000000 1.00000000000000000 
2 -17.99999999999999645 0.00000000000003654 0.00000000000000000 0.00000000000000000 0.00000000000000000 1.00000000000000000 1.00000000000000000 0.00000000000000000 -0.00000000000000000 -0.00000000000000000 1.00000000000000000 0.00000000000000000 7.49999999999996447
2 -17.99999999999999645 -0.00000000000003654 0.00000000000000000 -0.00000000000000000 -0.00000000000000000 1.00000000000000000 1.00000000000000000 0.00000000000000000 0.00000000000000000 0.00000000000000000 -1.00000000000000000 -0.00000000000000000 7.49999999999996447
1 -18.00000000000000000 -0.00000000000000017 0.00000000000000000 -0.00000000000000000 -0.00000000000000000 1.00000000000000000 1.00000000000000000 0.00000000000000000 0.00000000000000000 0.00000000000000000 -1.00000000000000000 -0.00000000000000000 
1 -18.00000000000000000 -0.00000000000000017 0.00000000000000000 -0.00000000000000000 -0.00000000000000000 1.00000000000000000 1.00000000000000000 0.00000000000000000 0.00000000000000000 0.00000000000000000 -1.00000000000000000 -0.00000000000000000 
1 -6.10184399999999982 -11.25028599999999912 0.00000000000000000 0.27892119640594609 0.96031399354350544 -0.00000000000000000 -0.96031399354350544 0.27892119640594609 0.00000000000000000 0.00000000000000000 0.00000000000000000 1.00000000000000000 
Triangulations 0

TShapes 55
Ve
0.000000100000000
-15.500000000000000 0.000000000000000 0.000000000000000
0 0

0101101
*
Ed
 0.000000100000000 1 1 0
1  1 0 0.000000000000000 10.000000000000000
3  1 2CN 1 0 0.000000000000000 10.000000000000000
0

0101000
+55 4 -55 6 *
Ed
 0.000000100000000 1 1 0
1  2 0 0.000000000000000 6.283185307179586
2  3 1 7 0.000000000000000 6.283185307179586
2  4 1 8 0.000000000000000 6.283185307179586
2  5 2 9 0.000000000000000 6.283185307179586
0

0101000
+55 0 -55 0 *
Wi

0101100
+54 0 -54 0 -53 4 +53 6 *
Fa
0  0.000000100000000 1 0

0111000
+52 0 *
Ve
0.000000100000000
-6.100000000000000 -21.999999614439414 0.000000000000000
0 0

0101101
*
Ed
 0.000000100000000 1 1 0
1  3 0 0.000000000000000 10.000000000000000
2  6 4 0 0.000000000000000 10.000000000000000
0

0101000
+50 4 -50 6 *
Ve
0.000000100000000
-0.500000000000002 -21.999999614439414 0.000000000000000
0 0

0101101
*
Ed
 0.000000100000000 1 1 0
1  4 0 0.000000000000000 10.000000000000000
2  7 5 0 0.000000000000000 10.000000000000000
0

0101000
+48 4 -48 6 *
Ed
 0.000000100000000 1 1 0
1  5 0 0.000000000000000 5.599999999999998
2  8 2 9 0.000000000000000 5.599999999999998
0

0101000
+50 0 -48 0 *
Wi

0101100
+49 0 -47 0 -46 4 +46 6 *
Fa
0  0.000000100000000 3 0

0111000
+45 0 *
Ve
0.000000100000003
-0.500000000000002 -6.079473661428265 0.000000000000000
0 0

0101101
*
Ed
 0.000000100000000 1 1 0
1  6 0 0.000000000000000 10.000000000000000
2  9 6 0 0.000000000000000 10.000000000000000
2  10 5 0 0.000000000000000 10.000000000000000
2  11 7 12 0.000000000000000 10.000000000000000
0

0101000
+43 4 -43 6 *
Ed
 0.000000100000000 1 1 0
1  7 0 0.000000000000000 15.920525953011149
2  12 2 9 0.000000000000000 15.920525953011149
2  13 5 7 0.000000000000000 15.920525953011149
2  14 5 8 0.000000000000000 15.920525953011149
0

0101000
+43 0 -48 0 *
Wi

0101100
+42 0 -47 0 -41 4 +41 6 *
Fa
0  0.000000100000000 5 0

0111000
+40 0 *
Ve
0.000000100000000
0.001389438303238 6.099999841759113 0.000000000000000
0 0

0101101
*
Ed
 0.000000100000000 1 1 0
1  8 0 0.000000000000000 10.000000000000000
2  15 6 0 0.000000000000000 10.000000000000000
2  16 8 0 0.000000000000000 10.000000000000000
2  17 9 15 0.000000000000000 10.000000000000000
2  18 10 18 0.000000000000000 10.000000000000000
2  19 11 21 0.000000000000000 10.000000000000000
0

0101000
+38 4 -38 6 *
Ed
 0.000000100000000 1 1 0
1  9 0 1.570568550021904 4.630329704174399
2  20 6 7 1.570568550021904 4.630329704174399
2  21 6 8 1.570568550021904 4.630329704174399
2  22 2 9 1.570568550021904 4.630329704174399
0

0101000
+38 0 -43 0 *
Wi

0101100
+37 0 -42 0 -36 4 +36 6 *
Fa
0  0.000000100000000 6 0

0111000
+35 0 *
Ve
0.000000102842928
0.001389438303238 12.499999922778448 0.000000000000000
0 0

0101101
*
Ed
 0.000000102842928 1 1 0
1  10 0 0.000000000000000 10.000000000000000
2  23 12 0 0.000000000000000 10.000000000000000
2  24 8 0 0.000000000000000 10.000000000000000
2  25 13 15 0.000000000000000 10.000000000000000
2  26 14 18 0.000000000000000 10.000000000000000
2  27 15 21 0.000000000000000 10.000000000000000
0

0101000
+33 4 -33 6 *
Ed
 0.000000100000000 1 1 0
1  11 0 0.000000000000000 6.400000081019336
2  28 2 9 0.000000000000000 6.400000081019336
2  29 8 7 0.000000000000000 6.400000081019336
2  30 8 8 0.000000000000000 6.400000081019336
2  31 16 22 0.000000000000000 6.400000081019336
2  32 17 23 0.000000000000000 6.400000081019336
2  33 18 24 0.000000000000000 6.400000081019336
2  34 19 25 0.000000000000000 6.400000081019336
2  35 20 26 0.000000000000000 6.400000081019336
2  36 21 27 0.000000000000000 6.400000081019336
0

0101000
+33 0 -38 0 *
Wi

0101100
+32 0 -37 0 -31 4 +31 6 *
Fa
0  0.000000100000000 8 0

0111000
+30 0 *
Ve
0.000000100000000
-3.841138872098313 11.901038722411842 0.000000000000000
0 0

0101101
*
Ed
 0.000000100000000 1 1 0
1  12 0 0.000000000000000 10.000000000000000
2  37 12 0 0.000000000000000 10.000000000000000
2  38 22 0 0.000000000000000 10.000000000000000
0

0101000
+28 4 -28 6 *
Ed
 0.000000100000000 1 1 0
1  13 0 1.570685170804758 1.880172406767834
2  39 12 7 1.570685170804758 1.880172406767834
2  40 12 8 1.570685170804758 1.880172406767834
2  41 2 9 1.570685170804758 1.880172406767834
0

0101000
+33 0 -28 0 *
Wi

0101100
+32 0 -27 0 -26 4 +26 6 *
Fa
0  0.000000100000000 12 0

0111000
+25 0 *
Ve
0.000000100000069
-20.548328011380061 7.053795031500115 0.000000000000000
0 0

0101101
*
Ed
 0.000000100000069 1 1 0
1  14 0 0.000000000000000 10.000000000000000
2  42 23 0 0.000000000000000 10.000000000000000
2  43 22 0 0.000000000000000 10.000000000000000
2  44 24 12 0.000000000000000 10.000000000000000
0

0101000
+23 4 -23 6 *
Ed
 0.000000100000000 1 1 0
1  15 0 0.000000000000000 17.396147284235596
2  45 2 9 0.000000000000000 17.396147284235596
2  46 22 7 0.000000000000000 17.396147284235596
2  47 22 8 0.000000000000000 17.396147284235596
2  48 25 28 0.000000000000000 17.396147284235596
2  49 26 29 0.000000000000000 17.396147284235596
0

0101000
+23 0 -28 0 *
Wi

0101100
+22 0 -27 0 -21 4 +21 6 *
Fa
0  0.000000100000000 22 0

0111000
+20 0 *
Ve
0.000000100000000
-20.540639000000105 -7.056568108625991 0.000000000000000
0 0

0101101
*
Ed
 0.000000100000000 1 1 0
1  16 0 0.000000000000000 10.000000000000000
2  50 23 0 0.000000000000000 10.000000000000000
2  51 27 0 0.000000000000000 10.000000000000000
0

0101000
+18 4 -18 6 *
Ed
 0.000000100000000 1 1 0
1  17 0 1.917476180259501 4.366798965720483
2  52 23 7 1.917476180259501 4.366798965720483
2  53 23 8 1.917476180259501 4.366798965720483
2  54 2 9 1.917476180259501 4.366798965720483
0

0101000
+23 0 -18 0 *
Wi

0101100
+22 0 -17 0 -16 4 +16 6 *
Fa
0  0.000000100000000 23 0

0111000
+15 0 *
Ve
0.000000100000000
-6.101844000000000 -11.250285999999999 0.000000000000000
0 0

0101101
*
Ed
 0.000000100000000 1 1 0
1  18 0 0.000000000000000 10.000000000000000
2  55 27 0 0.000000000000000 10.000000000000000
2  56 4 0 0.000000000000000 10.000000000000000
0

0101000
+13 4 -13 6 *
Ed
 0.000000100000000 1 1 0
1  19 0 0.000000000000000 15.035493700057158
2  57 2 9 0.000000000000000 15.035493700057158
2  58 27 7 0.000000000000000 15.035493700057158
2  59 27 8 0.000000000000000 15.035493700057158
0

0101000
+13 0 -18 0 *
Wi

0101100
+12 0 -17 0 -11 4 +11 6 *
Fa
0  0.000000100000000 27 0

0111000
+10 0 *
Ed
 0.000000100000000 1 1 0
1  20 0 0.000000000000000 10.749713772598790
2  60 2 9 0.000000000000000 10.749713772598790
2  61 4 7 0.000000000000000 10.749713772598790
2  62 4 8 0.000000000000000 10.749713772598790
0

0101000
+50 0 -13 0 *
Wi

0101100
+49 0 -12 0 -8 4 +8 6 *
Fa
0  0.000000100000000 4 0

0111000
+7 0 *
Wi

0101100
-53 31 *
Wi

0101100
+46 31 -41 31 -36 31 -31 31 +26 31 -21 31 +16 31 -11 31 -8 31 *
Fa
0  0.000000100000000 2 0

0111000
+5 0 +4 0 *
Sh

0101100
-51 0 +44 0 -39 0 -34 0 -29 0 +24 0 -19 0 +14 0 -9 0 -6 0 
+3 30 -3 32 *
So

1100000
+2 0 *

+1 0 