
CASCADE Topology V1, (c) Matra-Datavision
Locations 36
1
1.000000000000000 0.000000000000000 0.000000000000000 0.000000000000000 
0.000000000000000 1.000000000000000 0.000000000000000 0.000000000000000 
0.000000000000000 0.000000000000000 1.000000000000000 0.000000000000000 
1
1.000000000000000 0.000000000000000 0.000000000000000 0.000000000000000 
0.000000000000000 1.000000000000000 0.000000000000000 0.000000000000000 
0.000000000000000 0.000000000000000 1.000000000000000 0.000000000000000 
1
1.000000000000000 0.000000000000000 0.000000000000000 0.000000000000000 
0.000000000000000 1.000000000000000 0.000000000000000 0.000000000000000 
0.000000000000000 0.000000000000000 1.000000000000000 0.000000000000000 
1
1.000000000000000 0.000000000000000 0.000000000000000 0.000000000000000 
0.000000000000000 1.000000000000000 0.000000000000000 0.000000000000000 
0.000000000000000 0.000000000000000 1.000000000000000 0.000000000000000 
2  1 1 2 -1 3 1 4 -1 0
1
1.000000000000000 0.000000000000000 0.000000000000000 0.000000000000000 
0.000000000000000 1.000000000000000 0.000000000000000 0.000000000000000 
0.000000000000000 0.000000000000000 1.000000000000000 0.000000000000000 
1
1.000000000000000 0.000000000000000 0.000000000000000 0.000000000000000 
0.000000000000000 1.000000000000000 0.000000000000000 0.000000000000000 
0.000000000000000 0.000000000000000 1.000000000000000 0.000000000000000 
1
1.000000000000000 0.000000000000000 0.000000000000000 0.000000000000000 
0.000000000000000 1.000000000000000 0.000000000000000 0.000000000000000 
0.000000000000000 0.000000000000000 1.000000000000000 0.000000000000000 
2  6 1 7 1 8 -1 1 1 2 -1 3 1 4 -1 0
2  8 1 7 -1 6 -1 0
1
1.000000000000000 0.000000000000000 0.000000000000000 -0.000000000000000 
0.000000000000000 1.000000000000000 0.000000000000000 -0.000000000000000 
0.000000000000000 0.000000000000000 1.000000000000000 -10.000000000000000 
2  11 -1 8 1 7 -1 6 -1 0
2  7 -1 6 -1 0
2  6 1 7 1 8 -1 0
1
1.000000000000000 0.000000000000000 0.000000000000000 0.000000000000000 
0.000000000000000 1.000000000000000 0.000000000000000 0.000000000000000 
0.000000000000000 0.000000000000000 1.000000000000000 0.000000000000000 
2  15 1 4 1 3 -1 2 1 1 -1 0
1
1.000000000000000 0.000000000000000 0.000000000000000 0.000000000000000 
0.000000000000000 1.000000000000000 0.000000000000000 0.000000000000000 
0.000000000000000 0.000000000000000 1.000000000000000 0.000000000000000 
2  1 1 2 -1 17 1 0
2  1 1 2 -1 3 1 4 -1 15 -1 0
2  8 -1 1 1 2 -1 3 1 4 -1 0
2  8 -1 1 1 2 -1 17 1 0
2  8 -1 1 1 2 -1 3 1 4 -1 15 -1 0
2  6 1 7 1 8 -1 11 1 0
2  6 1 7 1 8 -1 11 1 1 1 2 -1 3 1 4 -1 0
2  8 -1 11 1 1 1 2 -1 17 1 0
2  8 -1 11 1 1 1 2 -1 3 1 4 -1 15 -1 0
2  8 -1 11 1 1 1 2 -1 3 1 4 -1 0
2  15 1 4 1 3 -1 2 1 1 -1 8 1 7 -1 6 -1 0
1
1.000000000000000 0.000000000000000 0.000000000000000 0.000000000000000 
0.000000000000000 1.000000000000000 0.000000000000000 0.000000000000000 
0.000000000000000 0.000000000000000 1.000000000000000 0.000000000000000 
1
1.000000000000000 0.000000000000000 0.000000000000000 0.000000000000000 
0.000000000000000 1.000000000000000 0.000000000000000 0.000000000000000 
0.000000000000000 0.000000000000000 1.000000000000000 0.000000000000000 
2  29 1 30 -1 0
2  15 1 4 1 3 -1 2 1 1 -1 11 -1 8 1 7 -1 6 -1 0
2  3 1 4 -1 0
2  1 1 2 -1 0
2  3 1 4 -1 15 -1 0
2  15 1 4 1 3 -1 0
Curve2ds 54
1 0.00000000000000000 0.00000000000000000 1.00000000000000000 0.00000000000000000 
1 0.00000000000000000 -10.00000000000000000 1.00000000000000000 0.00000000000000000 
2 0.00000000000000000 -0.00000000000000017 1.00000000000000000 0.00000000000000000 -0.00000000000000000 1.00000000000000000 2.50000000000000000
1 0.00000000000000000 0.00000000000000000 0.00000000000000000 -1.00000000000000000 
1 6.28318530717958623 0.00000000000000000 0.00000000000000000 -1.00000000000000000 
1 0.00000000000000000 3.14159265358979312 1.00000000000000000 0.00000000000000000 
1 0.00000000000000000 -0.50000000000000000 1.00000000000000000 0.00000000000000000 
1 0.00000000000000000 -0.50000000000000000 1.00000000000000000 0.00000000000000000 
1 0.00000000000000000 4.71238898038468967 1.00000000000000000 0.00000000000000000 
2 0.00000000000000000 -0.00000000000000017 1.00000000000000000 0.00000000000000000 -0.00000000000000000 1.00000000000000000 3.00000000000000000
2 0.00000000000000000 -0.00000000000000017 1.00000000000000000 0.00000000000000000 -0.00000000000000000 1.00000000000000000 3.00000000000000000
8 3.14159265358979312 4.71238898038468967
1 6.28318530717958623 0.00000000000000000 0.00000000000000000 1.00000000000000000 
8 3.14159265358979312 4.71238898038468967
1 0.00000000000000000 0.00000000000000000 0.00000000000000000 1.00000000000000000 
1 0.00000000000000000 3.14159265358979312 1.00000000000000000 0.00000000000000000 
1 0.00000000000000000 -9.50000000000000000 1.00000000000000000 0.00000000000000000 
1 0.00000000000000000 -9.50000000000000000 1.00000000000000000 0.00000000000000000 
8 3.14159265358979312 4.71238898038468967
1 6.28318530717958623 0.00000000000000000 0.00000000000000000 1.00000000000000000 
8 3.14159265358979312 4.71238898038468967
1 0.00000000000000000 0.00000000000000000 0.00000000000000000 1.00000000000000000 
1 0.00000000000000000 4.71238898038468967 1.00000000000000000 0.00000000000000000 
2 0.00000000000000000 -0.00000000000000017 1.00000000000000000 0.00000000000000000 -0.00000000000000000 1.00000000000000000 3.00000000000000000
2 0.00000000000000000 -0.00000000000000017 1.00000000000000000 0.00000000000000000 -0.00000000000000000 1.00000000000000000 3.00000000000000000
1 -0.15210094168677823 0.00000000000000000 1.00000000000000000 0.00000000000000000 
2 17.00000000000000000 -6.52380257212003567 0.00000000000000000 1.00000000000000000 1.00000000000000000 -0.00000000000000000 0.50000000000000000
2 17.00000000000000000 -6.52380257212003567 0.00000000000000000 1.00000000000000000 1.00000000000000000 -0.00000000000000000 0.50000000000000000
1 0.00000000000000000 0.00000000000000000 1.00000000000000000 0.00000000000000000 
1 0.00000000000000000 -10.00000000000000000 1.00000000000000000 0.00000000000000000 
2 18.00000000000000000 -0.00000000000000038 1.00000000000000000 0.00000000000000000 -0.00000000000000000 1.00000000000000000 6.09999999999999964
1 17.50000000000000000 -6.07947366142826517 0.00000000000000000 -1.00000000000000000 
1 0.00000000000000000 0.00000000000000000 1.00000000000000000 0.00000000000000000 
1 0.00000000000000000 -10.00000000000000000 1.00000000000000000 0.00000000000000000 
1 0.00000000000000000 0.00000000000000000 0.00000000000000000 1.00000000000000000 
1 4.56028803869790611 0.00000000000000000 -0.00000000000000000 -1.00000000000000000 
1 4.56028803869790611 0.00000000000000000 0.00000000000000000 -1.00000000000000000 
1 1.41869538510811632 0.00000000000000000 0.00000000000000000 1.00000000000000000 
1 0.44432891069177050 0.00000000000000000 0.00000000000000000 -1.00000000000000000 
1 0.44432891069177050 0.00000000000000000 0.00000000000000000 -1.00000000000000000 
1 -0.15210094168677823 10.00000000000000000 1.00000000000000000 0.00000000000000000 
2 17.00000000000000000 -6.52380257212003567 0.00000000000000000 1.00000000000000000 1.00000000000000000 -0.00000000000000000 0.50000000000000000
2 17.00000000000000000 -6.52380257212003567 0.00000000000000000 1.00000000000000000 1.00000000000000000 -0.00000000000000000 0.50000000000000000
1 4.63032970417439937 0.00000000000000000 0.00000000000000000 -1.00000000000000000 
1 0.00000000000000000 0.00000000000000000 0.00000000000000000 -1.00000000000000000 
1 1.65285560300518708 0.00000000000000000 0.00000000000000000 -1.00000000000000000 
1 0.00000000000000000 0.00000000000000000 0.00000000000000000 1.00000000000000000 
7 0 0  14 15 2  4.99999968800386441 -2.00000000147128798  3.67307940181526682 -1.99996206494184214  2.31787684605816269 -2.63186748915065527  1.28760615802267342 -3.94031413270158382  0.94884548037276173 -5.72503725621440029  1.61929793170675951 -7.57382923019392340  2.94673836527177313 -8.81410215330624069  5.00029978249941287 -9.59839789221547335  7.05324093364504190 -8.81362230881732422  8.38045003823578583 -7.57357472076063232  9.05077405504842858 -5.72501813022787509  8.71217477496534976 -3.94047534708267788  7.68204989141249239 -2.63202021370708561  6.32691997418996799 -2.00003793799864660  4.99999968800385997 -2.00000000147129153 
 0.00000000000000489 15 15.70796338350375265 15
7 1 0  14 15 2  4.99999968800387151 -2.00000000029425840  1.00000000000000000 3.67307940181567716 -1.99996206494234352  1.00000000000010392 2.31787684605544442 -2.63186748914842772  0.99999999999959033 1.28760615803203038 -3.94031413270761366  1.00000000000085376 0.94884548035183514 -5.72503725620073212  0.99999999999894018 1.61929793174186543 -7.57382923022262489  1.00000000000052958 2.94673836522210308 -8.81410215325504254  1.00000000000079869 5.00029978256139174 -9.59839789228636775  0.99999999999774714 7.05324093357936377 -8.81362230874543329  1.00000000000298872 8.38045003829073920 -7.57357472081593386  0.99999999999728550 9.05077405501300802 -5.72501813019586425  1.00000000000181855 8.71217477498217008 -3.94047534709688607  0.99999999999909384 7.68204989140685690 -2.63202021370236716  1.00000000000032352 6.32691997419110130 -2.00003793799963736  0.99999999999993039 4.99999968800386085 -2.00000000147128976  1.00000000000000000
 0.00000000000000489 15 15.70796338350375265 15
3 4.99999968800386885 -5.00000000000000000 -1.00000000000000000 -0.00000000000129442 0.00000000000129442 -1.00000000000000000 2.50000003678222971 2.50000000000000000
7 0 0  6 12 3  -0.00000000000000178 -6.10085769720196414  0.52359877559829737 -6.10063315258225725  1.04719755119666758 -6.10040880139240471  1.57079632679481307 -6.10029348398870752  2.09439510239324278 -6.10040880139240471  2.61799387799149308 -6.10063315258225636  3.66519142918808960 -6.10108224182167014  4.18879020478639319 -6.10130659301171363  4.71238898038402709 -6.10142191041450133  5.23598775598302524 -6.10130659301171363  5.75958653158127021 -6.10108224182167103  6.28318530717956847 -6.10085769720196414 
 4.71238898038339471 7 7.85398163397318783 5 10.99557428756298094 7
8 0.00000000000000000 15.70796338350374732
1 0.00000000000000000 0.00000000000000489 1.00000000000000000 0.00000000000000000 
7 0 0  3 4 2  -0.00000000000000178 15.70796338350375265  5.23598780683294240 15.70796338350374199  10.47197548115142496 15.70796338350375621  15.70796338350374555 15.70796338350375265 
 0.00000000000000000 4 15.70796338350374732 4
1 15.70796338350374732 0.00000000000000000 0.00000000000000000 1.00000000000000000 
7 0 0  11 32 4  -0.00003430789002268 -5.60085770750098888  0.14068874357072317 -5.60078528883486726  0.28266785254353982 -5.60071221712472322  0.42426332960191138 -5.60064129033431435  0.56833466991351000 -5.60057302666069745  0.71018832351173200 -5.60051185426930420  0.85442955791106689 -5.60045719532141995  0.99720783112172184 -5.60041256335551729  1.14067739199166351 -5.60037799027351468  1.28385022151984263 -5.60035476848769598  1.42700172781572743 -5.60034312517704436  1.71315261308138456 -5.60034301926719902  1.85615252942338294 -5.60035452312182258  1.99908648137873812 -5.60037763212555184  2.14196690240533227 -5.60041192290603096  2.28480768739469564 -5.60045655937047560  2.42762278265281228 -5.60051035189892321  2.57042477573568284 -5.60057181625272982  2.71322348545539471 -5.60063923281097509  2.85602455172065905 -5.60071070549491523  2.99882802551105421 -5.60078422093868511  3.42722482526229433 -5.60100468062040235  3.71280025789637369 -5.60115170766629955  3.99844088534533926 -5.60128247265746726  4.28402696268472383 -5.60138101469453975  4.56964313846283421 -5.60143430775178164  4.85559676582217747 -5.60143464920276024  5.14218426082182845 -5.60138140751408997  5.42934701283480781 -5.60128168123438019  5.71635834993790226 -5.60114941949866463  6.00168306407526053 -5.60100255606833475  6.28315099928956489 -5.60085770750099066 
 0.00000000000000489 12 3.92699084587594216 10 7.85398169175187899 10 15.70796338350375265 12
7 0 0  9 10 2  0.00000000000000000 -5.60085768984551802  0.68797936229217449 -5.60050364303383574  1.39947121650402551 -5.60013653357418661  2.10228789898974355 -5.60002526818425395  2.77740200379048474 -5.60044653335353360  3.50589953812595922 -5.60126902282354422  4.18095522673684172 -5.60168994391278829  4.88368170306421234 -5.60157885102307773  5.59511826876498297 -5.60121178177690737  6.28315099928956489 -5.60085770750098888 
 0.00000000000000489 10 15.70796338350375265 10
1 0.00000000000000000 0.00000000000000000 0.00000000000000000 -1.00000000000000000 
1 6.28318530717958623 0.00000000000000000 0.00000000000000000 -1.00000000000000000 
Curves 20
2 -18.00000000000000000 0.00000000000000000 0.00000000000000000 0.00000000000000000 0.00000000000000000 1.00000000000000000 1.00000000000000000 0.00000000000000000 -0.00000000000000000 -0.00000000000000000 1.00000000000000000 0.00000000000000000 2.50000000000000000
1 -15.50000000000000000 0.00000000000000000 0.00000000000000000 -0.00000000000000000 -0.00000000000000000 -1.00000000000000000 
2 -18.00000000000000000 0.00000000000000000 -0.50000000000000000 0.00000000000000000 0.00000000000000000 1.00000000000000000 1.00000000000000000 0.00000000000000000 -0.00000000000000000 -0.00000000000000000 1.00000000000000000 0.00000000000000000 2.50000000000000000
2 -18.00000000000000000 0.00000000000000000 0.00000000000000000 0.00000000000000000 0.00000000000000000 1.00000000000000000 1.00000000000000000 0.00000000000000000 -0.00000000000000000 -0.00000000000000000 1.00000000000000000 0.00000000000000000 3.00000000000000000
2 -15.00000000000000000 0.00000000000000000 -0.50000000000000000 0.00000000000000000 1.00000000000000000 0.00000000000000000 1.00000000000000000 0.00000000000000000 0.00000000000000000 0.00000000000000000 0.00000000000000000 -1.00000000000000000 0.50000000000000000
2 -18.00000000000000000 0.00000000000000000 -9.50000000000000000 0.00000000000000000 0.00000000000000000 1.00000000000000000 1.00000000000000000 0.00000000000000000 -0.00000000000000000 -0.00000000000000000 1.00000000000000000 0.00000000000000000 2.50000000000000000
2 -15.00000000000000000 0.00000000000000000 -9.50000000000000000 0.00000000000000000 -1.00000000000000000 0.00000000000000000 1.00000000000000000 0.00000000000000000 0.00000000000000000 -0.00000000000000000 0.00000000000000000 1.00000000000000000 0.50000000000000000
2 -18.00000000000000000 0.00000000000000000 -10.00000000000000000 0.00000000000000000 0.00000000000000000 1.00000000000000000 1.00000000000000000 0.00000000000000000 -0.00000000000000000 -0.00000000000000000 1.00000000000000000 0.00000000000000000 3.00000000000000000
8 0.15210094168677826 1.57079632679489656
2 -1.00000000000000155 -6.52380257212003567 0.00000000000000000 -0.00000000000000000 -0.00000000000000000 -1.00000000000000000 0.00000000000000000 1.00000000000000000 -0.00000000000000000 1.00000000000000000 -0.00000000000000000 0.00000000000000000 0.50000000000000000
2 -0.00000000000000015 -0.00000000000000021 0.00000000000000000 0.00000000000000000 0.00000000000000000 1.00000000000000000 1.00000000000000000 0.00000000000000000 -0.00000000000000000 -0.00000000000000000 1.00000000000000000 0.00000000000000000 6.09999999999999964
1 -0.50000000000000155 -6.07947366142826517 0.00000000000000000 0.00000000000000000 -1.00000000000000000 0.00000000000000000 
1 -0.92424242424242753 -6.02957510453518442 0.00000000000000000 -0.00000000000000000 -0.00000000000000000 -1.00000000000000000 
1 -0.50000000000000155 -6.52380257212003567 0.00000000000000000 -0.00000000000000000 -0.00000000000000000 -1.00000000000000000 
8 0.15210094168677826 1.57079632679489656
2 -1.00000000000000155 -6.52380257212003567 -10.00000000000000000 -0.00000000000000000 -0.00000000000000000 -1.00000000000000000 0.00000000000000000 1.00000000000000000 -0.00000000000000000 1.00000000000000000 -0.00000000000000000 0.00000000000000000 0.50000000000000000
1 -0.50000000000000155 -6.07947366142826517 0.00000000000000000 -0.00000000000000000 -0.00000000000000000 -1.00000000000000000 
7 1 0  14 15 2  -6.10085769720196414 -16.99999999999999645 -2.00000000029425840  1.00000000000000000 -6.10063007802441426 -18.32692026666535767 -1.99996206494234352  1.00000000000010392 -6.10039760732192438 -19.68212280248664214 -2.63186748914842772  0.99999999999959033 -6.10022087525346990 -20.71239347535179576 -3.94031413270761366  1.00000000000085376 -6.10016276443303607 -21.05115414804783924 -5.72503725620073212  0.99999999999894018 -6.10027777347824784 -20.38070170652210322 -7.57382923022262489  1.00000000000052958 -6.10050548188167596 -19.05326129257235479 -8.81410215325504254  1.00000000000079869 -6.10085774868020891 -16.99969990544689225 -9.59839789228636775  0.99999999999774714 -6.10120990907792127 -14.94675878463361940 -8.81362230874543329  1.00000000000298872 -6.10143757779978202 -13.61954969944932969 -7.57357472081593386  0.99999999999728550 -6.10155256481319874 -12.94922569258946510 -5.72501813019586425  1.00000000000181855 -6.10149448167887432 -13.28782496763852805 -3.94047534709688607  0.99999999999909384 -6.10131777462162272 -14.31794983605772664 -2.63202021370236716  1.00000000000032352 -6.10108531637951934 -15.67307973333560156 -2.00003793799963736  0.99999999999993039 -6.10085769720196414 -17.00000000000000711 -2.00000000147128976  1.00000000000000000
 0.00000000000000489 15 15.70796338350375265 15
3 -6.10085769720196414 -17.00000000000000000 -5.00000000000000000 0.99999998528710832 0.00017153945109688 0.00000000000000000 0.00017153945109688 -0.99999998528710832 -0.00000000000129442 -0.00000000000000022 0.00000000000129442 -1.00000000000000000 2.50000003678222971 2.50000000000000000
7 1 0  2 3 2  -6.10085769720196414 -16.99999999999999645 -2.00000000029425840  1.00000000000000000 -6.10085769720196325 -17.00000000000000711 -2.49999999852871202  0.70710678326726450 -5.60085768984551802 -17.00000000000000000 -2.50000000000000044  1.00000000000000000
 0.00000000000000000 3 15.70796338350374732 3
7 1 0  14 15 2  -5.60085768984551802 -17.00000000000000000 -2.50000000000000044  1.00000000000000000 -5.60063008832372233 -18.10568111796944990 -2.49996206494206552  1.00000000000010392 -5.60039761637512790 -19.23502261613401387 -3.02654351312048409  0.99999999999959033 -5.60022088180599908 -20.09359366452107665 -4.11691500454785864  1.00000000000085376 -5.60016276821581638 -20.37590766599437231 -5.60419931082905087  0.99999999999894018 -5.60027777946060823 -19.81718664186068324 -7.14487888131746907  1.00000000000052958 -5.60050549184238644 -18.71096692458364785 -8.17845853537746770  1.00000000000079869 -5.60085776927960399 -16.99961413584507142 -8.83199811158126380  0.99999999999774714 -5.60120991901788834 -15.28888161297862958 -8.17797869093270080  1.00000000000298872 -5.60143758379648204 -14.18289322475229142 -7.14462437184086152  0.99999999999728550 -5.60155256859332251 -13.62430063516828405 -5.60418018486091096  1.00000000000181855 -5.60149448823170992 -13.90645323901749109 -4.11707621892817599  0.99999999999909384 -5.60131778367385547 -14.76487848296096317 -3.02669623767434981  1.00000000000032352 -5.60108532667836467 -15.89414734258089013 -2.50003793799903118  0.99999999999993039 -5.60085770750098888 -16.99991423027496396 -2.50000000147128976  1.00000000000000000
 0.00000000000000489 15 15.70796338350375265 15
1 0.00000000000000056 -17.00000000000000000 -2.50000000000000178 -1.00000000000000000 0.00000000000000000 0.00000000000000022 
Polygon3D 0
PolygonOnTriangulations 0
Surfaces 11
2 -18.00000000000000000 0.00000000000000000 0.00000000000000000 0.00000000000000000 0.00000000000000000 1.00000000000000000 1.00000000000000000 0.00000000000000000 -0.00000000000000000 -0.00000000000000000 1.00000000000000000 0.00000000000000000 2.50000000000000000
1 -18.00000000000000000 0.00000000000000017 0.00000000000000000 0.00000000000000000 0.00000000000000000 1.00000000000000000 1.00000000000000000 0.00000000000000000 -0.00000000000000000 -0.00000000000000000 1.00000000000000000 0.00000000000000000 
5 -18.00000000000000000 0.00000000000000000 -0.50000000000000000 -0.00000000000000000 -0.00000000000000000 -1.00000000000000000 1.00000000000000000 0.00000000000000000 0.00000000000000000 -0.00000000000000000 1.00000000000000000 -0.00000000000000000 3.00000000000000000 0.50000000000000000
5 -18.00000000000000000 0.00000000000000000 -9.50000000000000000 0.00000000000000000 0.00000000000000000 1.00000000000000000 1.00000000000000000 0.00000000000000000 -0.00000000000000000 -0.00000000000000000 1.00000000000000000 0.00000000000000000 3.00000000000000000 0.50000000000000000
2 -1.00000000000000155 -6.52380257212003567 0.00000000000000000 -0.00000000000000000 -0.00000000000000000 -1.00000000000000000 0.15151515151514813 0.98845493516970306 -0.00000000000000000 0.98845493516970306 -0.15151515151514813 0.00000000000000000 0.50000000000000000
2 -0.00000000000000015 -0.00000000000000021 0.00000000000000000 0.00000000000000000 0.00000000000000000 1.00000000000000000 1.00000000000000000 0.00000000000000000 -0.00000000000000000 -0.00000000000000000 1.00000000000000000 0.00000000000000000 6.09999999999999964
1 -0.50000000000000155 -6.07947366142826517 0.00000000000000000 -1.00000000000000000 0.00000000000000000 0.00000000000000000 0.00000000000000000 -1.00000000000000000 0.00000000000000000 0.00000000000000000 0.00000000000000000 1.00000000000000000 
2 -0.00000000000000015 0.00000000000000021 0.00000000000000000 -0.00000000000000000 -0.00000000000000000 1.00000000000000000 1.00000000000000000 0.00000000000000000 0.00000000000000000 0.00000000000000000 -1.00000000000000000 -0.00000000000000000 6.09999999999999964
1 -6.09999999999999964 -21.99999961443941388 0.00000000000000000 0.99999998528710832 0.00017153945109688 -0.00000000000000000 -0.00017153945109688 0.99999998528710832 0.00000000000000000 0.00000000000000000 0.00000000000000000 1.00000000000000000 
9 1 1 0 0 2 14 3 15 2 2 -6.10085769720196414 -16.99999999999999645 -2.00000000029425840  1.00000000000000000 -6.10063007802441426 -18.32692026666535767 -1.99996206494234352  1.00000000000010392 -6.10039760732192438 -19.68212280248664214 -2.63186748914842772  0.99999999999959033 -6.10022087525346990 -20.71239347535179576 -3.94031413270761366  1.00000000000085376 -6.10016276443303607 -21.05115414804783924 -5.72503725620073212  0.99999999999894018 -6.10027777347824784 -20.38070170652210322 -7.57382923022262489  1.00000000000052958 -6.10050548188167596 -19.05326129257235479 -8.81410215325504254  1.00000000000079869 -6.10085774868020891 -16.99969990544689225 -9.59839789228636775  0.99999999999774714 -6.10120990907792127 -14.94675878463361940 -8.81362230874543329  1.00000000000298872 -6.10143757779978202 -13.61954969944932969 -7.57357472081593386  0.99999999999728550 -6.10155256481319874 -12.94922569258946510 -5.72501813019586425  1.00000000000181855 -6.10149448167887432 -13.28782496763852805 -3.94047534709688607  0.99999999999909384 -6.10131777462162272 -14.31794983605772664 -2.63202021370236716  1.00000000000032352 -6.10108531637951934 -15.67307973333560156 -2.00003793799963736  0.99999999999993039 -6.10085769720196414 -17.00000000000000711 -2.00000000147128976  1.00000000000000000 
-6.10085769720196325 -17.00000000000000711 -2.49999999852871202  0.70710678326726450 -6.10066800735675141 -18.10580884605327867 -2.49999999852799970  0.70707995809037560 -6.10047428033093375 -19.23515268771297926 -3.02665946878231074  0.70705255990802007 -6.10032701837667979 -20.09362548783083113 -4.11710347854972714  0.70703172932689151 -6.10027862807009136 -20.37571980380801406 -5.60423578519860754  0.70702487813268089 -6.10037445268141187 -19.81710424078294253 -7.14464104053743121  0.70703843427030011 -6.10056417283246066 -18.71111870268572375 -8.17780424674020878  0.70706527396608265 -6.10085756850903493 -17.00075023790272155 -8.83199969604717339  0.70710679963763490 -6.10115119571777953 -15.28903198598296953 -8.17863072148533909  0.70714829149025071 -6.10134095612824634 -14.18281180208183478 -7.14486273131022553  0.70717511852881720 -6.10143679509045267 -13.62411254296031515 -5.60414365003545889  0.70718866767619026 -6.10138835706353433 -13.90648506994756772 -4.11688787581320526  0.70718182528092477 -6.10124108642430851 -14.76500848926693976 -3.02658029738921108  0.70716100266274828 -6.10104737265547659 -15.89427505186324296 -2.49999999852785937  0.70713360844392581 -6.10085769720196325 -17.00000000000000000 -2.49999999852871335  0.70710678326726450 
-5.60085768984551802 -17.00000000000000000 -2.50000000000000044  1.00000000000000000 -5.60063008832372233 -18.10568111796944990 -2.49996206494206552  1.00000000000010392 -5.60039761637512790 -19.23502261613401387 -3.02654351312048409  0.99999999999959033 -5.60022088180599908 -20.09359366452107665 -4.11691500454785864  1.00000000000085376 -5.60016276821581638 -20.37590766599437231 -5.60419931082905087  0.99999999999894018 -5.60027777946060823 -19.81718664186068324 -7.14487888131746907  1.00000000000052958 -5.60050549184238644 -18.71096692458364785 -8.17845853537746770  1.00000000000079869 -5.60085776927960399 -16.99961413584507142 -8.83199811158126380  0.99999999999774714 -5.60120991901788834 -15.28888161297862958 -8.17797869093270080  1.00000000000298872 -5.60143758379648204 -14.18289322475229142 -7.14462437184086152  0.99999999999728550 -5.60155256859332251 -13.62430063516828405 -5.60418018486091096  1.00000000000181855 -5.60149448823170992 -13.90645323901749109 -4.11707621892817599  0.99999999999909384 -5.60131778367385547 -14.76487848296096317 -3.02669623767434981  1.00000000000032352 -5.60108532667836467 -15.89414734258089013 -2.50003793799903118  0.99999999999993039 -5.60085770750098888 -16.99991423027496396 -2.50000000147128976  1.00000000000000000 

0.00000000000000000 3
15.70796338350374732 3

0.00000000000000489 15
15.70796338350375265 15

2 -0.00000000000000000 -17.00000000000000000 -5.00000000000000178 1.00000000000000000 0.00000000000000000 -0.00000000000000022 0.00000000000000022 0.00000000000000000 1.00000000000000000 0.00000000000000000 -1.00000000000000000 0.00000000000000000 2.50000000000000000
Triangulations 0

TShapes 78
Co

0100000
*
Ve
0.000000100000000
-15.500000000000000 0.000000000000000 0.000000000000000
0 0

0101101
*
Ed
 0.000000100000000 1 1 0
1  1 0 0.000000000000000 6.283185307179586
2  1 1 10 0.000000000000000 6.283185307179586
2  2 1 12 0.000000000000000 6.283185307179586
2  3 2 13 0.000000000000000 6.283185307179586
0

0101000
+77 0 -77 0 *
Ve
0.000000100000001
-15.500000000000000 0.000000000000000 -0.500000000000000
0 0

0101101
*
Ed
 0.000000100000000 1 1 0
1  2 0 0.000000000000000 0.500000000000000
3  4 5CN 1 0 0.000000000000000 0.500000000000000
0

0101000
+77 14 -75 16 *
Ed
 0.000000100000001 1 1 0
1  3 0 0.000000000000000 6.283185307179586
2  6 3 0 0.000000000000000 6.283185307179586
2  7 1 18 0.000000000000000 6.283185307179586
4 G1 3 0 1 18
2  8 1 19 0.000000000000000 6.283185307179586
0

0101000
+75 0 -75 0 *
Wi

0101100
-76 9 -74 5 +73 15 +74 5 *
Fa
0  0.000000100000000 1 5

0111000
+72 0 *
Ve
0.000000100000000
-15.000000000000000 0.000000000000000 0.000000000000000
0 0

0101101
*
Ed
 0.000000100000000 1 1 0
1  4 0 0.000000000000000 6.283185307179586
2  9 3 0 0.000000000000000 6.283185307179586
2  10 2 21 0.000000000000000 6.283185307179586
4 G1 3 0 2 21
2  11 2 22 0.000000000000000 6.283185307179586
0

0101000
+70 0 -70 0 *
Wi

0101100
+69 15 *
Wi

0101100
-76 9 *
Fa
0  0.000000100000000 2 20

0111000
+68 0 +67 0 *
Ed
 0.000000100000000 1 1 0
1  5 0 3.141592653589793 4.712388980384690
3  12 13CN 3 0 3.141592653589793 4.712388980384690
0

0101000
+75 0 -70 0 *
Wi

0101100
-65 0 +73 0 -69 0 +65 0 *
Fa
0  0.000000000000000 3 0

0111000
+64 0 *
Sh

0101100
-71 0 +66 0 +63 15 *
So

0100000
+62 0 *
Ve
0.000000100000001
-15.500000000000000 0.000000000000000 -9.500000000000000
0 0

0101101
*
Ed
 0.000000100000001 1 1 0
1  6 0 0.000000000000000 6.283185307179586
2  14 4 0 0.000000000000000 6.283185307179586
2  15 1 18 0.000000000000000 6.283185307179586
4 G1 4 0 1 18
2  16 1 19 0.000000000000000 6.283185307179586
0

0101000
+60 0 -60 0 *
Ed
 0.000000100000000 1 1 0
1  2 0 9.500000000000000 10.000000000000000
3  4 5CN 1 0 9.500000000000000 10.000000000000000
0

0101000
+60 16 -77 23 *
Wi

0101100
-59 15 -58 5 +76 24 +58 5 *
Fa
0  0.000000100000000 1 5

0111000
+57 0 *
Ve
0.000000100000000
-15.000000000000000 0.000000000000000 -10.000000000000000
0 0

0101101
*
Ed
 0.000000100000000 1 1 0
1  7 0 3.141592653589793 4.712388980384690
3  17 18CN 4 0 3.141592653589793 4.712388980384690
0

0101000
+60 0 -55 0 *
Ed
 0.000000100000000 1 1 0
1  8 0 0.000000000000000 6.283185307179586
2  19 4 0 0.000000000000000 6.283185307179586
2  20 2 25 0.000000000000000 6.283185307179586
4 G1 4 0 2 25
2  21 2 26 0.000000000000000 6.283185307179586
0

0101000
+55 0 -55 0 *
Wi

0101100
-54 0 +59 0 -53 0 +54 0 *
Fa
0  0.000000000000000 4 0

0111000
+52 0 *
Wi

0101100
+53 15 *
Wi

0101100
-76 24 *
Fa
0  0.000000100000000 2 27

0111000
+50 0 +49 0 *
Sh

0101100
-56 0 -51 15 -48 0 *
So

0100000
+47 0 *
Ve
0.000009709875330
-0.924242424242428 -6.029575104535184 0.000000000000000
0 0

0101101
*
Ve
0.000000100000000
-0.500000000000002 -6.523802572120036 0.000000000000000
0 0

0101101
*
Ed
 0.000000100000000 1 1 0
1  9 0 0.152100941686778 1.570796326794897
2  22 5 0 0.152100941686778 1.570796326794897
2  23 2 21 0.152100941686778 1.570796326794897
2  24 2 22 0.152100941686778 1.570796326794897
0

0101000
+45 0 -44 0 *
Ve
0.000000100000003
-0.500000000000002 -6.079473661428265 0.000000000000000
0 0

0101101
*
Ed
 0.000000100000000 1 1 0
1  10 0 4.560288038697906 4.630329704174399
2  25 6 10 4.560288038697906 4.630329704174399
2  26 6 12 4.560288038697906 4.630329704174399
2  27 2 13 4.560288038697906 4.630329704174399
0

0101000
+45 28 -42 0 *
Ed
 0.000000100000000 1 1 0
1  11 0 0.000000000000000 0.444328910691770
2  28 2 13 0.000000000000000 0.444328910691770
2  29 7 10 0.000000000000000 0.444328910691770
2  30 7 12 0.000000000000000 0.444328910691770
0

0101000
+42 0 -44 28 *
Wi

0101100
+43 15 -41 9 -40 9 *
Fa
0  0.000000100000000 2 20

0111000
+39 0 *
Ve
0.000009709875330
-0.924242424242428 -6.029575104535184 -10.000000000000000
0 0

0101101
*
Ed
 0.000000100000000 1 1 0
1  12 0 -0.000000000000000 10.000000000000000
2  31 5 0 -0.000000000000000 10.000000000000000
2  32 6 18 -0.000000000000000 10.000000000000000
4 G1 5 0 6 18
2  33 6 19 -0.000000000000000 10.000000000000000
0

0101000
+45 0 -37 0 *
Ve
0.000000100000000
-0.500000000000002 -6.523802572120036 -10.000000000000000
0 0

0101101
*
Ed
 0.000000100000000 1 1 0
1  13 0 -0.000000000000000 10.000000000000000
2  34 5 0 -0.000000000000000 10.000000000000000
2  35 7 18 -0.000000000000000 10.000000000000000
4 G1 5 0 7 18
2  36 7 19 -0.000000000000000 10.000000000000000
0

0101000
+44 0 -35 0 *
Ed
 0.000000100000000 1 1 0
1  14 0 0.152100941686778 1.570796326794897
2  37 5 0 0.152100941686778 1.570796326794897
2  38 2 25 0.152100941686778 1.570796326794897
2  39 2 26 0.152100941686778 1.570796326794897
0

0101000
+37 0 -35 0 *
Wi

0101100
+43 0 -36 0 +34 0 -33 0 *
Fa
0  0.000000000000000 5 0

0111000
+32 0 *
Ed
 0.000000100000000 1 1 0
1  15 0 0.000000000000000 10.000000000000000
2  40 6 0 0.000000000000000 10.000000000000000
2  41 7 0 0.000000000000000 10.000000000000000
2  42 8 31 0.000000000000000 10.000000000000000
0

0101000
+42 14 -42 23 *
Ed
 0.000000100000000 1 1 0
1  10 0 4.560288038697906 4.630329704174399
2  25 6 10 4.560288038697906 4.630329704174399
2  26 6 12 4.560288038697906 4.630329704174399
2  27 2 13 4.560288038697906 4.630329704174399
0

0101000
+37 32 -42 0 *
Wi

0101100
-41 9 -30 5 +29 24 +36 15 *
Fa
0  0.000000100000000 6 5

0111000
+28 0 *
Ed
 0.000000100000000 1 1 0
1  11 0 0.000000000000000 0.444328910691770
2  28 2 13 0.000000000000000 0.444328910691770
2  29 7 10 0.000000000000000 0.444328910691770
2  30 7 12 0.000000000000000 0.444328910691770
0

0101000
+42 0 -35 32 *
Wi

0101100
-40 9 -34 15 +26 24 +30 5 *
Fa
0  0.000000100000000 7 5

0111000
+25 0 *
Wi

0101100
+33 15 -29 24 -26 24 *
Fa
0  0.000000100000000 2 27

0111000
+23 0 *
Sh

0101100
+38 0 -31 15 -27 0 -24 0 -22 0 *
So

0100000
+21 0 *
Ve
0.000171539452104
-6.100857697201964 -16.999999999999996 -2.000000000294258
0 0

0101101
*
Ed
 0.000006807287497 1 1 0
1  16 0 0.000000000000005 15.707963383503753
2  43 10 0 0.000000000000005 15.707963383503753
2  44 9 18 0.000000000000005 15.707963383503753
4 G1 10 0 9 18
2  45 9 19 0.000000000000005 15.707963383503753
0

0101000
+19 0 -19 0 *
Wi

0101100
+18 15 *
Ve
0.000000100000004
-6.100857697201964 -17.000000000000000 -2.500000000000000
0 0

0101101
*
Ed
 0.000000100000000 1 1 0
1  17 0 4.712388980383395 10.995574287562981
2  46 9 34 4.712388980383395 10.995574287562981
2  47 11 0 4.712388980383395 10.995574287562981
0

0101000
+16 0 -16 0 *
Wi

0101100
-15 33 *
Fa
0  0.000000100000000 9 5

0111000
+17 0 +14 0 *
Ve
0.000171539453739
-5.600857689845518 -17.000000000000000 -2.500000000000000
0 0

0101101
*
Ed
 0.000090058212355 1 1 0
1  18 0 0.000000000000000 15.707963383503747
3  48 49G1 10 0 0.000000000000000 15.707963383503747
0

0101000
+19 0 -12 0 *
Ed
 0.000090058213213 1 1 0
1  19 0 0.000000000000005 15.707963383503753
2  50 10 0 0.000000000000005 15.707963383503753
2  51 11 17 0.000000000000005 15.707963383503753
4 G1 10 0 11 17
2  52 11 35 0.000000000000005 15.707963383503753
0

0101000
+12 0 -12 0 *
Wi

0101100
+11 0 -18 0 +10 0 -11 0 *
Fa
0  0.000006807287497 10 0

0111000
+9 0 *
Ed
 0.000000100000000 1 1 0
1  20 0 5.600857689845519 6.100857697201965
3  53 54CN 11 0 5.600857689845519 6.100857697201965
0

0101000
+12 36 -16 0 *
Wi

0101100
-10 15 -7 33 +15 33 +7 33 *
Fa
0  0.000000100000000 11 33

0111000
+6 0 *
Sh

0101100
-13 0 -8 15 -5 0 *
So

0100000
+4 0 *
Co

0100000
+61 0 +46 0 +20 0 +3 0 *
Co

1100000
+78 0 +2 0 *

+1 0 