
CASCADE Topology V1, (c) Matra-Datavision
Locations 35
1
1.000000000000000 0.000000000000000 0.000000000000000 0.000000000000000 
0.000000000000000 1.000000000000000 0.000000000000000 0.000000000000000 
0.000000000000000 0.000000000000000 1.000000000000000 0.000000000000000 
1
1.000000000000000 0.000000000000000 0.000000000000000 0.000000000000000 
0.000000000000000 1.000000000000000 0.000000000000000 0.000000000000000 
0.000000000000000 0.000000000000000 1.000000000000000 0.000000000000000 
1
1.000000000000000 0.000000000000000 0.000000000000000 0.000000000000000 
0.000000000000000 1.000000000000000 0.000000000000000 0.000000000000000 
0.000000000000000 0.000000000000000 1.000000000000000 0.000000000000000 
2  2 1 3 -1 0
1
1.000000000000000 0.000000000000000 0.000000000000000 0.000000000000000 
0.000000000000000 1.000000000000000 0.000000000000000 0.000000000000000 
0.000000000000000 0.000000000000000 1.000000000000000 0.000000000000000 
1
1.000000000000000 0.000000000000000 0.000000000000000 0.000000000000000 
0.000000000000000 1.000000000000000 0.000000000000000 0.000000000000000 
0.000000000000000 0.000000000000000 1.000000000000000 0.000000000000000 
1
1.000000000000000 0.000000000000000 0.000000000000000 0.000000000000000 
0.000000000000000 1.000000000000000 0.000000000000000 0.000000000000000 
0.000000000000000 0.000000000000000 1.000000000000000 0.000000000000000 
2  5 1 6 1 7 -1 0
1
1.000000000000000 0.000000000000000 0.000000000000000 0.000000000000000 
0.000000000000000 1.000000000000000 0.000000000000000 0.000000000000000 
0.000000000000000 0.000000000000000 1.000000000000000 4.000000000000000 
2  5 1 6 1 7 -1 9 1 0
1
1.000000000000000 0.000000000000000 0.000000000000000 0.000000000000000 
0.000000000000000 1.000000000000000 0.000000000000000 0.000000000000000 
0.000000000000000 0.000000000000000 1.000000000000000 0.000000000000000 
1
1.000000000000000 0.000000000000000 0.000000000000000 0.000000000000000 
0.000000000000000 1.000000000000000 0.000000000000000 0.000000000000000 
0.000000000000000 0.000000000000000 1.000000000000000 0.000000000000000 
2  11 -1 12 -1 0
2  7 -1 2 1 3 -1 0
2  11 -1 12 -1 5 1 6 1 0
2  5 1 6 1 0
1
1.000000000000000 0.000000000000000 0.000000000000000 0.000000000000000 
0.000000000000000 1.000000000000000 0.000000000000000 0.000000000000000 
0.000000000000000 0.000000000000000 1.000000000000000 0.000000000000000 
1
1.000000000000000 0.000000000000000 0.000000000000000 0.000000000000000 
0.000000000000000 1.000000000000000 0.000000000000000 0.000000000000000 
0.000000000000000 0.000000000000000 1.000000000000000 0.000000000000000 
1
1.000000000000000 0.000000000000000 0.000000000000000 0.000000000000000 
0.000000000000000 1.000000000000000 0.000000000000000 0.000000000000000 
0.000000000000000 0.000000000000000 1.000000000000000 0.000000000000000 
2  17 1 18 -1 19 -1 0
1
1.000000000000000 0.000000000000000 0.000000000000000 0.000000000000000 
0.000000000000000 1.000000000000000 0.000000000000000 0.000000000000000 
0.000000000000000 0.000000000000000 1.000000000000000 5.000000000000000 
2  21 -1 17 1 18 -1 19 -1 0
2  11 -1 12 -1 5 1 6 1 7 -1 9 1 2 1 3 -1 0
2  5 1 6 1 7 -1 9 1 2 1 3 -1 0
1
1.000000000000000 0.000000000000000 0.000000000000000 0.000000000000000 
0.000000000000000 1.000000000000000 0.000000000000000 0.000000000000000 
0.000000000000000 0.000000000000000 1.000000000000000 0.000000000000000 
1
1.000000000000000 0.000000000000000 0.000000000000000 0.000000000000000 
0.000000000000000 1.000000000000000 0.000000000000000 0.000000000000000 
0.000000000000000 0.000000000000000 1.000000000000000 4.000000000000000 
2  25 1 26 1 3 -1 0
2  3 1 26 -1 25 -1 0
1
1.000000000000000 0.000000000000000 0.000000000000000 -0.000000000000000 
0.000000000000000 1.000000000000000 0.000000000000000 -0.000000000000000 
0.000000000000000 0.000000000000000 1.000000000000000 -1.500000000000000 
2  29 -1 3 1 26 -1 25 -1 0
2  26 -1 25 -1 0
2  11 -1 12 -1 5 1 6 1 7 -1 9 1 2 1 26 -1 25 -1 0
2  25 1 26 1 3 -1 29 1 0
2  3 -1 29 1 0
2  25 1 26 1 0
Curve2ds 36
1 25.00000000000000000 15.00000000000000000 -1.00000000000000000 0.00000000000000000 
1 25.00000000000000000 -15.00000000000000000 0.00000000000000000 1.00000000000000000 
1 -25.00000000000000000 15.00000000000000000 0.00000000000000000 -1.00000000000000000 
1 -25.00000000000000000 -15.00000000000000000 1.00000000000000000 0.00000000000000000 
1 0.00000000000000000 -0.00000000000000000 1.00000000000000000 0.00000000000000000 
1 0.00000000000000000 -5.00000000000000000 1.00000000000000000 0.00000000000000000 
1 0.00000000000000000 0.00000000000000000 1.00000000000000000 0.00000000000000000 
1 0.00000000000000000 -1.50000000000000000 1.00000000000000000 0.00000000000000000 
1 17.31694257808610260 13.73540256233871304 -1.00000000000000000 0.00000000000000000 
1 17.15475189748055485 13.49999999999999822 -1.00000000000000000 0.00000000000000000 
1 0.00000000000000000 0.00000000000000000 1.00000000000000000 0.00000000000000000 
1 0.00000000000000000 -1.50000000000000000 1.00000000000000000 0.00000000000000000 
1 -23.33780931939444869 13.73540256233871304 0.00000000000000000 -1.00000000000000000 
1 -23.49999999999999645 13.49999999999999822 0.00000000000000000 -1.00000000000000000 
1 0.00000000000000000 0.00000000000000000 1.00000000000000000 0.00000000000000000 
1 0.00000000000000000 -1.50000000000000000 1.00000000000000000 0.00000000000000000 
1 -23.33780931939444869 -13.26459743766128518 1.00000000000000000 0.00000000000000000 
1 -23.49999999999999645 -13.50000000000000000 1.00000000000000000 0.00000000000000000 
1 0.00000000000000000 0.00000000000000000 1.00000000000000000 0.00000000000000000 
1 0.00000000000000000 -1.50000000000000000 1.00000000000000000 0.00000000000000000 
1 23.66219068060555131 -13.26459743766128518 0.00000000000000000 1.00000000000000000 
1 23.50000000000000355 -13.50000000000000000 0.00000000000000000 1.00000000000000000 
1 0.00000000000000000 0.00000000000000000 1.00000000000000000 0.00000000000000000 
1 0.00000000000000000 -1.50000000000000000 1.00000000000000000 0.00000000000000000 
2 20.36219068060554704 10.43540256233871411 -1.00000000000000000 0.00000000000000000 0.00000000000000000 1.00000000000000000 4.49038261241715020
2 20.19999999999999929 10.19999999999999929 -1.00000000000000000 0.00000000000000000 0.00000000000000000 1.00000000000000000 4.49038261241715020
1 7.10871037303126396 0.00000000000000000 0.00000000000000000 -1.00000000000000000 
1 0.00000000000000000 0.00000000000000000 0.00000000000000000 -1.00000000000000000 
1 40.65475189748055129 0.00000000000000000 0.00000000000000000 -1.00000000000000000 
1 0.00000000000000000 0.00000000000000000 0.00000000000000000 -1.00000000000000000 
1 27.00000000000000000 0.00000000000000000 0.00000000000000000 -1.00000000000000000 
1 0.00000000000000000 0.00000000000000000 0.00000000000000000 -1.00000000000000000 
1 47.00000000000000000 0.00000000000000000 0.00000000000000000 -1.00000000000000000 
1 0.00000000000000000 0.00000000000000000 0.00000000000000000 -1.00000000000000000 
1 3.88686391453301017 0.00000000000000000 0.00000000000000000 -1.00000000000000000 
1 20.65475189748055840 0.00000000000000000 0.00000000000000000 -1.00000000000000000 
Curves 18
1 -25.00000000000000000 15.00000000000000000 0.00000000000000000 0.00000000000000000 0.00000000000000000 1.00000000000000000 
1 25.00000000000000000 15.00000000000000000 0.00000000000000000 0.00000000000000000 0.00000000000000000 1.00000000000000000 
1 -25.00000000000000000 15.00000000000000000 0.00000000000000000 1.00000000000000000 0.00000000000000000 0.00000000000000000 
1 -25.00000000000000000 -15.00000000000000000 0.00000000000000000 0.00000000000000000 0.00000000000000000 1.00000000000000000 
1 -25.00000000000000000 -15.00000000000000000 0.00000000000000000 0.00000000000000000 1.00000000000000000 0.00000000000000000 
1 25.00000000000000000 -15.00000000000000000 0.00000000000000000 0.00000000000000000 0.00000000000000000 1.00000000000000000 
1 25.00000000000000000 15.00000000000000000 0.00000000000000000 0.00000000000000000 -1.00000000000000000 0.00000000000000000 
1 25.00000000000000000 -15.00000000000000000 0.00000000000000000 -1.00000000000000000 0.00000000000000000 0.00000000000000000 
1 -17.15475189748055485 13.49999999999999822 0.00000000000000000 1.00000000000000000 0.00000000000000000 0.00000000000000000 
1 23.49999999999999645 13.49999999999999822 0.00000000000000000 0.00000000000000000 -1.00000000000000000 0.00000000000000000 
1 23.49999999999999645 -13.50000000000000000 0.00000000000000000 -1.00000000000000000 0.00000000000000000 0.00000000000000000 
1 -23.50000000000000355 -13.50000000000000000 0.00000000000000000 0.00000000000000000 1.00000000000000000 0.00000000000000000 
2 -20.19999999999999929 10.19999999999999929 0.00000000000000000 0.00000000000000000 0.00000000000000000 1.00000000000000000 1.00000000000000000 0.00000000000000000 -0.00000000000000000 -0.00000000000000000 1.00000000000000000 0.00000000000000000 4.49038261241715109
1 -17.15475189748055485 13.49999999999999822 4.00000000000000000 -0.00000000000000000 -0.00000000000000000 -1.00000000000000000 
1 23.49999999999999645 13.49999999999999822 4.00000000000000000 -0.00000000000000000 -0.00000000000000000 -1.00000000000000000 
1 23.49999999999999645 -13.50000000000000000 4.00000000000000000 -0.00000000000000000 -0.00000000000000000 -1.00000000000000000 
1 -23.50000000000000355 -13.50000000000000000 4.00000000000000000 -0.00000000000000000 -0.00000000000000000 -1.00000000000000000 
1 -23.50000000000000355 7.15475189748055929 4.00000000000000000 -0.00000000000000000 -0.00000000000000000 -1.00000000000000000 
Polygon3D 0
PolygonOnTriangulations 0
Surfaces 12
1 -25.00000000000000000 15.00000000000000000 0.00000000000000000 0.00000000000000000 1.00000000000000000 0.00000000000000000 1.00000000000000000 0.00000000000000000 0.00000000000000000 0.00000000000000000 0.00000000000000000 -1.00000000000000000 
1 0.00000000000000000 0.00000000000000000 0.00000000000000000 -0.00000000000000000 -0.00000000000000000 -1.00000000000000000 -1.00000000000000000 0.00000000000000000 0.00000000000000000 0.00000000000000000 1.00000000000000000 -0.00000000000000000 
1 -25.00000000000000000 -15.00000000000000000 0.00000000000000000 -1.00000000000000000 0.00000000000000000 0.00000000000000000 0.00000000000000000 1.00000000000000000 0.00000000000000000 0.00000000000000000 0.00000000000000000 -1.00000000000000000 
1 25.00000000000000000 15.00000000000000000 0.00000000000000000 1.00000000000000000 0.00000000000000000 -0.00000000000000000 0.00000000000000000 -1.00000000000000000 0.00000000000000000 0.00000000000000000 -0.00000000000000000 -1.00000000000000000 
1 25.00000000000000000 -15.00000000000000000 0.00000000000000000 0.00000000000000000 -1.00000000000000000 0.00000000000000000 -1.00000000000000000 0.00000000000000000 0.00000000000000000 -0.00000000000000000 -0.00000000000000000 -1.00000000000000000 
1 -17.15475189748055485 13.49999999999999822 4.00000000000000000 0.00000000000000000 -1.00000000000000000 0.00000000000000000 1.00000000000000000 0.00000000000000000 0.00000000000000000 -0.00000000000000000 0.00000000000000000 1.00000000000000000 
1 0.16219068060554834 -0.23540256233871487 4.00000000000000000 -0.00000000000000000 -0.00000000000000000 -1.00000000000000000 -1.00000000000000000 0.00000000000000000 0.00000000000000000 0.00000000000000000 1.00000000000000000 -0.00000000000000000 
1 23.49999999999999645 13.49999999999999822 4.00000000000000000 -1.00000000000000000 0.00000000000000000 0.00000000000000000 0.00000000000000000 -1.00000000000000000 0.00000000000000000 0.00000000000000000 0.00000000000000000 1.00000000000000000 
1 23.49999999999999645 -13.50000000000000000 4.00000000000000000 0.00000000000000000 1.00000000000000000 -0.00000000000000000 -1.00000000000000000 0.00000000000000000 0.00000000000000000 0.00000000000000000 0.00000000000000000 1.00000000000000000 
1 -23.50000000000000355 -13.50000000000000000 4.00000000000000000 1.00000000000000000 0.00000000000000000 0.00000000000000000 -0.00000000000000000 1.00000000000000000 0.00000000000000000 0.00000000000000000 -0.00000000000000000 1.00000000000000000 
2 -20.19999999999999929 10.19999999999999929 4.00000000000000000 0.00000000000000000 0.00000000000000000 1.00000000000000000 1.00000000000000000 0.00000000000000000 -0.00000000000000000 -0.00000000000000000 1.00000000000000000 0.00000000000000000 4.49038261241715109
1 25.00000000000000000 -15.00000000000000000 0.00000000000000000 0.00000000000000000 -1.00000000000000000 0.00000000000000000 -1.00000000000000000 0.00000000000000000 0.00000000000000000 -0.00000000000000000 -0.00000000000000000 -1.00000000000000000 
Triangulations 0

TShapes 54
Ve
0.000000100000000
-25.000000000000000 15.000000000000000 0.000000000000000
0 0

0101101
*
Ed
 0.000000100000000 1 1 0
1  1 0 0.000000000000000 4.000000000000000
0

0101000
+54 8 -54 10 *
Ve
0.000000100000000
25.000000000000000 15.000000000000000 0.000000000000000
0 0

0101101
*
Ed
 0.000000100000000 1 1 0
1  2 0 0.000000000000000 4.000000000000000
0

0101000
+52 8 -52 10 *
Ed
 0.000000100000000 1 1 0
1  3 0 0.000000000000000 50.000000000000000
2  1 2 13 0.000000000000000 50.000000000000000
0

0101000
+54 0 -52 0 *
Wi

0101100
+53 0 -51 0 -50 8 +50 10 *
Fa
0  0.000000100000000 1 0

0111000
+49 0 *
Ve
0.000000100000000
-25.000000000000000 -15.000000000000000 0.000000000000000
0 0

0101101
*
Ed
 0.000000100000000 1 1 0
1  4 0 0.000000000000000 4.000000000000000
0

0101000
+47 8 -47 10 *
Ed
 0.000000100000000 1 1 0
1  5 0 0.000000000000000 30.000000000000000
2  2 2 13 0.000000000000000 30.000000000000000
0

0101000
+47 0 -54 0 *
Wi

0101100
+46 0 -53 0 -45 8 +45 10 *
Fa
0  0.000000100000000 3 0

0111000
+44 0 *
Ve
0.000000100000000
25.000000000000000 -15.000000000000000 0.000000000000000
0 0

0101101
*
Ed
 0.000000100000000 1 1 0
1  6 0 0.000000000000000 4.000000000000000
0

0101000
+42 8 -42 10 *
Ed
 0.000000100000000 1 1 0
1  7 0 0.000000000000000 30.000000000000000
2  3 2 13 0.000000000000000 30.000000000000000
0

0101000
+52 0 -42 0 *
Wi

0101100
+51 0 -41 0 -40 8 +40 10 *
Fa
0  0.000000100000000 4 0

0111000
+39 0 *
Ed
 0.000000100000000 1 1 0
1  8 0 0.000000000000000 50.000000000000000
2  4 2 13 0.000000000000000 50.000000000000000
2  5 5 20 0.000000000000000 50.000000000000000
2  6 5 22 0.000000000000000 50.000000000000000
0

0101000
+42 0 -47 0 *
Wi

0101100
+50 0 +40 0 +37 0 +45 0 *
Fa
0  0.000000100000000 2 15

0111000
+36 16 *
Wi

0101100
+50 24 +45 24 +40 24 +37 24 *
Ve
0.000000100000000
-17.154751897480555 13.499999999999998 0.000000000000000
0 0

0101101
*
Ve
0.000000100000000
23.499999999999996 13.499999999999998 0.000000000000000
0 0

0101101
*
Ed
 0.000000100000000 1 1 0
1  9 0 0.000000000000000 40.654751897480551
2  7 6 28 0.000000000000000 40.654751897480551
2  8 6 30 0.000000000000000 40.654751897480551
2  9 7 31 0.000000000000000 40.654751897480551
2  10 2 32 0.000000000000000 40.654751897480551
0

0101000
+33 0 -32 0 *
Ve
0.000000100000001
23.499999999999996 -13.500000000000000 0.000000000000000
0 0

0101101
*
Ed
 0.000000100000000 1 1 0
1  10 0 0.000000000000000 27.000000000000000
2  11 8 28 0.000000000000000 27.000000000000000
2  12 8 30 0.000000000000000 27.000000000000000
2  13 7 31 0.000000000000000 27.000000000000000
2  14 2 32 0.000000000000000 27.000000000000000
0

0101000
+32 0 -30 0 *
Ve
0.000000100000000
-23.500000000000004 -13.500000000000000 0.000000000000000
0 0

0101101
*
Ed
 0.000000100000000 1 1 0
1  11 0 0.000000000000000 47.000000000000000
2  15 9 28 0.000000000000000 47.000000000000000
2  16 9 30 0.000000000000000 47.000000000000000
2  17 7 31 0.000000000000000 47.000000000000000
2  18 2 32 0.000000000000000 47.000000000000000
0

0101000
+30 0 -28 0 *
Ve
0.000000100000001
-23.500000000000004 7.154751897480559 0.000000000000000
0 0

0101101
*
Ed
 0.000000100000000 1 1 0
1  12 0 0.000000000000000 20.654751897480558
2  19 10 28 0.000000000000000 20.654751897480558
2  20 10 30 0.000000000000000 20.654751897480558
2  21 7 31 0.000000000000000 20.654751897480558
2  22 2 32 0.000000000000000 20.654751897480558
0

0101000
+28 0 -26 0 *
Ed
 0.000000100000000 1 1 0
1  13 0 3.886863914533010 7.108710373031264
2  23 11 28 3.886863914533010 7.108710373031264
2  24 11 30 3.886863914533010 7.108710373031264
2  25 7 31 3.886863914533010 7.108710373031264
2  26 2 32 3.886863914533010 7.108710373031264
0

0101000
+26 0 -33 0 *
Wi

0101100
-31 27 -29 27 -27 27 -25 27 -24 27 *
Fa
0  0.000000100000000 2 23

0111000
+34 0 +23 0 *
Wi

0101100
+41 0 -46 0 -37 8 +37 10 *
Fa
0  0.000000100000000 12 0

0111000
+21 0 *
Ed
 0.000000100000000 1 1 0
1  14 0 0.000000000000000 1.500000000000000
2  27 11 0 0.000000000000000 1.500000000000000
2  28 6 0 0.000000000000000 1.500000000000000
0

0101000
+33 27 -33 33 *
Ed
 0.000000100000000 1 1 0
1  15 0 0.000000000000000 1.500000000000000
2  29 6 0 0.000000000000000 1.500000000000000
2  30 8 0 0.000000000000000 1.500000000000000
0

0101000
+32 27 -32 33 *
Wi

0101100
+19 0 -18 0 -31 27 +31 33 *
Fa
0  0.000000100000000 6 0

0111000
+17 0 *
Ed
 0.000000100000001 1 1 0
1  16 0 0.000000000000000 1.500000000000000
2  31 8 0 0.000000000000000 1.500000000000000
2  32 9 0 0.000000000000000 1.500000000000000
0

0101000
+30 27 -30 33 *
Wi

0101100
+18 0 -15 0 -29 27 +29 33 *
Fa
0  0.000000100000000 8 0

0111000
+14 0 *
Ed
 0.000000100000000 1 1 0
1  17 0 0.000000000000000 1.500000000000000
2  33 9 0 0.000000000000000 1.500000000000000
2  34 10 0 0.000000000000000 1.500000000000000
0

0101000
+28 27 -28 33 *
Wi

0101100
+15 0 -12 0 -27 27 +27 33 *
Fa
0  0.000000100000000 9 0

0111000
+11 0 *
Ed
 0.000000100000001 1 1 0
1  18 0 0.000000000000000 1.500000000000000
2  35 11 0 0.000000000000000 1.500000000000000
2  36 10 0 0.000000000000000 1.500000000000000
0

0101000
+26 27 -26 33 *
Wi

0101100
+12 0 -9 0 -25 27 +25 33 *
Fa
0  0.000000100000000 10 0

0111000
+8 0 *
Wi

0101100
+9 0 -19 0 -24 27 +24 33 *
Fa
0  0.000000100000000 11 0

0111000
+6 0 *
Wi

0101100
+31 0 +29 0 +27 0 +25 0 +24 0 *
Fa
0  0.000000100000000 7 0

0111000
+4 35 *
Sh

0101100
+48 4 +43 4 +38 4 +35 14 -22 0 +20 4 +16 0 +13 0 +10 0 +7 0 
+5 0 -3 34 *
So

0100000
+2 0 *

+1 1 