
CASCADE Topology V1, (c) Matra-Datavision
Locations 28
1
1.000000000000000 0.000000000000000 0.000000000000000 0.000000000000000 
0.000000000000000 1.000000000000000 0.000000000000000 0.000000000000000 
0.000000000000000 0.000000000000000 1.000000000000000 0.000000000000000 
1
1.000000000000000 0.000000000000000 0.000000000000000 0.000000000000000 
0.000000000000000 1.000000000000000 0.000000000000000 0.000000000000000 
0.000000000000000 0.000000000000000 1.000000000000000 0.000000000000000 
1
1.000000000000000 0.000000000000000 0.000000000000000 0.000000000000000 
0.000000000000000 1.000000000000000 0.000000000000000 0.000000000000000 
0.000000000000000 0.000000000000000 1.000000000000000 0.000000000000000 
2  2 1 3 -1 0
1
1.000000000000000 0.000000000000000 0.000000000000000 0.000000000000000 
0.000000000000000 1.000000000000000 0.000000000000000 0.000000000000000 
0.000000000000000 0.000000000000000 1.000000000000000 0.000000000000000 
1
1.000000000000000 0.000000000000000 0.000000000000000 0.000000000000000 
0.000000000000000 1.000000000000000 0.000000000000000 0.000000000000000 
0.000000000000000 0.000000000000000 1.000000000000000 0.000000000000000 
1
1.000000000000000 0.000000000000000 0.000000000000000 0.000000000000000 
0.000000000000000 1.000000000000000 0.000000000000000 0.000000000000000 
0.000000000000000 0.000000000000000 1.000000000000000 0.000000000000000 
2  5 1 6 1 7 -1 0
1
1.000000000000000 0.000000000000000 0.000000000000000 0.000000000000000 
0.000000000000000 1.000000000000000 0.000000000000000 0.000000000000000 
0.000000000000000 0.000000000000000 1.000000000000000 4.000000000000000 
2  5 1 6 1 7 -1 9 1 0
2  6 -1 5 -1 0
2  7 -1 2 1 3 -1 0
2  5 1 6 1 0
2  7 1 6 -1 5 -1 0
2  9 -1 7 1 6 -1 5 -1 0
2  7 -1 9 1 2 1 3 -1 0
2  5 1 6 1 7 -1 9 1 2 1 3 -1 0
1
1.000000000000000 0.000000000000000 0.000000000000000 0.000000000000000 
0.000000000000000 1.000000000000000 0.000000000000000 0.000000000000000 
0.000000000000000 0.000000000000000 1.000000000000000 0.000000000000000 
1
1.000000000000000 0.000000000000000 0.000000000000000 0.000000000000000 
0.000000000000000 1.000000000000000 0.000000000000000 0.000000000000000 
0.000000000000000 0.000000000000000 1.000000000000000 4.000000000000000 
2  18 1 19 1 3 -1 0
2  3 1 19 -1 18 -1 0
1
1.000000000000000 0.000000000000000 0.000000000000000 -0.000000000000000 
0.000000000000000 1.000000000000000 0.000000000000000 -0.000000000000000 
0.000000000000000 0.000000000000000 1.000000000000000 -1.960000000000000 
2  22 -1 3 1 19 -1 18 -1 0
2  19 -1 18 -1 0
2  7 -1 9 1 2 1 19 -1 18 -1 0
2  18 1 19 1 3 -1 22 1 0
2  3 -1 22 1 0
2  18 1 19 1 0
Curve2ds 39
1 25.00000000000000000 15.00000000000000000 -1.00000000000000000 0.00000000000000000 
1 25.00000000000000000 -15.00000000000000000 0.00000000000000000 1.00000000000000000 
1 -25.00000000000000000 15.00000000000000000 0.00000000000000000 -1.00000000000000000 
1 -25.00000000000000000 -15.00000000000000000 1.00000000000000000 0.00000000000000000 
1 0.00000000000000000 0.00000000000000000 1.00000000000000000 0.00000000000000000 
1 0.00000000000000000 -4.00000000000000000 1.00000000000000000 0.00000000000000000 
2 20.80000000000000071 10.80000000000000071 -1.00000000000000000 0.00000000000000000 0.00000000000000000 1.00000000000000000 2.80000000000000071
1 0.00000000000000000 0.00000000000000000 1.00000000000000000 0.00000000000000000 
1 0.00000000000000000 -1.95999999999999974 1.00000000000000000 0.00000000000000000 
2 21.00465542549213183 11.02690969482683592 -1.00000000000000000 0.00000000000000000 0.00000000000000000 1.00000000000000000 4.19999999999999929
2 20.80000000000000071 10.80000000000000071 -1.00000000000000000 0.00000000000000000 0.00000000000000000 1.00000000000000000 4.19999999999999929
1 17.87416025699235078 13.82690969482675136 -1.00000000000000000 0.00000000000000000 
1 0.00000000000000000 0.00000000000000000 1.00000000000000000 0.00000000000000000 
1 0.00000000000000000 -1.95999999999999996 1.00000000000000000 0.00000000000000000 
1 17.66950483150021967 13.59999999999991616 -1.00000000000000000 0.00000000000000000 
1 -23.39534457450787031 13.82690969482675136 0.00000000000000000 -1.00000000000000000 
1 0.00000000000000000 0.00000000000000000 1.00000000000000000 0.00000000000000000 
1 0.00000000000000000 -1.95999999999999996 1.00000000000000000 0.00000000000000000 
1 -23.60000000000000142 13.59999999999991616 0.00000000000000000 -1.00000000000000000 
1 -23.39534457450787031 -13.37309030517316266 1.00000000000000000 0.00000000000000000 
1 0.00000000000000000 0.00000000000000000 1.00000000000000000 0.00000000000000000 
1 0.00000000000000000 -1.95999999999999996 1.00000000000000000 0.00000000000000000 
1 -23.60000000000000142 -13.59999999999999787 1.00000000000000000 0.00000000000000000 
1 23.80465542549205082 -13.37309030517316266 0.00000000000000000 1.00000000000000000 
1 0.00000000000000000 0.00000000000000000 1.00000000000000000 0.00000000000000000 
1 0.00000000000000000 -1.95999999999999996 1.00000000000000000 0.00000000000000000 
1 23.59999999999991971 -13.59999999999999787 0.00000000000000000 1.00000000000000000 
1 0.00000000000000000 0.00000000000000000 0.00000000000000000 -1.00000000000000000 
1 6.28318530717958623 0.00000000000000000 0.00000000000000000 -1.00000000000000000 
1 3.98266132415774887 0.00000000000000000 0.00000000000000000 -1.00000000000000000 
1 21.26950483150022109 0.00000000000000000 0.00000000000000000 -1.00000000000000000 
1 7.01291296340652615 0.00000000000000000 0.00000000000000000 -1.00000000000000000 
1 0.00000000000000000 0.00000000000000000 0.00000000000000000 -1.00000000000000000 
1 41.26950483150022109 0.00000000000000000 0.00000000000000000 -1.00000000000000000 
1 0.00000000000000000 0.00000000000000000 0.00000000000000000 -1.00000000000000000 
1 27.19999999999991402 0.00000000000000000 0.00000000000000000 -1.00000000000000000 
1 0.00000000000000000 0.00000000000000000 0.00000000000000000 -1.00000000000000000 
1 47.19999999999991758 0.00000000000000000 0.00000000000000000 -1.00000000000000000 
1 0.00000000000000000 0.00000000000000000 0.00000000000000000 -1.00000000000000000 
Curves 20
1 -25.00000000000000000 15.00000000000000000 0.00000000000000000 0.00000000000000000 0.00000000000000000 1.00000000000000000 
1 25.00000000000000000 15.00000000000000000 0.00000000000000000 0.00000000000000000 0.00000000000000000 1.00000000000000000 
1 -25.00000000000000000 15.00000000000000000 0.00000000000000000 1.00000000000000000 0.00000000000000000 0.00000000000000000 
1 -25.00000000000000000 -15.00000000000000000 0.00000000000000000 0.00000000000000000 0.00000000000000000 1.00000000000000000 
1 -25.00000000000000000 -15.00000000000000000 0.00000000000000000 0.00000000000000000 1.00000000000000000 0.00000000000000000 
1 25.00000000000000000 -15.00000000000000000 0.00000000000000000 0.00000000000000000 0.00000000000000000 1.00000000000000000 
1 25.00000000000000000 15.00000000000000000 0.00000000000000000 0.00000000000000000 -1.00000000000000000 0.00000000000000000 
1 25.00000000000000000 -15.00000000000000000 0.00000000000000000 -1.00000000000000000 0.00000000000000000 0.00000000000000000 
2 -20.80000000000000071 10.80000000000000071 0.00000000000000000 0.00000000000000000 0.00000000000000000 1.00000000000000000 1.00000000000000000 0.00000000000000000 0.00000000000000000 0.00000000000000000 1.00000000000000000 0.00000000000000000 2.79999999999999982
2 -20.80000000000000071 10.80000000000000071 0.00000000000000000 0.00000000000000000 0.00000000000000000 1.00000000000000000 1.00000000000000000 0.00000000000000000 0.00000000000000000 0.00000000000000000 1.00000000000000000 0.00000000000000000 4.19999999999999929
1 -17.66950483150021967 13.59999999999991616 0.00000000000000000 1.00000000000000000 0.00000000000000000 0.00000000000000000 
1 23.60000000000000142 13.59999999999991616 0.00000000000000000 0.00000000000000000 -1.00000000000000000 0.00000000000000000 
1 23.60000000000000142 -13.59999999999999787 0.00000000000000000 -1.00000000000000000 0.00000000000000000 0.00000000000000000 
1 -23.59999999999991971 -13.59999999999999787 0.00000000000000000 0.00000000000000000 1.00000000000000000 0.00000000000000000 
1 -18.00000000000000000 10.80000000000000071 0.00000000000000000 0.00000000000000000 0.00000000000000000 1.00000000000000000 
1 -23.59999999999991971 7.66950483150022411 4.00000000000000000 -0.00000000000000000 -0.00000000000000000 -1.00000000000000000 
1 -17.66950483150021967 13.59999999999991616 4.00000000000000000 -0.00000000000000000 -0.00000000000000000 -1.00000000000000000 
1 23.60000000000000142 13.59999999999991616 4.00000000000000000 -0.00000000000000000 -0.00000000000000000 -1.00000000000000000 
1 23.60000000000000142 -13.59999999999999787 4.00000000000000000 -0.00000000000000000 -0.00000000000000000 -1.00000000000000000 
1 -23.59999999999991616 -13.59999999999999787 4.00000000000000000 -0.00000000000000000 -0.00000000000000000 -1.00000000000000000 
Polygon3D 0
PolygonOnTriangulations 0
Surfaces 12
1 -25.00000000000000000 15.00000000000000000 0.00000000000000000 0.00000000000000000 1.00000000000000000 0.00000000000000000 1.00000000000000000 0.00000000000000000 0.00000000000000000 0.00000000000000000 0.00000000000000000 -1.00000000000000000 
1 0.00000000000000000 0.00000000000000000 0.00000000000000000 -0.00000000000000000 -0.00000000000000000 -1.00000000000000000 -1.00000000000000000 0.00000000000000000 0.00000000000000000 0.00000000000000000 1.00000000000000000 -0.00000000000000000 
1 -25.00000000000000000 -15.00000000000000000 0.00000000000000000 -1.00000000000000000 0.00000000000000000 0.00000000000000000 0.00000000000000000 1.00000000000000000 0.00000000000000000 0.00000000000000000 0.00000000000000000 -1.00000000000000000 
1 25.00000000000000000 15.00000000000000000 0.00000000000000000 1.00000000000000000 0.00000000000000000 -0.00000000000000000 0.00000000000000000 -1.00000000000000000 0.00000000000000000 0.00000000000000000 -0.00000000000000000 -1.00000000000000000 
2 -20.80000000000000071 10.80000000000000071 0.00000000000000000 -0.00000000000000000 -0.00000000000000000 -1.00000000000000000 1.00000000000000000 0.00000000000000000 0.00000000000000000 0.00000000000000000 1.00000000000000000 0.00000000000000000 2.79999999999999982
2 -20.80000000000000071 10.80000000000000071 4.00000000000000000 0.00000000000000000 0.00000000000000000 1.00000000000000000 1.00000000000000000 0.00000000000000000 0.00000000000000000 0.00000000000000000 1.00000000000000000 0.00000000000000000 4.19999999999999929
1 0.20465542549213031 -0.22690969482683501 4.00000000000000000 -0.00000000000000000 -0.00000000000000000 -1.00000000000000000 -1.00000000000000000 0.00000000000000000 0.00000000000000000 0.00000000000000000 1.00000000000000000 -0.00000000000000000 
1 -17.66950483150021967 13.59999999999991616 4.00000000000000000 0.00000000000000000 -1.00000000000000000 0.00000000000000000 1.00000000000000000 0.00000000000000000 0.00000000000000000 -0.00000000000000000 0.00000000000000000 1.00000000000000000 
1 23.60000000000000142 13.59999999999991616 4.00000000000000000 -1.00000000000000000 0.00000000000000000 0.00000000000000000 0.00000000000000000 -1.00000000000000000 0.00000000000000000 0.00000000000000000 0.00000000000000000 1.00000000000000000 
1 23.60000000000000142 -13.59999999999999787 4.00000000000000000 0.00000000000000000 1.00000000000000000 -0.00000000000000000 -1.00000000000000000 0.00000000000000000 0.00000000000000000 0.00000000000000000 0.00000000000000000 1.00000000000000000 
1 -23.59999999999991971 -13.59999999999999787 4.00000000000000000 1.00000000000000000 0.00000000000000000 0.00000000000000000 -0.00000000000000000 1.00000000000000000 0.00000000000000000 0.00000000000000000 -0.00000000000000000 1.00000000000000000 
1 25.00000000000000000 -15.00000000000000000 0.00000000000000000 0.00000000000000000 -1.00000000000000000 0.00000000000000000 -1.00000000000000000 0.00000000000000000 0.00000000000000000 -0.00000000000000000 -0.00000000000000000 -1.00000000000000000 
Triangulations 0

TShapes 61
Ve
0.000000100000000
-25.000000000000000 15.000000000000000 0.000000000000000
0 0

0101101
*
Ed
 0.000000100000000 1 1 0
1  1 0 0.000000000000000 4.000000000000000
0

0101000
+61 8 -61 10 *
Ve
0.000000100000000
25.000000000000000 15.000000000000000 0.000000000000000
0 0

0101101
*
Ed
 0.000000100000000 1 1 0
1  2 0 0.000000000000000 4.000000000000000
0

0101000
+59 8 -59 10 *
Ed
 0.000000100000000 1 1 0
1  3 0 0.000000000000000 50.000000000000000
2  1 2 11 0.000000000000000 50.000000000000000
0

0101000
+61 0 -59 0 *
Wi

0101100
+60 0 -58 0 -57 8 +57 10 *
Fa
0  0.000000100000000 1 0

0101000
+56 0 *
Ve
0.000000100000000
-25.000000000000000 -15.000000000000000 0.000000000000000
0 0

0101101
*
Ed
 0.000000100000000 1 1 0
1  4 0 0.000000000000000 4.000000000000000
0

0101000
+54 8 -54 10 *
Ed
 0.000000100000000 1 1 0
1  5 0 0.000000000000000 30.000000000000000
2  2 2 11 0.000000000000000 30.000000000000000
0

0101000
+54 0 -61 0 *
Wi

0101100
+53 0 -60 0 -52 8 +52 10 *
Fa
0  0.000000100000000 3 0

0101000
+51 0 *
Ve
0.000000100000000
25.000000000000000 -15.000000000000000 0.000000000000000
0 0

0101101
*
Ed
 0.000000100000000 1 1 0
1  6 0 0.000000000000000 4.000000000000000
0

0101000
+49 8 -49 10 *
Ed
 0.000000100000000 1 1 0
1  7 0 0.000000000000000 30.000000000000000
2  3 2 11 0.000000000000000 30.000000000000000
0

0101000
+59 0 -49 0 *
Wi

0101100
+58 0 -48 0 -47 8 +47 10 *
Fa
0  0.000000100000000 4 0

0101000
+46 0 *
Ed
 0.000000100000000 1 1 0
1  8 0 0.000000000000000 50.000000000000000
2  4 2 11 0.000000000000000 50.000000000000000
0

0101000
+49 0 -54 0 *
Wi

0101100
+57 13 +47 13 +44 13 +52 13 *
Ve
0.000000100000000
-18.000000000000000 10.800000000000001 0.000000000000000
0 0

0101101
*
Ed
 0.000000100000000 1 1 0
1  9 0 0.000000000000000 6.283185307179586
2  5 5 14 0.000000000000000 6.283185307179586
2  6 5 15 0.000000000000000 6.283185307179586
2  7 2 11 0.000000000000000 6.283185307179586
0

0101000
+42 0 -42 0 *
Wi

0101100
+41 13 *
Fa
0  0.000000100000000 2 0

0111000
+43 0 +40 0 *
Wi

0101100
+57 17 +52 17 +47 17 +44 17 *
Ve
0.000000100000001
-23.599999999999920 7.669504831500224 0.000000000000000
0 0

0101101
*
Ve
0.000000100000000
-17.669504831500220 13.599999999999916 0.000000000000000
0 0

0101101
*
Ed
 0.000000100000000 1 1 0
1  10 0 3.982661324157749 7.012912963406526
2  8 6 21 3.982661324157749 7.012912963406526
2  9 6 23 3.982661324157749 7.012912963406526
2  10 7 24 3.982661324157749 7.012912963406526
2  11 2 25 3.982661324157749 7.012912963406526
0

0101000
+37 0 -36 0 *
Ve
0.000000100000000
23.600000000000001 13.599999999999916 0.000000000000000
0 0

0101101
*
Ed
 0.000000100000000 1 1 0
1  11 0 0.000000000000000 41.269504831500221
2  12 7 24 0.000000000000000 41.269504831500221
2  13 8 21 0.000000000000000 41.269504831500221
2  14 8 23 0.000000000000000 41.269504831500221
2  15 2 25 0.000000000000000 41.269504831500221
0

0101000
+36 0 -34 0 *
Ve
0.000000100000000
23.600000000000001 -13.599999999999998 0.000000000000000
0 0

0101101
*
Ed
 0.000000100000000 1 1 0
1  12 0 0.000000000000000 27.199999999999914
2  16 7 24 0.000000000000000 27.199999999999914
2  17 9 21 0.000000000000000 27.199999999999914
2  18 9 23 0.000000000000000 27.199999999999914
2  19 2 25 0.000000000000000 27.199999999999914
0

0101000
+34 0 -32 0 *
Ve
0.000000100000002
-23.599999999999916 -13.599999999999998 0.000000000000000
0 0

0101101
*
Ed
 0.000000100000000 1 1 0
1  13 0 0.000000000000000 47.199999999999918
2  20 7 24 0.000000000000000 47.199999999999918
2  21 10 21 0.000000000000000 47.199999999999918
2  22 10 23 0.000000000000000 47.199999999999918
2  23 2 25 0.000000000000000 47.199999999999918
0

0101000
+32 0 -30 0 *
Ed
 0.000000100000000 1 1 0
1  14 0 0.000000000000000 21.269504831500221
2  24 7 24 0.000000000000000 21.269504831500221
2  25 11 21 0.000000000000000 21.269504831500221
2  26 11 23 0.000000000000000 21.269504831500221
2  27 2 25 0.000000000000000 21.269504831500221
0

0101000
+30 0 -37 0 *
Wi

0101100
-35 20 -33 20 -31 20 -29 20 -28 20 *
Wi

0101100
+41 17 *
Fa
0  0.000000100000000 2 16

0101000
+38 0 +27 0 +26 0 *
Wi

0101100
+48 0 -53 0 -44 8 +44 10 *
Fa
0  0.000000100000000 12 0

0101000
+24 0 *
Ed
 0.000000100000000 1 1 0
1  15 0 0.000000000000000 4.000000000000000
3  28 29CN 5 0 0.000000000000000 4.000000000000000
0

0101000
+42 8 -42 10 *
Wi

0101100
+22 0 -22 0 -41 8 +41 10 *
Fa
0  0.000000100000000 5 0

0101000
+21 0 *
Ed
 0.000000100000001 1 1 0
1  16 0 0.000000000000000 1.960000000000000
2  30 6 0 0.000000000000000 1.960000000000000
2  31 11 0 0.000000000000000 1.960000000000000
0

0101000
+37 20 -37 26 *
Ed
 0.000000100000000 1 1 0
1  17 0 0.000000000000000 1.960000000000000
2  32 6 0 0.000000000000000 1.960000000000000
2  33 8 0 0.000000000000000 1.960000000000000
0

0101000
+36 20 -36 26 *
Wi

0101100
+19 0 -18 0 -35 20 +35 26 *
Fa
0  0.000000100000000 6 0

0101000
+17 0 *
Ed
 0.000000100000000 1 1 0
1  18 0 0.000000000000000 1.960000000000000
2  34 8 0 0.000000000000000 1.960000000000000
2  35 9 0 0.000000000000000 1.960000000000000
0

0101000
+34 20 -34 26 *
Wi

0101100
+18 0 -15 0 -33 20 +33 26 *
Fa
0  0.000000100000000 8 0

0101000
+14 0 *
Ed
 0.000000100000000 1 1 0
1  19 0 0.000000000000000 1.960000000000000
2  36 9 0 0.000000000000000 1.960000000000000
2  37 10 0 0.000000000000000 1.960000000000000
0

0101000
+32 20 -32 26 *
Wi

0101100
+15 0 -12 0 -31 20 +31 26 *
Fa
0  0.000000100000000 9 0

0101000
+11 0 *
Ed
 0.000000100000002 1 1 0
1  20 0 0.000000000000000 1.960000000000000
2  38 10 0 0.000000000000000 1.960000000000000
2  39 11 0 0.000000000000000 1.960000000000000
0

0101000
+30 20 -30 26 *
Wi

0101100
+12 0 -9 0 -29 20 +29 26 *
Fa
0  0.000000100000000 10 0

0101000
+8 0 *
Wi

0101100
+9 0 -19 0 -28 20 +28 26 *
Fa
0  0.000000100000000 11 0

0101000
+6 0 *
Wi

0101100
+35 0 +33 0 +31 0 +29 0 +28 0 *
Fa
0  0.000000100000000 7 0

0101000
+4 28 *
Sh

0101100
+55 4 +50 4 +45 4 +39 12 -25 0 +23 4 +20 4 +16 0 +13 0 +10 0 
+7 0 +5 0 -3 27 *
So

0100000
+2 0 *

+1 1 