
CASCADE Topology V1, (c) Matra-Datavision
Locations 51
1
1.000000000000000 0.000000000000000 0.000000000000000 0.000000000000000 
0.000000000000000 1.000000000000000 0.000000000000000 0.000000000000000 
0.000000000000000 0.000000000000000 1.000000000000000 0.000000000000000 
1
1.000000000000000 0.000000000000000 0.000000000000000 0.000000000000000 
0.000000000000000 1.000000000000000 0.000000000000000 0.000000000000000 
0.000000000000000 0.000000000000000 1.000000000000000 0.000000000000000 
1
1.000000000000000 0.000000000000000 0.000000000000000 0.000000000000000 
0.000000000000000 1.000000000000000 0.000000000000000 0.000000000000000 
0.000000000000000 0.000000000000000 1.000000000000000 0.000000000000000 
1
1.000000000000000 0.000000000000000 0.000000000000000 0.000000000000000 
0.000000000000000 1.000000000000000 0.000000000000000 0.000000000000000 
0.000000000000000 0.000000000000000 1.000000000000000 0.000000000000000 
1
1.000000000000000 0.000000000000000 0.000000000000000 0.000000000000000 
0.000000000000000 1.000000000000000 0.000000000000000 0.000000000000000 
0.000000000000000 0.000000000000000 1.000000000000000 0.000000000000000 
1
1.000000000000000 0.000000000000000 0.000000000000000 0.000000000000000 
0.000000000000000 1.000000000000000 0.000000000000000 0.000000000000000 
0.000000000000000 0.000000000000000 1.000000000000000 0.000000000000000 
2  2 1 3 -1 4 1 5 1 6 -1 0
2  4 -1 3 1 2 -1 0
1
1.000000000000000 0.000000000000000 0.000000000000000 0.000000000000000 
0.000000000000000 1.000000000000000 0.000000000000000 0.000000000000000 
0.000000000000000 0.000000000000000 1.000000000000000 0.000000000000000 
1
1.000000000000000 0.000000000000000 0.000000000000000 0.000000000000000 
0.000000000000000 1.000000000000000 0.000000000000000 0.000000000000000 
0.000000000000000 0.000000000000000 1.000000000000000 0.000000000000000 
1
1.000000000000000 0.000000000000000 0.000000000000000 0.000000000000000 
0.000000000000000 1.000000000000000 0.000000000000000 0.000000000000000 
0.000000000000000 0.000000000000000 1.000000000000000 0.000000000000000 
2  9 1 10 1 11 -1 2 1 3 -1 4 1 0
1
1.000000000000000 0.000000000000000 0.000000000000000 0.000000000000000 
0.000000000000000 1.000000000000000 0.000000000000000 0.000000000000000 
0.000000000000000 0.000000000000000 1.000000000000000 0.000000000000000 
2  13 -1 9 -1 0
2  11 1 10 -1 9 -1 0
1
1.000000000000000 0.000000000000000 0.000000000000000 0.000000000000000 
0.000000000000000 1.000000000000000 0.000000000000000 0.000000000000000 
0.000000000000000 0.000000000000000 1.000000000000000 5.000000000000000 
2  16 -1 11 1 10 -1 9 -1 0
2  2 -1 16 -1 11 1 10 -1 9 -1 0
2  4 -1 3 1 2 -1 11 1 10 -1 9 -1 0
2  2 1 3 -1 4 1 0
2  9 1 10 1 11 -1 16 1 2 1 3 -1 4 1 0
2  4 -1 3 1 2 -1 16 -1 11 1 10 -1 9 -1 0
2  13 -1 10 1 11 -1 2 1 3 -1 4 1 5 1 6 -1 0
2  9 1 10 1 11 -1 2 1 3 -1 4 1 5 1 6 -1 0
2  5 1 6 -1 0
2  13 -1 10 1 11 -1 2 1 3 -1 4 1 0
1
1.000000000000000 0.000000000000000 0.000000000000000 -20.199999999999999 
0.000000000000000 1.000000000000000 0.000000000000000 10.199999999999999 
0.000000000000000 0.000000000000000 1.000000000000000 5.000000000000000 
2  13 -1 10 1 11 -1 16 1 2 1 3 -1 4 1 0
2  13 -1 10 1 11 -1 16 1 2 1 3 -1 4 1 5 1 6 -1 0
2  9 1 10 1 11 -1 16 1 2 1 3 -1 4 1 5 1 6 -1 0
1
1.000000000000000 0.000000000000000 0.000000000000000 0.000000000000000 
0.000000000000000 1.000000000000000 0.000000000000000 0.000000000000000 
0.000000000000000 0.000000000000000 1.000000000000000 0.000000000000000 
1
1.000000000000000 0.000000000000000 0.000000000000000 0.000000000000000 
0.000000000000000 1.000000000000000 0.000000000000000 0.000000000000000 
0.000000000000000 0.000000000000000 1.000000000000000 5.000000000000000 
2  31 1 32 1 3 -1 4 1 5 1 6 -1 0
2  3 1 32 -1 31 -1 0
1
1.000000000000000 0.000000000000000 0.000000000000000 -0.000000000000000 
0.000000000000000 1.000000000000000 0.000000000000000 -0.000000000000000 
0.000000000000000 0.000000000000000 1.000000000000000 -1.500000000000000 
2  35 -1 3 1 32 -1 31 -1 0
2  32 -1 31 -1 0
2  13 -1 10 1 11 -1 16 1 2 1 32 -1 31 -1 0
2  4 -1 3 1 32 -1 31 -1 0
2  13 -1 10 1 11 -1 16 1 2 1 3 -1 4 1 5 1 6 -1 27 -1 0
2  27 -1 0
2  4 1 5 1 6 -1 0
2  4 -1 0
2  31 1 32 1 3 -1 4 1 0
2  31 1 32 1 3 -1 0
2  31 1 32 1 3 -1 35 1 0
2  31 1 32 1 3 -1 35 1 4 1 0
2  4 -1 35 -1 3 1 32 -1 31 -1 0
2  3 -1 35 1 4 1 0
2  3 -1 35 1 4 1 5 1 6 -1 0
2  4 -1 35 -1 3 1 0
Curve2ds 103
1 25.00000000000000000 15.00000000000000000 -1.00000000000000000 0.00000000000000000 
1 0.00000000000000000 0.00000000000000000 1.00000000000000000 0.00000000000000000 
1 0.00000000000000000 -5.00000000000000000 1.00000000000000000 0.00000000000000000 
1 -25.55930105345843373 7.82291414287620235 1.00000000000000000 0.00000000000000000 
1 0.00000000000000000 0.00000000000000000 0.00000000000000000 1.00000000000000000 
1 5.00000000000000000 0.00000000000000000 0.00000000000000000 -1.00000000000000000 
1 0.00000000000000000 0.00000000000000000 0.00000000000000000 1.00000000000000000 
1 45.00000000000000000 0.00000000000000000 0.00000000000000000 -1.00000000000000000 
1 -3.14159265358979312 0.00000000000000000 1.00000000000000000 0.00000000000000000 
2 20.00000000000000000 10.00000000000000000 0.00000000000000000 -1.00000000000000000 -1.00000000000000000 -0.00000000000000000 5.00000000000000000
1 -3.14159265358979312 0.00000000000000000 1.00000000000000000 0.00000000000000000 
2 -20.00000000000000000 10.00000000000000000 0.00000000000000000 -1.00000000000000000 1.00000000000000000 0.00000000000000000 5.00000000000000000
1 25.00000000000000000 -15.00000000000000000 0.00000000000000000 1.00000000000000000 
1 0.00000000000000000 0.00000000000000000 1.00000000000000000 0.00000000000000000 
1 0.00000000000000000 -5.00000000000000000 1.00000000000000000 0.00000000000000000 
1 -25.55930105345843373 -22.17708585712379943 0.00000000000000000 1.00000000000000000 
1 -25.00000000000000000 15.00000000000000000 0.00000000000000000 -1.00000000000000000 
1 0.00000000000000000 0.00000000000000000 1.00000000000000000 0.00000000000000000 
1 0.00000000000000000 -5.00000000000000000 1.00000000000000000 0.00000000000000000 
1 24.44069894654156627 7.82291414287620235 0.00000000000000000 -1.00000000000000000 
1 -4.71238898038468967 0.00000000000000000 1.00000000000000000 0.00000000000000000 
2 20.00000000000000000 -10.00000000000000000 0.00000000000000000 -1.00000000000000000 -1.00000000000000000 -0.00000000000000000 5.00000000000000000
1 -4.71238898038468967 0.00000000000000000 1.00000000000000000 0.00000000000000000 
2 -20.00000000000000000 -10.00000000000000000 0.00000000000000000 -1.00000000000000000 1.00000000000000000 0.00000000000000000 5.00000000000000000
1 -25.00000000000000000 -15.00000000000000000 1.00000000000000000 0.00000000000000000 
1 0.00000000000000000 -0.00000000000000000 1.00000000000000000 0.00000000000000000 
1 0.00000000000000000 -5.00000000000000000 1.00000000000000000 0.00000000000000000 
1 24.44069894654156627 -22.17708585712379943 -1.00000000000000000 0.00000000000000000 
2 20.19999999999999929 10.19999999999999929 -1.00000000000000000 0.00000000000000000 -0.00000000000000000 -1.00000000000000000 3.00000000000000000
1 6.28318530717958623 5.00000000000000000 -1.00000000000000000 0.00000000000000000 
1 1.57079632679489656 0.00000000000000000 0.00000000000000000 1.00000000000000000 
1 25.00000000000000000 0.00000000000000000 0.00000000000000000 -1.00000000000000000 
1 -3.14159265358979312 5.00000000000000000 1.00000000000000000 0.00000000000000000 
2 20.00000000000000000 10.00000000000000000 0.00000000000000000 -1.00000000000000000 -1.00000000000000000 -0.00000000000000000 5.00000000000000000
1 1.57079632679489656 0.00000000000000000 0.00000000000000000 1.00000000000000000 
1 5.00000000000000000 0.00000000000000000 0.00000000000000000 -1.00000000000000000 
1 -3.14159265358979312 5.00000000000000000 1.00000000000000000 0.00000000000000000 
2 -20.00000000000000000 10.00000000000000000 0.00000000000000000 -1.00000000000000000 1.00000000000000000 0.00000000000000000 5.00000000000000000
1 -4.71238898038468967 5.00000000000000000 1.00000000000000000 0.00000000000000000 
2 20.00000000000000000 -10.00000000000000000 0.00000000000000000 -1.00000000000000000 -1.00000000000000000 -0.00000000000000000 5.00000000000000000
1 -4.71238898038468967 5.00000000000000000 1.00000000000000000 0.00000000000000000 
2 -20.00000000000000000 -10.00000000000000000 0.00000000000000000 -1.00000000000000000 1.00000000000000000 0.00000000000000000 5.00000000000000000
1 0.00000000000000000 0.00000000000000000 1.00000000000000000 0.00000000000000000 
1 0.00000000000000000 -1.50000000000000000 1.00000000000000000 0.00000000000000000 
1 17.31694257808610260 13.73540256233871304 -1.00000000000000000 -0.00000000000000000 
1 17.15475189748055485 13.49999999999999822 -1.00000000000000000 0.00000000000000000 
1 0.00000000000000000 0.00000000000000000 1.00000000000000000 0.00000000000000000 
2 -18.49999999999999645 8.50000000000000000 0.00000000000000000 1.00000000000000000 -1.00000000000000000 0.00000000000000000 5.00000000000000000
1 0.00000000000000000 0.00000000000000000 1.00000000000000000 0.00000000000000000 
1 0.00000000000000000 -1.50000000000000000 1.00000000000000000 0.00000000000000000 
2 20.36219068060554704 10.43540256233871411 -1.00000000000000000 -0.00000000000000000 -0.00000000000000000 1.00000000000000000 4.49038261241715020
2 20.19999999999999929 10.19999999999999929 -1.00000000000000000 0.00000000000000000 0.00000000000000000 1.00000000000000000 4.49038261241715020
1 0.00000000000000000 0.00000000000000000 1.00000000000000000 0.00000000000000000 
1 0.00000000000000000 -1.50000000000000000 1.00000000000000000 0.00000000000000000 
1 -23.33780931939444869 13.73540256233871304 0.00000000000000000 -1.00000000000000000 
1 -23.49999999999999645 13.49999999999999822 0.00000000000000000 -1.00000000000000000 
1 0.00000000000000000 0.00000000000000000 1.00000000000000000 0.00000000000000000 
1 0.00000000000000000 -1.50000000000000000 1.00000000000000000 0.00000000000000000 
1 23.66219068060555131 -13.26459743766128518 0.00000000000000000 1.00000000000000000 
1 23.50000000000000355 -13.50000000000000000 0.00000000000000000 1.00000000000000000 
1 -1.57079632679489656 0.00000000000000000 1.00000000000000000 0.00000000000000000 
2 -18.49999999999999645 -8.50000000000000000 0.00000000000000000 1.00000000000000000 -1.00000000000000000 0.00000000000000000 5.00000000000000000
1 -3.14159265358979312 0.00000000000000000 1.00000000000000000 0.00000000000000000 
2 18.50000000000000355 -8.50000000000000000 0.00000000000000000 1.00000000000000000 -1.00000000000000000 0.00000000000000000 5.00000000000000000
1 0.00000000000000000 0.00000000000000000 1.00000000000000000 0.00000000000000000 
1 0.00000000000000000 -1.50000000000000000 1.00000000000000000 0.00000000000000000 
1 -23.33780931939444869 -13.26459743766128518 1.00000000000000000 0.00000000000000000 
1 -23.49999999999999645 -13.50000000000000000 1.00000000000000000 0.00000000000000000 
2 0.00000000000000000 0.00000000000000000 -1.00000000000000000 0.00000000000000000 0.00000000000000000 1.00000000000000000 3.00000000000000000
1 0.00000000000000000 0.00000000000000000 1.00000000000000000 0.00000000000000000 
2 20.19999999999999929 10.19999999999999929 -1.00000000000000000 0.00000000000000000 0.00000000000000000 1.00000000000000000 3.00000000000000000
1 0.00000000000000000 0.00000000000000000 0.00000000000000000 1.00000000000000000 
1 5.00000000000000000 0.00000000000000000 0.00000000000000000 -1.00000000000000000 
1 0.00000000000000000 0.00000000000000000 0.00000000000000000 1.00000000000000000 
1 25.00000000000000000 0.00000000000000000 0.00000000000000000 -1.00000000000000000 
1 1.57079632679489656 0.00000000000000000 0.00000000000000000 1.00000000000000000 
1 45.00000000000000000 0.00000000000000000 0.00000000000000000 -1.00000000000000000 
1 1.57079632679489656 0.00000000000000000 0.00000000000000000 1.00000000000000000 
1 5.00000000000000000 0.00000000000000000 0.00000000000000000 -1.00000000000000000 
1 6.28318530717958623 0.00000000000000000 0.00000000000000000 1.00000000000000000 
1 0.00000000000000000 0.00000000000000000 0.00000000000000000 1.00000000000000000 
1 0.00000000000000000 0.00000000000000000 0.00000000000000000 1.00000000000000000 
1 35.65475189748055129 0.00000000000000000 -0.00000000000000000 -1.00000000000000000 
1 7.10871037303126396 0.00000000000000000 0.00000000000000000 -1.00000000000000000 
1 0.00000000000000000 0.00000000000000000 0.00000000000000000 -1.00000000000000000 
1 1.57079632679489656 0.00000000000000000 0.00000000000000000 1.00000000000000000 
1 4.99999999999999822 0.00000000000000000 0.00000000000000000 -1.00000000000000000 
1 0.00000000000000000 1.49999999999999911 1.00000000000000000 0.00000000000000000 
2 -18.33780931939444869 8.73540256233871482 0.00000000000000000 1.00000000000000000 -1.00000000000000000 0.00000000000000000 5.00000000000000000
1 3.88686391453301017 0.00000000000000000 0.00000000000000000 -1.00000000000000000 
1 20.65475189748055840 0.00000000000000000 0.00000000000000000 -1.00000000000000000 
1 0.00000000000000000 0.00000000000000000 0.00000000000000000 1.00000000000000000 
1 22.00000000000000000 0.00000000000000000 0.00000000000000000 -1.00000000000000000 
1 1.57079632679489656 0.00000000000000000 0.00000000000000000 1.00000000000000000 
1 5.00000000000000000 0.00000000000000000 -0.00000000000000000 -1.00000000000000000 
1 1.57079632679489656 0.00000000000000000 0.00000000000000000 1.00000000000000000 
1 5.00000000000000000 0.00000000000000000 0.00000000000000000 -1.00000000000000000 
1 -1.57079632679489656 1.49999999999999911 1.00000000000000000 0.00000000000000000 
2 -18.33780931939444869 -8.26459743766128518 0.00000000000000000 1.00000000000000000 -1.00000000000000000 0.00000000000000000 5.00000000000000000
1 0.00000000000000000 0.00000000000000000 0.00000000000000000 1.00000000000000000 
1 42.00000000000000000 0.00000000000000000 0.00000000000000000 -1.00000000000000000 
1 -3.14159265358979312 1.49999999999999911 1.00000000000000000 0.00000000000000000 
2 18.66219068060555131 -8.26459743766128518 0.00000000000000000 1.00000000000000000 -1.00000000000000000 0.00000000000000000 5.00000000000000000
Curves 42
1 -25.00000000000000000 15.00000000000000000 0.00000000000000000 1.00000000000000000 0.00000000000000000 0.00000000000000000 
1 -20.00000000000000000 15.00000000000000000 0.00000000000000000 0.00000000000000000 0.00000000000000000 1.00000000000000000 
1 20.00000000000000000 15.00000000000000000 0.00000000000000000 0.00000000000000000 0.00000000000000000 1.00000000000000000 
8 3.14159265358979312 4.71238898038468967
2 -20.00000000000000000 10.00000000000000000 0.00000000000000000 0.00000000000000000 0.00000000000000000 1.00000000000000000 0.00000000000000000 -1.00000000000000000 0.00000000000000000 1.00000000000000000 0.00000000000000000 -0.00000000000000000 5.00000000000000000
8 3.14159265358979312 4.71238898038468967
2 20.00000000000000000 10.00000000000000000 0.00000000000000000 -0.00000000000000000 -0.00000000000000000 -1.00000000000000000 0.00000000000000000 -1.00000000000000000 0.00000000000000000 -1.00000000000000000 0.00000000000000000 0.00000000000000000 5.00000000000000000
1 -25.00000000000000000 -15.00000000000000000 0.00000000000000000 0.00000000000000000 1.00000000000000000 0.00000000000000000 
1 25.00000000000000000 15.00000000000000000 0.00000000000000000 0.00000000000000000 -1.00000000000000000 0.00000000000000000 
8 4.71238898038468967 6.28318530717958623
2 -20.00000000000000000 -10.00000000000000000 0.00000000000000000 0.00000000000000000 0.00000000000000000 1.00000000000000000 0.00000000000000000 -1.00000000000000000 0.00000000000000000 1.00000000000000000 0.00000000000000000 -0.00000000000000000 5.00000000000000000
8 4.71238898038468967 6.28318530717958623
2 20.00000000000000000 -10.00000000000000000 0.00000000000000000 -0.00000000000000000 -0.00000000000000000 -1.00000000000000000 0.00000000000000000 -1.00000000000000000 0.00000000000000000 -1.00000000000000000 0.00000000000000000 0.00000000000000000 5.00000000000000000
1 25.00000000000000000 -15.00000000000000000 0.00000000000000000 -1.00000000000000000 0.00000000000000000 0.00000000000000000 
2 -20.19999999999999929 10.19999999999999929 0.00000000000000000 0.00000000000000000 0.00000000000000000 -1.00000000000000000 1.00000000000000000 0.00000000000000000 0.00000000000000000 0.00000000000000000 -1.00000000000000000 0.00000000000000000 3.00000000000000000
1 -25.00000000000000000 10.00000000000000000 0.00000000000000000 0.00000000000000000 0.00000000000000000 1.00000000000000000 
8 3.14159265358979312 4.71238898038468967
2 -20.00000000000000000 10.00000000000000000 5.00000000000000000 0.00000000000000000 0.00000000000000000 1.00000000000000000 0.00000000000000000 -1.00000000000000000 0.00000000000000000 1.00000000000000000 0.00000000000000000 -0.00000000000000000 5.00000000000000000
1 25.00000000000000000 10.00000000000000000 0.00000000000000000 0.00000000000000000 0.00000000000000000 1.00000000000000000 
8 3.14159265358979312 4.71238898038468967
2 20.00000000000000000 10.00000000000000000 5.00000000000000000 -0.00000000000000000 -0.00000000000000000 -1.00000000000000000 0.00000000000000000 -1.00000000000000000 0.00000000000000000 -1.00000000000000000 0.00000000000000000 0.00000000000000000 5.00000000000000000
8 4.71238898038468967 6.28318530717958623
2 -20.00000000000000000 -10.00000000000000000 5.00000000000000000 0.00000000000000000 0.00000000000000000 1.00000000000000000 0.00000000000000000 -1.00000000000000000 0.00000000000000000 1.00000000000000000 0.00000000000000000 -0.00000000000000000 5.00000000000000000
8 4.71238898038468967 6.28318530717958623
2 20.00000000000000000 -10.00000000000000000 5.00000000000000000 -0.00000000000000000 -0.00000000000000000 -1.00000000000000000 0.00000000000000000 -1.00000000000000000 0.00000000000000000 -1.00000000000000000 0.00000000000000000 0.00000000000000000 5.00000000000000000
1 -17.15475189748055485 13.49999999999999822 0.00000000000000000 1.00000000000000000 0.00000000000000000 0.00000000000000000 
8 0.00000000000000000 1.57079632679489656
2 18.49999999999999645 8.50000000000000000 5.00000000000000000 -0.00000000000000000 -0.00000000000000000 -1.00000000000000000 0.00000000000000000 1.00000000000000000 -0.00000000000000000 1.00000000000000000 -0.00000000000000000 0.00000000000000000 5.00000000000000000
2 -20.19999999999999929 10.19999999999999929 0.00000000000000000 0.00000000000000000 0.00000000000000000 1.00000000000000000 1.00000000000000000 0.00000000000000000 -0.00000000000000000 -0.00000000000000000 1.00000000000000000 0.00000000000000000 4.49038261241715109
1 23.49999999999999645 13.49999999999999822 0.00000000000000000 0.00000000000000000 -1.00000000000000000 0.00000000000000000 
1 -23.50000000000000355 -13.50000000000000000 0.00000000000000000 0.00000000000000000 1.00000000000000000 0.00000000000000000 
8 1.57079632679489656 3.14159265358979312
2 18.49999999999999645 -8.50000000000000000 5.00000000000000000 -0.00000000000000000 -0.00000000000000000 -1.00000000000000000 0.00000000000000000 1.00000000000000000 -0.00000000000000000 1.00000000000000000 -0.00000000000000000 0.00000000000000000 5.00000000000000000
8 3.14159265358979312 4.71238898038468967
2 -18.50000000000000355 -8.50000000000000000 5.00000000000000000 -0.00000000000000000 -0.00000000000000000 -1.00000000000000000 0.00000000000000000 1.00000000000000000 -0.00000000000000000 1.00000000000000000 -0.00000000000000000 0.00000000000000000 5.00000000000000000
1 23.49999999999999645 -13.50000000000000000 0.00000000000000000 -1.00000000000000000 0.00000000000000000 0.00000000000000000 
2 0.00000000000000000 0.00000000000000000 0.00000000000000000 0.00000000000000000 0.00000000000000000 1.00000000000000000 1.00000000000000000 0.00000000000000000 -0.00000000000000000 -0.00000000000000000 1.00000000000000000 0.00000000000000000 3.00000000000000000
1 -25.00000000000000000 -10.00000000000000000 0.00000000000000000 0.00000000000000000 0.00000000000000000 1.00000000000000000 
1 25.00000000000000000 -10.00000000000000000 0.00000000000000000 0.00000000000000000 0.00000000000000000 1.00000000000000000 
1 -20.00000000000000000 -15.00000000000000000 0.00000000000000000 0.00000000000000000 0.00000000000000000 1.00000000000000000 
1 20.00000000000000000 -15.00000000000000000 0.00000000000000000 0.00000000000000000 0.00000000000000000 1.00000000000000000 
1 3.00000000000000000 0.00000000000000000 -0.00000000000000000 -0.00000000000000005 0.00000000000000000 -1.00000000000000000 
1 18.49999999999999645 13.50000000000000000 5.00000000000000000 -0.00000000000000000 -0.00000000000000000 -1.00000000000000000 
1 -17.15475189748055485 13.49999999999999822 5.00000000000000000 -0.00000000000000000 -0.00000000000000000 -1.00000000000000000 
1 23.49999999999999645 8.50000000000000000 5.00000000000000000 -0.00000000000000000 -0.00000000000000000 -1.00000000000000000 
8 0.00000000000000000 1.57079632679489656
2 18.49999999999999645 8.50000000000000000 3.50000000000000089 -0.00000000000000000 -0.00000000000000000 -1.00000000000000000 0.00000000000000000 1.00000000000000000 -0.00000000000000000 1.00000000000000000 -0.00000000000000000 0.00000000000000000 5.00000000000000000
1 -23.50000000000000355 7.15475189748055929 5.00000000000000000 -0.00000000000000000 -0.00000000000000000 -1.00000000000000000 
1 23.49999999999999645 -8.50000000000000000 5.00000000000000000 -0.00000000000000000 -0.00000000000000000 -1.00000000000000000 
1 -23.50000000000000355 -8.50000000000000000 5.00000000000000000 -0.00000000000000000 -0.00000000000000000 -1.00000000000000000 
1 18.49999999999999645 -13.50000000000000000 5.00000000000000000 -0.00000000000000000 -0.00000000000000000 -1.00000000000000000 
8 1.57079632679489656 3.14159265358979312
2 18.49999999999999645 -8.50000000000000000 3.50000000000000089 -0.00000000000000000 -0.00000000000000000 -1.00000000000000000 0.00000000000000000 1.00000000000000000 -0.00000000000000000 1.00000000000000000 -0.00000000000000000 0.00000000000000000 5.00000000000000000
1 -18.50000000000000355 -13.50000000000000000 5.00000000000000000 -0.00000000000000000 -0.00000000000000000 -1.00000000000000000 
8 3.14159265358979312 4.71238898038468967
2 -18.50000000000000355 -8.50000000000000000 3.50000000000000089 -0.00000000000000000 -0.00000000000000000 -1.00000000000000000 0.00000000000000000 1.00000000000000000 -0.00000000000000000 1.00000000000000000 -0.00000000000000000 0.00000000000000000 5.00000000000000000
Polygon3D 0
PolygonOnTriangulations 0
Surfaces 21
1 -25.00000000000000000 15.00000000000000000 0.00000000000000000 0.00000000000000000 1.00000000000000000 0.00000000000000000 1.00000000000000000 0.00000000000000000 0.00000000000000000 0.00000000000000000 0.00000000000000000 -1.00000000000000000 
1 0.00000000000000000 0.00000000000000000 0.00000000000000000 -0.00000000000000000 -0.00000000000000000 -1.00000000000000000 -1.00000000000000000 0.00000000000000000 0.00000000000000000 0.00000000000000000 1.00000000000000000 -0.00000000000000000 
1 0.55930105345843251 7.17708585712379765 4.99999999999999822 0.00000000000000000 0.00000000000000000 1.00000000000000000 1.00000000000000000 0.00000000000000000 -0.00000000000000000 -0.00000000000000000 1.00000000000000000 0.00000000000000000 
2 -20.00000000000000000 10.00000000000000000 0.00000000000000000 0.00000000000000000 0.00000000000000000 1.00000000000000000 -0.00000000000000000 1.00000000000000000 0.00000000000000000 -1.00000000000000000 -0.00000000000000000 0.00000000000000000 5.00000000000000000
2 20.00000000000000000 10.00000000000000000 0.00000000000000000 0.00000000000000000 0.00000000000000000 1.00000000000000000 -0.00000000000000000 1.00000000000000000 0.00000000000000000 1.00000000000000000 0.00000000000000000 -0.00000000000000000 5.00000000000000000
1 -25.00000000000000000 -15.00000000000000000 0.00000000000000000 -1.00000000000000000 0.00000000000000000 0.00000000000000000 0.00000000000000000 1.00000000000000000 0.00000000000000000 0.00000000000000000 0.00000000000000000 -1.00000000000000000 
1 25.00000000000000000 15.00000000000000000 0.00000000000000000 1.00000000000000000 0.00000000000000000 -0.00000000000000000 0.00000000000000000 -1.00000000000000000 0.00000000000000000 0.00000000000000000 -0.00000000000000000 -1.00000000000000000 
2 -20.00000000000000000 -10.00000000000000000 0.00000000000000000 0.00000000000000000 0.00000000000000000 1.00000000000000000 -1.00000000000000000 0.00000000000000000 0.00000000000000000 0.00000000000000000 -1.00000000000000000 0.00000000000000000 5.00000000000000000
2 20.00000000000000000 -10.00000000000000000 0.00000000000000000 0.00000000000000000 0.00000000000000000 1.00000000000000000 1.00000000000000000 0.00000000000000000 -0.00000000000000000 0.00000000000000000 -1.00000000000000000 -0.00000000000000000 5.00000000000000000
1 25.00000000000000000 -15.00000000000000000 0.00000000000000000 0.00000000000000000 -1.00000000000000000 0.00000000000000000 -1.00000000000000000 0.00000000000000000 0.00000000000000000 -0.00000000000000000 -0.00000000000000000 -1.00000000000000000 
2 0.00000000000000000 0.00000000000000000 0.00000000000000000 -0.00000000000000000 -0.00000000000000000 -1.00000000000000000 1.00000000000000000 0.00000000000000000 0.00000000000000000 -0.00000000000000000 1.00000000000000000 -0.00000000000000000 3.00000000000000000
1 -17.15475189748055485 13.49999999999999822 5.00000000000000000 0.00000000000000000 -1.00000000000000000 0.00000000000000000 1.00000000000000000 0.00000000000000000 0.00000000000000000 -0.00000000000000000 0.00000000000000000 1.00000000000000000 
1 0.16219068060554834 -0.23540256233871487 5.00000000000000089 -0.00000000000000000 -0.00000000000000000 -1.00000000000000000 -1.00000000000000000 0.00000000000000000 0.00000000000000000 0.00000000000000000 1.00000000000000000 -0.00000000000000000 
2 18.49999999999999645 8.50000000000000000 5.00000000000000000 -0.00000000000000000 -0.00000000000000000 -1.00000000000000000 0.00000000000000000 1.00000000000000000 -0.00000000000000000 1.00000000000000000 -0.00000000000000000 0.00000000000000000 5.00000000000000000
2 -20.19999999999999929 10.19999999999999929 5.00000000000000000 0.00000000000000000 0.00000000000000000 1.00000000000000000 1.00000000000000000 0.00000000000000000 -0.00000000000000000 -0.00000000000000000 1.00000000000000000 0.00000000000000000 4.49038261241715109
1 23.49999999999999645 13.49999999999999822 5.00000000000000000 -1.00000000000000000 0.00000000000000000 0.00000000000000000 0.00000000000000000 -1.00000000000000000 0.00000000000000000 0.00000000000000000 0.00000000000000000 1.00000000000000000 
1 -23.50000000000000355 -13.50000000000000000 5.00000000000000000 1.00000000000000000 0.00000000000000000 0.00000000000000000 -0.00000000000000000 1.00000000000000000 0.00000000000000000 0.00000000000000000 -0.00000000000000000 1.00000000000000000 
2 18.49999999999999645 -8.50000000000000000 5.00000000000000000 -0.00000000000000000 -0.00000000000000000 -1.00000000000000000 1.00000000000000000 -0.00000000000000000 0.00000000000000000 -0.00000000000000000 -1.00000000000000000 0.00000000000000000 5.00000000000000000
2 -18.50000000000000355 -8.50000000000000000 5.00000000000000000 -0.00000000000000000 -0.00000000000000000 -1.00000000000000000 -0.00000000000000000 -1.00000000000000000 0.00000000000000000 -1.00000000000000000 0.00000000000000000 0.00000000000000000 5.00000000000000000
1 23.49999999999999645 -13.50000000000000000 5.00000000000000000 0.00000000000000000 1.00000000000000000 -0.00000000000000000 -1.00000000000000000 0.00000000000000000 0.00000000000000000 0.00000000000000000 0.00000000000000000 1.00000000000000000 
1 0.00000000000000000 0.00000000000000000 0.00000000000000000 0.00000000000000000 0.00000000000000000 1.00000000000000000 -1.00000000000000000 -0.00000000000000000 0.00000000000000000 -0.00000000000000000 1.00000000000000000 -0.00000000000000000 
Triangulations 0

TShapes 127
Ve
0.000000100000002
-20.000000000000000 15.000000000000000 0.000000000000000
0 0

0101101
*
Ve
0.000000100000002
20.000000000000000 15.000000000000000 0.000000000000000
0 0

0101101
*
Ed
 0.000000100000002 1 1 0
1  1 0 5.000000000000000 45.000000000000000
2  1 2 14 5.000000000000000 45.000000000000000
2  2 1 15 5.000000000000000 45.000000000000000
2  3 1 17 5.000000000000000 45.000000000000000
2  4 3 18 5.000000000000000 45.000000000000000
0

0101000
+127 19 -126 19 *
Ve
0.000000100000002
-20.000000000000000 15.000000000000000 5.000000000000000
0 0

0101101
*
Ed
 0.000000100000000 1 1 0
1  2 0 -0.000000000000000 5.000000000000000
2  5 4 0 -0.000000000000000 5.000000000000000
2  6 1 20 -0.000000000000000 5.000000000000000
4 G1 4 0 1 20
0

0101000
+127 0 -124 0 *
Ve
0.000000100000002
20.000000000000000 15.000000000000000 5.000000000000000
0 0

0101101
*
Ed
 0.000000100000000 1 1 0
1  3 0 -0.000000000000000 5.000000000000000
2  7 5 0 -0.000000000000000 5.000000000000000
2  8 1 20 -0.000000000000000 5.000000000000000
4 G1 5 0 1 20
0

0101000
+126 0 -122 0 *
Ed
 0.000000100000002 1 1 0
1  1 0 5.000000000000000 45.000000000000000
2  1 2 14 5.000000000000000 45.000000000000000
2  2 1 15 5.000000000000000 45.000000000000000
2  3 1 17 5.000000000000000 45.000000000000000
2  4 3 18 5.000000000000000 45.000000000000000
0

0101000
+124 22 -122 22 *
Wi

0101100
-125 12 +123 0 -121 0 +120 21 *
Fa
0  0.000000100000000 1 0

0101000
+119 8 *
Ve
0.000000100000002
-25.000000000000000 10.000000000000000 0.000000000000000
0 0

0101101
*
Ed
 0.000000100000000 1 1 0
1  4 0 3.141592653589793 4.712388980384690
2  9 4 0 3.141592653589793 4.712388980384690
2  10 2 26 3.141592653589793 4.712388980384690
0

0101000
+127 0 -117 0 *
Ve
0.000000100000002
25.000000000000000 10.000000000000000 0.000000000000000
0 0

0101101
*
Ed
 0.000000100000000 1 1 0
1  5 0 3.141592653589793 4.712388980384690
2  11 5 0 3.141592653589793 4.712388980384690
2  12 2 26 3.141592653589793 4.712388980384690
0

0101000
+126 0 -115 0 *
Ve
0.000000100000002
-25.000000000000000 -10.000000000000000 0.000000000000000
0 0

0101101
*
Ed
 0.000000100000002 1 1 0
1  6 0 5.000000000000000 25.000000000000000
2  13 2 14 5.000000000000000 25.000000000000000
2  14 6 15 5.000000000000000 25.000000000000000
2  15 6 17 5.000000000000000 25.000000000000000
2  16 3 18 5.000000000000000 25.000000000000000
0

0101000
+113 19 -117 19 *
Ve
0.000000100000002
25.000000000000000 -10.000000000000000 0.000000000000000
0 0

0101101
*
Ed
 0.000000100000002 1 1 0
1  7 0 5.000000000000000 25.000000000000000
2  17 2 14 5.000000000000000 25.000000000000000
2  18 7 15 5.000000000000000 25.000000000000000
2  19 7 17 5.000000000000000 25.000000000000000
2  20 3 18 5.000000000000000 25.000000000000000
0

0101000
+115 19 -111 19 *
Ve
0.000000100000002
-20.000000000000000 -15.000000000000000 0.000000000000000
0 0

0101101
*
Ed
 0.000000100000000 1 1 0
1  8 0 4.712388980384690 6.283185307179586
2  21 8 0 4.712388980384690 6.283185307179586
2  22 2 26 4.712388980384690 6.283185307179586
0

0101000
+113 0 -109 0 *
Ve
0.000000100000002
20.000000000000000 -15.000000000000000 0.000000000000000
0 0

0101101
*
Ed
 0.000000100000000 1 1 0
1  9 0 4.712388980384690 6.283185307179586
2  23 9 0 4.712388980384690 6.283185307179586
2  24 2 26 4.712388980384690 6.283185307179586
0

0101000
+111 0 -107 0 *
Ed
 0.000000100000002 1 1 0
1  10 0 5.000000000000000 45.000000000000000
2  25 2 14 5.000000000000000 45.000000000000000
2  26 10 15 5.000000000000000 45.000000000000000
2  27 10 17 5.000000000000000 45.000000000000000
2  28 3 18 5.000000000000000 45.000000000000000
0

0101000
+107 19 -109 19 *
Wi

0101100
+125 24 -116 25 +114 25 +112 24 +110 24 -108 25 +106 25 +105 24 *
Ve
0.000000100000000
-17.199999999999999 10.199999999999999 0.000000000000000
0 0

0101101
*
Ed
 0.000000100000000 1 1 0
1  11 0 0.000000000000000 6.283185307179586
2  29 2 23 0.000000000000000 6.283185307179586
2  30 11 27 0.000000000000000 6.283185307179586
0

0101000
+103 0 -103 0 *
Wi

0101100
-102 0 *
Fa
0  0.000000100000000 2 23

0101000
+104 0 +101 0 *
Ve
0.000000100000002
-25.000000000000000 10.000000000000000 5.000000000000000
0 0

0101101
*
Ed
 0.000000100000000 1 1 0
1  12 0 -0.000000000000000 5.000000000000000
2  31 4 0 -0.000000000000000 5.000000000000000
2  32 6 20 -0.000000000000000 5.000000000000000
4 G1 4 0 6 20
0

0101000
+117 0 -99 0 *
Ed
 0.000000100000000 1 1 0
1  13 0 3.141592653589793 4.712388980384690
2  33 4 0 3.141592653589793 4.712388980384690
2  34 2 28 3.141592653589793 4.712388980384690
0

0101000
+124 0 -99 0 *
Wi

0101100
+116 0 -123 0 +98 0 -97 0 *
Fa
0  0.000000000000000 4 0

0101000
+96 0 *
Ve
0.000000100000002
25.000000000000000 10.000000000000000 5.000000000000000
0 0

0101101
*
Ed
 0.000000100000000 1 1 0
1  14 0 -0.000000000000000 5.000000000000000
2  35 5 0 -0.000000000000000 5.000000000000000
2  36 7 20 -0.000000000000000 5.000000000000000
4 G1 5 0 7 20
0

0101000
+115 0 -94 0 *
Ed
 0.000000100000000 1 1 0
1  15 0 3.141592653589793 4.712388980384690
2  37 5 0 3.141592653589793 4.712388980384690
2  38 2 28 3.141592653589793 4.712388980384690
0

0101000
+122 0 -94 0 *
Wi

0101100
+114 0 -121 0 +93 0 -92 0 *
Fa
0  0.000000000000000 5 0

0101000
+91 0 *
Ve
0.000000100000002
-25.000000000000000 -10.000000000000000 5.000000000000000
0 0

0101101
*
Ed
 0.000000100000002 1 1 0
1  6 0 5.000000000000000 25.000000000000000
2  13 2 14 5.000000000000000 25.000000000000000
2  14 6 15 5.000000000000000 25.000000000000000
2  15 6 17 5.000000000000000 25.000000000000000
2  16 3 18 5.000000000000000 25.000000000000000
0

0101000
+89 22 -99 22 *
Ve
0.000000100000002
25.000000000000000 -10.000000000000000 5.000000000000000
0 0

0101101
*
Ed
 0.000000100000002 1 1 0
1  7 0 5.000000000000000 25.000000000000000
2  17 2 14 5.000000000000000 25.000000000000000
2  18 7 15 5.000000000000000 25.000000000000000
2  19 7 17 5.000000000000000 25.000000000000000
2  20 3 18 5.000000000000000 25.000000000000000
0

0101000
+94 22 -87 22 *
Ve
0.000000100000002
-20.000000000000000 -15.000000000000000 5.000000000000000
0 0

0101101
*
Ed
 0.000000100000000 1 1 0
1  16 0 4.712388980384690 6.283185307179586
2  39 8 0 4.712388980384690 6.283185307179586
2  40 2 28 4.712388980384690 6.283185307179586
0

0101000
+89 0 -85 0 *
Ve
0.000000100000002
20.000000000000000 -15.000000000000000 5.000000000000000
0 0

0101101
*
Ed
 0.000000100000000 1 1 0
1  17 0 4.712388980384690 6.283185307179586
2  41 9 0 4.712388980384690 6.283185307179586
2  42 2 28 4.712388980384690 6.283185307179586
0

0101000
+87 0 -83 0 *
Ed
 0.000000100000002 1 1 0
1  10 0 5.000000000000000 45.000000000000000
2  25 2 14 5.000000000000000 45.000000000000000
2  26 10 15 5.000000000000000 45.000000000000000
2  27 10 17 5.000000000000000 45.000000000000000
2  28 3 18 5.000000000000000 45.000000000000000
0

0101000
+83 22 -85 22 *
Wi

0101100
+120 30 -97 25 +92 25 +88 30 +86 30 -84 25 +82 25 +81 30 *
Ve
0.000000100000000
18.499999999999996 13.500000000000000 5.000000000000000
0 0

0101101
*
Ve
0.000000100000000
-17.154751897480555 13.499999999999998 0.000000000000000
0 0

0101101
*
Ed
 0.000000100000000 1 1 0
1  18 0 0.000000000000000 35.654751897480551
2  43 12 34 0.000000000000000 35.654751897480551
2  44 12 36 0.000000000000000 35.654751897480551
2  45 13 37 0.000000000000000 35.654751897480551
2  46 2 38 0.000000000000000 35.654751897480551
0

0101000
-79 39 +78 0 *
Ve
0.000000100000000
23.499999999999996 8.500000000000000 5.000000000000000
0 0

0101101
*
Ed
 0.000000100000000 1 1 0
1  19 0 0.000000000000000 1.570796326794897
2  47 14 0 0.000000000000000 1.570796326794897
2  48 2 28 0.000000000000000 1.570796326794897
0

0101000
+79 0 -76 0 *
Ve
0.000000100000001
-23.500000000000004 7.154751897480559 0.000000000000000
0 0

0101101
*
Ed
 0.000000100000000 1 1 0
1  20 0 3.886863914533010 7.108710373031264
2  49 15 34 3.886863914533010 7.108710373031264
2  50 15 36 3.886863914533010 7.108710373031264
2  51 13 37 3.886863914533010 7.108710373031264
2  52 2 38 3.886863914533010 7.108710373031264
0

0101000
+74 0 -78 0 *
Ve
0.000000100000000
23.499999999999996 -8.500000000000000 5.000000000000000
0 0

0101101
*
Ed
 0.000000100000000 1 1 0
1  21 0 4.999999999999998 22.000000000000000
2  53 16 34 4.999999999999998 22.000000000000000
2  54 16 36 4.999999999999998 22.000000000000000
2  55 13 37 4.999999999999998 22.000000000000000
2  56 2 38 4.999999999999998 22.000000000000000
0

0101000
+76 39 -72 39 *
Ve
0.000000100000000
-23.500000000000004 -8.500000000000000 5.000000000000000
0 0

0101101
*
Ed
 0.000000100000000 1 1 0
1  22 0 5.000000000000000 20.654751897480558
2  57 17 34 5.000000000000000 20.654751897480558
2  58 17 36 5.000000000000000 20.654751897480558
2  59 13 37 5.000000000000000 20.654751897480558
2  60 2 38 5.000000000000000 20.654751897480558
0

0101000
+70 39 -74 0 *
Ve
0.000000100000000
18.499999999999996 -13.500000000000000 5.000000000000000
0 0

0101101
*
Ed
 0.000000100000000 1 1 0
1  23 0 1.570796326794897 3.141592653589793
2  61 18 0 1.570796326794897 3.141592653589793
2  62 2 28 1.570796326794897 3.141592653589793
0

0101000
+72 0 -68 0 *
Ve
0.000000100000000
-18.500000000000004 -13.500000000000000 5.000000000000000
0 0

0101101
*
Ed
 0.000000100000000 1 1 0
1  24 0 3.141592653589793 4.712388980384690
2  63 19 0 3.141592653589793 4.712388980384690
2  64 2 28 3.141592653589793 4.712388980384690
0

0101000
+66 0 -70 0 *
Ed
 0.000000100000000 1 1 0
1  25 0 5.000000000000000 42.000000000000000
2  65 20 34 5.000000000000000 42.000000000000000
2  66 20 36 5.000000000000000 42.000000000000000
2  67 13 37 5.000000000000000 42.000000000000000
2  68 2 38 5.000000000000000 42.000000000000000
0

0101000
+68 39 -66 39 *
Wi

0101100
-77 33 -75 25 -73 33 -71 33 -69 33 -67 25 -65 25 -64 33 *
Ve
0.000000100000000
3.000000000000000 0.000000000000000 -0.000000000000000
0 0

0101101
*
Ed
 0.000000100000000 1 1 0
1  26 0 0.000000000000000 6.283185307179586
2  69 21 0 0.000000000000000 6.283185307179586
2  70 11 0 0.000000000000000 6.283185307179586
2  71 2 40 0.000000000000000 6.283185307179586
0

0101000
+62 0 -62 0 *
Wi

0101100
+61 27 *
Fa
0  0.000000100000000 2 29

0101000
+80 0 +63 0 +60 0 *
Ed
 0.000000100000000 1 1 0
1  27 0 -0.000000000000000 5.000000000000000
2  72 8 0 -0.000000000000000 5.000000000000000
2  73 6 20 -0.000000000000000 5.000000000000000
4 G1 8 0 6 20
0

0101000
+113 0 -89 0 *
Wi

0101100
-112 12 +58 0 -98 0 +88 21 *
Fa
0  0.000000100000000 6 0

0101000
+57 8 *
Ed
 0.000000100000000 1 1 0
1  28 0 -0.000000000000000 5.000000000000000
2  74 9 0 -0.000000000000000 5.000000000000000
2  75 7 20 -0.000000000000000 5.000000000000000
4 G1 9 0 7 20
0

0101000
+111 0 -87 0 *
Wi

0101100
-110 12 +93 0 -55 0 +86 21 *
Fa
0  0.000000100000000 7 0

0101000
+54 8 *
Ed
 0.000000100000000 1 1 0
1  29 0 -0.000000000000000 5.000000000000000
2  76 8 0 -0.000000000000000 5.000000000000000
2  77 10 20 -0.000000000000000 5.000000000000000
4 G1 8 0 10 20
0

0101000
+109 0 -85 0 *
Wi

0101100
+108 0 -58 0 +52 0 -84 0 *
Fa
0  0.000000000000000 8 0

0101000
+51 0 *
Ed
 0.000000100000000 1 1 0
1  30 0 -0.000000000000000 5.000000000000000
2  78 9 0 -0.000000000000000 5.000000000000000
2  79 10 20 -0.000000000000000 5.000000000000000
4 G1 9 0 10 20
0

0101000
+107 0 -83 0 *
Wi

0101100
+106 0 -55 0 +49 0 -82 0 *
Fa
0  0.000000000000000 9 0

0101000
+48 0 *
Wi

0101100
-105 12 +49 0 -52 0 +81 21 *
Fa
0  0.000000100000000 10 0

0101000
+46 8 *
Ed
 0.000000100000000 1 1 0
1  31 0 0.000000000000000 5.000000000000000
3  80 81CN 11 0 0.000000000000000 5.000000000000000
0

0101000
+62 0 -103 41 *
Wi

0101100
-44 27 +102 0 +44 27 +61 27 *
Fa
0  0.000000100000000 11 27

0101000
+43 0 *
Ve
0.000000100000000
18.499999999999996 13.500000000000000 3.500000000000000
0 0

0101101
*
Ed
 0.000000100000000 1 1 0
1  32 0 -0.000000000000000 1.499999999999999
2  82 14 0 -0.000000000000000 1.499999999999999
2  83 12 4 -0.000000000000000 1.499999999999999
4 G1 14 0 12 4
0

0101000
+79 0 -41 0 *
Ed
 0.000000100000000 1 1 0
1  33 0 0.000000000000000 1.500000000000000
2  84 15 0 0.000000000000000 1.500000000000000
2  85 12 0 0.000000000000000 1.500000000000000
0

0101000
+78 45 -78 46 *
Ed
 0.000000100000000 1 1 0
1  18 0 0.000000000000000 35.654751897480551
2  43 12 34 0.000000000000000 35.654751897480551
2  44 12 36 0.000000000000000 35.654751897480551
2  45 13 37 0.000000000000000 35.654751897480551
2  46 2 38 0.000000000000000 35.654751897480551
0

0101000
-41 48 +78 0 *
Wi

0101100
-77 44 -40 0 +39 4 +38 47 *
Fa
0  0.000000100000000 12 0

0101000
+37 43 *
Ve
0.000000100000000
23.499999999999996 8.500000000000000 3.500000000000000
0 0

0101101
*
Ed
 0.000000100000000 1 1 0
1  34 0 -0.000000000000000 1.499999999999999
2  86 14 0 -0.000000000000000 1.499999999999999
2  87 16 4 -0.000000000000000 1.499999999999999
4 G1 14 0 16 4
0

0101000
+76 0 -35 0 *
Ed
 0.000000100000000 1 1 0
1  35 0 0.000000000000000 1.570796326794897
2  88 14 0 0.000000000000000 1.570796326794897
2  89 13 49 0.000000000000000 1.570796326794897
0

0101000
+41 0 -35 0 *
Wi

0101100
+75 0 -40 0 +34 0 -33 0 *
Fa
0  0.000000000000000 14 0

0101000
+32 0 *
Ed
 0.000000100000001 1 1 0
1  36 0 0.000000000000000 1.500000000000000
2  90 15 0 0.000000000000000 1.500000000000000
2  91 17 0 0.000000000000000 1.500000000000000
0

0101000
+74 45 -74 46 *
Wi

0101100
+30 0 -39 0 -73 45 +73 46 *
Fa
0  0.000000100000000 15 0

0101000
+29 0 *
Ve
0.000000100000000
23.499999999999996 -8.500000000000000 3.500000000000000
0 0

0101101
*
Ed
 0.000000100000000 1 1 0
1  37 0 -0.000000000000000 1.499999999999999
2  92 18 0 -0.000000000000000 1.499999999999999
2  93 16 4 -0.000000000000000 1.499999999999999
4 G1 18 0 16 4
0

0101000
+72 0 -27 0 *
Ed
 0.000000100000000 1 1 0
1  21 0 4.999999999999998 22.000000000000000
2  53 16 34 4.999999999999998 22.000000000000000
2  54 16 36 4.999999999999998 22.000000000000000
2  55 13 37 4.999999999999998 22.000000000000000
2  56 2 38 4.999999999999998 22.000000000000000
0

0101000
+35 48 -27 48 *
Wi

0101100
-71 44 +34 0 -26 0 +25 47 *
Fa
0  0.000000100000000 16 0

0101000
+24 43 *
Ve
0.000000100000000
-23.500000000000004 -8.500000000000000 3.500000000000000
0 0

0101101
*
Ed
 0.000000100000000 1 1 0
1  38 0 -0.000000000000000 1.499999999999999
2  94 19 0 -0.000000000000000 1.499999999999999
2  95 17 4 -0.000000000000000 1.499999999999999
4 G1 19 0 17 4
0

0101000
+70 0 -22 0 *
Ed
 0.000000100000000 1 1 0
1  22 0 5.000000000000000 20.654751897480558
2  57 17 34 5.000000000000000 20.654751897480558
2  58 17 36 5.000000000000000 20.654751897480558
2  59 13 37 5.000000000000000 20.654751897480558
2  60 2 38 5.000000000000000 20.654751897480558
0

0101000
+22 48 -74 0 *
Wi

0101100
-69 44 +21 0 -30 4 +20 47 *
Fa
0  0.000000100000000 17 0

0101000
+19 43 *
Ve
0.000000100000000
18.499999999999996 -13.500000000000000 3.500000000000000
0 0

0101101
*
Ed
 0.000000100000000 1 1 0
1  39 0 -0.000000000000000 1.499999999999999
2  96 18 0 -0.000000000000000 1.499999999999999
2  97 20 4 -0.000000000000000 1.499999999999999
4 G1 18 0 20 4
0

0101000
+68 0 -17 0 *
Ed
 0.000000100000000 1 1 0
1  40 0 1.570796326794897 3.141592653589793
2  98 18 0 1.570796326794897 3.141592653589793
2  99 13 49 1.570796326794897 3.141592653589793
0

0101000
+27 0 -17 0 *
Wi

0101100
+67 0 -26 0 +16 0 -15 0 *
Fa
0  0.000000000000000 18 0

0101000
+14 0 *
Ve
0.000000100000000
-18.500000000000004 -13.500000000000000 3.500000000000000
0 0

0101101
*
Ed
 0.000000100000000 1 1 0
1  41 0 -0.000000000000000 1.499999999999999
2  100 19 0 -0.000000000000000 1.499999999999999
2  101 20 4 -0.000000000000000 1.499999999999999
4 G1 19 0 20 4
0

0101000
+66 0 -12 0 *
Ed
 0.000000100000000 1 1 0
1  42 0 3.141592653589793 4.712388980384690
2  102 19 0 3.141592653589793 4.712388980384690
2  103 13 49 3.141592653589793 4.712388980384690
0

0101000
+12 0 -22 0 *
Wi

0101100
+65 0 -11 0 +21 0 -10 0 *
Fa
0  0.000000000000000 19 0

0101000
+9 0 *
Ed
 0.000000100000000 1 1 0
1  25 0 5.000000000000000 42.000000000000000
2  65 20 34 5.000000000000000 42.000000000000000
2  66 20 36 5.000000000000000 42.000000000000000
2  67 13 37 5.000000000000000 42.000000000000000
2  68 2 38 5.000000000000000 42.000000000000000
0

0101000
+17 48 -12 48 *
Wi

0101100
-64 44 +16 0 -11 0 +7 47 *
Fa
0  0.000000100000000 20 0

0101000
+6 43 *
Wi

0101100
+38 47 +33 0 +73 47 +25 47 +20 47 +15 0 +10 0 +7 47 *
Fa
0  0.000000100000000 13 0

0101000
+4 51 *
Sh

0101100
+118 7 +100 0 +95 25 -90 25 -59 0 +56 7 +53 7 +50 25 -47 25 +45 7 
+42 0 +36 42 -31 25 +28 42 +23 42 +18 42 -13 25 -8 25 +5 42 -3 50 
*
So

0100000
+2 0 *

+1 1 