
CASCADE Topology V1, (c) Matra-Datavision
Locations 41
1
1.000000000000000 0.000000000000000 0.000000000000000 0.000000000000000 
0.000000000000000 1.000000000000000 0.000000000000000 0.000000000000000 
0.000000000000000 0.000000000000000 1.000000000000000 0.000000000000000 
1
1.000000000000000 0.000000000000000 0.000000000000000 0.000000000000000 
0.000000000000000 1.000000000000000 0.000000000000000 0.000000000000000 
0.000000000000000 0.000000000000000 1.000000000000000 0.000000000000000 
1
1.000000000000000 0.000000000000000 0.000000000000000 0.000000000000000 
0.000000000000000 1.000000000000000 0.000000000000000 0.000000000000000 
0.000000000000000 0.000000000000000 1.000000000000000 0.000000000000000 
1
1.000000000000000 0.000000000000000 0.000000000000000 0.000000000000000 
0.000000000000000 1.000000000000000 0.000000000000000 0.000000000000000 
0.000000000000000 0.000000000000000 1.000000000000000 0.000000000000000 
2  2 1 3 -1 4 1 0
2  4 -1 3 1 2 -1 0
1
1.000000000000000 0.000000000000000 0.000000000000000 0.000000000000000 
0.000000000000000 1.000000000000000 0.000000000000000 0.000000000000000 
0.000000000000000 0.000000000000000 1.000000000000000 0.000000000000000 
1
1.000000000000000 0.000000000000000 0.000000000000000 0.000000000000000 
0.000000000000000 1.000000000000000 0.000000000000000 0.000000000000000 
0.000000000000000 0.000000000000000 1.000000000000000 0.000000000000000 
1
1.000000000000000 0.000000000000000 0.000000000000000 0.000000000000000 
0.000000000000000 1.000000000000000 0.000000000000000 0.000000000000000 
0.000000000000000 0.000000000000000 1.000000000000000 0.000000000000000 
2  7 1 8 1 9 -1 2 1 3 -1 4 1 0
1
1.000000000000000 0.000000000000000 0.000000000000000 0.000000000000000 
0.000000000000000 1.000000000000000 0.000000000000000 0.000000000000000 
0.000000000000000 0.000000000000000 1.000000000000000 0.000000000000000 
2  11 -1 7 -1 0
2  9 1 8 -1 7 -1 0
1
1.000000000000000 0.000000000000000 0.000000000000000 0.000000000000000 
0.000000000000000 1.000000000000000 0.000000000000000 0.000000000000000 
0.000000000000000 0.000000000000000 1.000000000000000 5.000000000000000 
2  14 -1 9 1 8 -1 7 -1 0
2  2 -1 14 -1 9 1 8 -1 7 -1 0
2  4 -1 3 1 2 -1 9 1 8 -1 7 -1 0
2  7 1 8 1 9 -1 14 1 2 1 3 -1 4 1 0
2  4 -1 3 1 2 -1 14 -1 9 1 8 -1 7 -1 0
2  9 -1 2 1 3 -1 4 1 0
2  11 -1 8 1 0
2  4 -1 3 1 2 -1 9 1 0
2  11 -1 8 1 9 -1 2 1 3 -1 4 1 0
2  11 -1 8 1 9 -1 14 1 2 1 3 -1 4 1 0
2  11 -1 8 1 9 -1 14 1 2 1 3 -1 0
2  4 -1 0
1
1.000000000000000 0.000000000000000 0.000000000000000 0.000000000000000 
0.000000000000000 1.000000000000000 0.000000000000000 0.000000000000000 
0.000000000000000 0.000000000000000 1.000000000000000 0.000000000000000 
1
1.000000000000000 0.000000000000000 0.000000000000000 0.000000000000000 
0.000000000000000 1.000000000000000 0.000000000000000 0.000000000000000 
0.000000000000000 0.000000000000000 1.000000000000000 5.000000000000000 
2  27 1 28 1 3 -1 4 1 0
2  3 1 28 -1 27 -1 0
1
1.000000000000000 0.000000000000000 0.000000000000000 -0.000000000000000 
0.000000000000000 1.000000000000000 0.000000000000000 -0.000000000000000 
0.000000000000000 0.000000000000000 1.000000000000000 -1.500000000000000 
2  31 -1 3 1 28 -1 27 -1 0
2  28 -1 27 -1 0
2  11 -1 8 1 9 -1 14 1 2 1 28 -1 27 -1 0
2  4 -1 3 1 28 -1 27 -1 0
2  27 1 28 1 3 -1 0
2  27 1 28 1 3 -1 31 1 0
2  27 1 28 1 3 -1 31 1 4 1 0
2  4 -1 31 -1 3 1 28 -1 27 -1 0
2  3 -1 31 1 4 1 0
2  4 -1 31 -1 3 1 0
Curve2ds 96
1 25.00000000000000000 15.00000000000000000 -1.00000000000000000 0.00000000000000000 
1 0.00000000000000000 0.00000000000000000 1.00000000000000000 0.00000000000000000 
1 0.00000000000000000 -5.00000000000000000 1.00000000000000000 0.00000000000000000 
1 -25.55930105345843373 7.82291414287620235 1.00000000000000000 0.00000000000000000 
1 0.00000000000000000 0.00000000000000000 0.00000000000000000 1.00000000000000000 
1 5.00000000000000000 0.00000000000000000 0.00000000000000000 -1.00000000000000000 
1 0.00000000000000000 0.00000000000000000 0.00000000000000000 1.00000000000000000 
1 45.00000000000000000 0.00000000000000000 0.00000000000000000 -1.00000000000000000 
1 -3.14159265358979312 0.00000000000000000 1.00000000000000000 0.00000000000000000 
2 20.00000000000000000 10.00000000000000000 0.00000000000000000 -1.00000000000000000 -1.00000000000000000 -0.00000000000000000 5.00000000000000000
1 -3.14159265358979312 0.00000000000000000 1.00000000000000000 0.00000000000000000 
2 -20.00000000000000000 10.00000000000000000 0.00000000000000000 -1.00000000000000000 1.00000000000000000 0.00000000000000000 5.00000000000000000
1 25.00000000000000000 -15.00000000000000000 0.00000000000000000 1.00000000000000000 
1 0.00000000000000000 0.00000000000000000 1.00000000000000000 0.00000000000000000 
1 0.00000000000000000 -5.00000000000000000 1.00000000000000000 0.00000000000000000 
1 -25.55930105345843373 -22.17708585712379943 0.00000000000000000 1.00000000000000000 
1 -25.00000000000000000 15.00000000000000000 0.00000000000000000 -1.00000000000000000 
1 0.00000000000000000 0.00000000000000000 1.00000000000000000 0.00000000000000000 
1 0.00000000000000000 -5.00000000000000000 1.00000000000000000 0.00000000000000000 
1 24.44069894654156627 7.82291414287620235 0.00000000000000000 -1.00000000000000000 
1 -4.71238898038468967 0.00000000000000000 1.00000000000000000 0.00000000000000000 
2 20.00000000000000000 -10.00000000000000000 0.00000000000000000 -1.00000000000000000 -1.00000000000000000 -0.00000000000000000 5.00000000000000000
1 -4.71238898038468967 0.00000000000000000 1.00000000000000000 0.00000000000000000 
2 -20.00000000000000000 -10.00000000000000000 0.00000000000000000 -1.00000000000000000 1.00000000000000000 0.00000000000000000 5.00000000000000000
1 -25.00000000000000000 -15.00000000000000000 1.00000000000000000 0.00000000000000000 
1 0.00000000000000000 -0.00000000000000000 1.00000000000000000 0.00000000000000000 
1 0.00000000000000000 -5.00000000000000000 1.00000000000000000 0.00000000000000000 
1 24.44069894654156627 -22.17708585712379943 -1.00000000000000000 0.00000000000000000 
1 1.57079632679489656 0.00000000000000000 0.00000000000000000 1.00000000000000000 
1 25.00000000000000000 0.00000000000000000 0.00000000000000000 -1.00000000000000000 
1 -3.14159265358979312 5.00000000000000000 1.00000000000000000 0.00000000000000000 
2 20.00000000000000000 10.00000000000000000 0.00000000000000000 -1.00000000000000000 -1.00000000000000000 -0.00000000000000000 5.00000000000000000
1 1.57079632679489656 0.00000000000000000 0.00000000000000000 1.00000000000000000 
1 5.00000000000000000 0.00000000000000000 0.00000000000000000 -1.00000000000000000 
1 -3.14159265358979312 5.00000000000000000 1.00000000000000000 0.00000000000000000 
2 -20.00000000000000000 10.00000000000000000 0.00000000000000000 -1.00000000000000000 1.00000000000000000 0.00000000000000000 5.00000000000000000
1 -4.71238898038468967 5.00000000000000000 1.00000000000000000 0.00000000000000000 
2 20.00000000000000000 -10.00000000000000000 0.00000000000000000 -1.00000000000000000 -1.00000000000000000 -0.00000000000000000 5.00000000000000000
1 -4.71238898038468967 5.00000000000000000 1.00000000000000000 0.00000000000000000 
2 -20.00000000000000000 -10.00000000000000000 0.00000000000000000 -1.00000000000000000 1.00000000000000000 0.00000000000000000 5.00000000000000000
1 0.00000000000000000 0.00000000000000000 1.00000000000000000 0.00000000000000000 
1 0.00000000000000000 -1.50000000000000000 1.00000000000000000 0.00000000000000000 
1 17.31694257808610260 13.73540256233871304 -1.00000000000000000 -0.00000000000000000 
1 17.15475189748055485 13.49999999999999822 -1.00000000000000000 0.00000000000000000 
1 0.00000000000000000 0.00000000000000000 1.00000000000000000 0.00000000000000000 
2 -18.49999999999999645 8.50000000000000000 0.00000000000000000 1.00000000000000000 -1.00000000000000000 0.00000000000000000 5.00000000000000000
1 0.00000000000000000 0.00000000000000000 1.00000000000000000 0.00000000000000000 
1 0.00000000000000000 -1.50000000000000000 1.00000000000000000 0.00000000000000000 
2 20.36219068060554704 10.43540256233871411 -1.00000000000000000 -0.00000000000000000 -0.00000000000000000 1.00000000000000000 4.49038261241715020
2 20.19999999999999929 10.19999999999999929 -1.00000000000000000 0.00000000000000000 0.00000000000000000 1.00000000000000000 4.49038261241715020
1 0.00000000000000000 0.00000000000000000 1.00000000000000000 0.00000000000000000 
1 0.00000000000000000 -1.50000000000000000 1.00000000000000000 0.00000000000000000 
1 -23.33780931939444869 13.73540256233871304 0.00000000000000000 -1.00000000000000000 
1 -23.49999999999999645 13.49999999999999822 0.00000000000000000 -1.00000000000000000 
1 0.00000000000000000 0.00000000000000000 1.00000000000000000 0.00000000000000000 
1 0.00000000000000000 -1.50000000000000000 1.00000000000000000 0.00000000000000000 
1 23.66219068060555131 -13.26459743766128518 0.00000000000000000 1.00000000000000000 
1 23.50000000000000355 -13.50000000000000000 0.00000000000000000 1.00000000000000000 
1 -1.57079632679489656 0.00000000000000000 1.00000000000000000 0.00000000000000000 
2 -18.49999999999999645 -8.50000000000000000 0.00000000000000000 1.00000000000000000 -1.00000000000000000 0.00000000000000000 5.00000000000000000
1 -3.14159265358979312 0.00000000000000000 1.00000000000000000 0.00000000000000000 
2 18.50000000000000355 -8.50000000000000000 0.00000000000000000 1.00000000000000000 -1.00000000000000000 0.00000000000000000 5.00000000000000000
1 0.00000000000000000 0.00000000000000000 1.00000000000000000 0.00000000000000000 
1 0.00000000000000000 -1.50000000000000000 1.00000000000000000 0.00000000000000000 
1 -23.33780931939444869 -13.26459743766128518 1.00000000000000000 0.00000000000000000 
1 -23.49999999999999645 -13.50000000000000000 1.00000000000000000 0.00000000000000000 
1 0.00000000000000000 0.00000000000000000 0.00000000000000000 1.00000000000000000 
1 5.00000000000000000 0.00000000000000000 0.00000000000000000 -1.00000000000000000 
1 0.00000000000000000 0.00000000000000000 0.00000000000000000 1.00000000000000000 
1 25.00000000000000000 0.00000000000000000 0.00000000000000000 -1.00000000000000000 
1 1.57079632679489656 0.00000000000000000 0.00000000000000000 1.00000000000000000 
1 45.00000000000000000 0.00000000000000000 0.00000000000000000 -1.00000000000000000 
1 1.57079632679489656 0.00000000000000000 0.00000000000000000 1.00000000000000000 
1 5.00000000000000000 0.00000000000000000 0.00000000000000000 -1.00000000000000000 
1 0.00000000000000000 0.00000000000000000 0.00000000000000000 1.00000000000000000 
1 35.65475189748055129 0.00000000000000000 -0.00000000000000000 -1.00000000000000000 
1 7.10871037303126396 0.00000000000000000 0.00000000000000000 -1.00000000000000000 
1 0.00000000000000000 0.00000000000000000 0.00000000000000000 -1.00000000000000000 
1 1.57079632679489656 0.00000000000000000 0.00000000000000000 1.00000000000000000 
1 4.99999999999999822 0.00000000000000000 0.00000000000000000 -1.00000000000000000 
1 0.00000000000000000 1.49999999999999911 1.00000000000000000 0.00000000000000000 
2 -18.33780931939444869 8.73540256233871482 0.00000000000000000 1.00000000000000000 -1.00000000000000000 0.00000000000000000 5.00000000000000000
1 3.88686391453301017 0.00000000000000000 0.00000000000000000 -1.00000000000000000 
1 20.65475189748055840 0.00000000000000000 0.00000000000000000 -1.00000000000000000 
1 0.00000000000000000 0.00000000000000000 0.00000000000000000 1.00000000000000000 
1 22.00000000000000000 0.00000000000000000 0.00000000000000000 -1.00000000000000000 
1 1.57079632679489656 0.00000000000000000 0.00000000000000000 1.00000000000000000 
1 5.00000000000000000 0.00000000000000000 -0.00000000000000000 -1.00000000000000000 
1 1.57079632679489656 0.00000000000000000 0.00000000000000000 1.00000000000000000 
1 5.00000000000000000 0.00000000000000000 0.00000000000000000 -1.00000000000000000 
1 -1.57079632679489656 1.49999999999999911 1.00000000000000000 0.00000000000000000 
2 -18.33780931939444869 -8.26459743766128518 0.00000000000000000 1.00000000000000000 -1.00000000000000000 0.00000000000000000 5.00000000000000000
1 0.00000000000000000 0.00000000000000000 0.00000000000000000 1.00000000000000000 
1 42.00000000000000000 0.00000000000000000 0.00000000000000000 -1.00000000000000000 
1 -3.14159265358979312 1.49999999999999911 1.00000000000000000 0.00000000000000000 
2 18.66219068060555131 -8.26459743766128518 0.00000000000000000 1.00000000000000000 -1.00000000000000000 0.00000000000000000 5.00000000000000000
Curves 39
1 -25.00000000000000000 15.00000000000000000 0.00000000000000000 1.00000000000000000 0.00000000000000000 0.00000000000000000 
1 -20.00000000000000000 15.00000000000000000 0.00000000000000000 0.00000000000000000 0.00000000000000000 1.00000000000000000 
1 20.00000000000000000 15.00000000000000000 0.00000000000000000 0.00000000000000000 0.00000000000000000 1.00000000000000000 
8 3.14159265358979312 4.71238898038468967
2 -20.00000000000000000 10.00000000000000000 0.00000000000000000 0.00000000000000000 0.00000000000000000 1.00000000000000000 0.00000000000000000 -1.00000000000000000 0.00000000000000000 1.00000000000000000 0.00000000000000000 -0.00000000000000000 5.00000000000000000
8 3.14159265358979312 4.71238898038468967
2 20.00000000000000000 10.00000000000000000 0.00000000000000000 -0.00000000000000000 -0.00000000000000000 -1.00000000000000000 0.00000000000000000 -1.00000000000000000 0.00000000000000000 -1.00000000000000000 0.00000000000000000 0.00000000000000000 5.00000000000000000
1 -25.00000000000000000 -15.00000000000000000 0.00000000000000000 0.00000000000000000 1.00000000000000000 0.00000000000000000 
1 25.00000000000000000 15.00000000000000000 0.00000000000000000 0.00000000000000000 -1.00000000000000000 0.00000000000000000 
8 4.71238898038468967 6.28318530717958623
2 -20.00000000000000000 -10.00000000000000000 0.00000000000000000 0.00000000000000000 0.00000000000000000 1.00000000000000000 0.00000000000000000 -1.00000000000000000 0.00000000000000000 1.00000000000000000 0.00000000000000000 -0.00000000000000000 5.00000000000000000
8 4.71238898038468967 6.28318530717958623
2 20.00000000000000000 -10.00000000000000000 0.00000000000000000 -0.00000000000000000 -0.00000000000000000 -1.00000000000000000 0.00000000000000000 -1.00000000000000000 0.00000000000000000 -1.00000000000000000 0.00000000000000000 0.00000000000000000 5.00000000000000000
1 25.00000000000000000 -15.00000000000000000 0.00000000000000000 -1.00000000000000000 0.00000000000000000 0.00000000000000000 
1 -25.00000000000000000 10.00000000000000000 0.00000000000000000 0.00000000000000000 0.00000000000000000 1.00000000000000000 
8 3.14159265358979312 4.71238898038468967
2 -20.00000000000000000 10.00000000000000000 5.00000000000000000 0.00000000000000000 0.00000000000000000 1.00000000000000000 0.00000000000000000 -1.00000000000000000 0.00000000000000000 1.00000000000000000 0.00000000000000000 -0.00000000000000000 5.00000000000000000
1 25.00000000000000000 10.00000000000000000 0.00000000000000000 0.00000000000000000 0.00000000000000000 1.00000000000000000 
8 3.14159265358979312 4.71238898038468967
2 20.00000000000000000 10.00000000000000000 5.00000000000000000 -0.00000000000000000 -0.00000000000000000 -1.00000000000000000 0.00000000000000000 -1.00000000000000000 0.00000000000000000 -1.00000000000000000 0.00000000000000000 0.00000000000000000 5.00000000000000000
8 4.71238898038468967 6.28318530717958623
2 -20.00000000000000000 -10.00000000000000000 5.00000000000000000 0.00000000000000000 0.00000000000000000 1.00000000000000000 0.00000000000000000 -1.00000000000000000 0.00000000000000000 1.00000000000000000 0.00000000000000000 -0.00000000000000000 5.00000000000000000
8 4.71238898038468967 6.28318530717958623
2 20.00000000000000000 -10.00000000000000000 5.00000000000000000 -0.00000000000000000 -0.00000000000000000 -1.00000000000000000 0.00000000000000000 -1.00000000000000000 0.00000000000000000 -1.00000000000000000 0.00000000000000000 0.00000000000000000 5.00000000000000000
1 -17.15475189748055485 13.49999999999999822 0.00000000000000000 1.00000000000000000 0.00000000000000000 0.00000000000000000 
8 0.00000000000000000 1.57079632679489656
2 18.49999999999999645 8.50000000000000000 5.00000000000000000 -0.00000000000000000 -0.00000000000000000 -1.00000000000000000 0.00000000000000000 1.00000000000000000 -0.00000000000000000 1.00000000000000000 -0.00000000000000000 0.00000000000000000 5.00000000000000000
2 -20.19999999999999929 10.19999999999999929 0.00000000000000000 0.00000000000000000 0.00000000000000000 1.00000000000000000 1.00000000000000000 0.00000000000000000 -0.00000000000000000 -0.00000000000000000 1.00000000000000000 0.00000000000000000 4.49038261241715109
1 23.49999999999999645 13.49999999999999822 0.00000000000000000 0.00000000000000000 -1.00000000000000000 0.00000000000000000 
1 -23.50000000000000355 -13.50000000000000000 0.00000000000000000 0.00000000000000000 1.00000000000000000 0.00000000000000000 
8 1.57079632679489656 3.14159265358979312
2 18.49999999999999645 -8.50000000000000000 5.00000000000000000 -0.00000000000000000 -0.00000000000000000 -1.00000000000000000 0.00000000000000000 1.00000000000000000 -0.00000000000000000 1.00000000000000000 -0.00000000000000000 0.00000000000000000 5.00000000000000000
8 3.14159265358979312 4.71238898038468967
2 -18.50000000000000355 -8.50000000000000000 5.00000000000000000 -0.00000000000000000 -0.00000000000000000 -1.00000000000000000 0.00000000000000000 1.00000000000000000 -0.00000000000000000 1.00000000000000000 -0.00000000000000000 0.00000000000000000 5.00000000000000000
1 23.49999999999999645 -13.50000000000000000 0.00000000000000000 -1.00000000000000000 0.00000000000000000 0.00000000000000000 
1 -25.00000000000000000 -10.00000000000000000 0.00000000000000000 0.00000000000000000 0.00000000000000000 1.00000000000000000 
1 25.00000000000000000 -10.00000000000000000 0.00000000000000000 0.00000000000000000 0.00000000000000000 1.00000000000000000 
1 -20.00000000000000000 -15.00000000000000000 0.00000000000000000 0.00000000000000000 0.00000000000000000 1.00000000000000000 
1 20.00000000000000000 -15.00000000000000000 0.00000000000000000 0.00000000000000000 0.00000000000000000 1.00000000000000000 
1 18.49999999999999645 13.50000000000000000 5.00000000000000000 -0.00000000000000000 -0.00000000000000000 -1.00000000000000000 
1 -17.15475189748055485 13.49999999999999822 5.00000000000000000 -0.00000000000000000 -0.00000000000000000 -1.00000000000000000 
1 23.49999999999999645 8.50000000000000000 5.00000000000000000 -0.00000000000000000 -0.00000000000000000 -1.00000000000000000 
8 0.00000000000000000 1.57079632679489656
2 18.49999999999999645 8.50000000000000000 3.50000000000000089 -0.00000000000000000 -0.00000000000000000 -1.00000000000000000 0.00000000000000000 1.00000000000000000 -0.00000000000000000 1.00000000000000000 -0.00000000000000000 0.00000000000000000 5.00000000000000000
1 -23.50000000000000355 7.15475189748055929 5.00000000000000000 -0.00000000000000000 -0.00000000000000000 -1.00000000000000000 
1 23.49999999999999645 -8.50000000000000000 5.00000000000000000 -0.00000000000000000 -0.00000000000000000 -1.00000000000000000 
1 -23.50000000000000355 -8.50000000000000000 5.00000000000000000 -0.00000000000000000 -0.00000000000000000 -1.00000000000000000 
1 18.49999999999999645 -13.50000000000000000 5.00000000000000000 -0.00000000000000000 -0.00000000000000000 -1.00000000000000000 
8 1.57079632679489656 3.14159265358979312
2 18.49999999999999645 -8.50000000000000000 3.50000000000000089 -0.00000000000000000 -0.00000000000000000 -1.00000000000000000 0.00000000000000000 1.00000000000000000 -0.00000000000000000 1.00000000000000000 -0.00000000000000000 0.00000000000000000 5.00000000000000000
1 -18.50000000000000355 -13.50000000000000000 5.00000000000000000 -0.00000000000000000 -0.00000000000000000 -1.00000000000000000 
8 3.14159265358979312 4.71238898038468967
2 -18.50000000000000355 -8.50000000000000000 3.50000000000000089 -0.00000000000000000 -0.00000000000000000 -1.00000000000000000 0.00000000000000000 1.00000000000000000 -0.00000000000000000 1.00000000000000000 -0.00000000000000000 0.00000000000000000 5.00000000000000000
Polygon3D 0
PolygonOnTriangulations 0
Surfaces 19
1 -25.00000000000000000 15.00000000000000000 0.00000000000000000 0.00000000000000000 1.00000000000000000 0.00000000000000000 1.00000000000000000 0.00000000000000000 0.00000000000000000 0.00000000000000000 0.00000000000000000 -1.00000000000000000 
1 0.00000000000000000 0.00000000000000000 0.00000000000000000 -0.00000000000000000 -0.00000000000000000 -1.00000000000000000 -1.00000000000000000 0.00000000000000000 0.00000000000000000 0.00000000000000000 1.00000000000000000 -0.00000000000000000 
1 0.55930105345843251 7.17708585712379765 4.99999999999999822 0.00000000000000000 0.00000000000000000 1.00000000000000000 1.00000000000000000 0.00000000000000000 -0.00000000000000000 -0.00000000000000000 1.00000000000000000 0.00000000000000000 
2 -20.00000000000000000 10.00000000000000000 0.00000000000000000 0.00000000000000000 0.00000000000000000 1.00000000000000000 -0.00000000000000000 1.00000000000000000 0.00000000000000000 -1.00000000000000000 -0.00000000000000000 0.00000000000000000 5.00000000000000000
2 20.00000000000000000 10.00000000000000000 0.00000000000000000 0.00000000000000000 0.00000000000000000 1.00000000000000000 -0.00000000000000000 1.00000000000000000 0.00000000000000000 1.00000000000000000 0.00000000000000000 -0.00000000000000000 5.00000000000000000
1 -25.00000000000000000 -15.00000000000000000 0.00000000000000000 -1.00000000000000000 0.00000000000000000 0.00000000000000000 0.00000000000000000 1.00000000000000000 0.00000000000000000 0.00000000000000000 0.00000000000000000 -1.00000000000000000 
1 25.00000000000000000 15.00000000000000000 0.00000000000000000 1.00000000000000000 0.00000000000000000 -0.00000000000000000 0.00000000000000000 -1.00000000000000000 0.00000000000000000 0.00000000000000000 -0.00000000000000000 -1.00000000000000000 
2 -20.00000000000000000 -10.00000000000000000 0.00000000000000000 0.00000000000000000 0.00000000000000000 1.00000000000000000 -1.00000000000000000 0.00000000000000000 0.00000000000000000 0.00000000000000000 -1.00000000000000000 0.00000000000000000 5.00000000000000000
2 20.00000000000000000 -10.00000000000000000 0.00000000000000000 0.00000000000000000 0.00000000000000000 1.00000000000000000 1.00000000000000000 0.00000000000000000 -0.00000000000000000 0.00000000000000000 -1.00000000000000000 -0.00000000000000000 5.00000000000000000
1 25.00000000000000000 -15.00000000000000000 0.00000000000000000 0.00000000000000000 -1.00000000000000000 0.00000000000000000 -1.00000000000000000 0.00000000000000000 0.00000000000000000 -0.00000000000000000 -0.00000000000000000 -1.00000000000000000 
1 -17.15475189748055485 13.49999999999999822 5.00000000000000000 0.00000000000000000 -1.00000000000000000 0.00000000000000000 1.00000000000000000 0.00000000000000000 0.00000000000000000 -0.00000000000000000 0.00000000000000000 1.00000000000000000 
1 0.16219068060554834 -0.23540256233871487 5.00000000000000089 -0.00000000000000000 -0.00000000000000000 -1.00000000000000000 -1.00000000000000000 0.00000000000000000 0.00000000000000000 0.00000000000000000 1.00000000000000000 -0.00000000000000000 
2 18.49999999999999645 8.50000000000000000 5.00000000000000000 -0.00000000000000000 -0.00000000000000000 -1.00000000000000000 0.00000000000000000 1.00000000000000000 -0.00000000000000000 1.00000000000000000 -0.00000000000000000 0.00000000000000000 5.00000000000000000
2 -20.19999999999999929 10.19999999999999929 5.00000000000000000 0.00000000000000000 0.00000000000000000 1.00000000000000000 1.00000000000000000 0.00000000000000000 -0.00000000000000000 -0.00000000000000000 1.00000000000000000 0.00000000000000000 4.49038261241715109
1 23.49999999999999645 13.49999999999999822 5.00000000000000000 -1.00000000000000000 0.00000000000000000 0.00000000000000000 0.00000000000000000 -1.00000000000000000 0.00000000000000000 0.00000000000000000 0.00000000000000000 1.00000000000000000 
1 -23.50000000000000355 -13.50000000000000000 5.00000000000000000 1.00000000000000000 0.00000000000000000 0.00000000000000000 -0.00000000000000000 1.00000000000000000 0.00000000000000000 0.00000000000000000 -0.00000000000000000 1.00000000000000000 
2 18.49999999999999645 -8.50000000000000000 5.00000000000000000 -0.00000000000000000 -0.00000000000000000 -1.00000000000000000 1.00000000000000000 -0.00000000000000000 0.00000000000000000 -0.00000000000000000 -1.00000000000000000 0.00000000000000000 5.00000000000000000
2 -18.50000000000000355 -8.50000000000000000 5.00000000000000000 -0.00000000000000000 -0.00000000000000000 -1.00000000000000000 -0.00000000000000000 -1.00000000000000000 0.00000000000000000 -1.00000000000000000 0.00000000000000000 0.00000000000000000 5.00000000000000000
1 23.49999999999999645 -13.50000000000000000 5.00000000000000000 0.00000000000000000 1.00000000000000000 -0.00000000000000000 -1.00000000000000000 0.00000000000000000 0.00000000000000000 0.00000000000000000 0.00000000000000000 1.00000000000000000 
Triangulations 0

TShapes 118
Ve
0.000000100000002
-20.000000000000000 15.000000000000000 0.000000000000000
0 0

0101101
*
Ve
0.000000100000002
20.000000000000000 15.000000000000000 0.000000000000000
0 0

0101101
*
Ed
 0.000000100000002 1 1 0
1  1 0 5.000000000000000 45.000000000000000
2  1 2 12 5.000000000000000 45.000000000000000
2  2 1 13 5.000000000000000 45.000000000000000
2  3 1 15 5.000000000000000 45.000000000000000
2  4 3 16 5.000000000000000 45.000000000000000
0

0101000
+118 17 -117 17 *
Ve
0.000000100000002
-20.000000000000000 15.000000000000000 5.000000000000000
0 0

0101101
*
Ed
 0.000000100000000 1 1 0
1  2 0 -0.000000000000000 5.000000000000000
2  5 4 0 -0.000000000000000 5.000000000000000
2  6 1 5 -0.000000000000000 5.000000000000000
4 G1 4 0 1 5
0

0101000
+118 0 -115 0 *
Ve
0.000000100000002
20.000000000000000 15.000000000000000 5.000000000000000
0 0

0101101
*
Ed
 0.000000100000000 1 1 0
1  3 0 -0.000000000000000 5.000000000000000
2  7 5 0 -0.000000000000000 5.000000000000000
2  8 1 5 -0.000000000000000 5.000000000000000
4 G1 5 0 1 5
0

0101000
+117 0 -113 0 *
Ed
 0.000000100000002 1 1 0
1  1 0 5.000000000000000 45.000000000000000
2  1 2 12 5.000000000000000 45.000000000000000
2  2 1 13 5.000000000000000 45.000000000000000
2  3 1 15 5.000000000000000 45.000000000000000
2  4 3 16 5.000000000000000 45.000000000000000
0

0101000
+115 19 -113 19 *
Wi

0101100
-116 10 +114 0 -112 0 +111 18 *
Fa
0  0.000000100000000 1 0

0111000
+110 6 *
Ve
0.000000100000002
-25.000000000000000 10.000000000000000 0.000000000000000
0 0

0101101
*
Ed
 0.000000100000000 1 1 0
1  4 0 3.141592653589793 4.712388980384690
2  9 4 0 3.141592653589793 4.712388980384690
2  10 2 23 3.141592653589793 4.712388980384690
0

0101000
+118 0 -108 0 *
Ve
0.000000100000002
25.000000000000000 10.000000000000000 0.000000000000000
0 0

0101101
*
Ed
 0.000000100000000 1 1 0
1  5 0 3.141592653589793 4.712388980384690
2  11 5 0 3.141592653589793 4.712388980384690
2  12 2 23 3.141592653589793 4.712388980384690
0

0101000
+117 0 -106 0 *
Ve
0.000000100000002
-25.000000000000000 -10.000000000000000 0.000000000000000
0 0

0101101
*
Ed
 0.000000100000002 1 1 0
1  6 0 5.000000000000000 25.000000000000000
2  13 2 12 5.000000000000000 25.000000000000000
2  14 6 13 5.000000000000000 25.000000000000000
2  15 6 15 5.000000000000000 25.000000000000000
2  16 3 16 5.000000000000000 25.000000000000000
0

0101000
+104 17 -108 17 *
Ve
0.000000100000002
25.000000000000000 -10.000000000000000 0.000000000000000
0 0

0101101
*
Ed
 0.000000100000002 1 1 0
1  7 0 5.000000000000000 25.000000000000000
2  17 2 12 5.000000000000000 25.000000000000000
2  18 7 13 5.000000000000000 25.000000000000000
2  19 7 15 5.000000000000000 25.000000000000000
2  20 3 16 5.000000000000000 25.000000000000000
0

0101000
+106 17 -102 17 *
Ve
0.000000100000002
-20.000000000000000 -15.000000000000000 0.000000000000000
0 0

0101101
*
Ed
 0.000000100000000 1 1 0
1  8 0 4.712388980384690 6.283185307179586
2  21 8 0 4.712388980384690 6.283185307179586
2  22 2 23 4.712388980384690 6.283185307179586
0

0101000
+104 0 -100 0 *
Ve
0.000000100000002
20.000000000000000 -15.000000000000000 0.000000000000000
0 0

0101101
*
Ed
 0.000000100000000 1 1 0
1  9 0 4.712388980384690 6.283185307179586
2  23 9 0 4.712388980384690 6.283185307179586
2  24 2 23 4.712388980384690 6.283185307179586
0

0101000
+102 0 -98 0 *
Ed
 0.000000100000002 1 1 0
1  10 0 5.000000000000000 45.000000000000000
2  25 2 12 5.000000000000000 45.000000000000000
2  26 10 13 5.000000000000000 45.000000000000000
2  27 10 15 5.000000000000000 45.000000000000000
2  28 3 16 5.000000000000000 45.000000000000000
0

0101000
+98 17 -100 17 *
Wi

0101100
+116 10 -107 0 +105 0 +103 10 +101 10 -99 0 +97 0 +96 10 *
Fa
0  0.000000100000000 2 21

0111000
+95 22 *
Ve
0.000000100000002
-25.000000000000000 10.000000000000000 5.000000000000000
0 0

0101101
*
Ed
 0.000000100000000 1 1 0
1  11 0 -0.000000000000000 5.000000000000000
2  29 4 0 -0.000000000000000 5.000000000000000
2  30 6 5 -0.000000000000000 5.000000000000000
4 G1 4 0 6 5
0

0101000
+108 0 -93 0 *
Ed
 0.000000100000000 1 1 0
1  12 0 3.141592653589793 4.712388980384690
2  31 4 0 3.141592653589793 4.712388980384690
2  32 2 24 3.141592653589793 4.712388980384690
0

0101000
+115 0 -93 0 *
Wi

0101100
+107 0 -114 0 +92 0 -91 0 *
Fa
0  0.000000000000000 4 0

0111000
+90 0 *
Ve
0.000000100000002
25.000000000000000 10.000000000000000 5.000000000000000
0 0

0101101
*
Ed
 0.000000100000000 1 1 0
1  13 0 -0.000000000000000 5.000000000000000
2  33 5 0 -0.000000000000000 5.000000000000000
2  34 7 5 -0.000000000000000 5.000000000000000
4 G1 5 0 7 5
0

0101000
+106 0 -88 0 *
Ed
 0.000000100000000 1 1 0
1  14 0 3.141592653589793 4.712388980384690
2  35 5 0 3.141592653589793 4.712388980384690
2  36 2 24 3.141592653589793 4.712388980384690
0

0101000
+113 0 -88 0 *
Wi

0101100
+105 0 -112 0 +87 0 -86 0 *
Fa
0  0.000000000000000 5 0

0111000
+85 0 *
Ve
0.000000100000002
-25.000000000000000 -10.000000000000000 5.000000000000000
0 0

0101101
*
Ed
 0.000000100000002 1 1 0
1  6 0 5.000000000000000 25.000000000000000
2  13 2 12 5.000000000000000 25.000000000000000
2  14 6 13 5.000000000000000 25.000000000000000
2  15 6 15 5.000000000000000 25.000000000000000
2  16 3 16 5.000000000000000 25.000000000000000
0

0101000
+83 19 -93 19 *
Ve
0.000000100000002
25.000000000000000 -10.000000000000000 5.000000000000000
0 0

0101101
*
Ed
 0.000000100000002 1 1 0
1  7 0 5.000000000000000 25.000000000000000
2  17 2 12 5.000000000000000 25.000000000000000
2  18 7 13 5.000000000000000 25.000000000000000
2  19 7 15 5.000000000000000 25.000000000000000
2  20 3 16 5.000000000000000 25.000000000000000
0

0101000
+88 19 -81 19 *
Ve
0.000000100000002
-20.000000000000000 -15.000000000000000 5.000000000000000
0 0

0101101
*
Ed
 0.000000100000000 1 1 0
1  15 0 4.712388980384690 6.283185307179586
2  37 8 0 4.712388980384690 6.283185307179586
2  38 2 24 4.712388980384690 6.283185307179586
0

0101000
+83 0 -79 0 *
Ve
0.000000100000002
20.000000000000000 -15.000000000000000 5.000000000000000
0 0

0101101
*
Ed
 0.000000100000000 1 1 0
1  16 0 4.712388980384690 6.283185307179586
2  39 9 0 4.712388980384690 6.283185307179586
2  40 2 24 4.712388980384690 6.283185307179586
0

0101000
+81 0 -77 0 *
Ed
 0.000000100000002 1 1 0
1  10 0 5.000000000000000 45.000000000000000
2  25 2 12 5.000000000000000 45.000000000000000
2  26 10 13 5.000000000000000 45.000000000000000
2  27 10 15 5.000000000000000 45.000000000000000
2  28 3 16 5.000000000000000 45.000000000000000
0

0101000
+77 19 -79 19 *
Wi

0101100
+111 18 -91 0 +86 0 +82 18 +80 18 -78 0 +76 0 +75 18 *
Ve
0.000000100000000
18.499999999999996 13.500000000000000 5.000000000000000
0 0

0101101
*
Ve
0.000000100000000
-17.154751897480555 13.499999999999998 0.000000000000000
0 0

0101101
*
Ed
 0.000000100000000 1 1 0
1  17 0 0.000000000000000 35.654751897480551
2  41 11 30 0.000000000000000 35.654751897480551
2  42 11 32 0.000000000000000 35.654751897480551
2  43 12 33 0.000000000000000 35.654751897480551
2  44 2 34 0.000000000000000 35.654751897480551
0

0101000
-73 35 +72 0 *
Ve
0.000000100000000
23.499999999999996 8.500000000000000 5.000000000000000
0 0

0101101
*
Ed
 0.000000100000000 1 1 0
1  18 0 0.000000000000000 1.570796326794897
2  45 13 0 0.000000000000000 1.570796326794897
2  46 2 24 0.000000000000000 1.570796326794897
0

0101000
+73 0 -70 0 *
Ve
0.000000100000001
-23.500000000000004 7.154751897480559 0.000000000000000
0 0

0101101
*
Ed
 0.000000100000000 1 1 0
1  19 0 3.886863914533010 7.108710373031264
2  47 14 30 3.886863914533010 7.108710373031264
2  48 14 32 3.886863914533010 7.108710373031264
2  49 12 33 3.886863914533010 7.108710373031264
2  50 2 34 3.886863914533010 7.108710373031264
0

0101000
+68 0 -72 0 *
Ve
0.000000100000000
23.499999999999996 -8.500000000000000 5.000000000000000
0 0

0101101
*
Ed
 0.000000100000000 1 1 0
1  20 0 4.999999999999998 22.000000000000000
2  51 15 30 4.999999999999998 22.000000000000000
2  52 15 32 4.999999999999998 22.000000000000000
2  53 12 33 4.999999999999998 22.000000000000000
2  54 2 34 4.999999999999998 22.000000000000000
0

0101000
+70 35 -66 35 *
Ve
0.000000100000000
-23.500000000000004 -8.500000000000000 5.000000000000000
0 0

0101101
*
Ed
 0.000000100000000 1 1 0
1  21 0 5.000000000000000 20.654751897480558
2  55 16 30 5.000000000000000 20.654751897480558
2  56 16 32 5.000000000000000 20.654751897480558
2  57 12 33 5.000000000000000 20.654751897480558
2  58 2 34 5.000000000000000 20.654751897480558
0

0101000
+64 35 -68 0 *
Ve
0.000000100000000
18.499999999999996 -13.500000000000000 5.000000000000000
0 0

0101101
*
Ed
 0.000000100000000 1 1 0
1  22 0 1.570796326794897 3.141592653589793
2  59 17 0 1.570796326794897 3.141592653589793
2  60 2 24 1.570796326794897 3.141592653589793
0

0101000
+66 0 -62 0 *
Ve
0.000000100000000
-18.500000000000004 -13.500000000000000 5.000000000000000
0 0

0101101
*
Ed
 0.000000100000000 1 1 0
1  23 0 3.141592653589793 4.712388980384690
2  61 18 0 3.141592653589793 4.712388980384690
2  62 2 24 3.141592653589793 4.712388980384690
0

0101000
+60 0 -64 0 *
Ed
 0.000000100000000 1 1 0
1  24 0 5.000000000000000 42.000000000000000
2  63 19 30 5.000000000000000 42.000000000000000
2  64 19 32 5.000000000000000 42.000000000000000
2  65 12 33 5.000000000000000 42.000000000000000
2  66 2 34 5.000000000000000 42.000000000000000
0

0101000
+62 35 -60 35 *
Wi

0101100
-71 29 -69 0 -67 29 -65 29 -63 29 -61 0 -59 0 -58 29 *
Fa
0  0.000000100000000 2 25

0111000
+74 26 +57 26 *
Ed
 0.000000100000000 1 1 0
1  25 0 -0.000000000000000 5.000000000000000
2  67 8 0 -0.000000000000000 5.000000000000000
2  68 6 5 -0.000000000000000 5.000000000000000
4 G1 8 0 6 5
0

0101000
+104 0 -83 0 *
Wi

0101100
-103 10 +55 0 -92 0 +82 18 *
Fa
0  0.000000100000000 6 0

0111000
+54 6 *
Ed
 0.000000100000000 1 1 0
1  26 0 -0.000000000000000 5.000000000000000
2  69 9 0 -0.000000000000000 5.000000000000000
2  70 7 5 -0.000000000000000 5.000000000000000
4 G1 9 0 7 5
0

0101000
+102 0 -81 0 *
Wi

0101100
-101 10 +87 0 -52 0 +80 18 *
Fa
0  0.000000100000000 7 0

0111000
+51 6 *
Ed
 0.000000100000000 1 1 0
1  27 0 -0.000000000000000 5.000000000000000
2  71 8 0 -0.000000000000000 5.000000000000000
2  72 10 5 -0.000000000000000 5.000000000000000
4 G1 8 0 10 5
0

0101000
+100 0 -79 0 *
Wi

0101100
+99 0 -55 0 +49 0 -78 0 *
Fa
0  0.000000000000000 8 0

0111000
+48 0 *
Ed
 0.000000100000000 1 1 0
1  28 0 -0.000000000000000 5.000000000000000
2  73 9 0 -0.000000000000000 5.000000000000000
2  74 10 5 -0.000000000000000 5.000000000000000
4 G1 9 0 10 5
0

0101000
+98 0 -77 0 *
Wi

0101100
+97 0 -52 0 +46 0 -76 0 *
Fa
0  0.000000000000000 9 0

0111000
+45 0 *
Wi

0101100
-96 10 +46 0 -49 0 +75 18 *
Fa
0  0.000000100000000 10 0

0111000
+43 6 *
Ve
0.000000100000000
18.499999999999996 13.500000000000000 3.500000000000000
0 0

0101101
*
Ed
 0.000000100000000 1 1 0
1  29 0 -0.000000000000000 1.499999999999999
2  75 13 0 -0.000000000000000 1.499999999999999
2  76 11 4 -0.000000000000000 1.499999999999999
4 G1 13 0 11 4
0

0101000
+73 0 -41 0 *
Ed
 0.000000100000000 1 1 0
1  30 0 0.000000000000000 1.500000000000000
2  77 14 0 0.000000000000000 1.500000000000000
2  78 11 0 0.000000000000000 1.500000000000000
0

0101000
+72 36 -72 37 *
Ed
 0.000000100000000 1 1 0
1  17 0 0.000000000000000 35.654751897480551
2  41 11 30 0.000000000000000 35.654751897480551
2  42 11 32 0.000000000000000 35.654751897480551
2  43 12 33 0.000000000000000 35.654751897480551
2  44 2 34 0.000000000000000 35.654751897480551
0

0101000
-41 39 +72 0 *
Wi

0101100
-71 29 -40 0 +39 4 +38 38 *
Fa
0  0.000000100000000 11 0

0111000
+37 26 *
Ve
0.000000100000000
23.499999999999996 8.500000000000000 3.500000000000000
0 0

0101101
*
Ed
 0.000000100000000 1 1 0
1  31 0 -0.000000000000000 1.499999999999999
2  79 13 0 -0.000000000000000 1.499999999999999
2  80 15 4 -0.000000000000000 1.499999999999999
4 G1 13 0 15 4
0

0101000
+70 0 -35 0 *
Ed
 0.000000100000000 1 1 0
1  32 0 0.000000000000000 1.570796326794897
2  81 13 0 0.000000000000000 1.570796326794897
2  82 12 40 0.000000000000000 1.570796326794897
0

0101000
+41 0 -35 0 *
Wi

0101100
+69 0 -40 0 +34 0 -33 0 *
Fa
0  0.000000000000000 13 0

0111000
+32 0 *
Ed
 0.000000100000001 1 1 0
1  33 0 0.000000000000000 1.500000000000000
2  83 14 0 0.000000000000000 1.500000000000000
2  84 16 0 0.000000000000000 1.500000000000000
0

0101000
+68 36 -68 37 *
Wi

0101100
+30 0 -39 0 -67 36 +67 37 *
Fa
0  0.000000100000000 14 0

0111000
+29 0 *
Ve
0.000000100000000
23.499999999999996 -8.500000000000000 3.500000000000000
0 0

0101101
*
Ed
 0.000000100000000 1 1 0
1  34 0 -0.000000000000000 1.499999999999999
2  85 17 0 -0.000000000000000 1.499999999999999
2  86 15 4 -0.000000000000000 1.499999999999999
4 G1 17 0 15 4
0

0101000
+66 0 -27 0 *
Ed
 0.000000100000000 1 1 0
1  20 0 4.999999999999998 22.000000000000000
2  51 15 30 4.999999999999998 22.000000000000000
2  52 15 32 4.999999999999998 22.000000000000000
2  53 12 33 4.999999999999998 22.000000000000000
2  54 2 34 4.999999999999998 22.000000000000000
0

0101000
+35 39 -27 39 *
Wi

0101100
-65 29 +34 0 -26 0 +25 38 *
Fa
0  0.000000100000000 15 0

0111000
+24 26 *
Ve
0.000000100000000
-23.500000000000004 -8.500000000000000 3.500000000000000
0 0

0101101
*
Ed
 0.000000100000000 1 1 0
1  35 0 -0.000000000000000 1.499999999999999
2  87 18 0 -0.000000000000000 1.499999999999999
2  88 16 4 -0.000000000000000 1.499999999999999
4 G1 18 0 16 4
0

0101000
+64 0 -22 0 *
Ed
 0.000000100000000 1 1 0
1  21 0 5.000000000000000 20.654751897480558
2  55 16 30 5.000000000000000 20.654751897480558
2  56 16 32 5.000000000000000 20.654751897480558
2  57 12 33 5.000000000000000 20.654751897480558
2  58 2 34 5.000000000000000 20.654751897480558
0

0101000
+22 39 -68 0 *
Wi

0101100
-63 29 +21 0 -30 4 +20 38 *
Fa
0  0.000000100000000 16 0

0111000
+19 26 *
Ve
0.000000100000000
18.499999999999996 -13.500000000000000 3.500000000000000
0 0

0101101
*
Ed
 0.000000100000000 1 1 0
1  36 0 -0.000000000000000 1.499999999999999
2  89 17 0 -0.000000000000000 1.499999999999999
2  90 19 4 -0.000000000000000 1.499999999999999
4 G1 17 0 19 4
0

0101000
+62 0 -17 0 *
Ed
 0.000000100000000 1 1 0
1  37 0 1.570796326794897 3.141592653589793
2  91 17 0 1.570796326794897 3.141592653589793
2  92 12 40 1.570796326794897 3.141592653589793
0

0101000
+27 0 -17 0 *
Wi

0101100
+61 0 -26 0 +16 0 -15 0 *
Fa
0  0.000000000000000 17 0

0111000
+14 0 *
Ve
0.000000100000000
-18.500000000000004 -13.500000000000000 3.500000000000000
0 0

0101101
*
Ed
 0.000000100000000 1 1 0
1  38 0 -0.000000000000000 1.499999999999999
2  93 18 0 -0.000000000000000 1.499999999999999
2  94 19 4 -0.000000000000000 1.499999999999999
4 G1 18 0 19 4
0

0101000
+60 0 -12 0 *
Ed
 0.000000100000000 1 1 0
1  39 0 3.141592653589793 4.712388980384690
2  95 18 0 3.141592653589793 4.712388980384690
2  96 12 40 3.141592653589793 4.712388980384690
0

0101000
+12 0 -22 0 *
Wi

0101100
+59 0 -11 0 +21 0 -10 0 *
Fa
0  0.000000000000000 18 0

0111000
+9 0 *
Ed
 0.000000100000000 1 1 0
1  24 0 5.000000000000000 42.000000000000000
2  63 19 30 5.000000000000000 42.000000000000000
2  64 19 32 5.000000000000000 42.000000000000000
2  65 12 33 5.000000000000000 42.000000000000000
2  66 2 34 5.000000000000000 42.000000000000000
0

0101000
+17 39 -12 39 *
Wi

0101100
-58 29 +16 0 -11 0 +7 38 *
Fa
0  0.000000100000000 19 0

0111000
+6 26 *
Wi

0101100
+38 38 +33 0 +67 38 +25 38 +20 38 +15 0 +10 0 +7 38 *
Fa
0  0.000000100000000 12 0

0111000
+4 41 *
Sh

0101100
+109 5 +94 20 +89 0 -84 0 -56 4 +53 5 +50 5 +47 0 -44 0 +42 5 
+36 4 -31 0 +28 4 +23 4 +18 4 -13 0 -8 0 +5 4 -3 40 *
So

0100000
+2 0 *

+1 1 