
CASCADE Topology V1, (c) Matra-Datavision
Locations 16
1
1.000000000000000 0.000000000000000 0.000000000000000 0.000000000000000 
0.000000000000000 1.000000000000000 0.000000000000000 0.000000000000000 
0.000000000000000 0.000000000000000 1.000000000000000 0.000000000000000 
1
1.000000000000000 0.000000000000000 0.000000000000000 0.000000000000000 
0.000000000000000 1.000000000000000 0.000000000000000 0.000000000000000 
0.000000000000000 0.000000000000000 1.000000000000000 4.000000000000000 
1
1.000000000000000 0.000000000000000 0.000000000000000 0.000000000000000 
0.000000000000000 1.000000000000000 0.000000000000000 0.000000000000000 
0.000000000000000 0.000000000000000 1.000000000000000 0.000000000000000 
2  1 1 2 1 3 -1 0
1
1.000000000000000 0.000000000000000 0.000000000000000 -0.000000000000000 
0.000000000000000 1.000000000000000 0.000000000000000 -0.000000000000000 
0.000000000000000 0.000000000000000 1.000000000000000 -1.960000000000000 
2  1 1 2 1 3 -1 5 1 0
2  3 1 2 -1 1 -1 0
2  5 -1 3 1 2 -1 1 -1 0
2  2 -1 1 -1 0
1
1.000000000000000 0.000000000000000 0.000000000000000 0.000000000000000 
0.000000000000000 1.000000000000000 0.000000000000000 0.000000000000000 
0.000000000000000 0.000000000000000 1.000000000000000 0.000000000000000 
1
1.000000000000000 0.000000000000000 0.000000000000000 0.000000000000000 
0.000000000000000 1.000000000000000 0.000000000000000 0.000000000000000 
0.000000000000000 0.000000000000000 1.000000000000000 4.000000000000000 
1
1.000000000000000 0.000000000000000 0.000000000000000 0.000000000000000 
0.000000000000000 1.000000000000000 0.000000000000000 0.000000000000000 
0.000000000000000 0.000000000000000 1.000000000000000 0.000000000000000 
2  10 -1 11 1 12 1 2 -1 1 -1 0
2  3 -1 0
2  1 1 2 1 0
2  3 -1 5 1 0
Curve2ds 30
1 3.98266132415774887 0.00000000000000000 0.00000000000000000 -1.00000000000000000 
1 21.26950483150022109 0.00000000000000000 0.00000000000000000 -1.00000000000000000 
1 7.01291296340652615 0.00000000000000000 0.00000000000000000 -1.00000000000000000 
1 0.00000000000000000 0.00000000000000000 0.00000000000000000 -1.00000000000000000 
1 0.00000000000000000 0.00000000000000000 1.00000000000000000 0.00000000000000000 
1 0.00000000000000000 -1.95999999999999974 1.00000000000000000 0.00000000000000000 
2 21.00465542549213183 11.02690969482683592 -1.00000000000000000 0.00000000000000000 0.00000000000000000 1.00000000000000000 4.19999999999999929
2 20.80000000000000071 10.80000000000000071 -1.00000000000000000 0.00000000000000000 0.00000000000000000 1.00000000000000000 4.19999999999999929
1 41.26950483150022109 0.00000000000000000 0.00000000000000000 -1.00000000000000000 
1 0.00000000000000000 0.00000000000000000 0.00000000000000000 -1.00000000000000000 
1 17.87416025699235078 13.82690969482675136 -1.00000000000000000 0.00000000000000000 
1 0.00000000000000000 0.00000000000000000 1.00000000000000000 0.00000000000000000 
1 0.00000000000000000 -1.95999999999999996 1.00000000000000000 0.00000000000000000 
1 17.66950483150021967 13.59999999999991616 -1.00000000000000000 0.00000000000000000 
1 27.19999999999991402 0.00000000000000000 0.00000000000000000 -1.00000000000000000 
1 0.00000000000000000 0.00000000000000000 0.00000000000000000 -1.00000000000000000 
1 -23.39534457450787031 13.82690969482675136 0.00000000000000000 -1.00000000000000000 
1 0.00000000000000000 0.00000000000000000 1.00000000000000000 0.00000000000000000 
1 0.00000000000000000 -1.95999999999999996 1.00000000000000000 0.00000000000000000 
1 -23.60000000000000142 13.59999999999991616 0.00000000000000000 -1.00000000000000000 
1 47.19999999999991758 0.00000000000000000 0.00000000000000000 -1.00000000000000000 
1 0.00000000000000000 0.00000000000000000 0.00000000000000000 -1.00000000000000000 
1 -23.39534457450787031 -13.37309030517316266 1.00000000000000000 0.00000000000000000 
1 0.00000000000000000 0.00000000000000000 1.00000000000000000 0.00000000000000000 
1 0.00000000000000000 -1.95999999999999996 1.00000000000000000 0.00000000000000000 
1 -23.60000000000000142 -13.59999999999999787 1.00000000000000000 0.00000000000000000 
1 23.80465542549205082 -13.37309030517316266 0.00000000000000000 1.00000000000000000 
1 0.00000000000000000 0.00000000000000000 1.00000000000000000 0.00000000000000000 
1 0.00000000000000000 -1.95999999999999996 1.00000000000000000 0.00000000000000000 
1 23.59999999999991971 -13.59999999999999787 0.00000000000000000 1.00000000000000000 
Curves 10
1 -23.59999999999991971 7.66950483150022411 4.00000000000000000 -0.00000000000000000 -0.00000000000000000 -1.00000000000000000 
1 -17.66950483150021967 13.59999999999991616 4.00000000000000000 -0.00000000000000000 -0.00000000000000000 -1.00000000000000000 
2 -20.80000000000000071 10.80000000000000071 0.00000000000000000 0.00000000000000000 0.00000000000000000 1.00000000000000000 1.00000000000000000 0.00000000000000000 0.00000000000000000 0.00000000000000000 1.00000000000000000 0.00000000000000000 4.19999999999999929
1 23.60000000000000142 13.59999999999991616 4.00000000000000000 -0.00000000000000000 -0.00000000000000000 -1.00000000000000000 
1 -17.66950483150021967 13.59999999999991616 0.00000000000000000 1.00000000000000000 0.00000000000000000 0.00000000000000000 
1 23.60000000000000142 -13.59999999999999787 4.00000000000000000 -0.00000000000000000 -0.00000000000000000 -1.00000000000000000 
1 23.60000000000000142 13.59999999999991616 0.00000000000000000 0.00000000000000000 -1.00000000000000000 0.00000000000000000 
1 -23.59999999999991616 -13.59999999999999787 4.00000000000000000 -0.00000000000000000 -0.00000000000000000 -1.00000000000000000 
1 23.60000000000000142 -13.59999999999999787 0.00000000000000000 -1.00000000000000000 0.00000000000000000 0.00000000000000000 
1 -23.59999999999991971 -13.59999999999999787 0.00000000000000000 0.00000000000000000 1.00000000000000000 0.00000000000000000 
Polygon3D 0
PolygonOnTriangulations 0
Surfaces 7
2 -20.80000000000000071 10.80000000000000071 4.00000000000000000 0.00000000000000000 0.00000000000000000 1.00000000000000000 1.00000000000000000 0.00000000000000000 0.00000000000000000 0.00000000000000000 1.00000000000000000 0.00000000000000000 4.19999999999999929
1 -23.59999999999991971 -13.59999999999999787 4.00000000000000000 1.00000000000000000 0.00000000000000000 0.00000000000000000 -0.00000000000000000 1.00000000000000000 0.00000000000000000 0.00000000000000000 -0.00000000000000000 1.00000000000000000 
1 -17.66950483150021967 13.59999999999991616 4.00000000000000000 0.00000000000000000 -1.00000000000000000 0.00000000000000000 1.00000000000000000 0.00000000000000000 0.00000000000000000 -0.00000000000000000 0.00000000000000000 1.00000000000000000 
1 0.20465542549213031 -0.22690969482683501 4.00000000000000000 -0.00000000000000000 -0.00000000000000000 -1.00000000000000000 -1.00000000000000000 0.00000000000000000 0.00000000000000000 0.00000000000000000 1.00000000000000000 -0.00000000000000000 
1 0.00000000000000000 0.00000000000000000 0.00000000000000000 -0.00000000000000000 -0.00000000000000000 -1.00000000000000000 -1.00000000000000000 0.00000000000000000 0.00000000000000000 0.00000000000000000 1.00000000000000000 -0.00000000000000000 
1 23.60000000000000142 13.59999999999991616 4.00000000000000000 -1.00000000000000000 0.00000000000000000 0.00000000000000000 0.00000000000000000 -1.00000000000000000 0.00000000000000000 0.00000000000000000 0.00000000000000000 1.00000000000000000 
1 23.60000000000000142 -13.59999999999999787 4.00000000000000000 0.00000000000000000 1.00000000000000000 -0.00000000000000000 -1.00000000000000000 0.00000000000000000 0.00000000000000000 0.00000000000000000 0.00000000000000000 1.00000000000000000 
Triangulations 0

TShapes 29
Ve
0.000000100000001
-23.599999999999920 7.669504831500224 0.000000000000000
0 0

0101101
*
Ed
 0.000000100000001 1 1 0
1  1 0 0.000000000000000 1.960000000000000
2  1 1 0 0.000000000000000 1.960000000000000
2  2 2 0 0.000000000000000 1.960000000000000
0

0101000
+29 4 -29 6 *
Ve
0.000000100000000
-17.669504831500220 13.599999999999916 0.000000000000000
0 0

0101101
*
Ed
 0.000000100000000 1 1 0
1  2 0 0.000000000000000 1.960000000000000
2  3 1 0 0.000000000000000 1.960000000000000
2  4 3 0 0.000000000000000 1.960000000000000
0

0101000
+27 4 -27 6 *
Ed
 0.000000100000000 1 1 0
1  3 0 3.982661324157749 7.012912963406526
2  5 1 7 3.982661324157749 7.012912963406526
2  6 1 8 3.982661324157749 7.012912963406526
2  7 4 9 3.982661324157749 7.012912963406526
2  8 5 13 3.982661324157749 7.012912963406526
0

0101000
+29 0 -27 0 *
Wi

0101100
+28 0 -26 0 -25 4 +25 6 *
Fa
0  0.000000100000000 1 0

0101000
+24 0 *
Ve
0.000000100000000
23.600000000000001 13.599999999999916 0.000000000000000
0 0

0101101
*
Ed
 0.000000100000000 1 1 0
1  4 0 0.000000000000000 1.960000000000000
2  9 3 0 0.000000000000000 1.960000000000000
2  10 6 0 0.000000000000000 1.960000000000000
0

0101000
+22 4 -22 6 *
Ed
 0.000000100000000 1 1 0
1  5 0 0.000000000000000 41.269504831500221
2  11 4 9 0.000000000000000 41.269504831500221
2  12 3 7 0.000000000000000 41.269504831500221
2  13 3 8 0.000000000000000 41.269504831500221
2  14 5 13 0.000000000000000 41.269504831500221
0

0101000
+27 0 -22 0 *
Wi

0101100
+26 0 -21 0 -20 4 +20 6 *
Fa
0  0.000000100000000 3 0

0101000
+19 0 *
Ve
0.000000100000000
23.600000000000001 -13.599999999999998 0.000000000000000
0 0

0101101
*
Ed
 0.000000100000000 1 1 0
1  6 0 0.000000000000000 1.960000000000000
2  15 6 0 0.000000000000000 1.960000000000000
2  16 7 0 0.000000000000000 1.960000000000000
0

0101000
+17 4 -17 6 *
Ed
 0.000000100000000 1 1 0
1  7 0 0.000000000000000 27.199999999999914
2  17 4 9 0.000000000000000 27.199999999999914
2  18 6 7 0.000000000000000 27.199999999999914
2  19 6 8 0.000000000000000 27.199999999999914
2  20 5 13 0.000000000000000 27.199999999999914
0

0101000
+22 0 -17 0 *
Wi

0101100
+21 0 -16 0 -15 4 +15 6 *
Fa
0  0.000000100000000 6 0

0101000
+14 0 *
Ve
0.000000100000002
-23.599999999999916 -13.599999999999998 0.000000000000000
0 0

0101101
*
Ed
 0.000000100000002 1 1 0
1  8 0 0.000000000000000 1.960000000000000
2  21 7 0 0.000000000000000 1.960000000000000
2  22 2 0 0.000000000000000 1.960000000000000
0

0101000
+12 4 -12 6 *
Ed
 0.000000100000000 1 1 0
1  9 0 0.000000000000000 47.199999999999918
2  23 4 9 0.000000000000000 47.199999999999918
2  24 7 7 0.000000000000000 47.199999999999918
2  25 7 8 0.000000000000000 47.199999999999918
2  26 5 13 0.000000000000000 47.199999999999918
0

0101000
+17 0 -12 0 *
Wi

0101100
+16 0 -11 0 -10 4 +10 6 *
Fa
0  0.000000100000000 7 0

0101000
+9 0 *
Ed
 0.000000100000000 1 1 0
1  10 0 0.000000000000000 21.269504831500221
2  27 4 9 0.000000000000000 21.269504831500221
2  28 2 7 0.000000000000000 21.269504831500221
2  29 2 8 0.000000000000000 21.269504831500221
2  30 5 13 0.000000000000000 21.269504831500221
0

0101000
+12 0 -29 0 *
Wi

0101100
+11 0 -28 0 -7 4 +7 6 *
Fa
0  0.000000100000000 2 0

0101000
+6 0 *
Wi

0101100
+25 0 +20 0 +15 0 +10 0 +7 0 *
Fa
0  0.000000100000000 4 0

0101000
+4 15 *
Sh

0101100
+23 0 +18 0 +13 0 +8 0 +5 0 +3 14 -3 16 *
So

0100000
-2 0 *

+1 0 