
CASCADE Topology V1, (c) Matra-Datavision
Locations 20
1
1.000000000000000 0.000000000000000 0.000000000000000 0.000000000000000 
0.000000000000000 1.000000000000000 0.000000000000000 0.000000000000000 
0.000000000000000 0.000000000000000 1.000000000000000 0.000000000000000 
1
1.000000000000000 0.000000000000000 0.000000000000000 0.000000000000000 
0.000000000000000 1.000000000000000 0.000000000000000 0.000000000000000 
0.000000000000000 0.000000000000000 1.000000000000000 4.000000000000000 
1
1.000000000000000 0.000000000000000 0.000000000000000 0.000000000000000 
0.000000000000000 1.000000000000000 0.000000000000000 0.000000000000000 
0.000000000000000 0.000000000000000 1.000000000000000 0.000000000000000 
2  1 1 2 1 3 -1 0
1
1.000000000000000 0.000000000000000 0.000000000000000 -0.000000000000000 
0.000000000000000 1.000000000000000 0.000000000000000 -0.000000000000000 
0.000000000000000 0.000000000000000 1.000000000000000 -1.500000000000000 
2  1 1 2 1 3 -1 5 1 0
2  3 1 2 -1 1 -1 0
2  5 -1 3 1 2 -1 1 -1 0
2  2 -1 1 -1 0
1
1.000000000000000 0.000000000000000 0.000000000000000 0.000000000000000 
0.000000000000000 1.000000000000000 0.000000000000000 0.000000000000000 
0.000000000000000 0.000000000000000 1.000000000000000 0.000000000000000 
1
1.000000000000000 0.000000000000000 0.000000000000000 0.000000000000000 
0.000000000000000 1.000000000000000 0.000000000000000 0.000000000000000 
0.000000000000000 0.000000000000000 1.000000000000000 0.000000000000000 
1
1.000000000000000 0.000000000000000 0.000000000000000 0.000000000000000 
0.000000000000000 1.000000000000000 0.000000000000000 0.000000000000000 
0.000000000000000 0.000000000000000 1.000000000000000 0.000000000000000 
1
1.000000000000000 0.000000000000000 0.000000000000000 0.000000000000000 
0.000000000000000 1.000000000000000 0.000000000000000 0.000000000000000 
0.000000000000000 0.000000000000000 1.000000000000000 0.000000000000000 
1
1.000000000000000 0.000000000000000 0.000000000000000 0.000000000000000 
0.000000000000000 1.000000000000000 0.000000000000000 0.000000000000000 
0.000000000000000 0.000000000000000 1.000000000000000 0.000000000000000 
1
1.000000000000000 0.000000000000000 0.000000000000000 0.000000000000000 
0.000000000000000 1.000000000000000 0.000000000000000 0.000000000000000 
0.000000000000000 0.000000000000000 1.000000000000000 4.000000000000000 
1
1.000000000000000 0.000000000000000 0.000000000000000 0.000000000000000 
0.000000000000000 1.000000000000000 0.000000000000000 0.000000000000000 
0.000000000000000 0.000000000000000 1.000000000000000 0.000000000000000 
2  10 -1 11 -1 12 1 13 1 14 -1 15 1 16 1 2 -1 1 -1 0
2  3 -1 0
2  1 1 2 1 0
2  3 -1 5 1 0
Curve2ds 30
1 7.10871037303126396 0.00000000000000000 0.00000000000000000 -1.00000000000000000 
1 0.00000000000000000 0.00000000000000000 0.00000000000000000 -1.00000000000000000 
1 40.65475189748055129 0.00000000000000000 0.00000000000000000 -1.00000000000000000 
1 0.00000000000000000 0.00000000000000000 0.00000000000000000 -1.00000000000000000 
1 0.00000000000000000 0.00000000000000000 1.00000000000000000 0.00000000000000000 
1 0.00000000000000000 -1.50000000000000000 1.00000000000000000 0.00000000000000000 
1 17.31694257808610260 13.73540256233871304 -1.00000000000000000 0.00000000000000000 
1 17.15475189748055485 13.49999999999999822 -1.00000000000000000 0.00000000000000000 
1 27.00000000000000000 0.00000000000000000 0.00000000000000000 -1.00000000000000000 
1 0.00000000000000000 0.00000000000000000 0.00000000000000000 -1.00000000000000000 
1 0.00000000000000000 0.00000000000000000 1.00000000000000000 0.00000000000000000 
1 0.00000000000000000 -1.50000000000000000 1.00000000000000000 0.00000000000000000 
1 -23.33780931939444869 13.73540256233871304 0.00000000000000000 -1.00000000000000000 
1 -23.49999999999999645 13.49999999999999822 0.00000000000000000 -1.00000000000000000 
1 47.00000000000000000 0.00000000000000000 0.00000000000000000 -1.00000000000000000 
1 0.00000000000000000 0.00000000000000000 0.00000000000000000 -1.00000000000000000 
1 0.00000000000000000 0.00000000000000000 1.00000000000000000 0.00000000000000000 
1 0.00000000000000000 -1.50000000000000000 1.00000000000000000 0.00000000000000000 
1 -23.33780931939444869 -13.26459743766128518 1.00000000000000000 0.00000000000000000 
1 -23.49999999999999645 -13.50000000000000000 1.00000000000000000 0.00000000000000000 
1 3.88686391453301017 0.00000000000000000 0.00000000000000000 -1.00000000000000000 
1 20.65475189748055840 0.00000000000000000 0.00000000000000000 -1.00000000000000000 
1 0.00000000000000000 0.00000000000000000 1.00000000000000000 0.00000000000000000 
1 0.00000000000000000 -1.50000000000000000 1.00000000000000000 0.00000000000000000 
1 23.66219068060555131 -13.26459743766128518 0.00000000000000000 1.00000000000000000 
1 23.50000000000000355 -13.50000000000000000 0.00000000000000000 1.00000000000000000 
1 0.00000000000000000 0.00000000000000000 1.00000000000000000 0.00000000000000000 
1 0.00000000000000000 -1.50000000000000000 1.00000000000000000 0.00000000000000000 
2 20.36219068060554704 10.43540256233871411 -1.00000000000000000 0.00000000000000000 0.00000000000000000 1.00000000000000000 4.49038261241715020
2 20.19999999999999929 10.19999999999999929 -1.00000000000000000 0.00000000000000000 0.00000000000000000 1.00000000000000000 4.49038261241715020
Curves 10
1 -17.15475189748055485 13.49999999999999822 4.00000000000000000 -0.00000000000000000 -0.00000000000000000 -1.00000000000000000 
1 23.49999999999999645 13.49999999999999822 4.00000000000000000 -0.00000000000000000 -0.00000000000000000 -1.00000000000000000 
1 -17.15475189748055485 13.49999999999999822 0.00000000000000000 1.00000000000000000 0.00000000000000000 0.00000000000000000 
1 23.49999999999999645 -13.50000000000000000 4.00000000000000000 -0.00000000000000000 -0.00000000000000000 -1.00000000000000000 
1 23.49999999999999645 13.49999999999999822 0.00000000000000000 0.00000000000000000 -1.00000000000000000 0.00000000000000000 
1 -23.50000000000000355 -13.50000000000000000 4.00000000000000000 -0.00000000000000000 -0.00000000000000000 -1.00000000000000000 
1 23.49999999999999645 -13.50000000000000000 0.00000000000000000 -1.00000000000000000 0.00000000000000000 0.00000000000000000 
1 -23.50000000000000355 7.15475189748055929 4.00000000000000000 -0.00000000000000000 -0.00000000000000000 -1.00000000000000000 
1 -23.50000000000000355 -13.50000000000000000 0.00000000000000000 0.00000000000000000 1.00000000000000000 0.00000000000000000 
2 -20.19999999999999929 10.19999999999999929 0.00000000000000000 0.00000000000000000 0.00000000000000000 1.00000000000000000 1.00000000000000000 0.00000000000000000 -0.00000000000000000 -0.00000000000000000 1.00000000000000000 0.00000000000000000 4.49038261241715109
Polygon3D 0
PolygonOnTriangulations 0
Surfaces 7
1 -17.15475189748055485 13.49999999999999822 4.00000000000000000 0.00000000000000000 -1.00000000000000000 0.00000000000000000 1.00000000000000000 0.00000000000000000 0.00000000000000000 -0.00000000000000000 0.00000000000000000 1.00000000000000000 
2 -20.19999999999999929 10.19999999999999929 4.00000000000000000 0.00000000000000000 0.00000000000000000 1.00000000000000000 1.00000000000000000 0.00000000000000000 -0.00000000000000000 -0.00000000000000000 1.00000000000000000 0.00000000000000000 4.49038261241715109
1 23.49999999999999645 13.49999999999999822 4.00000000000000000 -1.00000000000000000 0.00000000000000000 0.00000000000000000 0.00000000000000000 -1.00000000000000000 0.00000000000000000 0.00000000000000000 0.00000000000000000 1.00000000000000000 
1 0.16219068060554834 -0.23540256233871487 4.00000000000000000 -0.00000000000000000 -0.00000000000000000 -1.00000000000000000 -1.00000000000000000 0.00000000000000000 0.00000000000000000 0.00000000000000000 1.00000000000000000 -0.00000000000000000 
1 0.00000000000000000 0.00000000000000000 0.00000000000000000 -0.00000000000000000 -0.00000000000000000 -1.00000000000000000 -1.00000000000000000 0.00000000000000000 0.00000000000000000 0.00000000000000000 1.00000000000000000 -0.00000000000000000 
1 23.49999999999999645 -13.50000000000000000 4.00000000000000000 0.00000000000000000 1.00000000000000000 -0.00000000000000000 -1.00000000000000000 0.00000000000000000 0.00000000000000000 0.00000000000000000 0.00000000000000000 1.00000000000000000 
1 -23.50000000000000355 -13.50000000000000000 4.00000000000000000 1.00000000000000000 0.00000000000000000 0.00000000000000000 -0.00000000000000000 1.00000000000000000 0.00000000000000000 0.00000000000000000 -0.00000000000000000 1.00000000000000000 
Triangulations 0

TShapes 29
Ve
0.000000100000000
-17.154751897480555 13.499999999999998 0.000000000000000
0 0

0101101
*
Ed
 0.000000100000000 1 1 0
1  1 0 0.000000000000000 1.500000000000000
2  1 2 0 0.000000000000000 1.500000000000000
2  2 1 0 0.000000000000000 1.500000000000000
0

0101000
+29 4 -29 6 *
Ve
0.000000100000000
23.499999999999996 13.499999999999998 0.000000000000000
0 0

0101101
*
Ed
 0.000000100000000 1 1 0
1  2 0 0.000000000000000 1.500000000000000
2  3 1 0 0.000000000000000 1.500000000000000
2  4 3 0 0.000000000000000 1.500000000000000
0

0101000
+27 4 -27 6 *
Ed
 0.000000100000000 1 1 0
1  3 0 0.000000000000000 40.654751897480551
2  5 1 7 0.000000000000000 40.654751897480551
2  6 1 8 0.000000000000000 40.654751897480551
2  7 4 9 0.000000000000000 40.654751897480551
2  8 5 17 0.000000000000000 40.654751897480551
0

0101000
+29 0 -27 0 *
Wi

0101100
+28 0 -26 0 -25 4 +25 6 *
Fa
0  0.000000100000000 1 0

0111000
+24 0 *
Ve
0.000000100000001
23.499999999999996 -13.500000000000000 0.000000000000000
0 0

0101101
*
Ed
 0.000000100000001 1 1 0
1  4 0 0.000000000000000 1.500000000000000
2  9 3 0 0.000000000000000 1.500000000000000
2  10 6 0 0.000000000000000 1.500000000000000
0

0101000
+22 4 -22 6 *
Ed
 0.000000100000000 1 1 0
1  5 0 0.000000000000000 27.000000000000000
2  11 3 7 0.000000000000000 27.000000000000000
2  12 3 8 0.000000000000000 27.000000000000000
2  13 4 9 0.000000000000000 27.000000000000000
2  14 5 17 0.000000000000000 27.000000000000000
0

0101000
+27 0 -22 0 *
Wi

0101100
+26 0 -21 0 -20 4 +20 6 *
Fa
0  0.000000100000000 3 0

0111000
+19 0 *
Ve
0.000000100000000
-23.500000000000004 -13.500000000000000 0.000000000000000
0 0

0101101
*
Ed
 0.000000100000000 1 1 0
1  6 0 0.000000000000000 1.500000000000000
2  15 6 0 0.000000000000000 1.500000000000000
2  16 7 0 0.000000000000000 1.500000000000000
0

0101000
+17 4 -17 6 *
Ed
 0.000000100000000 1 1 0
1  7 0 0.000000000000000 47.000000000000000
2  17 6 7 0.000000000000000 47.000000000000000
2  18 6 8 0.000000000000000 47.000000000000000
2  19 4 9 0.000000000000000 47.000000000000000
2  20 5 17 0.000000000000000 47.000000000000000
0

0101000
+22 0 -17 0 *
Wi

0101100
+21 0 -16 0 -15 4 +15 6 *
Fa
0  0.000000100000000 6 0

0111000
+14 0 *
Ve
0.000000100000001
-23.500000000000004 7.154751897480559 0.000000000000000
0 0

0101101
*
Ed
 0.000000100000001 1 1 0
1  8 0 0.000000000000000 1.500000000000000
2  21 2 0 0.000000000000000 1.500000000000000
2  22 7 0 0.000000000000000 1.500000000000000
0

0101000
+12 4 -12 6 *
Ed
 0.000000100000000 1 1 0
1  9 0 0.000000000000000 20.654751897480558
2  23 7 7 0.000000000000000 20.654751897480558
2  24 7 8 0.000000000000000 20.654751897480558
2  25 4 9 0.000000000000000 20.654751897480558
2  26 5 17 0.000000000000000 20.654751897480558
0

0101000
+17 0 -12 0 *
Wi

0101100
+16 0 -11 0 -10 4 +10 6 *
Fa
0  0.000000100000000 7 0

0111000
+9 0 *
Ed
 0.000000100000000 1 1 0
1  10 0 3.886863914533010 7.108710373031264
2  27 2 7 3.886863914533010 7.108710373031264
2  28 2 8 3.886863914533010 7.108710373031264
2  29 4 9 3.886863914533010 7.108710373031264
2  30 5 17 3.886863914533010 7.108710373031264
0

0101000
+12 0 -29 0 *
Wi

0101100
+11 0 -28 0 -7 4 +7 6 *
Fa
0  0.000000100000000 2 0

0111000
+6 0 *
Wi

0101100
+25 0 +20 0 +15 0 +10 0 +7 0 *
Fa
0  0.000000100000000 4 0

0111000
+4 19 *
Sh

0101100
+23 0 +18 0 +13 0 +8 0 +5 0 +3 18 -3 20 *
So

0100000
-2 0 *

+1 0 