
CASCADE Topology V1, (c) Matra-Datavision
Locations 55
1
1.000000000000000 0.000000000000000 0.000000000000000 0.000000000000000 
0.000000000000000 1.000000000000000 0.000000000000000 0.000000000000000 
0.000000000000000 0.000000000000000 1.000000000000000 0.000000000000000 
1
1.000000000000000 0.000000000000000 0.000000000000000 0.000000000000000 
0.000000000000000 1.000000000000000 0.000000000000000 0.000000000000000 
0.000000000000000 0.000000000000000 1.000000000000000 0.000000000000000 
1
1.000000000000000 0.000000000000000 0.000000000000000 0.000000000000000 
0.000000000000000 1.000000000000000 0.000000000000000 0.000000000000000 
0.000000000000000 0.000000000000000 1.000000000000000 0.000000000000000 
1
1.000000000000000 0.000000000000000 0.000000000000000 0.000000000000000 
0.000000000000000 1.000000000000000 0.000000000000000 0.000000000000000 
0.000000000000000 0.000000000000000 1.000000000000000 0.000000000000000 
1
1.000000000000000 0.000000000000000 0.000000000000000 0.000000000000000 
0.000000000000000 1.000000000000000 0.000000000000000 0.000000000000000 
0.000000000000000 0.000000000000000 1.000000000000000 0.000000000000000 
1
1.000000000000000 0.000000000000000 0.000000000000000 0.000000000000000 
0.000000000000000 1.000000000000000 0.000000000000000 0.000000000000000 
0.000000000000000 0.000000000000000 1.000000000000000 0.000000000000000 
2  2 1 3 -1 4 1 5 1 6 -1 0
2  4 -1 3 1 2 -1 0
1
1.000000000000000 0.000000000000000 0.000000000000000 0.000000000000000 
0.000000000000000 1.000000000000000 0.000000000000000 0.000000000000000 
0.000000000000000 0.000000000000000 1.000000000000000 0.000000000000000 
1
1.000000000000000 0.000000000000000 0.000000000000000 0.000000000000000 
0.000000000000000 1.000000000000000 0.000000000000000 0.000000000000000 
0.000000000000000 0.000000000000000 1.000000000000000 0.000000000000000 
1
1.000000000000000 0.000000000000000 0.000000000000000 0.000000000000000 
0.000000000000000 1.000000000000000 0.000000000000000 0.000000000000000 
0.000000000000000 0.000000000000000 1.000000000000000 0.000000000000000 
2  9 1 10 1 11 -1 2 1 3 -1 4 1 0
1
1.000000000000000 0.000000000000000 0.000000000000000 0.000000000000000 
0.000000000000000 1.000000000000000 0.000000000000000 0.000000000000000 
0.000000000000000 0.000000000000000 1.000000000000000 0.000000000000000 
1
1.000000000000000 0.000000000000000 0.000000000000000 0.000000000000000 
0.000000000000000 1.000000000000000 0.000000000000000 0.000000000000000 
0.000000000000000 0.000000000000000 1.000000000000000 0.000000000000000 
2  13 -1 14 -1 0
2  4 -1 3 1 2 -1 11 1 10 -1 9 -1 0
2  2 1 3 -1 4 1 0
1
1.000000000000000 0.000000000000000 0.000000000000000 0.000000000000000 
0.000000000000000 1.000000000000000 0.000000000000000 0.000000000000000 
0.000000000000000 0.000000000000000 1.000000000000000 4.000000000000000 
2  9 1 10 1 11 -1 18 1 2 1 3 -1 4 1 0
2  4 -1 3 1 2 -1 18 -1 11 1 10 -1 9 -1 0
2  13 -1 14 -1 9 1 10 1 11 -1 2 1 3 -1 4 1 5 1 6 -1 0
2  9 1 10 1 11 -1 2 1 3 -1 4 1 5 1 6 -1 0
2  5 1 6 -1 0
2  13 -1 14 -1 9 1 10 1 11 -1 2 1 3 -1 4 1 0
1
1.000000000000000 0.000000000000000 0.000000000000000 0.000000000000000 
0.000000000000000 1.000000000000000 0.000000000000000 0.000000000000000 
0.000000000000000 0.000000000000000 1.000000000000000 0.000000000000000 
1
1.000000000000000 0.000000000000000 0.000000000000000 0.000000000000000 
0.000000000000000 1.000000000000000 0.000000000000000 0.000000000000000 
0.000000000000000 0.000000000000000 1.000000000000000 0.000000000000000 
1
1.000000000000000 0.000000000000000 0.000000000000000 0.000000000000000 
0.000000000000000 1.000000000000000 0.000000000000000 0.000000000000000 
0.000000000000000 0.000000000000000 1.000000000000000 0.000000000000000 
2  25 1 26 -1 27 -1 0
1
1.000000000000000 0.000000000000000 0.000000000000000 0.000000000000000 
0.000000000000000 1.000000000000000 0.000000000000000 0.000000000000000 
0.000000000000000 0.000000000000000 1.000000000000000 5.000000000000000 
2  29 -1 25 1 26 -1 27 -1 0
1
1.000000000000000 0.000000000000000 0.000000000000000 -20.199999999999999 
0.000000000000000 1.000000000000000 0.000000000000000 10.199999999999999 
0.000000000000000 0.000000000000000 1.000000000000000 4.000000000000000 
2  13 -1 14 -1 9 1 10 1 11 -1 18 1 2 1 3 -1 4 1 0
2  13 -1 14 -1 9 1 10 1 11 -1 18 1 2 1 3 -1 4 1 5 1 6 -1 0
2  9 1 10 1 11 -1 18 1 2 1 3 -1 4 1 5 1 6 -1 0
1
1.000000000000000 0.000000000000000 0.000000000000000 0.000000000000000 
0.000000000000000 1.000000000000000 0.000000000000000 0.000000000000000 
0.000000000000000 0.000000000000000 1.000000000000000 0.000000000000000 
1
1.000000000000000 0.000000000000000 0.000000000000000 0.000000000000000 
0.000000000000000 1.000000000000000 0.000000000000000 0.000000000000000 
0.000000000000000 0.000000000000000 1.000000000000000 4.000000000000000 
2  35 1 36 1 3 -1 4 1 5 1 6 -1 0
2  3 1 36 -1 35 -1 0
1
1.000000000000000 0.000000000000000 0.000000000000000 -0.000000000000000 
0.000000000000000 1.000000000000000 0.000000000000000 -0.000000000000000 
0.000000000000000 0.000000000000000 1.000000000000000 -1.500000000000000 
2  39 -1 3 1 36 -1 35 -1 0
2  36 -1 35 -1 0
2  13 -1 14 -1 9 1 10 1 11 -1 18 1 2 1 36 -1 35 -1 0
2  4 -1 3 1 36 -1 35 -1 0
2  13 -1 14 -1 9 1 10 1 11 -1 18 1 2 1 3 -1 4 1 5 1 6 -1 31 -1 0
2  31 -1 0
2  4 1 5 1 6 -1 0
2  4 -1 0
2  35 1 36 1 3 -1 4 1 0
2  35 1 36 1 3 -1 0
2  35 1 36 1 3 -1 39 1 0
2  35 1 36 1 3 -1 39 1 4 1 0
2  4 -1 39 -1 3 1 36 -1 35 -1 0
2  3 -1 39 1 4 1 0
2  3 -1 39 1 4 1 5 1 6 -1 0
2  4 -1 39 -1 3 1 0
Curve2ds 93
1 25.00000000000000000 15.00000000000000000 -1.00000000000000000 0.00000000000000000 
1 0.00000000000000000 0.00000000000000000 0.00000000000000000 1.00000000000000000 
1 5.00000000000000000 0.00000000000000000 0.00000000000000000 -1.00000000000000000 
1 0.00000000000000000 0.00000000000000000 0.00000000000000000 1.00000000000000000 
1 45.00000000000000000 0.00000000000000000 0.00000000000000000 -1.00000000000000000 
1 -3.14159265358979312 0.00000000000000000 1.00000000000000000 0.00000000000000000 
2 20.00000000000000000 10.00000000000000000 0.00000000000000000 -1.00000000000000000 -1.00000000000000000 -0.00000000000000000 5.00000000000000000
1 -3.14159265358979312 0.00000000000000000 1.00000000000000000 0.00000000000000000 
2 -20.00000000000000000 10.00000000000000000 0.00000000000000000 -1.00000000000000000 1.00000000000000000 0.00000000000000000 5.00000000000000000
1 25.00000000000000000 -15.00000000000000000 0.00000000000000000 1.00000000000000000 
1 -25.00000000000000000 15.00000000000000000 0.00000000000000000 -1.00000000000000000 
1 -4.71238898038468967 0.00000000000000000 1.00000000000000000 0.00000000000000000 
2 20.00000000000000000 -10.00000000000000000 0.00000000000000000 -1.00000000000000000 -1.00000000000000000 -0.00000000000000000 5.00000000000000000
1 -4.71238898038468967 0.00000000000000000 1.00000000000000000 0.00000000000000000 
2 -20.00000000000000000 -10.00000000000000000 0.00000000000000000 -1.00000000000000000 1.00000000000000000 0.00000000000000000 5.00000000000000000
1 -25.00000000000000000 -15.00000000000000000 1.00000000000000000 0.00000000000000000 
1 0.00000000000000000 -0.00000000000000000 1.00000000000000000 0.00000000000000000 
1 0.00000000000000000 -5.00000000000000000 1.00000000000000000 0.00000000000000000 
2 20.19999999999999929 10.19999999999999929 -1.00000000000000000 0.00000000000000000 -0.00000000000000000 -1.00000000000000000 3.00000000000000000
1 6.28318530717958623 4.00000000000000000 -1.00000000000000000 0.00000000000000000 
1 1.57079632679489656 0.00000000000000000 0.00000000000000000 1.00000000000000000 
1 25.00000000000000000 0.00000000000000000 0.00000000000000000 -1.00000000000000000 
1 -3.14159265358979312 4.00000000000000000 1.00000000000000000 0.00000000000000000 
2 20.00000000000000000 10.00000000000000000 0.00000000000000000 -1.00000000000000000 -1.00000000000000000 -0.00000000000000000 5.00000000000000000
1 1.57079632679489656 0.00000000000000000 0.00000000000000000 1.00000000000000000 
1 5.00000000000000000 0.00000000000000000 0.00000000000000000 -1.00000000000000000 
1 -3.14159265358979312 4.00000000000000000 1.00000000000000000 0.00000000000000000 
2 -20.00000000000000000 10.00000000000000000 0.00000000000000000 -1.00000000000000000 1.00000000000000000 0.00000000000000000 5.00000000000000000
1 -4.71238898038468967 4.00000000000000000 1.00000000000000000 0.00000000000000000 
2 20.00000000000000000 -10.00000000000000000 0.00000000000000000 -1.00000000000000000 -1.00000000000000000 -0.00000000000000000 5.00000000000000000
1 -4.71238898038468967 4.00000000000000000 1.00000000000000000 0.00000000000000000 
2 -20.00000000000000000 -10.00000000000000000 0.00000000000000000 -1.00000000000000000 1.00000000000000000 0.00000000000000000 5.00000000000000000
1 0.00000000000000000 0.00000000000000000 1.00000000000000000 0.00000000000000000 
1 0.00000000000000000 -1.50000000000000000 1.00000000000000000 0.00000000000000000 
1 17.31694257808610260 13.73540256233871304 -1.00000000000000000 0.00000000000000000 
1 17.15475189748055485 13.49999999999999822 -1.00000000000000000 0.00000000000000000 
1 0.00000000000000000 0.00000000000000000 1.00000000000000000 0.00000000000000000 
2 -18.49999999999999645 8.50000000000000000 0.00000000000000000 1.00000000000000000 -1.00000000000000000 0.00000000000000000 5.00000000000000000
1 0.00000000000000000 0.00000000000000000 1.00000000000000000 0.00000000000000000 
1 0.00000000000000000 -1.50000000000000000 1.00000000000000000 0.00000000000000000 
2 20.36219068060554704 10.43540256233871411 -1.00000000000000000 0.00000000000000000 0.00000000000000000 1.00000000000000000 4.49038261241715020
2 20.19999999999999929 10.19999999999999929 -1.00000000000000000 0.00000000000000000 0.00000000000000000 1.00000000000000000 4.49038261241715020
1 0.00000000000000000 0.00000000000000000 1.00000000000000000 0.00000000000000000 
1 0.00000000000000000 -1.50000000000000000 1.00000000000000000 0.00000000000000000 
1 -23.33780931939444869 13.73540256233871304 0.00000000000000000 -1.00000000000000000 
1 -23.49999999999999645 13.49999999999999822 0.00000000000000000 -1.00000000000000000 
1 0.00000000000000000 0.00000000000000000 1.00000000000000000 0.00000000000000000 
1 0.00000000000000000 -1.50000000000000000 1.00000000000000000 0.00000000000000000 
1 23.66219068060555131 -13.26459743766128518 0.00000000000000000 1.00000000000000000 
1 23.50000000000000355 -13.50000000000000000 0.00000000000000000 1.00000000000000000 
1 -1.57079632679489656 0.00000000000000000 1.00000000000000000 0.00000000000000000 
2 -18.49999999999999645 -8.50000000000000000 0.00000000000000000 1.00000000000000000 -1.00000000000000000 0.00000000000000000 5.00000000000000000
1 -3.14159265358979312 0.00000000000000000 1.00000000000000000 0.00000000000000000 
2 18.50000000000000355 -8.50000000000000000 0.00000000000000000 1.00000000000000000 -1.00000000000000000 0.00000000000000000 5.00000000000000000
1 0.00000000000000000 0.00000000000000000 1.00000000000000000 0.00000000000000000 
1 0.00000000000000000 -1.50000000000000000 1.00000000000000000 0.00000000000000000 
1 -23.33780931939444869 -13.26459743766128518 1.00000000000000000 0.00000000000000000 
1 -23.49999999999999645 -13.50000000000000000 1.00000000000000000 0.00000000000000000 
2 0.00000000000000000 0.00000000000000000 -1.00000000000000000 0.00000000000000000 0.00000000000000000 1.00000000000000000 3.00000000000000000
1 0.00000000000000000 0.00000000000000000 1.00000000000000000 0.00000000000000000 
2 20.19999999999999929 10.19999999999999929 -1.00000000000000000 0.00000000000000000 0.00000000000000000 1.00000000000000000 3.00000000000000000
1 0.00000000000000000 0.00000000000000000 0.00000000000000000 1.00000000000000000 
1 5.00000000000000000 0.00000000000000000 0.00000000000000000 -1.00000000000000000 
1 0.00000000000000000 0.00000000000000000 0.00000000000000000 1.00000000000000000 
1 25.00000000000000000 0.00000000000000000 0.00000000000000000 -1.00000000000000000 
1 1.57079632679489656 0.00000000000000000 0.00000000000000000 1.00000000000000000 
1 45.00000000000000000 0.00000000000000000 0.00000000000000000 -1.00000000000000000 
1 1.57079632679489656 0.00000000000000000 0.00000000000000000 1.00000000000000000 
1 5.00000000000000000 0.00000000000000000 0.00000000000000000 -1.00000000000000000 
1 6.28318530717958623 0.00000000000000000 0.00000000000000000 1.00000000000000000 
1 0.00000000000000000 0.00000000000000000 0.00000000000000000 1.00000000000000000 
1 0.00000000000000000 0.00000000000000000 0.00000000000000000 1.00000000000000000 
1 35.65475189748055129 0.00000000000000000 -0.00000000000000000 -1.00000000000000000 
1 7.10871037303126396 0.00000000000000000 0.00000000000000000 -1.00000000000000000 
1 0.00000000000000000 0.00000000000000000 0.00000000000000000 -1.00000000000000000 
1 1.57079632679489656 0.00000000000000000 0.00000000000000000 1.00000000000000000 
1 4.99999999999999822 0.00000000000000000 0.00000000000000000 -1.00000000000000000 
1 0.00000000000000000 1.50000000000000000 1.00000000000000000 0.00000000000000000 
2 -18.33780931939444869 8.73540256233871482 0.00000000000000000 1.00000000000000000 -1.00000000000000000 0.00000000000000000 5.00000000000000000
1 3.88686391453301017 0.00000000000000000 0.00000000000000000 -1.00000000000000000 
1 20.65475189748055840 0.00000000000000000 0.00000000000000000 -1.00000000000000000 
1 0.00000000000000000 0.00000000000000000 0.00000000000000000 1.00000000000000000 
1 22.00000000000000000 0.00000000000000000 0.00000000000000000 -1.00000000000000000 
1 1.57079632679489656 0.00000000000000000 0.00000000000000000 1.00000000000000000 
1 5.00000000000000000 0.00000000000000000 -0.00000000000000000 -1.00000000000000000 
1 1.57079632679489656 0.00000000000000000 0.00000000000000000 1.00000000000000000 
1 5.00000000000000000 0.00000000000000000 0.00000000000000000 -1.00000000000000000 
1 -1.57079632679489656 1.50000000000000000 1.00000000000000000 0.00000000000000000 
2 -18.33780931939444869 -8.26459743766128518 0.00000000000000000 1.00000000000000000 -1.00000000000000000 0.00000000000000000 5.00000000000000000
1 0.00000000000000000 0.00000000000000000 0.00000000000000000 1.00000000000000000 
1 42.00000000000000000 0.00000000000000000 0.00000000000000000 -1.00000000000000000 
1 -3.14159265358979312 1.50000000000000000 1.00000000000000000 0.00000000000000000 
2 18.66219068060555131 -8.26459743766128518 0.00000000000000000 1.00000000000000000 -1.00000000000000000 0.00000000000000000 5.00000000000000000
Curves 42
1 -25.00000000000000000 15.00000000000000000 0.00000000000000000 1.00000000000000000 0.00000000000000000 0.00000000000000000 
1 -20.00000000000000000 15.00000000000000000 0.00000000000000000 0.00000000000000000 0.00000000000000000 1.00000000000000000 
1 20.00000000000000000 15.00000000000000000 0.00000000000000000 0.00000000000000000 0.00000000000000000 1.00000000000000000 
8 3.14159265358979312 4.71238898038468967
2 -20.00000000000000000 10.00000000000000000 0.00000000000000000 0.00000000000000000 0.00000000000000000 1.00000000000000000 0.00000000000000000 -1.00000000000000000 0.00000000000000000 1.00000000000000000 0.00000000000000000 -0.00000000000000000 5.00000000000000000
8 3.14159265358979312 4.71238898038468967
2 20.00000000000000000 10.00000000000000000 0.00000000000000000 -0.00000000000000000 -0.00000000000000000 -1.00000000000000000 0.00000000000000000 -1.00000000000000000 0.00000000000000000 -1.00000000000000000 0.00000000000000000 0.00000000000000000 5.00000000000000000
1 -25.00000000000000000 -15.00000000000000000 0.00000000000000000 0.00000000000000000 1.00000000000000000 0.00000000000000000 
1 25.00000000000000000 15.00000000000000000 0.00000000000000000 0.00000000000000000 -1.00000000000000000 0.00000000000000000 
8 4.71238898038468967 6.28318530717958623
2 -20.00000000000000000 -10.00000000000000000 0.00000000000000000 0.00000000000000000 0.00000000000000000 1.00000000000000000 0.00000000000000000 -1.00000000000000000 0.00000000000000000 1.00000000000000000 0.00000000000000000 -0.00000000000000000 5.00000000000000000
8 4.71238898038468967 6.28318530717958623
2 20.00000000000000000 -10.00000000000000000 0.00000000000000000 -0.00000000000000000 -0.00000000000000000 -1.00000000000000000 0.00000000000000000 -1.00000000000000000 0.00000000000000000 -1.00000000000000000 0.00000000000000000 0.00000000000000000 5.00000000000000000
1 25.00000000000000000 -15.00000000000000000 0.00000000000000000 -1.00000000000000000 0.00000000000000000 0.00000000000000000 
2 -20.19999999999999929 10.19999999999999929 0.00000000000000000 0.00000000000000000 0.00000000000000000 -1.00000000000000000 1.00000000000000000 0.00000000000000000 0.00000000000000000 0.00000000000000000 -1.00000000000000000 0.00000000000000000 3.00000000000000000
1 -25.00000000000000000 10.00000000000000000 0.00000000000000000 0.00000000000000000 0.00000000000000000 1.00000000000000000 
8 3.14159265358979312 4.71238898038468967
2 -20.00000000000000000 10.00000000000000000 4.00000000000000000 0.00000000000000000 0.00000000000000000 1.00000000000000000 0.00000000000000000 -1.00000000000000000 0.00000000000000000 1.00000000000000000 0.00000000000000000 -0.00000000000000000 5.00000000000000000
1 25.00000000000000000 10.00000000000000000 0.00000000000000000 0.00000000000000000 0.00000000000000000 1.00000000000000000 
8 3.14159265358979312 4.71238898038468967
2 20.00000000000000000 10.00000000000000000 4.00000000000000000 -0.00000000000000000 -0.00000000000000000 -1.00000000000000000 0.00000000000000000 -1.00000000000000000 0.00000000000000000 -1.00000000000000000 0.00000000000000000 0.00000000000000000 5.00000000000000000
8 4.71238898038468967 6.28318530717958623
2 -20.00000000000000000 -10.00000000000000000 4.00000000000000000 0.00000000000000000 0.00000000000000000 1.00000000000000000 0.00000000000000000 -1.00000000000000000 0.00000000000000000 1.00000000000000000 0.00000000000000000 -0.00000000000000000 5.00000000000000000
8 4.71238898038468967 6.28318530717958623
2 20.00000000000000000 -10.00000000000000000 4.00000000000000000 -0.00000000000000000 -0.00000000000000000 -1.00000000000000000 0.00000000000000000 -1.00000000000000000 0.00000000000000000 -1.00000000000000000 0.00000000000000000 0.00000000000000000 5.00000000000000000
1 -17.15475189748055485 13.49999999999999822 0.00000000000000000 1.00000000000000000 0.00000000000000000 0.00000000000000000 
8 0.00000000000000000 1.57079632679489656
2 18.49999999999999645 8.50000000000000000 4.00000000000000000 -0.00000000000000000 -0.00000000000000000 -1.00000000000000000 0.00000000000000000 1.00000000000000000 -0.00000000000000000 1.00000000000000000 -0.00000000000000000 0.00000000000000000 5.00000000000000000
2 -20.19999999999999929 10.19999999999999929 0.00000000000000000 0.00000000000000000 0.00000000000000000 1.00000000000000000 1.00000000000000000 0.00000000000000000 -0.00000000000000000 -0.00000000000000000 1.00000000000000000 0.00000000000000000 4.49038261241715109
1 23.49999999999999645 13.49999999999999822 0.00000000000000000 0.00000000000000000 -1.00000000000000000 0.00000000000000000 
1 -23.50000000000000355 -13.50000000000000000 0.00000000000000000 0.00000000000000000 1.00000000000000000 0.00000000000000000 
8 1.57079632679489656 3.14159265358979312
2 18.49999999999999645 -8.50000000000000000 4.00000000000000000 -0.00000000000000000 -0.00000000000000000 -1.00000000000000000 0.00000000000000000 1.00000000000000000 -0.00000000000000000 1.00000000000000000 -0.00000000000000000 0.00000000000000000 5.00000000000000000
8 3.14159265358979312 4.71238898038468967
2 -18.50000000000000355 -8.50000000000000000 4.00000000000000000 -0.00000000000000000 -0.00000000000000000 -1.00000000000000000 0.00000000000000000 1.00000000000000000 -0.00000000000000000 1.00000000000000000 -0.00000000000000000 0.00000000000000000 5.00000000000000000
1 23.49999999999999645 -13.50000000000000000 0.00000000000000000 -1.00000000000000000 0.00000000000000000 0.00000000000000000 
2 0.00000000000000000 0.00000000000000000 0.00000000000000000 0.00000000000000000 0.00000000000000000 1.00000000000000000 1.00000000000000000 0.00000000000000000 -0.00000000000000000 -0.00000000000000000 1.00000000000000000 0.00000000000000000 3.00000000000000000
1 -25.00000000000000000 -10.00000000000000000 0.00000000000000000 0.00000000000000000 0.00000000000000000 1.00000000000000000 
1 25.00000000000000000 -10.00000000000000000 0.00000000000000000 0.00000000000000000 0.00000000000000000 1.00000000000000000 
1 -20.00000000000000000 -15.00000000000000000 0.00000000000000000 0.00000000000000000 0.00000000000000000 1.00000000000000000 
1 20.00000000000000000 -15.00000000000000000 0.00000000000000000 0.00000000000000000 0.00000000000000000 1.00000000000000000 
1 3.00000000000000000 0.00000000000000000 -0.00000000000000000 -0.00000000000000005 0.00000000000000000 -1.00000000000000000 
1 18.49999999999999645 13.50000000000000000 4.00000000000000000 -0.00000000000000000 -0.00000000000000000 -1.00000000000000000 
1 -17.15475189748055485 13.49999999999999822 4.00000000000000000 -0.00000000000000000 -0.00000000000000000 -1.00000000000000000 
1 23.49999999999999645 8.50000000000000000 4.00000000000000000 -0.00000000000000000 -0.00000000000000000 -1.00000000000000000 
8 0.00000000000000000 1.57079632679489656
2 18.49999999999999645 8.50000000000000000 2.50000000000000000 -0.00000000000000000 -0.00000000000000000 -1.00000000000000000 0.00000000000000000 1.00000000000000000 -0.00000000000000000 1.00000000000000000 -0.00000000000000000 0.00000000000000000 5.00000000000000000
1 -23.50000000000000355 7.15475189748055929 4.00000000000000000 -0.00000000000000000 -0.00000000000000000 -1.00000000000000000 
1 23.49999999999999645 -8.50000000000000000 4.00000000000000000 -0.00000000000000000 -0.00000000000000000 -1.00000000000000000 
1 -23.50000000000000355 -8.50000000000000000 4.00000000000000000 -0.00000000000000000 -0.00000000000000000 -1.00000000000000000 
1 18.49999999999999645 -13.50000000000000000 4.00000000000000000 -0.00000000000000000 -0.00000000000000000 -1.00000000000000000 
8 1.57079632679489656 3.14159265358979312
2 18.49999999999999645 -8.50000000000000000 2.50000000000000000 -0.00000000000000000 -0.00000000000000000 -1.00000000000000000 0.00000000000000000 1.00000000000000000 -0.00000000000000000 1.00000000000000000 -0.00000000000000000 0.00000000000000000 5.00000000000000000
1 -18.50000000000000355 -13.50000000000000000 4.00000000000000000 -0.00000000000000000 -0.00000000000000000 -1.00000000000000000 
8 3.14159265358979312 4.71238898038468967
2 -18.50000000000000355 -8.50000000000000000 2.50000000000000000 -0.00000000000000000 -0.00000000000000000 -1.00000000000000000 0.00000000000000000 1.00000000000000000 -0.00000000000000000 1.00000000000000000 -0.00000000000000000 0.00000000000000000 5.00000000000000000
Polygon3D 0
PolygonOnTriangulations 0
Surfaces 21
1 -25.00000000000000000 15.00000000000000000 0.00000000000000000 0.00000000000000000 1.00000000000000000 0.00000000000000000 1.00000000000000000 0.00000000000000000 0.00000000000000000 0.00000000000000000 0.00000000000000000 -1.00000000000000000 
1 0.00000000000000000 0.00000000000000000 0.00000000000000000 -0.00000000000000000 -0.00000000000000000 -1.00000000000000000 -1.00000000000000000 0.00000000000000000 0.00000000000000000 0.00000000000000000 1.00000000000000000 -0.00000000000000000 
2 -20.00000000000000000 10.00000000000000000 0.00000000000000000 0.00000000000000000 0.00000000000000000 1.00000000000000000 -0.00000000000000000 1.00000000000000000 0.00000000000000000 -1.00000000000000000 -0.00000000000000000 0.00000000000000000 5.00000000000000000
2 20.00000000000000000 10.00000000000000000 0.00000000000000000 0.00000000000000000 0.00000000000000000 1.00000000000000000 -0.00000000000000000 1.00000000000000000 0.00000000000000000 1.00000000000000000 0.00000000000000000 -0.00000000000000000 5.00000000000000000
2 -20.00000000000000000 -10.00000000000000000 0.00000000000000000 0.00000000000000000 0.00000000000000000 1.00000000000000000 -1.00000000000000000 0.00000000000000000 0.00000000000000000 0.00000000000000000 -1.00000000000000000 0.00000000000000000 5.00000000000000000
2 20.00000000000000000 -10.00000000000000000 0.00000000000000000 0.00000000000000000 0.00000000000000000 1.00000000000000000 1.00000000000000000 0.00000000000000000 -0.00000000000000000 0.00000000000000000 -1.00000000000000000 -0.00000000000000000 5.00000000000000000
1 25.00000000000000000 -15.00000000000000000 0.00000000000000000 0.00000000000000000 -1.00000000000000000 0.00000000000000000 -1.00000000000000000 0.00000000000000000 0.00000000000000000 -0.00000000000000000 -0.00000000000000000 -1.00000000000000000 
2 0.00000000000000000 0.00000000000000000 0.00000000000000000 -0.00000000000000000 -0.00000000000000000 -1.00000000000000000 1.00000000000000000 0.00000000000000000 0.00000000000000000 -0.00000000000000000 1.00000000000000000 -0.00000000000000000 3.00000000000000000
1 -25.00000000000000000 -15.00000000000000000 0.00000000000000000 -1.00000000000000000 0.00000000000000000 0.00000000000000000 0.00000000000000000 1.00000000000000000 0.00000000000000000 0.00000000000000000 0.00000000000000000 -1.00000000000000000 
1 25.00000000000000000 15.00000000000000000 0.00000000000000000 1.00000000000000000 0.00000000000000000 -0.00000000000000000 0.00000000000000000 -1.00000000000000000 0.00000000000000000 0.00000000000000000 -0.00000000000000000 -1.00000000000000000 
1 -17.15475189748055485 13.49999999999999822 4.00000000000000000 0.00000000000000000 -1.00000000000000000 0.00000000000000000 1.00000000000000000 0.00000000000000000 0.00000000000000000 -0.00000000000000000 0.00000000000000000 1.00000000000000000 
1 0.16219068060554834 -0.23540256233871487 4.00000000000000000 -0.00000000000000000 -0.00000000000000000 -1.00000000000000000 -1.00000000000000000 0.00000000000000000 0.00000000000000000 0.00000000000000000 1.00000000000000000 -0.00000000000000000 
2 18.49999999999999645 8.50000000000000000 4.00000000000000000 -0.00000000000000000 -0.00000000000000000 -1.00000000000000000 0.00000000000000000 1.00000000000000000 -0.00000000000000000 1.00000000000000000 -0.00000000000000000 0.00000000000000000 5.00000000000000000
2 -20.19999999999999929 10.19999999999999929 4.00000000000000000 0.00000000000000000 0.00000000000000000 1.00000000000000000 1.00000000000000000 0.00000000000000000 -0.00000000000000000 -0.00000000000000000 1.00000000000000000 0.00000000000000000 4.49038261241715109
1 23.49999999999999645 13.49999999999999822 4.00000000000000000 -1.00000000000000000 0.00000000000000000 0.00000000000000000 0.00000000000000000 -1.00000000000000000 0.00000000000000000 0.00000000000000000 0.00000000000000000 1.00000000000000000 
1 -23.50000000000000355 -13.50000000000000000 4.00000000000000000 1.00000000000000000 0.00000000000000000 0.00000000000000000 -0.00000000000000000 1.00000000000000000 0.00000000000000000 0.00000000000000000 -0.00000000000000000 1.00000000000000000 
2 18.49999999999999645 -8.50000000000000000 4.00000000000000000 -0.00000000000000000 -0.00000000000000000 -1.00000000000000000 1.00000000000000000 -0.00000000000000000 0.00000000000000000 -0.00000000000000000 -1.00000000000000000 0.00000000000000000 5.00000000000000000
2 -18.50000000000000355 -8.50000000000000000 4.00000000000000000 -0.00000000000000000 -0.00000000000000000 -1.00000000000000000 -0.00000000000000000 -1.00000000000000000 0.00000000000000000 -1.00000000000000000 0.00000000000000000 0.00000000000000000 5.00000000000000000
1 23.49999999999999645 -13.50000000000000000 4.00000000000000000 0.00000000000000000 1.00000000000000000 -0.00000000000000000 -1.00000000000000000 0.00000000000000000 0.00000000000000000 0.00000000000000000 0.00000000000000000 1.00000000000000000 
1 0.00000000000000000 0.00000000000000000 0.00000000000000000 0.00000000000000000 0.00000000000000000 1.00000000000000000 -1.00000000000000000 -0.00000000000000000 0.00000000000000000 -0.00000000000000000 1.00000000000000000 -0.00000000000000000 
1 25.00000000000000000 -15.00000000000000000 0.00000000000000000 0.00000000000000000 -1.00000000000000000 0.00000000000000000 -1.00000000000000000 0.00000000000000000 0.00000000000000000 -0.00000000000000000 -0.00000000000000000 -1.00000000000000000 
Triangulations 0

TShapes 127
Ve
0.000000100000000
-20.000000000000000 15.000000000000000 0.000000000000000
0 0

0101101
*
Ve
0.000000100000000
20.000000000000000 15.000000000000000 0.000000000000000
0 0

0101101
*
Ed
 0.000000100000000 1 1 0
1  1 0 5.000000000000000 45.000000000000000
2  1 2 15 5.000000000000000 45.000000000000000
0

0101000
+127 16 -126 16 *
Ve
0.000000100000000
-20.000000000000000 15.000000000000000 4.000000000000000
0 0

0101101
*
Ed
 0.000000100000000 1 1 0
1  2 0 -0.000000000000000 4.000000000000000
2  2 3 0 -0.000000000000000 4.000000000000000
2  3 1 17 -0.000000000000000 4.000000000000000
4 G1 3 0 1 17
0

0101000
+127 0 -124 0 *
Ve
0.000000100000000
20.000000000000000 15.000000000000000 4.000000000000000
0 0

0101101
*
Ed
 0.000000100000000 1 1 0
1  3 0 -0.000000000000000 4.000000000000000
2  4 4 0 -0.000000000000000 4.000000000000000
2  5 1 17 -0.000000000000000 4.000000000000000
4 G1 4 0 1 17
0

0101000
+126 0 -122 0 *
Ed
 0.000000100000000 1 1 0
1  1 0 5.000000000000000 45.000000000000000
2  1 2 15 5.000000000000000 45.000000000000000
0

0101000
+124 20 -122 20 *
Wi

0101100
-125 12 +123 0 -121 0 +120 19 *
Fa
0  0.000000100000000 1 0

0101000
+119 8 *
Ve
0.000000100000000
-25.000000000000000 10.000000000000000 0.000000000000000
0 0

0101101
*
Ed
 0.000000100000000 1 1 0
1  4 0 3.141592653589793 4.712388980384690
2  6 3 0 3.141592653589793 4.712388980384690
2  7 2 24 3.141592653589793 4.712388980384690
0

0101000
+127 0 -117 0 *
Ve
0.000000100000000
25.000000000000000 10.000000000000000 0.000000000000000
0 0

0101101
*
Ed
 0.000000100000000 1 1 0
1  5 0 3.141592653589793 4.712388980384690
2  8 4 0 3.141592653589793 4.712388980384690
2  9 2 24 3.141592653589793 4.712388980384690
0

0101000
+126 0 -115 0 *
Ve
0.000000100000000
-25.000000000000000 -10.000000000000000 0.000000000000000
0 0

0101101
*
Ed
 0.000000100000000 1 1 0
1  6 0 5.000000000000000 25.000000000000000
2  10 2 15 5.000000000000000 25.000000000000000
0

0101000
+113 16 -117 16 *
Ve
0.000000100000000
25.000000000000000 -10.000000000000000 0.000000000000000
0 0

0101101
*
Ed
 0.000000100000000 1 1 0
1  7 0 5.000000000000000 25.000000000000000
2  11 2 15 5.000000000000000 25.000000000000000
0

0101000
+115 16 -111 16 *
Ve
0.000000100000000
-20.000000000000000 -15.000000000000000 0.000000000000000
0 0

0101101
*
Ed
 0.000000100000000 1 1 0
1  8 0 4.712388980384690 6.283185307179586
2  12 5 0 4.712388980384690 6.283185307179586
2  13 2 24 4.712388980384690 6.283185307179586
0

0101000
+113 0 -109 0 *
Ve
0.000000100000000
20.000000000000000 -15.000000000000000 0.000000000000000
0 0

0101101
*
Ed
 0.000000100000000 1 1 0
1  9 0 4.712388980384690 6.283185307179586
2  14 6 0 4.712388980384690 6.283185307179586
2  15 2 24 4.712388980384690 6.283185307179586
0

0101000
+111 0 -107 0 *
Ed
 0.000000100000000 1 1 0
1  10 0 5.000000000000000 45.000000000000000
2  16 2 15 5.000000000000000 45.000000000000000
2  17 7 28 5.000000000000000 45.000000000000000
2  18 7 30 5.000000000000000 45.000000000000000
0

0101000
+107 16 -109 16 *
Wi

0101100
+125 22 -116 23 +114 23 +112 22 +110 22 -108 23 +106 23 +105 22 *
Ve
0.000000100000000
-17.199999999999999 10.199999999999999 0.000000000000000
0 0

0101101
*
Ed
 0.000000100000000 1 1 0
1  11 0 0.000000000000000 6.283185307179586
2  19 2 21 0.000000000000000 6.283185307179586
2  20 8 31 0.000000000000000 6.283185307179586
0

0101000
+103 0 -103 0 *
Wi

0101100
-102 0 *
Fa
0  0.000000100000000 2 21

0101000
+104 0 +101 0 *
Ve
0.000000100000000
-25.000000000000000 10.000000000000000 4.000000000000000
0 0

0101101
*
Ed
 0.000000100000000 1 1 0
1  12 0 -0.000000000000000 4.000000000000000
2  21 3 0 -0.000000000000000 4.000000000000000
2  22 9 17 -0.000000000000000 4.000000000000000
4 G1 3 0 9 17
0

0101000
+117 0 -99 0 *
Ed
 0.000000100000000 1 1 0
1  13 0 3.141592653589793 4.712388980384690
2  23 3 0 3.141592653589793 4.712388980384690
2  24 2 32 3.141592653589793 4.712388980384690
0

0101000
+124 0 -99 0 *
Wi

0101100
+116 0 -123 0 +98 0 -97 0 *
Fa
0  0.000000000000000 3 0

0101000
+96 0 *
Ve
0.000000100000000
25.000000000000000 10.000000000000000 4.000000000000000
0 0

0101101
*
Ed
 0.000000100000000 1 1 0
1  14 0 -0.000000000000000 4.000000000000000
2  25 4 0 -0.000000000000000 4.000000000000000
2  26 10 17 -0.000000000000000 4.000000000000000
4 G1 4 0 10 17
0

0101000
+115 0 -94 0 *
Ed
 0.000000100000000 1 1 0
1  15 0 3.141592653589793 4.712388980384690
2  27 4 0 3.141592653589793 4.712388980384690
2  28 2 32 3.141592653589793 4.712388980384690
0

0101000
+122 0 -94 0 *
Wi

0101100
+114 0 -121 0 +93 0 -92 0 *
Fa
0  0.000000000000000 4 0

0101000
+91 0 *
Ve
0.000000100000000
-25.000000000000000 -10.000000000000000 4.000000000000000
0 0

0101101
*
Ed
 0.000000100000000 1 1 0
1  6 0 5.000000000000000 25.000000000000000
2  10 2 15 5.000000000000000 25.000000000000000
0

0101000
+89 20 -99 20 *
Ve
0.000000100000000
25.000000000000000 -10.000000000000000 4.000000000000000
0 0

0101101
*
Ed
 0.000000100000000 1 1 0
1  7 0 5.000000000000000 25.000000000000000
2  11 2 15 5.000000000000000 25.000000000000000
0

0101000
+94 20 -87 20 *
Ve
0.000000100000000
-20.000000000000000 -15.000000000000000 4.000000000000000
0 0

0101101
*
Ed
 0.000000100000000 1 1 0
1  16 0 4.712388980384690 6.283185307179586
2  29 5 0 4.712388980384690 6.283185307179586
2  30 2 32 4.712388980384690 6.283185307179586
0

0101000
+89 0 -85 0 *
Ve
0.000000100000000
20.000000000000000 -15.000000000000000 4.000000000000000
0 0

0101101
*
Ed
 0.000000100000000 1 1 0
1  17 0 4.712388980384690 6.283185307179586
2  31 6 0 4.712388980384690 6.283185307179586
2  32 2 32 4.712388980384690 6.283185307179586
0

0101000
+87 0 -83 0 *
Ed
 0.000000100000000 1 1 0
1  10 0 5.000000000000000 45.000000000000000
2  16 2 15 5.000000000000000 45.000000000000000
2  17 7 28 5.000000000000000 45.000000000000000
2  18 7 30 5.000000000000000 45.000000000000000
0

0101000
+83 20 -85 20 *
Wi

0101100
+120 34 -97 23 +92 23 +88 34 +86 34 -84 23 +82 23 +81 34 *
Ve
0.000000100000000
18.499999999999996 13.500000000000000 4.000000000000000
0 0

0101101
*
Ve
0.000000100000000
-17.154751897480555 13.499999999999998 0.000000000000000
0 0

0101101
*
Ed
 0.000000100000000 1 1 0
1  18 0 0.000000000000000 35.654751897480551
2  33 11 38 0.000000000000000 35.654751897480551
2  34 11 40 0.000000000000000 35.654751897480551
2  35 12 41 0.000000000000000 35.654751897480551
2  36 2 42 0.000000000000000 35.654751897480551
0

0101000
-79 43 +78 0 *
Ve
0.000000100000000
23.499999999999996 8.500000000000000 4.000000000000000
0 0

0101101
*
Ed
 0.000000100000000 1 1 0
1  19 0 0.000000000000000 1.570796326794897
2  37 13 0 0.000000000000000 1.570796326794897
2  38 2 32 0.000000000000000 1.570796326794897
0

0101000
+79 0 -76 0 *
Ve
0.000000100000001
-23.500000000000004 7.154751897480559 0.000000000000000
0 0

0101101
*
Ed
 0.000000100000000 1 1 0
1  20 0 3.886863914533010 7.108710373031264
2  39 14 38 3.886863914533010 7.108710373031264
2  40 14 40 3.886863914533010 7.108710373031264
2  41 12 41 3.886863914533010 7.108710373031264
2  42 2 42 3.886863914533010 7.108710373031264
0

0101000
+74 0 -78 0 *
Ve
0.000000100000000
23.499999999999996 -8.500000000000000 4.000000000000000
0 0

0101101
*
Ed
 0.000000100000000 1 1 0
1  21 0 4.999999999999998 22.000000000000000
2  43 15 38 4.999999999999998 22.000000000000000
2  44 15 40 4.999999999999998 22.000000000000000
2  45 12 41 4.999999999999998 22.000000000000000
2  46 2 42 4.999999999999998 22.000000000000000
0

0101000
+76 43 -72 43 *
Ve
0.000000100000000
-23.500000000000004 -8.500000000000000 4.000000000000000
0 0

0101101
*
Ed
 0.000000100000000 1 1 0
1  22 0 5.000000000000000 20.654751897480558
2  47 16 38 5.000000000000000 20.654751897480558
2  48 16 40 5.000000000000000 20.654751897480558
2  49 12 41 5.000000000000000 20.654751897480558
2  50 2 42 5.000000000000000 20.654751897480558
0

0101000
+70 43 -74 0 *
Ve
0.000000100000000
18.499999999999996 -13.500000000000000 4.000000000000000
0 0

0101101
*
Ed
 0.000000100000000 1 1 0
1  23 0 1.570796326794897 3.141592653589793
2  51 17 0 1.570796326794897 3.141592653589793
2  52 2 32 1.570796326794897 3.141592653589793
0

0101000
+72 0 -68 0 *
Ve
0.000000100000000
-18.500000000000004 -13.500000000000000 4.000000000000000
0 0

0101101
*
Ed
 0.000000100000000 1 1 0
1  24 0 3.141592653589793 4.712388980384690
2  53 18 0 3.141592653589793 4.712388980384690
2  54 2 32 3.141592653589793 4.712388980384690
0

0101000
+66 0 -70 0 *
Ed
 0.000000100000000 1 1 0
1  25 0 5.000000000000000 42.000000000000000
2  55 19 38 5.000000000000000 42.000000000000000
2  56 19 40 5.000000000000000 42.000000000000000
2  57 12 41 5.000000000000000 42.000000000000000
2  58 2 42 5.000000000000000 42.000000000000000
0

0101000
+68 43 -66 43 *
Wi

0101100
-77 37 -75 23 -73 37 -71 37 -69 37 -67 23 -65 23 -64 37 *
Ve
0.000000100000000
3.000000000000000 0.000000000000000 -0.000000000000000
0 0

0101101
*
Ed
 0.000000100000000 1 1 0
1  26 0 0.000000000000000 6.283185307179586
2  59 20 0 0.000000000000000 6.283185307179586
2  60 8 0 0.000000000000000 6.283185307179586
2  61 2 44 0.000000000000000 6.283185307179586
0

0101000
+62 0 -62 0 *
Wi

0101100
+61 31 *
Fa
0  0.000000100000000 2 33

0101000
+80 0 +63 0 +60 0 *
Ed
 0.000000100000000 1 1 0
1  27 0 -0.000000000000000 4.000000000000000
2  62 5 0 -0.000000000000000 4.000000000000000
2  63 9 17 -0.000000000000000 4.000000000000000
4 G1 5 0 9 17
0

0101000
+113 0 -89 0 *
Wi

0101100
-112 12 +58 0 -98 0 +88 19 *
Fa
0  0.000000100000000 9 0

0101000
+57 8 *
Ed
 0.000000100000000 1 1 0
1  28 0 -0.000000000000000 4.000000000000000
2  64 6 0 -0.000000000000000 4.000000000000000
2  65 10 17 -0.000000000000000 4.000000000000000
4 G1 6 0 10 17
0

0101000
+111 0 -87 0 *
Wi

0101100
-110 12 +93 0 -55 0 +86 19 *
Fa
0  0.000000100000000 10 0

0101000
+54 8 *
Ed
 0.000000100000000 1 1 0
1  29 0 -0.000000000000000 4.000000000000000
2  66 5 0 -0.000000000000000 4.000000000000000
2  67 21 17 -0.000000000000000 4.000000000000000
4 G1 5 0 21 17
0

0101000
+109 0 -85 0 *
Wi

0101100
+108 0 -58 0 +52 0 -84 0 *
Fa
0  0.000000000000000 5 0

0101000
+51 0 *
Ed
 0.000000100000000 1 1 0
1  30 0 -0.000000000000000 4.000000000000000
2  68 6 0 -0.000000000000000 4.000000000000000
2  69 21 17 -0.000000000000000 4.000000000000000
4 G1 6 0 21 17
0

0101000
+107 0 -83 0 *
Wi

0101100
+106 0 -55 0 +49 0 -82 0 *
Fa
0  0.000000000000000 6 0

0101000
+48 0 *
Wi

0101100
-105 12 +49 0 -52 0 +81 19 *
Fa
0  0.000000100000000 21 0

0101000
+46 8 *
Ed
 0.000000100000000 1 1 0
1  31 0 0.000000000000000 4.000000000000000
3  70 71CN 8 0 0.000000000000000 4.000000000000000
0

0101000
+62 0 -103 45 *
Wi

0101100
-44 31 +102 0 +44 31 +61 31 *
Fa
0  0.000000100000000 8 31

0101000
+43 0 *
Ve
0.000000100000000
18.499999999999996 13.500000000000000 2.500000000000000
0 0

0101101
*
Ed
 0.000000100000000 1 1 0
1  32 0 -0.000000000000000 1.500000000000000
2  72 13 0 -0.000000000000000 1.500000000000000
2  73 11 4 -0.000000000000000 1.500000000000000
4 G1 13 0 11 4
0

0101000
+79 0 -41 0 *
Ed
 0.000000100000000 1 1 0
1  33 0 0.000000000000000 1.500000000000000
2  74 14 0 0.000000000000000 1.500000000000000
2  75 11 0 0.000000000000000 1.500000000000000
0

0101000
+78 49 -78 50 *
Ed
 0.000000100000000 1 1 0
1  18 0 0.000000000000000 35.654751897480551
2  33 11 38 0.000000000000000 35.654751897480551
2  34 11 40 0.000000000000000 35.654751897480551
2  35 12 41 0.000000000000000 35.654751897480551
2  36 2 42 0.000000000000000 35.654751897480551
0

0101000
-41 52 +78 0 *
Wi

0101100
-77 48 -40 0 +39 4 +38 51 *
Fa
0  0.000000100000000 11 0

0101000
+37 47 *
Ve
0.000000100000000
23.499999999999996 8.500000000000000 2.500000000000000
0 0

0101101
*
Ed
 0.000000100000000 1 1 0
1  34 0 -0.000000000000000 1.500000000000000
2  76 13 0 -0.000000000000000 1.500000000000000
2  77 15 4 -0.000000000000000 1.500000000000000
4 G1 13 0 15 4
0

0101000
+76 0 -35 0 *
Ed
 0.000000100000000 1 1 0
1  35 0 0.000000000000000 1.570796326794897
2  78 13 0 0.000000000000000 1.570796326794897
2  79 12 53 0.000000000000000 1.570796326794897
0

0101000
+41 0 -35 0 *
Wi

0101100
+75 0 -40 0 +34 0 -33 0 *
Fa
0  0.000000000000000 13 0

0101000
+32 0 *
Ed
 0.000000100000001 1 1 0
1  36 0 0.000000000000000 1.500000000000000
2  80 14 0 0.000000000000000 1.500000000000000
2  81 16 0 0.000000000000000 1.500000000000000
0

0101000
+74 49 -74 50 *
Wi

0101100
+30 0 -39 0 -73 49 +73 50 *
Fa
0  0.000000100000000 14 0

0101000
+29 0 *
Ve
0.000000100000000
23.499999999999996 -8.500000000000000 2.500000000000000
0 0

0101101
*
Ed
 0.000000100000000 1 1 0
1  37 0 -0.000000000000000 1.500000000000000
2  82 17 0 -0.000000000000000 1.500000000000000
2  83 15 4 -0.000000000000000 1.500000000000000
4 G1 17 0 15 4
0

0101000
+72 0 -27 0 *
Ed
 0.000000100000000 1 1 0
1  21 0 4.999999999999998 22.000000000000000
2  43 15 38 4.999999999999998 22.000000000000000
2  44 15 40 4.999999999999998 22.000000000000000
2  45 12 41 4.999999999999998 22.000000000000000
2  46 2 42 4.999999999999998 22.000000000000000
0

0101000
+35 52 -27 52 *
Wi

0101100
-71 48 +34 0 -26 0 +25 51 *
Fa
0  0.000000100000000 15 0

0101000
+24 47 *
Ve
0.000000100000000
-23.500000000000004 -8.500000000000000 2.500000000000000
0 0

0101101
*
Ed
 0.000000100000000 1 1 0
1  38 0 -0.000000000000000 1.500000000000000
2  84 18 0 -0.000000000000000 1.500000000000000
2  85 16 4 -0.000000000000000 1.500000000000000
4 G1 18 0 16 4
0

0101000
+70 0 -22 0 *
Ed
 0.000000100000000 1 1 0
1  22 0 5.000000000000000 20.654751897480558
2  47 16 38 5.000000000000000 20.654751897480558
2  48 16 40 5.000000000000000 20.654751897480558
2  49 12 41 5.000000000000000 20.654751897480558
2  50 2 42 5.000000000000000 20.654751897480558
0

0101000
+22 52 -74 0 *
Wi

0101100
-69 48 +21 0 -30 4 +20 51 *
Fa
0  0.000000100000000 16 0

0101000
+19 47 *
Ve
0.000000100000000
18.499999999999996 -13.500000000000000 2.500000000000000
0 0

0101101
*
Ed
 0.000000100000000 1 1 0
1  39 0 -0.000000000000000 1.500000000000000
2  86 17 0 -0.000000000000000 1.500000000000000
2  87 19 4 -0.000000000000000 1.500000000000000
4 G1 17 0 19 4
0

0101000
+68 0 -17 0 *
Ed
 0.000000100000000 1 1 0
1  40 0 1.570796326794897 3.141592653589793
2  88 17 0 1.570796326794897 3.141592653589793
2  89 12 53 1.570796326794897 3.141592653589793
0

0101000
+27 0 -17 0 *
Wi

0101100
+67 0 -26 0 +16 0 -15 0 *
Fa
0  0.000000000000000 17 0

0101000
+14 0 *
Ve
0.000000100000000
-18.500000000000004 -13.500000000000000 2.500000000000000
0 0

0101101
*
Ed
 0.000000100000000 1 1 0
1  41 0 -0.000000000000000 1.500000000000000
2  90 18 0 -0.000000000000000 1.500000000000000
2  91 19 4 -0.000000000000000 1.500000000000000
4 G1 18 0 19 4
0

0101000
+66 0 -12 0 *
Ed
 0.000000100000000 1 1 0
1  42 0 3.141592653589793 4.712388980384690
2  92 18 0 3.141592653589793 4.712388980384690
2  93 12 53 3.141592653589793 4.712388980384690
0

0101000
+12 0 -22 0 *
Wi

0101100
+65 0 -11 0 +21 0 -10 0 *
Fa
0  0.000000000000000 18 0

0101000
+9 0 *
Ed
 0.000000100000000 1 1 0
1  25 0 5.000000000000000 42.000000000000000
2  55 19 38 5.000000000000000 42.000000000000000
2  56 19 40 5.000000000000000 42.000000000000000
2  57 12 41 5.000000000000000 42.000000000000000
2  58 2 42 5.000000000000000 42.000000000000000
0

0101000
+17 52 -12 52 *
Wi

0101100
-64 48 +16 0 -11 0 +7 51 *
Fa
0  0.000000100000000 19 0

0101000
+6 47 *
Wi

0101100
+38 51 +33 0 +73 51 +25 51 +20 51 +15 0 +10 0 +7 51 *
Fa
0  0.000000100000000 12 0

0101000
+4 55 *
Sh

0101100
+118 7 +100 0 +95 23 -90 23 -59 0 +56 7 +53 7 +50 23 -47 23 +45 7 
+42 0 +36 46 -31 23 +28 46 +23 46 +18 46 -13 23 -8 23 +5 46 -3 54 
*
So

0100000
+2 0 *

+1 1 