
CASCADE Topology V1, (c) Matra-Datavision
Locations 13
1
1.000000000000000 0.000000000000000 0.000000000000000 0.000000000000000 
0.000000000000000 1.000000000000000 0.000000000000000 0.000000000000000 
0.000000000000000 0.000000000000000 1.000000000000000 0.000000000000000 
1
1.000000000000000 0.000000000000000 0.000000000000000 0.000000000000000 
0.000000000000000 1.000000000000000 0.000000000000000 0.000000000000000 
0.000000000000000 0.000000000000000 1.000000000000000 0.000000000000000 
1
1.000000000000000 0.000000000000000 0.000000000000000 0.000000000000000 
0.000000000000000 1.000000000000000 0.000000000000000 0.000000000000000 
0.000000000000000 0.000000000000000 1.000000000000000 0.000000000000000 
1
1.000000000000000 0.000000000000000 0.000000000000000 0.000000000000000 
0.000000000000000 1.000000000000000 0.000000000000000 0.000000000000000 
0.000000000000000 0.000000000000000 1.000000000000000 0.000000000000000 
2  2 1 3 1 4 -1 0
1
1.000000000000000 0.000000000000000 0.000000000000000 0.000000000000000 
0.000000000000000 1.000000000000000 0.000000000000000 0.000000000000000 
0.000000000000000 0.000000000000000 1.000000000000000 4.000000000000000 
2  2 1 3 1 4 -1 6 1 0
2  3 -1 2 -1 0
2  4 1 3 -1 2 -1 0
2  6 -1 4 1 3 -1 2 -1 0
2  4 -1 0
2  2 1 3 1 0
2  4 -1 6 1 0
Curve2ds 9
1 25.00000000000000000 15.00000000000000000 -1.00000000000000000 0.00000000000000000 
1 -25.00000000000000000 15.00000000000000000 0.00000000000000000 -1.00000000000000000 
1 -25.00000000000000000 -15.00000000000000000 1.00000000000000000 0.00000000000000000 
1 25.00000000000000000 -15.00000000000000000 0.00000000000000000 1.00000000000000000 
1 0.00000000000000000 0.00000000000000000 0.00000000000000000 -1.00000000000000000 
1 6.28318530717958623 0.00000000000000000 0.00000000000000000 -1.00000000000000000 
1 0.00000000000000000 0.00000000000000000 1.00000000000000000 0.00000000000000000 
1 0.00000000000000000 -4.00000000000000000 1.00000000000000000 0.00000000000000000 
2 20.80000000000000071 10.80000000000000071 -1.00000000000000000 0.00000000000000000 0.00000000000000000 1.00000000000000000 2.80000000000000071
Curves 10
1 -25.00000000000000000 15.00000000000000000 0.00000000000000000 0.00000000000000000 0.00000000000000000 1.00000000000000000 
1 25.00000000000000000 15.00000000000000000 0.00000000000000000 0.00000000000000000 0.00000000000000000 1.00000000000000000 
1 -25.00000000000000000 15.00000000000000000 0.00000000000000000 1.00000000000000000 0.00000000000000000 0.00000000000000000 
1 25.00000000000000000 -15.00000000000000000 0.00000000000000000 0.00000000000000000 0.00000000000000000 1.00000000000000000 
1 25.00000000000000000 15.00000000000000000 0.00000000000000000 0.00000000000000000 -1.00000000000000000 0.00000000000000000 
1 -25.00000000000000000 -15.00000000000000000 0.00000000000000000 0.00000000000000000 0.00000000000000000 1.00000000000000000 
1 25.00000000000000000 -15.00000000000000000 0.00000000000000000 -1.00000000000000000 0.00000000000000000 0.00000000000000000 
1 -25.00000000000000000 -15.00000000000000000 0.00000000000000000 0.00000000000000000 1.00000000000000000 0.00000000000000000 
1 -18.00000000000000000 10.80000000000000071 0.00000000000000000 0.00000000000000000 0.00000000000000000 1.00000000000000000 
2 -20.80000000000000071 10.80000000000000071 0.00000000000000000 0.00000000000000000 0.00000000000000000 1.00000000000000000 1.00000000000000000 0.00000000000000000 0.00000000000000000 0.00000000000000000 1.00000000000000000 0.00000000000000000 2.79999999999999982
Polygon3D 0
PolygonOnTriangulations 0
Surfaces 6
1 -25.00000000000000000 15.00000000000000000 0.00000000000000000 0.00000000000000000 1.00000000000000000 0.00000000000000000 1.00000000000000000 0.00000000000000000 0.00000000000000000 0.00000000000000000 0.00000000000000000 -1.00000000000000000 
1 0.00000000000000000 0.00000000000000000 0.00000000000000000 -0.00000000000000000 -0.00000000000000000 -1.00000000000000000 -1.00000000000000000 0.00000000000000000 0.00000000000000000 0.00000000000000000 1.00000000000000000 -0.00000000000000000 
1 25.00000000000000000 15.00000000000000000 0.00000000000000000 1.00000000000000000 0.00000000000000000 -0.00000000000000000 0.00000000000000000 -1.00000000000000000 0.00000000000000000 0.00000000000000000 -0.00000000000000000 -1.00000000000000000 
1 25.00000000000000000 -15.00000000000000000 0.00000000000000000 0.00000000000000000 -1.00000000000000000 0.00000000000000000 -1.00000000000000000 0.00000000000000000 0.00000000000000000 -0.00000000000000000 -0.00000000000000000 -1.00000000000000000 
1 -25.00000000000000000 -15.00000000000000000 0.00000000000000000 -1.00000000000000000 0.00000000000000000 0.00000000000000000 0.00000000000000000 1.00000000000000000 0.00000000000000000 0.00000000000000000 0.00000000000000000 -1.00000000000000000 
2 -20.80000000000000071 10.80000000000000071 0.00000000000000000 -0.00000000000000000 -0.00000000000000000 -1.00000000000000000 1.00000000000000000 0.00000000000000000 0.00000000000000000 0.00000000000000000 1.00000000000000000 0.00000000000000000 2.79999999999999982
Triangulations 0

TShapes 30
Ve
0.000000100000000
-25.000000000000000 15.000000000000000 0.000000000000000
0 0

0101101
*
Ed
 0.000000100000000 1 1 0
1  1 0 0.000000000000000 4.000000000000000
0

0101000
+30 5 -30 7 *
Ve
0.000000100000000
25.000000000000000 15.000000000000000 0.000000000000000
0 0

0101101
*
Ed
 0.000000100000000 1 1 0
1  2 0 0.000000000000000 4.000000000000000
0

0101000
+28 5 -28 7 *
Ed
 0.000000100000000 1 1 0
1  3 0 0.000000000000000 50.000000000000000
2  1 2 8 0.000000000000000 50.000000000000000
0

0101000
+30 0 -28 0 *
Wi

0101100
+29 0 -27 0 -26 5 +26 7 *
Fa
0  0.000000100000000 1 0

0101000
+25 0 *
Ve
0.000000100000000
25.000000000000000 -15.000000000000000 0.000000000000000
0 0

0101101
*
Ed
 0.000000100000000 1 1 0
1  4 0 0.000000000000000 4.000000000000000
0

0101000
+23 5 -23 7 *
Ed
 0.000000100000000 1 1 0
1  5 0 0.000000000000000 30.000000000000000
2  2 2 8 0.000000000000000 30.000000000000000
0

0101000
+28 0 -23 0 *
Wi

0101100
+27 0 -22 0 -21 5 +21 7 *
Fa
0  0.000000100000000 3 0

0101000
+20 0 *
Ve
0.000000100000000
-25.000000000000000 -15.000000000000000 0.000000000000000
0 0

0101101
*
Ed
 0.000000100000000 1 1 0
1  6 0 0.000000000000000 4.000000000000000
0

0101000
+18 5 -18 7 *
Ed
 0.000000100000000 1 1 0
1  7 0 0.000000000000000 50.000000000000000
2  3 2 8 0.000000000000000 50.000000000000000
0

0101000
+23 0 -18 0 *
Wi

0101100
+22 0 -17 0 -16 5 +16 7 *
Fa
0  0.000000100000000 4 0

0101000
+15 0 *
Ed
 0.000000100000000 1 1 0
1  8 0 0.000000000000000 30.000000000000000
2  4 2 8 0.000000000000000 30.000000000000000
0

0101000
+18 0 -30 0 *
Wi

0101100
+17 0 -29 0 -13 5 +13 7 *
Fa
0  0.000000100000000 5 0

0101000
+12 0 *
Ve
0.000000100000000
-18.000000000000000 10.800000000000001 0.000000000000000
0 0

0101101
*
Ed
 0.000000100000000 1 1 0
1  9 0 0.000000000000000 4.000000000000000
3  5 6CN 6 0 0.000000000000000 4.000000000000000
0

0101000
+10 5 -10 7 *
Ed
 0.000000100000000 1 1 0
1  10 0 0.000000000000000 6.283185307179586
2  7 6 9 0.000000000000000 6.283185307179586
2  8 6 10 0.000000000000000 6.283185307179586
2  9 2 8 0.000000000000000 6.283185307179586
0

0101000
+10 0 -10 0 *
Wi

0101100
+9 0 -9 0 -8 5 +8 7 *
Fa
0  0.000000100000000 6 0

0101000
+7 0 *
Wi

0101100
+26 12 +21 12 +16 12 +13 12 *
Wi

0101100
+8 12 *
Fa
0  0.000000100000000 2 0

0111000
+5 0 +4 0 *
Sh

0101100
+24 0 +19 0 +14 0 +11 0 +6 0 +3 11 -3 13 *
So

1100000
+2 0 *

+1 1 