
CASCADE Topology V1, (c) Matra-Datavision
Locations 39
1
1.000000000000000 0.000000000000000 0.000000000000000 0.000000000000000 
0.000000000000000 1.000000000000000 0.000000000000000 0.000000000000000 
0.000000000000000 0.000000000000000 1.000000000000000 0.000000000000000 
1
1.000000000000000 0.000000000000000 0.000000000000000 0.000000000000000 
0.000000000000000 1.000000000000000 0.000000000000000 0.000000000000000 
0.000000000000000 0.000000000000000 1.000000000000000 0.000000000000000 
1
1.000000000000000 0.000000000000000 0.000000000000000 0.000000000000000 
0.000000000000000 1.000000000000000 0.000000000000000 0.000000000000000 
0.000000000000000 0.000000000000000 1.000000000000000 0.000000000000000 
1
1.000000000000000 0.000000000000000 0.000000000000000 0.000000000000000 
0.000000000000000 1.000000000000000 0.000000000000000 0.000000000000000 
0.000000000000000 0.000000000000000 1.000000000000000 0.000000000000000 
2  2 1 3 -1 4 1 0
2  4 -1 3 1 2 -1 0
1
1.000000000000000 0.000000000000000 0.000000000000000 0.000000000000000 
0.000000000000000 1.000000000000000 0.000000000000000 0.000000000000000 
0.000000000000000 0.000000000000000 1.000000000000000 0.000000000000000 
1
1.000000000000000 0.000000000000000 0.000000000000000 0.000000000000000 
0.000000000000000 1.000000000000000 0.000000000000000 0.000000000000000 
0.000000000000000 0.000000000000000 1.000000000000000 0.000000000000000 
1
1.000000000000000 0.000000000000000 0.000000000000000 0.000000000000000 
0.000000000000000 1.000000000000000 0.000000000000000 0.000000000000000 
0.000000000000000 0.000000000000000 1.000000000000000 0.000000000000000 
2  7 1 8 1 9 -1 2 1 3 -1 4 1 0
2  8 -1 7 -1 0
2  4 -1 3 1 2 -1 9 1 8 -1 7 -1 0
1
1.000000000000000 0.000000000000000 0.000000000000000 0.000000000000000 
0.000000000000000 1.000000000000000 0.000000000000000 0.000000000000000 
0.000000000000000 0.000000000000000 1.000000000000000 4.000000000000000 
2  7 1 8 1 9 -1 13 1 2 1 3 -1 4 1 0
2  4 -1 3 1 2 -1 13 -1 9 1 8 -1 7 -1 0
2  9 -1 2 1 3 -1 4 1 0
2  4 -1 3 1 2 -1 9 1 0
2  7 1 8 1 0
2  9 1 8 -1 7 -1 0
2  13 -1 9 1 8 -1 7 -1 0
2  9 -1 13 1 2 1 3 -1 4 1 0
2  9 -1 13 1 2 1 3 -1 0
2  4 -1 0
2  7 1 8 1 9 -1 13 1 2 1 3 -1 0
1
1.000000000000000 0.000000000000000 0.000000000000000 0.000000000000000 
0.000000000000000 1.000000000000000 0.000000000000000 0.000000000000000 
0.000000000000000 0.000000000000000 1.000000000000000 0.000000000000000 
1
1.000000000000000 0.000000000000000 0.000000000000000 0.000000000000000 
0.000000000000000 1.000000000000000 0.000000000000000 0.000000000000000 
0.000000000000000 0.000000000000000 1.000000000000000 4.000000000000000 
2  25 1 26 1 3 -1 4 1 0
2  3 1 26 -1 25 -1 0
1
1.000000000000000 0.000000000000000 0.000000000000000 -0.000000000000000 
0.000000000000000 1.000000000000000 0.000000000000000 -0.000000000000000 
0.000000000000000 0.000000000000000 1.000000000000000 -1.960000000000000 
2  29 -1 3 1 26 -1 25 -1 0
2  26 -1 25 -1 0
2  9 -1 13 1 2 1 26 -1 25 -1 0
2  4 -1 3 1 26 -1 25 -1 0
2  7 1 8 1 9 -1 0
2  7 1 8 1 9 -1 13 1 0
2  25 1 26 1 3 -1 29 1 4 1 0
2  4 -1 29 -1 3 1 26 -1 25 -1 0
2  3 -1 29 1 4 1 0
2  4 -1 29 -1 3 1 0
Curve2ds 101
1 25.00000000000000000 15.00000000000000000 -1.00000000000000000 0.00000000000000000 
1 0.00000000000000000 0.00000000000000000 0.00000000000000000 1.00000000000000000 
1 4.19999999999999929 0.00000000000000000 0.00000000000000000 -1.00000000000000000 
1 0.00000000000000000 0.00000000000000000 0.00000000000000000 1.00000000000000000 
1 45.79999999999999716 0.00000000000000000 0.00000000000000000 -1.00000000000000000 
1 -3.14159265358979312 0.00000000000000000 1.00000000000000000 0.00000000000000000 
2 20.80000000000000071 10.80000000000000071 0.00000000000000000 -1.00000000000000000 -1.00000000000000000 -0.00000000000000000 4.19999999999999929
1 -3.14159265358979223 0.00000000000000000 1.00000000000000000 0.00000000000000000 
2 -20.80000000000000071 10.80000000000000071 0.00000000000000000 -1.00000000000000000 1.00000000000000000 0.00000000000000000 4.19999999999999929
1 25.00000000000000000 -15.00000000000000000 0.00000000000000000 1.00000000000000000 
1 -25.00000000000000000 15.00000000000000000 0.00000000000000000 -1.00000000000000000 
1 -4.71238898038468967 0.00000000000000000 1.00000000000000000 0.00000000000000000 
2 20.80000000000000071 -10.80000000000000071 0.00000000000000000 -1.00000000000000000 -1.00000000000000000 -0.00000000000000000 4.19999999999999929
1 -4.71238898038468967 0.00000000000000000 1.00000000000000000 0.00000000000000000 
2 -20.80000000000000071 -10.80000000000000071 0.00000000000000000 -1.00000000000000000 1.00000000000000000 0.00000000000000000 4.19999999999999929
1 -25.00000000000000000 -15.00000000000000000 1.00000000000000000 0.00000000000000000 
1 0.00000000000000000 0.00000000000000000 1.00000000000000000 0.00000000000000000 
1 0.00000000000000000 -4.00000000000000000 1.00000000000000000 0.00000000000000000 
2 20.80000000000000071 10.80000000000000071 -1.00000000000000000 0.00000000000000000 0.00000000000000000 1.00000000000000000 2.80000000000000071
1 1.57079632679489656 0.00000000000000000 0.00000000000000000 1.00000000000000000 
1 25.80000000000000071 0.00000000000000000 0.00000000000000000 -1.00000000000000000 
1 -3.14159265358979312 4.00000000000000000 1.00000000000000000 0.00000000000000000 
2 20.80000000000000071 10.80000000000000071 0.00000000000000000 -1.00000000000000000 -1.00000000000000000 -0.00000000000000000 4.19999999999999929
1 1.57079632679489656 0.00000000000000000 0.00000000000000000 1.00000000000000000 
1 4.19999999999999929 0.00000000000000000 0.00000000000000000 -1.00000000000000000 
1 -3.14159265358979223 4.00000000000000000 1.00000000000000000 0.00000000000000000 
2 -20.80000000000000071 10.80000000000000071 0.00000000000000000 -1.00000000000000000 1.00000000000000000 0.00000000000000000 4.19999999999999929
1 -4.71238898038468967 4.00000000000000000 1.00000000000000000 0.00000000000000000 
2 20.80000000000000071 -10.80000000000000071 0.00000000000000000 -1.00000000000000000 -1.00000000000000000 -0.00000000000000000 4.19999999999999929
1 -4.71238898038468967 4.00000000000000000 1.00000000000000000 0.00000000000000000 
2 -20.80000000000000071 -10.80000000000000071 0.00000000000000000 -1.00000000000000000 1.00000000000000000 0.00000000000000000 4.19999999999999929
1 0.00000000000000000 0.00000000000000000 1.00000000000000000 0.00000000000000000 
1 0.00000000000000000 -1.95999999999999974 1.00000000000000000 0.00000000000000000 
2 21.00465542549213183 11.02690969482683592 -1.00000000000000000 0.00000000000000000 0.00000000000000000 1.00000000000000000 4.19999999999999929
2 20.80000000000000071 10.80000000000000071 -1.00000000000000000 0.00000000000000000 0.00000000000000000 1.00000000000000000 4.19999999999999929
1 -0.16744807921969862 0.00000000000000000 1.00000000000000000 0.00000000000000000 
2 19.39999999999992042 2.51748830366055287 0.00000000000000000 1.00000000000000000 1.00000000000000000 -0.00000000000000000 4.19999999999999929
1 -4.87983705960438918 0.00000000000000000 1.00000000000000000 0.00000000000000000 
2 12.51748830366055465 9.39999999999991687 0.00000000000000000 1.00000000000000000 -1.00000000000000000 0.00000000000000000 4.19999999999999929
1 23.80465542549205082 -13.37309030517316266 0.00000000000000000 1.00000000000000000 
1 0.00000000000000000 0.00000000000000000 1.00000000000000000 0.00000000000000000 
1 0.00000000000000000 -1.95999999999999996 1.00000000000000000 0.00000000000000000 
1 23.59999999999991971 -13.59999999999999787 0.00000000000000000 1.00000000000000000 
1 17.87416025699235078 13.82690969482675136 -1.00000000000000000 0.00000000000000000 
1 0.00000000000000000 0.00000000000000000 1.00000000000000000 0.00000000000000000 
1 0.00000000000000000 -1.95999999999999996 1.00000000000000000 0.00000000000000000 
1 17.66950483150021967 13.59999999999991616 -1.00000000000000000 0.00000000000000000 
1 -3.14159265358979223 0.00000000000000000 1.00000000000000000 0.00000000000000000 
2 19.39999999999991687 -9.39999999999999858 0.00000000000000000 1.00000000000000000 -1.00000000000000000 0.00000000000000000 4.19999999999999929
1 0.00000000000000000 0.00000000000000000 1.00000000000000000 0.00000000000000000 
2 -19.40000000000000213 9.39999999999991687 0.00000000000000000 1.00000000000000000 -1.00000000000000000 0.00000000000000000 4.19999999999999929
1 -23.39534457450787031 -13.37309030517316266 1.00000000000000000 0.00000000000000000 
1 0.00000000000000000 0.00000000000000000 1.00000000000000000 0.00000000000000000 
1 0.00000000000000000 -1.95999999999999996 1.00000000000000000 0.00000000000000000 
1 -23.60000000000000142 -13.59999999999999787 1.00000000000000000 0.00000000000000000 
1 -23.39534457450787031 13.82690969482675136 0.00000000000000000 -1.00000000000000000 
1 0.00000000000000000 0.00000000000000000 1.00000000000000000 0.00000000000000000 
1 0.00000000000000000 -1.95999999999999996 1.00000000000000000 0.00000000000000000 
1 -23.60000000000000142 13.59999999999991616 0.00000000000000000 -1.00000000000000000 
1 -1.57079632679489656 0.00000000000000000 1.00000000000000000 0.00000000000000000 
2 -19.40000000000000213 -9.39999999999999858 0.00000000000000000 1.00000000000000000 -1.00000000000000000 0.00000000000000000 4.19999999999999929
1 0.00000000000000000 0.00000000000000000 0.00000000000000000 1.00000000000000000 
1 4.19999999999999929 0.00000000000000000 0.00000000000000000 -1.00000000000000000 
1 0.00000000000000000 0.00000000000000000 0.00000000000000000 1.00000000000000000 
1 25.80000000000000071 0.00000000000000000 0.00000000000000000 -1.00000000000000000 
1 1.57079632679489656 0.00000000000000000 0.00000000000000000 1.00000000000000000 
1 45.79999999999999716 0.00000000000000000 0.00000000000000000 -1.00000000000000000 
1 1.57079632679489656 0.00000000000000000 0.00000000000000000 1.00000000000000000 
1 4.19999999999999929 0.00000000000000000 0.00000000000000000 -1.00000000000000000 
1 0.00000000000000000 0.00000000000000000 0.00000000000000000 -1.00000000000000000 
1 6.28318530717958623 0.00000000000000000 0.00000000000000000 -1.00000000000000000 
1 0.00000000000000000 0.00000000000000000 0.00000000000000000 1.00000000000000000 
1 4.87983705960438918 0.00000000000000000 -0.00000000000000000 -1.00000000000000000 
1 0.00000000000000000 0.00000000000000000 0.00000000000000000 1.00000000000000000 
1 6.11573722795988672 0.00000000000000000 -0.00000000000000000 -1.00000000000000000 
1 1.40334824757519794 0.00000000000000000 0.00000000000000000 1.00000000000000000 
1 16.11748830366055074 0.00000000000000000 -0.00000000000000000 -1.00000000000000000 
1 -0.16744807921969862 1.95999999999999996 1.00000000000000000 0.00000000000000000 
2 19.60465542549205153 2.74439799848738808 0.00000000000000000 1.00000000000000000 1.00000000000000000 -0.00000000000000000 4.19999999999999929
1 1.40334824757519727 0.00000000000000000 0.00000000000000000 1.00000000000000000 
1 5.15201652783966502 0.00000000000000000 -0.00000000000000000 -1.00000000000000000 
1 -4.87983705960438918 1.95999999999999996 1.00000000000000000 0.00000000000000000 
2 12.72214372915268576 9.62690969482675207 0.00000000000000000 1.00000000000000000 -1.00000000000000000 0.00000000000000000 4.19999999999999929
1 1.57079632679489656 0.00000000000000000 0.00000000000000000 1.00000000000000000 
1 4.19999999999999929 0.00000000000000000 -0.00000000000000000 -1.00000000000000000 
1 0.00000000000000000 0.00000000000000000 0.00000000000000000 1.00000000000000000 
1 37.06950483150022535 0.00000000000000000 -0.00000000000000000 -1.00000000000000000 
1 0.00000000000000000 0.00000000000000000 0.00000000000000000 1.00000000000000000 
1 42.99999999999991473 0.00000000000000000 0.00000000000000000 -1.00000000000000000 
1 -3.14159265358979223 1.95999999999999996 1.00000000000000000 0.00000000000000000 
2 19.60465542549204798 -9.17309030517316337 0.00000000000000000 1.00000000000000000 -1.00000000000000000 0.00000000000000000 4.19999999999999929
1 1.57079632679489656 0.00000000000000000 0.00000000000000000 1.00000000000000000 
1 4.19999999999999929 0.00000000000000000 0.00000000000000000 -1.00000000000000000 
1 0.00000000000000000 1.95999999999999996 1.00000000000000000 0.00000000000000000 
2 -19.19534457450787102 9.62690969482675207 0.00000000000000000 1.00000000000000000 -1.00000000000000000 0.00000000000000000 4.19999999999999929
1 1.57079632679489656 0.00000000000000000 0.00000000000000000 1.00000000000000000 
1 4.19999999999999929 0.00000000000000000 0.00000000000000000 -1.00000000000000000 
1 0.00000000000000000 0.00000000000000000 0.00000000000000000 1.00000000000000000 
1 22.99999999999991473 0.00000000000000000 0.00000000000000000 -1.00000000000000000 
1 -1.57079632679489656 1.95999999999999996 1.00000000000000000 0.00000000000000000 
2 -19.19534457450787102 -9.17309030517316337 0.00000000000000000 1.00000000000000000 -1.00000000000000000 0.00000000000000000 4.19999999999999929
Curves 47
1 -25.00000000000000000 15.00000000000000000 0.00000000000000000 1.00000000000000000 0.00000000000000000 0.00000000000000000 
1 -20.80000000000000071 15.00000000000000000 0.00000000000000000 0.00000000000000000 0.00000000000000000 1.00000000000000000 
1 20.80000000000000071 15.00000000000000000 0.00000000000000000 0.00000000000000000 0.00000000000000000 1.00000000000000000 
8 3.14159265358979312 4.71238898038468967
2 -20.80000000000000071 10.80000000000000071 0.00000000000000000 0.00000000000000000 0.00000000000000000 1.00000000000000000 0.00000000000000000 -1.00000000000000000 0.00000000000000000 1.00000000000000000 0.00000000000000000 -0.00000000000000000 4.19999999999999929
8 3.14159265358979223 4.71238898038468967
2 20.80000000000000071 10.80000000000000071 0.00000000000000000 -0.00000000000000000 -0.00000000000000000 -1.00000000000000000 0.00000000000000000 -1.00000000000000000 0.00000000000000000 -1.00000000000000000 0.00000000000000000 0.00000000000000000 4.19999999999999929
1 -25.00000000000000000 -15.00000000000000000 0.00000000000000000 0.00000000000000000 1.00000000000000000 0.00000000000000000 
1 25.00000000000000000 15.00000000000000000 0.00000000000000000 0.00000000000000000 -1.00000000000000000 0.00000000000000000 
8 4.71238898038468967 6.28318530717958712
2 -20.80000000000000071 -10.80000000000000071 0.00000000000000000 0.00000000000000000 0.00000000000000000 1.00000000000000000 0.00000000000000000 -1.00000000000000000 0.00000000000000000 1.00000000000000000 0.00000000000000000 -0.00000000000000000 4.19999999999999929
8 4.71238898038468967 6.28318530717958623
2 20.80000000000000071 -10.80000000000000071 0.00000000000000000 -0.00000000000000000 -0.00000000000000000 -1.00000000000000000 0.00000000000000000 -1.00000000000000000 0.00000000000000000 -1.00000000000000000 0.00000000000000000 0.00000000000000000 4.19999999999999929
1 25.00000000000000000 -15.00000000000000000 0.00000000000000000 -1.00000000000000000 0.00000000000000000 0.00000000000000000 
2 -20.80000000000000071 10.80000000000000071 0.00000000000000000 0.00000000000000000 0.00000000000000000 1.00000000000000000 1.00000000000000000 0.00000000000000000 0.00000000000000000 0.00000000000000000 1.00000000000000000 0.00000000000000000 2.79999999999999982
1 -25.00000000000000000 10.80000000000000071 0.00000000000000000 0.00000000000000000 0.00000000000000000 1.00000000000000000 
8 3.14159265358979312 4.71238898038468967
2 -20.80000000000000071 10.80000000000000071 4.00000000000000000 0.00000000000000000 0.00000000000000000 1.00000000000000000 0.00000000000000000 -1.00000000000000000 0.00000000000000000 1.00000000000000000 0.00000000000000000 -0.00000000000000000 4.19999999999999929
1 25.00000000000000000 10.80000000000000071 0.00000000000000000 0.00000000000000000 0.00000000000000000 1.00000000000000000 
8 3.14159265358979223 4.71238898038468967
2 20.80000000000000071 10.80000000000000071 4.00000000000000000 -0.00000000000000000 -0.00000000000000000 -1.00000000000000000 0.00000000000000000 -1.00000000000000000 0.00000000000000000 -1.00000000000000000 0.00000000000000000 0.00000000000000000 4.19999999999999929
8 4.71238898038468967 6.28318530717958712
2 -20.80000000000000071 -10.80000000000000071 4.00000000000000000 0.00000000000000000 0.00000000000000000 1.00000000000000000 0.00000000000000000 -1.00000000000000000 0.00000000000000000 1.00000000000000000 0.00000000000000000 -0.00000000000000000 4.19999999999999929
8 4.71238898038468967 6.28318530717958623
2 20.80000000000000071 -10.80000000000000071 4.00000000000000000 -0.00000000000000000 -0.00000000000000000 -1.00000000000000000 0.00000000000000000 -1.00000000000000000 0.00000000000000000 -1.00000000000000000 0.00000000000000000 0.00000000000000000 4.19999999999999929
2 -20.80000000000000071 10.80000000000000071 0.00000000000000000 0.00000000000000000 0.00000000000000000 1.00000000000000000 1.00000000000000000 0.00000000000000000 0.00000000000000000 0.00000000000000000 1.00000000000000000 0.00000000000000000 4.19999999999999929
8 0.16744807921969862 1.57079632679489656
2 -19.39999999999992042 2.51748830366055287 4.00000000000000000 0.00000000000000000 0.00000000000000000 1.00000000000000000 0.00000000000000000 1.00000000000000000 -0.00000000000000000 -1.00000000000000000 0.00000000000000000 0.00000000000000000 4.19999999999999929
8 4.87983705960438918 6.28318530717958623
2 -12.51748830366055465 9.39999999999991687 4.00000000000000000 -0.00000000000000000 -0.00000000000000000 -1.00000000000000000 0.00000000000000000 1.00000000000000000 -0.00000000000000000 1.00000000000000000 -0.00000000000000000 0.00000000000000000 4.19999999999999929
1 -23.59999999999991971 -13.59999999999999787 0.00000000000000000 0.00000000000000000 1.00000000000000000 0.00000000000000000 
1 -17.66950483150021967 13.59999999999991616 0.00000000000000000 1.00000000000000000 0.00000000000000000 0.00000000000000000 
8 3.14159265358979223 4.71238898038468967
2 -19.39999999999991687 -9.39999999999999858 4.00000000000000000 -0.00000000000000000 -0.00000000000000000 -1.00000000000000000 0.00000000000000000 1.00000000000000000 -0.00000000000000000 1.00000000000000000 -0.00000000000000000 0.00000000000000000 4.19999999999999929
8 0.00000000000000085 1.57079632679489656
2 19.40000000000000213 9.39999999999991687 4.00000000000000000 -0.00000000000000000 -0.00000000000000000 -1.00000000000000000 0.00000000000000000 1.00000000000000000 -0.00000000000000000 1.00000000000000000 -0.00000000000000000 0.00000000000000000 4.19999999999999929
1 23.60000000000000142 -13.59999999999999787 0.00000000000000000 -1.00000000000000000 0.00000000000000000 0.00000000000000000 
1 23.60000000000000142 13.59999999999991616 0.00000000000000000 0.00000000000000000 -1.00000000000000000 0.00000000000000000 
8 1.57079632679489656 3.14159265358979312
2 19.40000000000000213 -9.39999999999999858 4.00000000000000000 -0.00000000000000000 -0.00000000000000000 -1.00000000000000000 0.00000000000000000 1.00000000000000000 -0.00000000000000000 1.00000000000000000 -0.00000000000000000 0.00000000000000000 4.19999999999999929
1 -25.00000000000000000 -10.80000000000000071 0.00000000000000000 0.00000000000000000 0.00000000000000000 1.00000000000000000 
1 25.00000000000000000 -10.80000000000000071 0.00000000000000000 0.00000000000000000 0.00000000000000000 1.00000000000000000 
1 -20.80000000000000071 -15.00000000000000000 0.00000000000000000 0.00000000000000000 0.00000000000000000 1.00000000000000000 
1 20.80000000000000071 -15.00000000000000000 0.00000000000000000 0.00000000000000000 0.00000000000000000 1.00000000000000000 
1 -18.00000000000000000 10.80000000000000071 0.00000000000000000 0.00000000000000000 0.00000000000000000 1.00000000000000000 
1 -20.09999999999995879 6.65874415183027679 4.00000000000000000 -0.00000000000000000 -0.00000000000000000 -1.00000000000000000 
1 -16.65874415183027679 10.09999999999995701 4.00000000000000000 -0.00000000000000000 -0.00000000000000000 -1.00000000000000000 
1 -23.59999999999991971 2.51748830366055287 4.00000000000000000 -0.00000000000000000 -0.00000000000000000 -1.00000000000000000 
8 0.16744807921969862 1.57079632679489656
2 -19.39999999999992042 2.51748830366055287 2.04000000000000004 0.00000000000000000 0.00000000000000000 1.00000000000000000 0.00000000000000000 1.00000000000000000 -0.00000000000000000 -1.00000000000000000 0.00000000000000000 0.00000000000000000 4.19999999999999929
1 -12.51748830366055465 13.59999999999991616 4.00000000000000000 -0.00000000000000000 -0.00000000000000000 -1.00000000000000000 
8 4.87983705960438918 6.28318530717958623
2 -12.51748830366055465 9.39999999999991687 2.04000000000000004 -0.00000000000000000 -0.00000000000000000 -1.00000000000000000 0.00000000000000000 1.00000000000000000 -0.00000000000000000 1.00000000000000000 -0.00000000000000000 0.00000000000000000 4.19999999999999929
1 -23.59999999999991616 -9.39999999999999858 4.00000000000000000 -0.00000000000000000 -0.00000000000000000 -1.00000000000000000 
1 19.40000000000000213 13.59999999999991616 4.00000000000000000 -0.00000000000000000 -0.00000000000000000 -1.00000000000000000 
1 -19.39999999999991687 -13.59999999999999787 4.00000000000000000 -0.00000000000000000 -0.00000000000000000 -1.00000000000000000 
8 3.14159265358979223 4.71238898038468967
2 -19.39999999999991687 -9.39999999999999858 2.04000000000000004 -0.00000000000000000 -0.00000000000000000 -1.00000000000000000 0.00000000000000000 1.00000000000000000 -0.00000000000000000 1.00000000000000000 -0.00000000000000000 0.00000000000000000 4.19999999999999929
1 23.60000000000000142 9.39999999999991687 4.00000000000000000 -0.00000000000000000 -0.00000000000000000 -1.00000000000000000 
8 0.00000000000000085 1.57079632679489656
2 19.40000000000000213 9.39999999999991687 2.04000000000000004 -0.00000000000000000 -0.00000000000000000 -1.00000000000000000 0.00000000000000000 1.00000000000000000 -0.00000000000000000 1.00000000000000000 -0.00000000000000000 0.00000000000000000 4.19999999999999929
1 19.40000000000000213 -13.59999999999999787 4.00000000000000000 -0.00000000000000000 -0.00000000000000000 -1.00000000000000000 
1 23.60000000000000142 -9.39999999999999858 4.00000000000000000 -0.00000000000000000 -0.00000000000000000 -1.00000000000000000 
8 1.57079632679489656 3.14159265358979312
2 19.40000000000000213 -9.39999999999999858 2.04000000000000004 -0.00000000000000000 -0.00000000000000000 -1.00000000000000000 0.00000000000000000 1.00000000000000000 -0.00000000000000000 1.00000000000000000 -0.00000000000000000 0.00000000000000000 4.19999999999999929
Polygon3D 0
PolygonOnTriangulations 0
Surfaces 21
1 -25.00000000000000000 15.00000000000000000 0.00000000000000000 0.00000000000000000 1.00000000000000000 0.00000000000000000 1.00000000000000000 0.00000000000000000 0.00000000000000000 0.00000000000000000 0.00000000000000000 -1.00000000000000000 
1 0.00000000000000000 0.00000000000000000 0.00000000000000000 -0.00000000000000000 -0.00000000000000000 -1.00000000000000000 -1.00000000000000000 0.00000000000000000 0.00000000000000000 0.00000000000000000 1.00000000000000000 -0.00000000000000000 
2 -20.80000000000000071 10.80000000000000071 0.00000000000000000 0.00000000000000000 0.00000000000000000 1.00000000000000000 -0.00000000000000000 1.00000000000000000 0.00000000000000000 -1.00000000000000000 -0.00000000000000000 0.00000000000000000 4.19999999999999929
2 20.80000000000000071 10.80000000000000071 0.00000000000000000 0.00000000000000000 0.00000000000000000 1.00000000000000000 -0.00000000000000000 1.00000000000000000 0.00000000000000000 1.00000000000000000 0.00000000000000000 -0.00000000000000000 4.19999999999999929
2 -20.80000000000000071 -10.80000000000000071 0.00000000000000000 0.00000000000000000 0.00000000000000000 1.00000000000000000 -1.00000000000000000 0.00000000000000000 0.00000000000000000 0.00000000000000000 -1.00000000000000000 0.00000000000000000 4.19999999999999929
2 20.80000000000000071 -10.80000000000000071 0.00000000000000000 0.00000000000000000 0.00000000000000000 1.00000000000000000 1.00000000000000000 0.00000000000000000 -0.00000000000000000 0.00000000000000000 -1.00000000000000000 -0.00000000000000000 4.19999999999999929
2 -20.80000000000000071 10.80000000000000071 0.00000000000000000 -0.00000000000000000 -0.00000000000000000 -1.00000000000000000 1.00000000000000000 0.00000000000000000 0.00000000000000000 0.00000000000000000 1.00000000000000000 0.00000000000000000 2.79999999999999982
1 -25.00000000000000000 -15.00000000000000000 0.00000000000000000 -1.00000000000000000 0.00000000000000000 0.00000000000000000 0.00000000000000000 1.00000000000000000 0.00000000000000000 0.00000000000000000 0.00000000000000000 -1.00000000000000000 
1 25.00000000000000000 15.00000000000000000 0.00000000000000000 1.00000000000000000 0.00000000000000000 -0.00000000000000000 0.00000000000000000 -1.00000000000000000 0.00000000000000000 0.00000000000000000 -0.00000000000000000 -1.00000000000000000 
2 -20.80000000000000071 10.80000000000000071 4.00000000000000000 0.00000000000000000 0.00000000000000000 1.00000000000000000 1.00000000000000000 0.00000000000000000 0.00000000000000000 0.00000000000000000 1.00000000000000000 0.00000000000000000 4.19999999999999929
1 0.20465542549213031 -0.22690969482683501 4.00000000000000000 -0.00000000000000000 -0.00000000000000000 -1.00000000000000000 -1.00000000000000000 0.00000000000000000 0.00000000000000000 0.00000000000000000 1.00000000000000000 -0.00000000000000000 
2 -19.39999999999992042 2.51748830366055287 4.00000000000000000 -0.00000000000000000 -0.00000000000000000 -1.00000000000000000 -0.16666666666667582 0.98601329718326780 0.00000000000000000 -0.98601329718326780 -0.16666666666667582 0.00000000000000000 4.19999999999999929
2 -12.51748830366055465 9.39999999999991687 4.00000000000000000 -0.00000000000000000 -0.00000000000000000 -1.00000000000000000 -0.98601329718326780 0.16666666666667632 0.00000000000000000 0.16666666666667632 0.98601329718326780 -0.00000000000000000 4.19999999999999929
1 -23.59999999999991971 -13.59999999999999787 4.00000000000000000 1.00000000000000000 0.00000000000000000 0.00000000000000000 -0.00000000000000000 1.00000000000000000 0.00000000000000000 0.00000000000000000 -0.00000000000000000 1.00000000000000000 
1 -17.66950483150021967 13.59999999999991616 4.00000000000000000 0.00000000000000000 -1.00000000000000000 0.00000000000000000 1.00000000000000000 0.00000000000000000 0.00000000000000000 -0.00000000000000000 0.00000000000000000 1.00000000000000000 
2 -19.39999999999991687 -9.39999999999999858 4.00000000000000000 -0.00000000000000000 -0.00000000000000000 -1.00000000000000000 -0.00000000000000000 -1.00000000000000000 0.00000000000000000 -1.00000000000000000 0.00000000000000000 0.00000000000000000 4.19999999999999929
2 19.40000000000000213 9.39999999999991687 4.00000000000000000 -0.00000000000000000 -0.00000000000000000 -1.00000000000000000 0.00000000000000000 1.00000000000000000 -0.00000000000000000 1.00000000000000000 -0.00000000000000000 0.00000000000000000 4.19999999999999929
1 23.60000000000000142 -13.59999999999999787 4.00000000000000000 0.00000000000000000 1.00000000000000000 -0.00000000000000000 -1.00000000000000000 0.00000000000000000 0.00000000000000000 0.00000000000000000 0.00000000000000000 1.00000000000000000 
1 23.60000000000000142 13.59999999999991616 4.00000000000000000 -1.00000000000000000 0.00000000000000000 0.00000000000000000 0.00000000000000000 -1.00000000000000000 0.00000000000000000 0.00000000000000000 0.00000000000000000 1.00000000000000000 
2 19.40000000000000213 -9.39999999999999858 4.00000000000000000 -0.00000000000000000 -0.00000000000000000 -1.00000000000000000 1.00000000000000000 -0.00000000000000000 0.00000000000000000 -0.00000000000000000 -1.00000000000000000 0.00000000000000000 4.19999999999999929
1 25.00000000000000000 -15.00000000000000000 0.00000000000000000 0.00000000000000000 -1.00000000000000000 0.00000000000000000 -1.00000000000000000 0.00000000000000000 0.00000000000000000 -0.00000000000000000 -0.00000000000000000 -1.00000000000000000 
Triangulations 0

TShapes 142
Ve
0.000000100000000
-20.800000000000001 15.000000000000000 0.000000000000000
0 0

0101101
*
Ve
0.000000100000000
20.800000000000001 15.000000000000000 0.000000000000000
0 0

0101101
*
Ed
 0.000000100000000 1 1 0
1  1 0 4.199999999999999 45.799999999999997
2  1 2 11 4.199999999999999 45.799999999999997
0

0101000
+142 12 -141 12 *
Ve
0.000000100000000
-20.800000000000001 15.000000000000000 4.000000000000000
0 0

0101101
*
Ed
 0.000000100000000 1 1 0
1  2 0 -0.000000000000000 4.000000000000000
2  2 3 0 -0.000000000000000 4.000000000000000
2  3 1 5 -0.000000000000000 4.000000000000000
4 G1 3 0 1 5
0

0101000
+142 0 -139 0 *
Ve
0.000000100000000
20.800000000000001 15.000000000000000 4.000000000000000
0 0

0101101
*
Ed
 0.000000100000000 1 1 0
1  3 0 -0.000000000000000 4.000000000000000
2  4 4 0 -0.000000000000000 4.000000000000000
2  5 1 5 -0.000000000000000 4.000000000000000
4 G1 4 0 1 5
0

0101000
+141 0 -137 0 *
Ed
 0.000000100000000 1 1 0
1  1 0 4.199999999999999 45.799999999999997
2  1 2 11 4.199999999999999 45.799999999999997
0

0101000
+139 15 -137 15 *
Wi

0101100
-140 10 +138 0 -136 0 +135 14 *
Fa
0  0.000000100000000 1 0

0101000
+134 6 *
Ve
0.000000100000000
-25.000000000000000 10.800000000000001 0.000000000000000
0 0

0101101
*
Ed
 0.000000100000000 1 1 0
1  4 0 3.141592653589793 4.712388980384690
2  6 3 0 3.141592653589793 4.712388980384690
2  7 2 16 3.141592653589793 4.712388980384690
0

0101000
+142 0 -132 0 *
Ve
0.000000100000000
25.000000000000000 10.800000000000001 0.000000000000000
0 0

0101101
*
Ed
 0.000000100000000 1 1 0
1  5 0 3.141592653589792 4.712388980384690
2  8 4 0 3.141592653589792 4.712388980384690
2  9 2 16 3.141592653589792 4.712388980384690
0

0101000
+141 0 -130 0 *
Ve
0.000000100000000
-25.000000000000000 -10.800000000000001 0.000000000000000
0 0

0101101
*
Ed
 0.000000100000000 1 1 0
1  6 0 4.199999999999999 25.800000000000001
2  10 2 11 4.199999999999999 25.800000000000001
0

0101000
+128 12 -132 12 *
Ve
0.000000100000000
25.000000000000000 -10.800000000000001 0.000000000000000
0 0

0101101
*
Ed
 0.000000100000000 1 1 0
1  7 0 4.199999999999999 25.800000000000001
2  11 2 11 4.199999999999999 25.800000000000001
0

0101000
+130 12 -126 12 *
Ve
0.000000100000000
-20.800000000000001 -15.000000000000000 0.000000000000000
0 0

0101101
*
Ed
 0.000000100000000 1 1 0
1  8 0 4.712388980384690 6.283185307179587
2  12 5 0 4.712388980384690 6.283185307179587
2  13 2 16 4.712388980384690 6.283185307179587
0

0101000
+128 0 -124 0 *
Ve
0.000000100000000
20.800000000000001 -15.000000000000000 0.000000000000000
0 0

0101101
*
Ed
 0.000000100000000 1 1 0
1  9 0 4.712388980384690 6.283185307179586
2  14 6 0 4.712388980384690 6.283185307179586
2  15 2 16 4.712388980384690 6.283185307179586
0

0101000
+126 0 -122 0 *
Ed
 0.000000100000000 1 1 0
1  10 0 4.199999999999999 45.799999999999997
2  16 2 11 4.199999999999999 45.799999999999997
0

0101000
+122 12 -124 12 *
Wi

0101100
+140 10 -131 0 +129 0 +127 10 +125 10 -123 0 +121 0 +120 10 *
Ve
0.000000100000000
-18.000000000000000 10.800000000000001 0.000000000000000
0 0

0101101
*
Ed
 0.000000100000000 1 1 0
1  11 0 0.000000000000000 6.283185307179586
2  17 7 19 0.000000000000000 6.283185307179586
2  18 7 20 0.000000000000000 6.283185307179586
2  19 2 11 0.000000000000000 6.283185307179586
0

0101000
+118 0 -118 0 *
Wi

0101100
+117 18 *
Fa
0  0.000000100000000 2 0

0101000
+119 17 +116 0 *
Ve
0.000000100000000
-25.000000000000000 10.800000000000001 4.000000000000000
0 0

0101101
*
Ed
 0.000000100000000 1 1 0
1  12 0 -0.000000000000000 4.000000000000000
2  20 3 0 -0.000000000000000 4.000000000000000
2  21 8 5 -0.000000000000000 4.000000000000000
4 G1 3 0 8 5
0

0101000
+132 0 -114 0 *
Ed
 0.000000100000000 1 1 0
1  13 0 3.141592653589793 4.712388980384690
2  22 3 0 3.141592653589793 4.712388980384690
2  23 2 21 3.141592653589793 4.712388980384690
0

0101000
+139 0 -114 0 *
Wi

0101100
+131 0 -138 0 +113 0 -112 0 *
Fa
0  0.000000000000000 3 0

0101000
+111 0 *
Ve
0.000000100000000
25.000000000000000 10.800000000000001 4.000000000000000
0 0

0101101
*
Ed
 0.000000100000000 1 1 0
1  14 0 -0.000000000000000 4.000000000000000
2  24 4 0 -0.000000000000000 4.000000000000000
2  25 9 5 -0.000000000000000 4.000000000000000
4 G1 4 0 9 5
0

0101000
+130 0 -109 0 *
Ed
 0.000000100000000 1 1 0
1  15 0 3.141592653589792 4.712388980384690
2  26 4 0 3.141592653589792 4.712388980384690
2  27 2 21 3.141592653589792 4.712388980384690
0

0101000
+137 0 -109 0 *
Wi

0101100
+129 0 -136 0 +108 0 -107 0 *
Fa
0  0.000000000000000 4 0

0101000
+106 0 *
Ve
0.000000100000000
-25.000000000000000 -10.800000000000001 4.000000000000000
0 0

0101101
*
Ed
 0.000000100000000 1 1 0
1  6 0 4.199999999999999 25.800000000000001
2  10 2 11 4.199999999999999 25.800000000000001
0

0101000
+104 15 -114 15 *
Ve
0.000000100000000
25.000000000000000 -10.800000000000001 4.000000000000000
0 0

0101101
*
Ed
 0.000000100000000 1 1 0
1  7 0 4.199999999999999 25.800000000000001
2  11 2 11 4.199999999999999 25.800000000000001
0

0101000
+109 15 -102 15 *
Ve
0.000000100000000
-20.800000000000001 -15.000000000000000 4.000000000000000
0 0

0101101
*
Ed
 0.000000100000000 1 1 0
1  16 0 4.712388980384690 6.283185307179587
2  28 5 0 4.712388980384690 6.283185307179587
2  29 2 21 4.712388980384690 6.283185307179587
0

0101000
+104 0 -100 0 *
Ve
0.000000100000000
20.800000000000001 -15.000000000000000 4.000000000000000
0 0

0101101
*
Ed
 0.000000100000000 1 1 0
1  17 0 4.712388980384690 6.283185307179586
2  30 6 0 4.712388980384690 6.283185307179586
2  31 2 21 4.712388980384690 6.283185307179586
0

0101000
+102 0 -98 0 *
Ed
 0.000000100000000 1 1 0
1  10 0 4.199999999999999 45.799999999999997
2  16 2 11 4.199999999999999 45.799999999999997
0

0101000
+98 15 -100 15 *
Wi

0101100
+135 14 -112 0 +107 0 +103 14 +101 14 -99 0 +97 0 +96 14 *
Wi

0101100
+117 24 *
Ve
0.000000100000000
-20.099999999999959 6.658744151830277 4.000000000000000
0 0

0101101
*
Ve
0.000000100000000
-16.658744151830277 10.099999999999957 4.000000000000000
0 0

0101101
*
Ed
 0.000000100000000 1 1 0
1  18 0 4.879837059604389 6.115737227959887
2  32 10 28 4.879837059604389 6.115737227959887
2  33 10 30 4.879837059604389 6.115737227959887
2  34 11 31 4.879837059604389 6.115737227959887
2  35 2 32 4.879837059604389 6.115737227959887
0

0101000
+93 33 -92 33 *
Ve
0.000000100000000
-23.599999999999920 2.517488303660553 4.000000000000000
0 0

0101101
*
Ed
 0.000000100000000 1 1 0
1  19 0 0.167448079219699 1.570796326794897
2  36 12 0 0.167448079219699 1.570796326794897
2  37 2 21 0.167448079219699 1.570796326794897
0

0101000
+93 0 -90 0 *
Ve
0.000000100000000
-12.517488303660556 13.599999999999916 4.000000000000000
0 0

0101101
*
Ed
 0.000000100000000 1 1 0
1  20 0 4.879837059604389 6.283185307179586
2  38 13 0 4.879837059604389 6.283185307179586
2  39 2 21 4.879837059604389 6.283185307179586
0

0101000
+92 0 -88 0 *
Ve
0.000000100000000
-23.599999999999916 -9.399999999999999 4.000000000000000
0 0

0101101
*
Ed
 0.000000100000000 1 1 0
1  21 0 4.199999999999999 16.117488303660551
2  40 11 31 4.199999999999999 16.117488303660551
2  41 14 28 4.199999999999999 16.117488303660551
2  42 14 30 4.199999999999999 16.117488303660551
2  43 2 32 4.199999999999999 16.117488303660551
0

0101000
+86 33 -90 33 *
Ve
0.000000100000000
19.400000000000002 13.599999999999916 4.000000000000000
0 0

0101101
*
Ed
 0.000000100000000 1 1 0
1  22 0 5.152016527839663 37.069504831500225
2  44 11 31 5.152016527839663 37.069504831500225
2  45 15 28 5.152016527839663 37.069504831500225
2  46 15 30 5.152016527839663 37.069504831500225
2  47 2 32 5.152016527839663 37.069504831500225
0

0101000
+88 33 -84 33 *
Ve
0.000000100000000
-19.399999999999917 -13.599999999999998 4.000000000000000
0 0

0101101
*
Ed
 0.000000100000000 1 1 0
1  23 0 3.141592653589792 4.712388980384690
2  48 16 0 3.141592653589792 4.712388980384690
2  49 2 21 3.141592653589792 4.712388980384690
0

0101000
+82 0 -86 0 *
Ve
0.000000100000000
23.600000000000001 9.399999999999917 4.000000000000000
0 0

0101101
*
Ed
 0.000000100000000 1 1 0
1  24 0 0.000000000000001 1.570796326794897
2  50 17 0 0.000000000000001 1.570796326794897
2  51 2 21 0.000000000000001 1.570796326794897
0

0101000
+84 0 -80 0 *
Ve
0.000000100000000
19.400000000000002 -13.599999999999998 4.000000000000000
0 0

0101101
*
Ed
 0.000000100000000 1 1 0
1  25 0 4.199999999999999 42.999999999999915
2  52 11 31 4.199999999999999 42.999999999999915
2  53 18 28 4.199999999999999 42.999999999999915
2  54 18 30 4.199999999999999 42.999999999999915
2  55 2 32 4.199999999999999 42.999999999999915
0

0101000
+78 33 -82 33 *
Ve
0.000000100000000
23.600000000000001 -9.399999999999999 4.000000000000000
0 0

0101101
*
Ed
 0.000000100000000 1 1 0
1  26 0 4.199999999999999 22.999999999999915
2  56 11 31 4.199999999999999 22.999999999999915
2  57 19 28 4.199999999999999 22.999999999999915
2  58 19 30 4.199999999999999 22.999999999999915
2  59 2 32 4.199999999999999 22.999999999999915
0

0101000
+80 33 -76 33 *
Ed
 0.000000100000000 1 1 0
1  27 0 1.570796326794897 3.141592653589793
2  60 20 0 1.570796326794897 3.141592653589793
2  61 2 21 1.570796326794897 3.141592653589793
0

0101000
+76 0 -78 0 *
Wi

0101100
-91 27 +89 0 -87 0 -85 27 -83 27 -81 0 -79 0 -77 27 -75 27 -74 0 
*
Fa
0  0.000000100000000 2 22

0101000
+95 23 +94 0 +73 23 *
Ed
 0.000000100000000 1 1 0
1  28 0 -0.000000000000000 4.000000000000000
2  62 5 0 -0.000000000000000 4.000000000000000
2  63 8 5 -0.000000000000000 4.000000000000000
4 G1 5 0 8 5
0

0101000
+128 0 -104 0 *
Wi

0101100
-127 10 +71 0 -113 0 +103 14 *
Fa
0  0.000000100000000 8 0

0101000
+70 6 *
Ed
 0.000000100000000 1 1 0
1  29 0 -0.000000000000000 4.000000000000000
2  64 6 0 -0.000000000000000 4.000000000000000
2  65 9 5 -0.000000000000000 4.000000000000000
4 G1 6 0 9 5
0

0101000
+126 0 -102 0 *
Wi

0101100
-125 10 +108 0 -68 0 +101 14 *
Fa
0  0.000000100000000 9 0

0101000
+67 6 *
Ed
 0.000000100000000 1 1 0
1  30 0 -0.000000000000000 4.000000000000000
2  66 5 0 -0.000000000000000 4.000000000000000
2  67 21 5 -0.000000000000000 4.000000000000000
4 G1 5 0 21 5
0

0101000
+124 0 -100 0 *
Wi

0101100
+123 0 -71 0 +65 0 -99 0 *
Fa
0  0.000000000000000 5 0

0101000
+64 0 *
Ed
 0.000000100000000 1 1 0
1  31 0 -0.000000000000000 4.000000000000000
2  68 6 0 -0.000000000000000 4.000000000000000
2  69 21 5 -0.000000000000000 4.000000000000000
4 G1 6 0 21 5
0

0101000
+122 0 -98 0 *
Wi

0101100
+121 0 -68 0 +62 0 -97 0 *
Fa
0  0.000000000000000 6 0

0101000
+61 0 *
Wi

0101100
-120 10 +62 0 -65 0 +96 14 *
Fa
0  0.000000100000000 21 0

0101000
+59 6 *
Ed
 0.000000100000000 1 1 0
1  32 0 0.000000000000000 4.000000000000000
3  70 71CN 7 0 0.000000000000000 4.000000000000000
0

0101000
+118 34 -118 35 *
Wi

0101100
+57 0 -57 0 -117 34 +117 35 *
Fa
0  0.000000100000000 7 0

0101000
+56 0 *
Ve
0.000000100000000
-20.099999999999959 6.658744151830277 2.040000000000000
0 0

0101101
*
Ed
 0.000000100000000 1 1 0
1  33 0 -0.000000000000000 1.960000000000000
2  72 12 0 -0.000000000000000 1.960000000000000
2  73 10 4 -0.000000000000000 1.960000000000000
4 G1 12 0 10 4
0

0101000
+93 0 -54 0 *
Ve
0.000000100000000
-16.658744151830277 10.099999999999957 2.040000000000000
0 0

0101101
*
Ed
 0.000000100000000 1 1 0
1  34 0 -0.000000000000000 1.960000000000000
2  74 13 0 -0.000000000000000 1.960000000000000
2  75 10 4 -0.000000000000000 1.960000000000000
4 G1 13 0 10 4
0

0101000
+92 0 -52 0 *
Ed
 0.000000100000000 1 1 0
1  18 0 4.879837059604389 6.115737227959887
2  32 10 28 4.879837059604389 6.115737227959887
2  33 10 30 4.879837059604389 6.115737227959887
2  34 11 31 4.879837059604389 6.115737227959887
2  35 2 32 4.879837059604389 6.115737227959887
0

0101000
+54 37 -52 37 *
Wi

0101100
-91 27 +53 0 -51 0 +50 36 *
Fa
0  0.000000100000000 10 0

0101000
+49 23 *
Ve
0.000000100000000
-23.599999999999920 2.517488303660553 2.040000000000000
0 0

0101101
*
Ed
 0.000000100000000 1 1 0
1  35 0 -0.000000000000000 1.960000000000000
2  76 12 0 -0.000000000000000 1.960000000000000
2  77 14 4 -0.000000000000000 1.960000000000000
4 G1 12 0 14 4
0

0101000
+90 0 -47 0 *
Ed
 0.000000100000000 1 1 0
1  36 0 0.167448079219699 1.570796326794897
2  78 12 0 0.167448079219699 1.570796326794897
2  79 11 38 0.167448079219699 1.570796326794897
0

0101000
+54 0 -47 0 *
Wi

0101100
+89 0 -53 0 +46 0 -45 0 *
Fa
0  0.000000000000000 12 0

0101000
+44 0 *
Ve
0.000000100000000
-12.517488303660556 13.599999999999916 2.040000000000000
0 0

0101101
*
Ed
 0.000000100000000 1 1 0
1  37 0 0.000000000000000 1.960000000000000
2  80 13 0 0.000000000000000 1.960000000000000
2  81 15 4 0.000000000000000 1.960000000000000
4 G1 13 0 15 4
0

0101000
+88 0 -42 0 *
Ed
 0.000000100000000 1 1 0
1  38 0 4.879837059604389 6.283185307179586
2  82 13 0 4.879837059604389 6.283185307179586
2  83 11 38 4.879837059604389 6.283185307179586
0

0101000
+52 0 -42 0 *
Wi

0101100
+87 0 -51 0 +41 0 -40 0 *
Fa
0  0.000000000000000 13 0

0101000
+39 0 *
Ve
0.000000100000000
-23.599999999999916 -9.399999999999999 2.040000000000000
0 0

0101101
*
Ed
 0.000000100000000 1 1 0
1  39 0 -0.000000000000000 1.960000000000000
2  84 16 0 -0.000000000000000 1.960000000000000
2  85 14 4 -0.000000000000000 1.960000000000000
4 G1 16 0 14 4
0

0101000
+86 0 -37 0 *
Ed
 0.000000100000000 1 1 0
1  21 0 4.199999999999999 16.117488303660551
2  40 11 31 4.199999999999999 16.117488303660551
2  41 14 28 4.199999999999999 16.117488303660551
2  42 14 30 4.199999999999999 16.117488303660551
2  43 2 32 4.199999999999999 16.117488303660551
0

0101000
+37 37 -47 37 *
Wi

0101100
-85 27 +36 0 -46 0 +35 36 *
Fa
0  0.000000100000000 14 0

0101000
+34 23 *
Ve
0.000000100000000
19.400000000000002 13.599999999999916 2.040000000000000
0 0

0101101
*
Ed
 0.000000100000000 1 1 0
1  40 0 -0.000000000000000 1.960000000000000
2  86 17 0 -0.000000000000000 1.960000000000000
2  87 15 4 -0.000000000000000 1.960000000000000
4 G1 17 0 15 4
0

0101000
+84 0 -32 0 *
Ed
 0.000000100000000 1 1 0
1  22 0 5.152016527839663 37.069504831500225
2  44 11 31 5.152016527839663 37.069504831500225
2  45 15 28 5.152016527839663 37.069504831500225
2  46 15 30 5.152016527839663 37.069504831500225
2  47 2 32 5.152016527839663 37.069504831500225
0

0101000
+42 37 -32 37 *
Wi

0101100
-83 27 +41 0 -31 0 +30 36 *
Fa
0  0.000000100000000 15 0

0101000
+29 23 *
Ve
0.000000100000000
-19.399999999999917 -13.599999999999998 2.040000000000000
0 0

0101101
*
Ed
 0.000000100000000 1 1 0
1  41 0 -0.000000000000000 1.960000000000000
2  88 16 0 -0.000000000000000 1.960000000000000
2  89 18 4 -0.000000000000000 1.960000000000000
4 G1 16 0 18 4
0

0101000
+82 0 -27 0 *
Ed
 0.000000100000000 1 1 0
1  42 0 3.141592653589792 4.712388980384690
2  90 16 0 3.141592653589792 4.712388980384690
2  91 11 38 3.141592653589792 4.712388980384690
0

0101000
+27 0 -37 0 *
Wi

0101100
+81 0 -26 0 +36 0 -25 0 *
Fa
0  0.000000000000000 16 0

0101000
+24 0 *
Ve
0.000000100000000
23.600000000000001 9.399999999999917 2.040000000000000
0 0

0101101
*
Ed
 0.000000100000000 1 1 0
1  43 0 -0.000000000000000 1.960000000000000
2  92 17 0 -0.000000000000000 1.960000000000000
2  93 19 4 -0.000000000000000 1.960000000000000
4 G1 17 0 19 4
0

0101000
+80 0 -22 0 *
Ed
 0.000000100000000 1 1 0
1  44 0 0.000000000000001 1.570796326794897
2  94 17 0 0.000000000000001 1.570796326794897
2  95 11 38 0.000000000000001 1.570796326794897
0

0101000
+32 0 -22 0 *
Wi

0101100
+79 0 -31 0 +21 0 -20 0 *
Fa
0  0.000000000000000 17 0

0101000
+19 0 *
Ve
0.000000100000000
19.400000000000002 -13.599999999999998 2.040000000000000
0 0

0101101
*
Ed
 0.000000100000000 1 1 0
1  45 0 -0.000000000000000 1.960000000000000
2  96 20 0 -0.000000000000000 1.960000000000000
2  97 18 4 -0.000000000000000 1.960000000000000
4 G1 20 0 18 4
0

0101000
+78 0 -17 0 *
Ed
 0.000000100000000 1 1 0
1  25 0 4.199999999999999 42.999999999999915
2  52 11 31 4.199999999999999 42.999999999999915
2  53 18 28 4.199999999999999 42.999999999999915
2  54 18 30 4.199999999999999 42.999999999999915
2  55 2 32 4.199999999999999 42.999999999999915
0

0101000
+17 37 -27 37 *
Wi

0101100
-77 27 +16 0 -26 0 +15 36 *
Fa
0  0.000000100000000 18 0

0101000
+14 23 *
Ve
0.000000100000000
23.600000000000001 -9.399999999999999 2.040000000000000
0 0

0101101
*
Ed
 0.000000100000000 1 1 0
1  46 0 -0.000000000000000 1.960000000000000
2  98 20 0 -0.000000000000000 1.960000000000000
2  99 19 4 -0.000000000000000 1.960000000000000
4 G1 20 0 19 4
0

0101000
+76 0 -12 0 *
Ed
 0.000000100000000 1 1 0
1  26 0 4.199999999999999 22.999999999999915
2  56 11 31 4.199999999999999 22.999999999999915
2  57 19 28 4.199999999999999 22.999999999999915
2  58 19 30 4.199999999999999 22.999999999999915
2  59 2 32 4.199999999999999 22.999999999999915
0

0101000
+22 37 -12 37 *
Wi

0101100
-75 27 +21 0 -11 0 +10 36 *
Fa
0  0.000000100000000 19 0

0101000
+9 23 *
Ed
 0.000000100000000 1 1 0
1  47 0 1.570796326794897 3.141592653589793
2  100 20 0 1.570796326794897 3.141592653589793
2  101 11 38 1.570796326794897 3.141592653589793
0

0101000
+12 0 -17 0 *
Wi

0101100
+74 0 -11 0 +16 0 -7 0 *
Fa
0  0.000000000000000 20 0

0101000
+6 0 *
Wi

0101100
+50 36 -45 0 +40 0 +35 36 +30 36 +25 0 +20 0 +15 36 +10 36 +7 0 
*
Fa
0  0.000000100000000 11 0

0111000
+4 39 *
Sh

0101100
+133 5 +115 16 +110 0 -105 0 -72 4 +69 5 +66 5 +63 0 -60 0 +58 5 
+55 5 +48 4 +43 0 -38 0 +33 4 +28 4 -23 0 -18 0 +13 4 +8 4 
-5 0 -3 38 *
So

0100000
+2 0 *

+1 1 