
CASCADE Topology V1, (c) Matra-Datavision
Locations 31
1
1.000000000000000 0.000000000000000 0.000000000000000 0.000000000000000 
0.000000000000000 1.000000000000000 0.000000000000000 0.000000000000000 
0.000000000000000 0.000000000000000 1.000000000000000 0.000000000000000 
1
1.000000000000000 0.000000000000000 0.000000000000000 0.000000000000000 
0.000000000000000 1.000000000000000 0.000000000000000 0.000000000000000 
0.000000000000000 0.000000000000000 1.000000000000000 0.000000000000000 
1
1.000000000000000 0.000000000000000 0.000000000000000 0.000000000000000 
0.000000000000000 1.000000000000000 0.000000000000000 0.000000000000000 
0.000000000000000 0.000000000000000 1.000000000000000 0.000000000000000 
2  2 1 3 -1 0
1
1.000000000000000 0.000000000000000 0.000000000000000 0.000000000000000 
0.000000000000000 1.000000000000000 0.000000000000000 0.000000000000000 
0.000000000000000 0.000000000000000 1.000000000000000 0.000000000000000 
1
1.000000000000000 0.000000000000000 0.000000000000000 0.000000000000000 
0.000000000000000 1.000000000000000 0.000000000000000 0.000000000000000 
0.000000000000000 0.000000000000000 1.000000000000000 0.000000000000000 
1
1.000000000000000 0.000000000000000 0.000000000000000 0.000000000000000 
0.000000000000000 1.000000000000000 0.000000000000000 0.000000000000000 
0.000000000000000 0.000000000000000 1.000000000000000 0.000000000000000 
2  5 1 6 1 7 -1 0
1
1.000000000000000 0.000000000000000 0.000000000000000 0.000000000000000 
0.000000000000000 1.000000000000000 0.000000000000000 0.000000000000000 
0.000000000000000 0.000000000000000 1.000000000000000 5.000000000000000 
2  5 1 6 1 7 -1 9 1 0
1
1.000000000000000 0.000000000000000 0.000000000000000 0.000000000000000 
0.000000000000000 1.000000000000000 0.000000000000000 0.000000000000000 
0.000000000000000 0.000000000000000 1.000000000000000 0.000000000000000 
2  11 -1 5 -1 0
2  7 1 6 -1 5 -1 0
2  9 -1 7 1 6 -1 5 -1 0
2  2 -1 9 -1 7 1 6 -1 5 -1 0
2  7 -1 2 1 3 -1 0
2  11 -1 6 1 0
2  5 1 6 1 0
2  11 -1 6 1 7 -1 9 1 2 1 3 -1 0
2  5 1 6 1 7 -1 9 1 2 1 3 -1 0
1
1.000000000000000 0.000000000000000 0.000000000000000 0.000000000000000 
0.000000000000000 1.000000000000000 0.000000000000000 0.000000000000000 
0.000000000000000 0.000000000000000 1.000000000000000 0.000000000000000 
1
1.000000000000000 0.000000000000000 0.000000000000000 0.000000000000000 
0.000000000000000 1.000000000000000 0.000000000000000 0.000000000000000 
0.000000000000000 0.000000000000000 1.000000000000000 5.000000000000000 
2  21 1 22 1 3 -1 0
2  3 1 22 -1 21 -1 0
1
1.000000000000000 0.000000000000000 0.000000000000000 -0.000000000000000 
0.000000000000000 1.000000000000000 0.000000000000000 -0.000000000000000 
0.000000000000000 0.000000000000000 1.000000000000000 -1.500000000000000 
2  25 -1 3 1 22 -1 21 -1 0
2  22 -1 21 -1 0
2  11 -1 6 1 7 -1 9 1 2 1 22 -1 21 -1 0
2  21 1 22 1 3 -1 25 1 0
2  3 -1 25 1 0
2  21 1 22 1 0
Curve2ds 52
1 0.00000000000000000 0.00000000000000000 0.00000000000000000 -1.00000000000000000 
1 30.00000000000000000 0.00000000000000000 0.00000000000000000 -1.00000000000000000 
1 50.00000000000000000 0.00000000000000000 0.00000000000000000 -1.00000000000000000 
1 25.00000000000000000 15.00000000000000000 -1.00000000000000000 0.00000000000000000 
1 0.00000000000000000 0.00000000000000000 1.00000000000000000 0.00000000000000000 
1 0.00000000000000000 -5.00000000000000000 1.00000000000000000 0.00000000000000000 
1 -25.55930105345843373 7.82291414287620235 1.00000000000000000 0.00000000000000000 
1 0.00000000000000000 0.00000000000000000 0.00000000000000000 -1.00000000000000000 
1 50.00000000000000000 0.00000000000000000 0.00000000000000000 -1.00000000000000000 
1 25.00000000000000000 -15.00000000000000000 0.00000000000000000 1.00000000000000000 
1 0.00000000000000000 0.00000000000000000 1.00000000000000000 0.00000000000000000 
1 0.00000000000000000 -5.00000000000000000 1.00000000000000000 0.00000000000000000 
1 -25.55930105345843373 -22.17708585712379943 0.00000000000000000 1.00000000000000000 
1 0.00000000000000000 -0.00000000000000000 0.00000000000000000 -1.00000000000000000 
1 -25.00000000000000000 15.00000000000000000 0.00000000000000000 -1.00000000000000000 
1 0.00000000000000000 0.00000000000000000 1.00000000000000000 0.00000000000000000 
1 0.00000000000000000 -5.00000000000000000 1.00000000000000000 0.00000000000000000 
1 24.44069894654156627 7.82291414287620235 0.00000000000000000 -1.00000000000000000 
1 -25.00000000000000000 -15.00000000000000000 1.00000000000000000 0.00000000000000000 
1 0.00000000000000000 -0.00000000000000000 1.00000000000000000 0.00000000000000000 
1 0.00000000000000000 -5.00000000000000000 1.00000000000000000 0.00000000000000000 
1 24.44069894654156627 -22.17708585712379943 -1.00000000000000000 0.00000000000000000 
1 0.00000000000000000 0.00000000000000000 1.00000000000000000 0.00000000000000000 
1 0.00000000000000000 -1.50000000000000000 1.00000000000000000 0.00000000000000000 
1 17.31694257808610260 13.73540256233871304 -1.00000000000000000 -0.00000000000000000 
1 17.15475189748055485 13.49999999999999822 -1.00000000000000000 0.00000000000000000 
1 0.00000000000000000 0.00000000000000000 1.00000000000000000 0.00000000000000000 
1 0.00000000000000000 -1.50000000000000000 1.00000000000000000 0.00000000000000000 
1 -23.33780931939444869 13.73540256233871304 0.00000000000000000 -1.00000000000000000 
1 -23.49999999999999645 13.49999999999999822 0.00000000000000000 -1.00000000000000000 
1 0.00000000000000000 0.00000000000000000 1.00000000000000000 0.00000000000000000 
1 0.00000000000000000 -1.50000000000000000 1.00000000000000000 0.00000000000000000 
1 -23.33780931939444869 -13.26459743766128518 1.00000000000000000 0.00000000000000000 
1 -23.49999999999999645 -13.50000000000000000 1.00000000000000000 0.00000000000000000 
1 0.00000000000000000 0.00000000000000000 1.00000000000000000 0.00000000000000000 
1 0.00000000000000000 -1.50000000000000000 1.00000000000000000 0.00000000000000000 
1 23.66219068060555131 -13.26459743766128518 0.00000000000000000 1.00000000000000000 
1 23.50000000000000355 -13.50000000000000000 0.00000000000000000 1.00000000000000000 
1 0.00000000000000000 0.00000000000000000 1.00000000000000000 0.00000000000000000 
1 0.00000000000000000 -1.50000000000000000 1.00000000000000000 0.00000000000000000 
2 20.36219068060554704 10.43540256233871411 -1.00000000000000000 -0.00000000000000000 -0.00000000000000000 1.00000000000000000 4.49038261241715020
2 20.19999999999999929 10.19999999999999929 -1.00000000000000000 0.00000000000000000 0.00000000000000000 1.00000000000000000 4.49038261241715020
1 7.10871037303126396 0.00000000000000000 0.00000000000000000 -1.00000000000000000 
1 0.00000000000000000 0.00000000000000000 0.00000000000000000 -1.00000000000000000 
1 40.65475189748055129 0.00000000000000000 0.00000000000000000 -1.00000000000000000 
1 0.00000000000000000 0.00000000000000000 0.00000000000000000 -1.00000000000000000 
1 27.00000000000000000 0.00000000000000000 0.00000000000000000 -1.00000000000000000 
1 0.00000000000000000 0.00000000000000000 0.00000000000000000 -1.00000000000000000 
1 47.00000000000000000 0.00000000000000000 0.00000000000000000 -1.00000000000000000 
1 0.00000000000000000 0.00000000000000000 0.00000000000000000 -1.00000000000000000 
1 3.88686391453301017 0.00000000000000000 0.00000000000000000 -1.00000000000000000 
1 20.65475189748055840 0.00000000000000000 0.00000000000000000 -1.00000000000000000 
Curves 18
1 -25.00000000000000000 15.00000000000000000 0.00000000000000000 0.00000000000000000 0.00000000000000000 1.00000000000000000 
1 25.00000000000000000 15.00000000000000000 0.00000000000000000 0.00000000000000000 0.00000000000000000 1.00000000000000000 
1 -25.00000000000000000 15.00000000000000000 0.00000000000000000 1.00000000000000000 0.00000000000000000 0.00000000000000000 
1 -25.00000000000000000 -15.00000000000000000 0.00000000000000000 0.00000000000000000 0.00000000000000000 1.00000000000000000 
1 -25.00000000000000000 -15.00000000000000000 0.00000000000000000 0.00000000000000000 1.00000000000000000 0.00000000000000000 
1 25.00000000000000000 -15.00000000000000000 0.00000000000000000 0.00000000000000000 0.00000000000000000 1.00000000000000000 
1 25.00000000000000000 15.00000000000000000 0.00000000000000000 0.00000000000000000 -1.00000000000000000 0.00000000000000000 
1 25.00000000000000000 -15.00000000000000000 0.00000000000000000 -1.00000000000000000 0.00000000000000000 0.00000000000000000 
1 -17.15475189748055485 13.49999999999999822 0.00000000000000000 1.00000000000000000 0.00000000000000000 0.00000000000000000 
1 23.49999999999999645 13.49999999999999822 0.00000000000000000 0.00000000000000000 -1.00000000000000000 0.00000000000000000 
1 23.49999999999999645 -13.50000000000000000 0.00000000000000000 -1.00000000000000000 0.00000000000000000 0.00000000000000000 
1 -23.50000000000000355 -13.50000000000000000 0.00000000000000000 0.00000000000000000 1.00000000000000000 0.00000000000000000 
2 -20.19999999999999929 10.19999999999999929 0.00000000000000000 0.00000000000000000 0.00000000000000000 1.00000000000000000 1.00000000000000000 0.00000000000000000 -0.00000000000000000 -0.00000000000000000 1.00000000000000000 0.00000000000000000 4.49038261241715109
1 -17.15475189748055485 13.49999999999999822 5.00000000000000000 -0.00000000000000000 -0.00000000000000000 -1.00000000000000000 
1 23.49999999999999645 13.49999999999999822 5.00000000000000000 -0.00000000000000000 -0.00000000000000000 -1.00000000000000000 
1 23.49999999999999645 -13.50000000000000000 5.00000000000000000 -0.00000000000000000 -0.00000000000000000 -1.00000000000000000 
1 -23.50000000000000355 -13.50000000000000000 5.00000000000000000 -0.00000000000000000 -0.00000000000000000 -1.00000000000000000 
1 -23.50000000000000355 7.15475189748055929 5.00000000000000000 -0.00000000000000000 -0.00000000000000000 -1.00000000000000000 
Polygon3D 0
PolygonOnTriangulations 0
Surfaces 12
1 -25.00000000000000000 15.00000000000000000 0.00000000000000000 0.00000000000000000 1.00000000000000000 0.00000000000000000 1.00000000000000000 0.00000000000000000 0.00000000000000000 0.00000000000000000 0.00000000000000000 -1.00000000000000000 
1 -25.00000000000000000 -15.00000000000000000 0.00000000000000000 -1.00000000000000000 0.00000000000000000 0.00000000000000000 0.00000000000000000 1.00000000000000000 0.00000000000000000 0.00000000000000000 0.00000000000000000 -1.00000000000000000 
1 0.00000000000000000 0.00000000000000000 0.00000000000000000 -0.00000000000000000 -0.00000000000000000 -1.00000000000000000 -1.00000000000000000 0.00000000000000000 0.00000000000000000 0.00000000000000000 1.00000000000000000 -0.00000000000000000 
1 0.55930105345843251 7.17708585712379765 4.99999999999999822 0.00000000000000000 0.00000000000000000 1.00000000000000000 1.00000000000000000 0.00000000000000000 -0.00000000000000000 -0.00000000000000000 1.00000000000000000 0.00000000000000000 
1 25.00000000000000000 -15.00000000000000000 0.00000000000000000 0.00000000000000000 -1.00000000000000000 0.00000000000000000 -1.00000000000000000 0.00000000000000000 0.00000000000000000 -0.00000000000000000 -0.00000000000000000 -1.00000000000000000 
1 25.00000000000000000 15.00000000000000000 0.00000000000000000 1.00000000000000000 0.00000000000000000 -0.00000000000000000 0.00000000000000000 -1.00000000000000000 0.00000000000000000 0.00000000000000000 -0.00000000000000000 -1.00000000000000000 
1 -17.15475189748055485 13.49999999999999822 5.00000000000000000 0.00000000000000000 -1.00000000000000000 0.00000000000000000 1.00000000000000000 0.00000000000000000 0.00000000000000000 -0.00000000000000000 0.00000000000000000 1.00000000000000000 
1 0.16219068060554834 -0.23540256233871487 5.00000000000000089 -0.00000000000000000 -0.00000000000000000 -1.00000000000000000 -1.00000000000000000 0.00000000000000000 0.00000000000000000 0.00000000000000000 1.00000000000000000 -0.00000000000000000 
1 23.49999999999999645 13.49999999999999822 5.00000000000000000 -1.00000000000000000 0.00000000000000000 0.00000000000000000 0.00000000000000000 -1.00000000000000000 0.00000000000000000 0.00000000000000000 0.00000000000000000 1.00000000000000000 
1 23.49999999999999645 -13.50000000000000000 5.00000000000000000 0.00000000000000000 1.00000000000000000 -0.00000000000000000 -1.00000000000000000 0.00000000000000000 0.00000000000000000 0.00000000000000000 0.00000000000000000 1.00000000000000000 
1 -23.50000000000000355 -13.50000000000000000 5.00000000000000000 1.00000000000000000 0.00000000000000000 0.00000000000000000 -0.00000000000000000 1.00000000000000000 0.00000000000000000 0.00000000000000000 -0.00000000000000000 1.00000000000000000 
2 -20.19999999999999929 10.19999999999999929 5.00000000000000000 0.00000000000000000 0.00000000000000000 1.00000000000000000 1.00000000000000000 0.00000000000000000 -0.00000000000000000 -0.00000000000000000 1.00000000000000000 0.00000000000000000 4.49038261241715109
Triangulations 0

TShapes 54
Ve
0.000000100000002
-25.000000000000000 15.000000000000000 0.000000000000000
0 0

0101101
*
Ed
 0.000000100000000 1 1 0
1  1 0 0.000000000000000 5.000000000000000
2  1 1 0 0.000000000000000 5.000000000000000
2  2 2 0 0.000000000000000 5.000000000000000
0

0101000
+54 8 -54 10 *
Ve
0.000000100000002
25.000000000000000 15.000000000000000 0.000000000000000
0 0

0101101
*
Ed
 0.000000100000000 1 1 0
1  2 0 0.000000000000000 5.000000000000000
2  3 1 0 0.000000000000000 5.000000000000000
0

0101000
+52 8 -52 10 *
Ed
 0.000000100000002 1 1 0
1  3 0 0.000000000000000 50.000000000000000
2  4 3 12 0.000000000000000 50.000000000000000
2  5 1 13 0.000000000000000 50.000000000000000
2  6 1 14 0.000000000000000 50.000000000000000
2  7 4 15 0.000000000000000 50.000000000000000
0

0101000
+54 0 -52 0 *
Wi

0101100
+53 0 -51 0 -50 8 +50 10 *
Fa
0  0.000000100000000 1 0

0111000
+49 0 *
Ve
0.000000100000002
-25.000000000000000 -15.000000000000000 0.000000000000000
0 0

0101101
*
Ed
 0.000000100000000 1 1 0
1  4 0 0.000000000000000 5.000000000000000
2  8 2 0 0.000000000000000 5.000000000000000
2  9 5 0 0.000000000000000 5.000000000000000
0

0101000
+47 8 -47 10 *
Ed
 0.000000100000002 1 1 0
1  5 0 0.000000000000000 30.000000000000000
2  10 3 12 0.000000000000000 30.000000000000000
2  11 2 13 0.000000000000000 30.000000000000000
2  12 2 14 0.000000000000000 30.000000000000000
2  13 4 15 0.000000000000000 30.000000000000000
0

0101000
+47 0 -54 0 *
Wi

0101100
+46 0 -53 0 -45 8 +45 10 *
Fa
0  0.000000100000000 2 0

0111000
+44 0 *
Ve
0.000000100000002
25.000000000000000 -15.000000000000000 0.000000000000000
0 0

0101101
*
Ed
 0.000000100000000 1 1 0
1  6 0 0.000000000000000 5.000000000000000
2  14 5 0 0.000000000000000 5.000000000000000
0

0101000
+42 8 -42 10 *
Ed
 0.000000100000002 1 1 0
1  7 0 0.000000000000000 30.000000000000000
2  15 3 12 0.000000000000000 30.000000000000000
2  16 6 13 0.000000000000000 30.000000000000000
2  17 6 14 0.000000000000000 30.000000000000000
2  18 4 15 0.000000000000000 30.000000000000000
0

0101000
+52 0 -42 0 *
Wi

0101100
+51 0 -41 0 -40 8 +40 10 *
Fa
0  0.000000100000000 6 0

0111000
+39 0 *
Ed
 0.000000100000002 1 1 0
1  8 0 0.000000000000000 50.000000000000000
2  19 3 12 0.000000000000000 50.000000000000000
2  20 5 13 0.000000000000000 50.000000000000000
2  21 5 14 0.000000000000000 50.000000000000000
2  22 4 15 0.000000000000000 50.000000000000000
0

0101000
+42 0 -47 0 *
Wi

0101100
+50 0 +40 0 +37 0 +45 0 *
Fa
0  0.000000100000000 3 17

0111000
+36 18 *
Wi

0101100
+50 20 +45 20 +40 20 +37 20 *
Ve
0.000000100000000
-17.154751897480555 13.499999999999998 0.000000000000000
0 0

0101101
*
Ve
0.000000100000000
23.499999999999996 13.499999999999998 0.000000000000000
0 0

0101101
*
Ed
 0.000000100000000 1 1 0
1  9 0 0.000000000000000 40.654751897480551
2  23 7 24 0.000000000000000 40.654751897480551
2  24 7 26 0.000000000000000 40.654751897480551
2  25 8 27 0.000000000000000 40.654751897480551
2  26 3 28 0.000000000000000 40.654751897480551
0

0101000
+33 0 -32 0 *
Ve
0.000000100000001
23.499999999999996 -13.500000000000000 0.000000000000000
0 0

0101101
*
Ed
 0.000000100000000 1 1 0
1  10 0 0.000000000000000 27.000000000000000
2  27 9 24 0.000000000000000 27.000000000000000
2  28 9 26 0.000000000000000 27.000000000000000
2  29 8 27 0.000000000000000 27.000000000000000
2  30 3 28 0.000000000000000 27.000000000000000
0

0101000
+32 0 -30 0 *
Ve
0.000000100000000
-23.500000000000004 -13.500000000000000 0.000000000000000
0 0

0101101
*
Ed
 0.000000100000000 1 1 0
1  11 0 0.000000000000000 47.000000000000000
2  31 10 24 0.000000000000000 47.000000000000000
2  32 10 26 0.000000000000000 47.000000000000000
2  33 8 27 0.000000000000000 47.000000000000000
2  34 3 28 0.000000000000000 47.000000000000000
0

0101000
+30 0 -28 0 *
Ve
0.000000100000001
-23.500000000000004 7.154751897480559 0.000000000000000
0 0

0101101
*
Ed
 0.000000100000000 1 1 0
1  12 0 0.000000000000000 20.654751897480558
2  35 11 24 0.000000000000000 20.654751897480558
2  36 11 26 0.000000000000000 20.654751897480558
2  37 8 27 0.000000000000000 20.654751897480558
2  38 3 28 0.000000000000000 20.654751897480558
0

0101000
+28 0 -26 0 *
Ed
 0.000000100000000 1 1 0
1  13 0 3.886863914533010 7.108710373031264
2  39 12 24 3.886863914533010 7.108710373031264
2  40 12 26 3.886863914533010 7.108710373031264
2  41 8 27 3.886863914533010 7.108710373031264
2  42 3 28 3.886863914533010 7.108710373031264
0

0101000
+26 0 -33 0 *
Wi

0101100
-31 23 -29 23 -27 23 -25 23 -24 23 *
Fa
0  0.000000100000000 3 19

0111000
+34 0 +23 0 *
Wi

0101100
+41 0 -46 0 -37 8 +37 10 *
Fa
0  0.000000100000000 5 0

0111000
+21 0 *
Ed
 0.000000100000000 1 1 0
1  14 0 0.000000000000000 1.500000000000000
2  43 12 0 0.000000000000000 1.500000000000000
2  44 7 0 0.000000000000000 1.500000000000000
0

0101000
+33 23 -33 29 *
Ed
 0.000000100000000 1 1 0
1  15 0 0.000000000000000 1.500000000000000
2  45 7 0 0.000000000000000 1.500000000000000
2  46 9 0 0.000000000000000 1.500000000000000
0

0101000
+32 23 -32 29 *
Wi

0101100
+19 0 -18 0 -31 23 +31 29 *
Fa
0  0.000000100000000 7 0

0111000
+17 0 *
Ed
 0.000000100000001 1 1 0
1  16 0 0.000000000000000 1.500000000000000
2  47 9 0 0.000000000000000 1.500000000000000
2  48 10 0 0.000000000000000 1.500000000000000
0

0101000
+30 23 -30 29 *
Wi

0101100
+18 0 -15 0 -29 23 +29 29 *
Fa
0  0.000000100000000 9 0

0111000
+14 0 *
Ed
 0.000000100000000 1 1 0
1  17 0 0.000000000000000 1.500000000000000
2  49 10 0 0.000000000000000 1.500000000000000
2  50 11 0 0.000000000000000 1.500000000000000
0

0101000
+28 23 -28 29 *
Wi

0101100
+15 0 -12 0 -27 23 +27 29 *
Fa
0  0.000000100000000 10 0

0111000
+11 0 *
Ed
 0.000000100000001 1 1 0
1  18 0 0.000000000000000 1.500000000000000
2  51 12 0 0.000000000000000 1.500000000000000
2  52 11 0 0.000000000000000 1.500000000000000
0

0101000
+26 23 -26 29 *
Wi

0101100
+12 0 -9 0 -25 23 +25 29 *
Fa
0  0.000000100000000 11 0

0111000
+8 0 *
Wi

0101100
+9 0 -19 0 -24 23 +24 29 *
Fa
0  0.000000100000000 12 0

0111000
+6 0 *
Wi

0101100
+31 0 +29 0 +27 0 +25 0 +24 0 *
Fa
0  0.000000100000000 8 0

0111000
+4 31 *
Sh

0101100
+48 4 +43 4 +38 4 +35 16 -22 0 +20 4 +16 0 +13 0 +10 0 +7 0 
+5 0 -3 30 *
So

0100000
+2 0 *

+1 1 