
CASCADE Topology V1, (c) Matra-Datavision
Locations 45
1
1.000000000000000 0.000000000000000 0.000000000000000 0.000000000000000 
0.000000000000000 1.000000000000000 0.000000000000000 0.000000000000000 
0.000000000000000 0.000000000000000 1.000000000000000 0.000000000000000 
1
1.000000000000000 0.000000000000000 0.000000000000000 0.000000000000000 
0.000000000000000 1.000000000000000 0.000000000000000 0.000000000000000 
0.000000000000000 0.000000000000000 1.000000000000000 0.000000000000000 
1
1.000000000000000 0.000000000000000 0.000000000000000 0.000000000000000 
0.000000000000000 1.000000000000000 0.000000000000000 0.000000000000000 
0.000000000000000 0.000000000000000 1.000000000000000 0.000000000000000 
1
1.000000000000000 0.000000000000000 0.000000000000000 0.000000000000000 
0.000000000000000 1.000000000000000 0.000000000000000 0.000000000000000 
0.000000000000000 0.000000000000000 1.000000000000000 0.000000000000000 
1
1.000000000000000 0.000000000000000 0.000000000000000 0.000000000000000 
0.000000000000000 1.000000000000000 0.000000000000000 0.000000000000000 
0.000000000000000 0.000000000000000 1.000000000000000 0.000000000000000 
1
1.000000000000000 0.000000000000000 0.000000000000000 0.000000000000000 
0.000000000000000 1.000000000000000 0.000000000000000 0.000000000000000 
0.000000000000000 0.000000000000000 1.000000000000000 0.000000000000000 
2  2 1 3 -1 4 1 5 1 6 -1 0
2  4 -1 3 1 2 -1 0
1
1.000000000000000 0.000000000000000 0.000000000000000 0.000000000000000 
0.000000000000000 1.000000000000000 0.000000000000000 0.000000000000000 
0.000000000000000 0.000000000000000 1.000000000000000 0.000000000000000 
1
1.000000000000000 0.000000000000000 0.000000000000000 0.000000000000000 
0.000000000000000 1.000000000000000 0.000000000000000 0.000000000000000 
0.000000000000000 0.000000000000000 1.000000000000000 0.000000000000000 
1
1.000000000000000 0.000000000000000 0.000000000000000 0.000000000000000 
0.000000000000000 1.000000000000000 0.000000000000000 0.000000000000000 
0.000000000000000 0.000000000000000 1.000000000000000 0.000000000000000 
2  9 1 10 1 11 -1 2 1 3 -1 4 1 0
1
1.000000000000000 0.000000000000000 0.000000000000000 0.000000000000000 
0.000000000000000 1.000000000000000 0.000000000000000 0.000000000000000 
0.000000000000000 0.000000000000000 1.000000000000000 0.000000000000000 
2  13 -1 6 1 5 -1 4 -1 3 1 2 -1 11 1 10 -1 9 -1 0
2  2 1 3 -1 4 1 0
2  13 -1 6 1 5 -1 0
1
1.000000000000000 0.000000000000000 0.000000000000000 0.000000000000000 
0.000000000000000 1.000000000000000 0.000000000000000 0.000000000000000 
0.000000000000000 0.000000000000000 1.000000000000000 5.000000000000000 
2  9 1 10 1 11 -1 17 1 2 1 3 -1 4 1 0
2  13 -1 6 1 5 -1 4 -1 3 1 2 -1 17 -1 11 1 10 -1 9 -1 0
1
1.000000000000000 0.000000000000000 0.000000000000000 0.000000000000000 
0.000000000000000 1.000000000000000 0.000000000000000 0.000000000000000 
0.000000000000000 0.000000000000000 1.000000000000000 0.000000000000000 
2  20 -1 10 1 11 -1 2 1 3 -1 4 1 5 1 6 -1 0
2  9 1 10 1 11 -1 2 1 3 -1 4 1 5 1 6 -1 0
2  5 1 6 -1 0
1
1.000000000000000 0.000000000000000 0.000000000000000 -20.199999999999999 
0.000000000000000 1.000000000000000 0.000000000000000 10.199999999999999 
0.000000000000000 0.000000000000000 1.000000000000000 5.000000000000000 
2  13 -1 0
2  20 -1 10 1 11 -1 17 1 2 1 3 -1 4 1 5 1 6 -1 0
2  9 1 10 1 11 -1 17 1 2 1 3 -1 4 1 5 1 6 -1 0
1
1.000000000000000 0.000000000000000 0.000000000000000 0.000000000000000 
0.000000000000000 1.000000000000000 0.000000000000000 0.000000000000000 
0.000000000000000 0.000000000000000 1.000000000000000 0.000000000000000 
1
1.000000000000000 0.000000000000000 0.000000000000000 0.000000000000000 
0.000000000000000 1.000000000000000 0.000000000000000 0.000000000000000 
0.000000000000000 0.000000000000000 1.000000000000000 5.000000000000000 
2  28 1 29 1 3 -1 4 1 5 1 6 -1 0
2  13 -1 6 1 5 -1 4 -1 3 1 29 -1 28 -1 0
2  3 1 29 -1 28 -1 0
2  13 -1 24 -1 0
2  4 1 5 1 6 -1 0
2  4 -1 0
2  28 1 29 1 3 -1 4 1 0
2  13 -1 6 1 5 -1 4 -1 0
1
1.000000000000000 0.000000000000000 0.000000000000000 -0.000000000000000 
0.000000000000000 1.000000000000000 0.000000000000000 -0.000000000000000 
0.000000000000000 0.000000000000000 1.000000000000000 -1.500000000000000 
2  28 1 29 1 3 -1 38 1 4 1 0
2  13 -1 6 1 5 -1 4 -1 38 -1 3 1 29 -1 28 -1 0
2  28 1 29 1 3 -1 0
2  28 1 29 1 3 -1 38 1 0
2  38 -1 3 1 29 -1 28 -1 0
2  3 -1 38 1 4 1 5 1 6 -1 0
2  4 -1 38 -1 3 1 0
Curve2ds 36
1 0.00000000000000000 0.00000000000000000 0.00000000000000000 1.00000000000000000 
1 0.00000000000000000 0.00000000000000000 0.00000000000000000 1.00000000000000000 
1 -3.14159265358979312 0.00000000000000000 1.00000000000000000 0.00000000000000000 
1 -3.14159265358979312 0.00000000000000000 1.00000000000000000 0.00000000000000000 
1 -4.71238898038468967 0.00000000000000000 1.00000000000000000 0.00000000000000000 
1 -4.71238898038468967 0.00000000000000000 1.00000000000000000 0.00000000000000000 
1 6.28318530717958623 5.00000000000000000 -1.00000000000000000 0.00000000000000000 
1 1.57079632679489656 0.00000000000000000 0.00000000000000000 1.00000000000000000 
1 -3.14159265358979312 5.00000000000000000 1.00000000000000000 0.00000000000000000 
1 1.57079632679489656 0.00000000000000000 0.00000000000000000 1.00000000000000000 
1 -3.14159265358979312 5.00000000000000000 1.00000000000000000 0.00000000000000000 
1 -4.71238898038468967 5.00000000000000000 1.00000000000000000 0.00000000000000000 
1 -4.71238898038468967 5.00000000000000000 1.00000000000000000 0.00000000000000000 
1 0.00000000000000000 0.00000000000000000 1.00000000000000000 0.00000000000000000 
1 0.00000000000000000 0.00000000000000000 1.00000000000000000 0.00000000000000000 
1 -1.57079632679489656 0.00000000000000000 1.00000000000000000 0.00000000000000000 
1 -3.14159265358979312 0.00000000000000000 1.00000000000000000 0.00000000000000000 
1 0.00000000000000000 0.00000000000000000 1.00000000000000000 0.00000000000000000 
1 0.00000000000000000 0.00000000000000000 0.00000000000000000 1.00000000000000000 
1 0.00000000000000000 0.00000000000000000 0.00000000000000000 1.00000000000000000 
1 1.57079632679489656 0.00000000000000000 0.00000000000000000 1.00000000000000000 
1 1.57079632679489656 0.00000000000000000 0.00000000000000000 1.00000000000000000 
1 6.28318530717958623 0.00000000000000000 0.00000000000000000 1.00000000000000000 
1 0.00000000000000000 0.00000000000000000 0.00000000000000000 1.00000000000000000 
1 0.00000000000000000 0.00000000000000000 0.00000000000000000 1.00000000000000000 
1 7.10871037303126396 0.00000000000000000 0.00000000000000000 -1.00000000000000000 
1 1.57079632679489656 0.00000000000000000 0.00000000000000000 1.00000000000000000 
1 0.00000000000000000 1.49999999999999911 1.00000000000000000 0.00000000000000000 
1 3.88686391453301017 0.00000000000000000 0.00000000000000000 -1.00000000000000000 
1 0.00000000000000000 -1.50000000000000000 1.00000000000000000 0.00000000000000000 
1 0.00000000000000000 0.00000000000000000 0.00000000000000000 1.00000000000000000 
1 1.57079632679489656 0.00000000000000000 0.00000000000000000 1.00000000000000000 
1 1.57079632679489656 0.00000000000000000 0.00000000000000000 1.00000000000000000 
1 -1.57079632679489656 1.49999999999999911 1.00000000000000000 0.00000000000000000 
1 0.00000000000000000 0.00000000000000000 0.00000000000000000 1.00000000000000000 
1 -3.14159265358979312 1.49999999999999911 1.00000000000000000 0.00000000000000000 
Curves 51
1 -25.00000000000000000 15.00000000000000000 0.00000000000000000 1.00000000000000000 0.00000000000000000 0.00000000000000000 
1 -20.00000000000000000 15.00000000000000000 0.00000000000000000 0.00000000000000000 0.00000000000000000 1.00000000000000000 
1 20.00000000000000000 15.00000000000000000 0.00000000000000000 0.00000000000000000 0.00000000000000000 1.00000000000000000 
1 -25.00000000000000000 15.00000000000000000 0.00000000000000000 1.00000000000000000 0.00000000000000000 0.00000000000000000 
8 3.14159265358979312 4.71238898038468967
2 -20.00000000000000000 10.00000000000000000 0.00000000000000000 -0.00000000000000000 0.00000000000000000 1.00000000000000000 0.00000000000000000 -1.00000000000000000 0.00000000000000000 1.00000000000000000 0.00000000000000000 0.00000000000000000 5.00000000000000000
8 3.14159265358979312 4.71238898038468967
2 20.00000000000000000 10.00000000000000000 0.00000000000000000 -0.00000000000000000 -0.00000000000000000 -1.00000000000000000 0.00000000000000000 -1.00000000000000000 0.00000000000000000 -1.00000000000000000 0.00000000000000000 0.00000000000000000 5.00000000000000000
1 -25.00000000000000000 -15.00000000000000000 0.00000000000000000 0.00000000000000000 1.00000000000000000 0.00000000000000000 
1 25.00000000000000000 15.00000000000000000 0.00000000000000000 0.00000000000000000 -1.00000000000000000 0.00000000000000000 
8 4.71238898038468967 6.28318530717958623
2 -20.00000000000000000 -10.00000000000000000 0.00000000000000000 -0.00000000000000000 0.00000000000000000 1.00000000000000000 0.00000000000000000 -1.00000000000000000 0.00000000000000000 1.00000000000000000 0.00000000000000000 0.00000000000000000 5.00000000000000000
8 4.71238898038468967 6.28318530717958623
2 20.00000000000000000 -10.00000000000000000 0.00000000000000000 -0.00000000000000000 -0.00000000000000000 -1.00000000000000000 0.00000000000000000 -1.00000000000000000 0.00000000000000000 -1.00000000000000000 0.00000000000000000 0.00000000000000000 5.00000000000000000
1 25.00000000000000000 -15.00000000000000000 0.00000000000000000 -1.00000000000000000 0.00000000000000000 0.00000000000000000 
2 -20.19999999999999929 10.19999999999999929 0.00000000000000000 0.00000000000000000 0.00000000000000000 -1.00000000000000000 1.00000000000000000 0.00000000000000000 0.00000000000000000 0.00000000000000000 -1.00000000000000000 0.00000000000000000 3.00000000000000000
1 -25.00000000000000000 10.00000000000000000 0.00000000000000000 0.00000000000000000 0.00000000000000000 1.00000000000000000 
8 3.14159265358979312 4.71238898038468967
2 -20.00000000000000000 10.00000000000000000 5.00000000000000000 -0.00000000000000000 0.00000000000000000 1.00000000000000000 0.00000000000000000 -1.00000000000000000 0.00000000000000000 1.00000000000000000 0.00000000000000000 0.00000000000000000 5.00000000000000000
1 25.00000000000000000 10.00000000000000000 0.00000000000000000 0.00000000000000000 0.00000000000000000 1.00000000000000000 
8 3.14159265358979312 4.71238898038468967
2 20.00000000000000000 10.00000000000000000 5.00000000000000000 -0.00000000000000000 -0.00000000000000000 -1.00000000000000000 0.00000000000000000 -1.00000000000000000 0.00000000000000000 -1.00000000000000000 0.00000000000000000 0.00000000000000000 5.00000000000000000
1 -25.00000000000000000 -15.00000000000000000 0.00000000000000000 0.00000000000000000 1.00000000000000000 0.00000000000000000 
1 25.00000000000000000 15.00000000000000000 0.00000000000000000 0.00000000000000000 -1.00000000000000000 0.00000000000000000 
8 4.71238898038468967 6.28318530717958623
2 -20.00000000000000000 -10.00000000000000000 5.00000000000000000 -0.00000000000000000 0.00000000000000000 1.00000000000000000 0.00000000000000000 -1.00000000000000000 0.00000000000000000 1.00000000000000000 0.00000000000000000 0.00000000000000000 5.00000000000000000
8 4.71238898038468967 6.28318530717958623
2 20.00000000000000000 -10.00000000000000000 5.00000000000000000 -0.00000000000000000 -0.00000000000000000 -1.00000000000000000 0.00000000000000000 -1.00000000000000000 0.00000000000000000 -1.00000000000000000 0.00000000000000000 0.00000000000000000 5.00000000000000000
1 25.00000000000000000 -15.00000000000000000 0.00000000000000000 -1.00000000000000000 0.00000000000000000 0.00000000000000000 
1 -17.15475189748055485 13.49999999999999822 0.00000000000000000 1.00000000000000000 0.00000000000000000 0.00000000000000000 
8 0.00000000000000000 1.57079632679489656
2 18.49999999999999645 8.50000000000000000 5.00000000000000000 0.00000000000000000 0.00000000000000000 -1.00000000000000000 0.00000000000000000 1.00000000000000000 0.00000000000000000 1.00000000000000000 -0.00000000000000000 0.00000000000000000 5.00000000000000000
2 -20.19999999999999929 10.19999999999999929 0.00000000000000000 0.00000000000000000 0.00000000000000000 1.00000000000000000 1.00000000000000000 0.00000000000000000 -0.00000000000000000 -0.00000000000000000 1.00000000000000000 0.00000000000000000 4.49038261241715109
1 23.49999999999999645 13.49999999999999822 0.00000000000000000 0.00000000000000000 -1.00000000000000000 0.00000000000000000 
1 -23.50000000000000355 -13.50000000000000000 0.00000000000000000 0.00000000000000000 1.00000000000000000 0.00000000000000000 
8 1.57079632679489656 3.14159265358979312
2 18.49999999999999645 -8.50000000000000000 5.00000000000000000 0.00000000000000000 0.00000000000000000 -1.00000000000000000 0.00000000000000000 1.00000000000000000 0.00000000000000000 1.00000000000000000 -0.00000000000000000 0.00000000000000000 5.00000000000000000
8 3.14159265358979312 4.71238898038468967
2 -18.50000000000000355 -8.50000000000000000 5.00000000000000000 0.00000000000000000 0.00000000000000000 -1.00000000000000000 0.00000000000000000 1.00000000000000000 0.00000000000000000 1.00000000000000000 -0.00000000000000000 0.00000000000000000 5.00000000000000000
1 23.49999999999999645 -13.50000000000000000 0.00000000000000000 -1.00000000000000000 0.00000000000000000 0.00000000000000000 
2 0.00000000000000000 0.00000000000000000 0.00000000000000000 0.00000000000000000 0.00000000000000000 1.00000000000000000 1.00000000000000000 0.00000000000000000 -0.00000000000000000 -0.00000000000000000 1.00000000000000000 0.00000000000000000 3.00000000000000000
1 -25.00000000000000000 -10.00000000000000000 0.00000000000000000 0.00000000000000000 0.00000000000000000 1.00000000000000000 
1 25.00000000000000000 -10.00000000000000000 0.00000000000000000 0.00000000000000000 0.00000000000000000 1.00000000000000000 
1 -20.00000000000000000 -15.00000000000000000 0.00000000000000000 0.00000000000000000 0.00000000000000000 1.00000000000000000 
1 20.00000000000000000 -15.00000000000000000 0.00000000000000000 0.00000000000000000 0.00000000000000000 1.00000000000000000 
1 3.00000000000000000 0.00000000000000000 0.00000000000000000 -0.00000000000000005 0.00000000000000000 -1.00000000000000000 
1 18.49999999999999645 13.50000000000000000 5.00000000000000000 -0.00000000000000000 -0.00000000000000000 -1.00000000000000000 
1 -17.15475189748055485 13.49999999999999822 5.00000000000000000 -0.00000000000000000 -0.00000000000000000 -1.00000000000000000 
1 -17.15475189748055485 13.49999999999999822 0.00000000000000000 1.00000000000000000 0.00000000000000000 0.00000000000000000 
1 23.49999999999999645 8.50000000000000000 5.00000000000000000 -0.00000000000000000 -0.00000000000000000 -1.00000000000000000 
8 0.00000000000000000 1.57079632679489656
2 18.49999999999999645 8.50000000000000000 3.50000000000000089 0.00000000000000000 0.00000000000000000 -1.00000000000000000 0.00000000000000000 1.00000000000000000 0.00000000000000000 1.00000000000000000 -0.00000000000000000 0.00000000000000000 5.00000000000000000
1 -23.50000000000000355 7.15475189748055929 5.00000000000000000 -0.00000000000000000 -0.00000000000000000 -1.00000000000000000 
2 -20.19999999999999929 10.19999999999999929 0.00000000000000000 0.00000000000000000 0.00000000000000000 1.00000000000000000 1.00000000000000000 0.00000000000000000 -0.00000000000000000 -0.00000000000000000 1.00000000000000000 0.00000000000000000 4.49038261241715109
1 23.49999999999999645 -8.50000000000000000 5.00000000000000000 -0.00000000000000000 -0.00000000000000000 -1.00000000000000000 
1 23.49999999999999645 13.49999999999999822 0.00000000000000000 0.00000000000000000 -1.00000000000000000 0.00000000000000000 
1 -23.50000000000000355 -8.50000000000000000 5.00000000000000000 -0.00000000000000000 -0.00000000000000000 -1.00000000000000000 
1 -23.50000000000000355 -13.50000000000000000 0.00000000000000000 0.00000000000000000 1.00000000000000000 0.00000000000000000 
1 18.49999999999999645 -13.50000000000000000 5.00000000000000000 -0.00000000000000000 -0.00000000000000000 -1.00000000000000000 
8 1.57079632679489656 3.14159265358979312
2 18.49999999999999645 -8.50000000000000000 3.50000000000000089 0.00000000000000000 0.00000000000000000 -1.00000000000000000 0.00000000000000000 1.00000000000000000 0.00000000000000000 1.00000000000000000 -0.00000000000000000 0.00000000000000000 5.00000000000000000
1 -18.50000000000000355 -13.50000000000000000 5.00000000000000000 -0.00000000000000000 -0.00000000000000000 -1.00000000000000000 
8 3.14159265358979312 4.71238898038468967
2 -18.50000000000000355 -8.50000000000000000 3.50000000000000089 0.00000000000000000 0.00000000000000000 -1.00000000000000000 0.00000000000000000 1.00000000000000000 0.00000000000000000 1.00000000000000000 -0.00000000000000000 0.00000000000000000 5.00000000000000000
1 23.49999999999999645 -13.50000000000000000 0.00000000000000000 -1.00000000000000000 0.00000000000000000 0.00000000000000000 
Polygon3D 0
PolygonOnTriangulations 0
Surfaces 20
1 -25.00000000000000000 15.00000000000000000 0.00000000000000000 0.00000000000000000 1.00000000000000000 0.00000000000000000 1.00000000000000000 0.00000000000000000 0.00000000000000000 0.00000000000000000 0.00000000000000000 -1.00000000000000000 
2 -20.00000000000000000 10.00000000000000000 0.00000000000000000 0.00000000000000000 0.00000000000000000 1.00000000000000000 0.00000000000000000 1.00000000000000000 0.00000000000000000 -1.00000000000000000 0.00000000000000000 0.00000000000000000 5.00000000000000000
2 20.00000000000000000 10.00000000000000000 0.00000000000000000 0.00000000000000000 0.00000000000000000 1.00000000000000000 0.00000000000000000 1.00000000000000000 0.00000000000000000 1.00000000000000000 -0.00000000000000000 -0.00000000000000000 5.00000000000000000
1 0.00000000000000000 0.00000000000000000 0.00000000000000000 -0.00000000000000000 -0.00000000000000000 -1.00000000000000000 -1.00000000000000000 0.00000000000000000 0.00000000000000000 0.00000000000000000 1.00000000000000000 -0.00000000000000000 
2 -20.00000000000000000 -10.00000000000000000 0.00000000000000000 0.00000000000000000 0.00000000000000000 1.00000000000000000 -1.00000000000000000 0.00000000000000000 0.00000000000000000 0.00000000000000000 -1.00000000000000000 0.00000000000000000 5.00000000000000000
2 20.00000000000000000 -10.00000000000000000 0.00000000000000000 0.00000000000000000 0.00000000000000000 1.00000000000000000 1.00000000000000000 0.00000000000000000 -0.00000000000000000 0.00000000000000000 -1.00000000000000000 -0.00000000000000000 5.00000000000000000
2 0.00000000000000000 0.00000000000000000 0.00000000000000000 -0.00000000000000000 -0.00000000000000000 -1.00000000000000000 1.00000000000000000 0.00000000000000000 0.00000000000000000 -0.00000000000000000 1.00000000000000000 -0.00000000000000000 3.00000000000000000
1 -25.00000000000000000 -15.00000000000000000 0.00000000000000000 -1.00000000000000000 0.00000000000000000 0.00000000000000000 0.00000000000000000 1.00000000000000000 0.00000000000000000 0.00000000000000000 0.00000000000000000 -1.00000000000000000 
1 25.00000000000000000 15.00000000000000000 0.00000000000000000 1.00000000000000000 0.00000000000000000 0.00000000000000000 0.00000000000000000 -1.00000000000000000 0.00000000000000000 0.00000000000000000 0.00000000000000000 -1.00000000000000000 
1 0.00000000000000000 0.00000000000000000 0.00000000000000000 -0.00000000000000000 -0.00000000000000000 -1.00000000000000000 -1.00000000000000000 0.00000000000000000 0.00000000000000000 0.00000000000000000 1.00000000000000000 -0.00000000000000000 
2 18.49999999999999645 8.50000000000000000 5.00000000000000000 -0.00000000000000000 -0.00000000000000000 -1.00000000000000000 0.00000000000000000 1.00000000000000000 -0.00000000000000000 1.00000000000000000 -0.00000000000000000 0.00000000000000000 5.00000000000000000
2 -20.19999999999999929 10.19999999999999929 5.00000000000000000 0.00000000000000000 0.00000000000000000 1.00000000000000000 1.00000000000000000 0.00000000000000000 -0.00000000000000000 -0.00000000000000000 1.00000000000000000 0.00000000000000000 4.49038261241715109
2 18.49999999999999645 -8.50000000000000000 5.00000000000000000 -0.00000000000000000 -0.00000000000000000 -1.00000000000000000 1.00000000000000000 0.00000000000000000 0.00000000000000000 0.00000000000000000 -1.00000000000000000 0.00000000000000000 5.00000000000000000
2 -18.50000000000000355 -8.50000000000000000 5.00000000000000000 -0.00000000000000000 -0.00000000000000000 -1.00000000000000000 0.00000000000000000 -1.00000000000000000 0.00000000000000000 -1.00000000000000000 0.00000000000000000 0.00000000000000000 5.00000000000000000
1 25.00000000000000000 -15.00000000000000000 0.00000000000000000 0.00000000000000000 -1.00000000000000000 0.00000000000000000 -1.00000000000000000 0.00000000000000000 0.00000000000000000 -0.00000000000000000 -0.00000000000000000 -1.00000000000000000 
1 -17.15475189748055485 13.49999999999999822 5.00000000000000000 0.00000000000000000 -1.00000000000000000 0.00000000000000000 1.00000000000000000 0.00000000000000000 0.00000000000000000 -0.00000000000000000 0.00000000000000000 1.00000000000000000 
1 23.49999999999999645 13.49999999999999822 5.00000000000000000 -1.00000000000000000 0.00000000000000000 0.00000000000000000 0.00000000000000000 -1.00000000000000000 0.00000000000000000 0.00000000000000000 0.00000000000000000 1.00000000000000000 
1 -23.50000000000000355 -13.50000000000000000 5.00000000000000000 1.00000000000000000 0.00000000000000000 0.00000000000000000 -0.00000000000000000 1.00000000000000000 0.00000000000000000 0.00000000000000000 -0.00000000000000000 1.00000000000000000 
1 23.49999999999999645 -13.50000000000000000 5.00000000000000000 0.00000000000000000 1.00000000000000000 0.00000000000000000 -1.00000000000000000 0.00000000000000000 0.00000000000000000 0.00000000000000000 -0.00000000000000000 1.00000000000000000 
1 0.16219068060554834 -0.23540256233871487 5.00000000000000089 -0.00000000000000000 -0.00000000000000000 -1.00000000000000000 -1.00000000000000000 0.00000000000000000 0.00000000000000000 0.00000000000000000 1.00000000000000000 -0.00000000000000000 
Triangulations 0

TShapes 130
Ve
0.000000100000002
-20.000000000000000 15.000000000000000 0.000000000000000
0 0

0101101
*
Ve
0.000000100000002
20.000000000000000 15.000000000000000 0.000000000000000
0 0

0101101
*
Ed
 0.000000100000002 1 1 0
1  1 0 5.000000000000000 45.000000000000000
0

0101000
+130 14 -129 14 *
Ve
0.000000100000002
-20.000000000000000 15.000000000000000 5.000000000000000
0 0

0101101
*
Ed
 0.000000100000000 1 1 0
1  2 0 -0.000000000000000 5.000000000000000
2  1 2 0 -0.000000000000000 5.000000000000000
4 G1 1 15 2 0
0

0101000
+130 16 -127 16 *
Ve
0.000000100000002
20.000000000000000 15.000000000000000 5.000000000000000
0 0

0101101
*
Ed
 0.000000100000000 1 1 0
1  3 0 -0.000000000000000 5.000000000000000
2  2 3 0 -0.000000000000000 5.000000000000000
4 G1 1 15 3 0
0

0101000
+129 16 -125 16 *
Ed
 0.000000100000002 1 1 0
1  4 0 5.000000000000000 45.000000000000000
0

0101000
+127 19 -125 19 *
Wi

0101100
-128 12 +126 0 -124 0 +123 18 *
Fa
0  0.000000100000000 1 0

0111000
+122 8 *
Ve
0.000000100000002
-25.000000000000000 10.000000000000000 0.000000000000000
0 0

0101101
*
Ed
 0.000000100000000 1 1 0
1  5 0 3.141592653589793 4.712388980384690
2  3 2 0 3.141592653589793 4.712388980384690
0

0101000
+130 16 -120 16 *
Ve
0.000000100000002
25.000000000000000 10.000000000000000 0.000000000000000
0 0

0101101
*
Ed
 0.000000100000000 1 1 0
1  6 0 3.141592653589793 4.712388980384690
2  4 3 0 3.141592653589793 4.712388980384690
0

0101000
+129 16 -118 16 *
Ve
0.000000100000002
-25.000000000000000 -10.000000000000000 0.000000000000000
0 0

0101101
*
Ed
 0.000000100000002 1 1 0
1  7 0 5.000000000000000 25.000000000000000
0

0101000
+116 14 -120 14 *
Ve
0.000000100000002
25.000000000000000 -10.000000000000000 0.000000000000000
0 0

0101101
*
Ed
 0.000000100000002 1 1 0
1  8 0 5.000000000000000 25.000000000000000
0

0101000
+118 14 -114 14 *
Ve
0.000000100000002
-20.000000000000000 -15.000000000000000 0.000000000000000
0 0

0101101
*
Ed
 0.000000100000000 1 1 0
1  9 0 4.712388980384690 6.283185307179586
2  5 5 0 4.712388980384690 6.283185307179586
0

0101000
+116 16 -112 16 *
Ve
0.000000100000002
20.000000000000000 -15.000000000000000 0.000000000000000
0 0

0101101
*
Ed
 0.000000100000000 1 1 0
1  10 0 4.712388980384690 6.283185307179586
2  6 6 0 4.712388980384690 6.283185307179586
0

0101000
+114 16 -110 16 *
Ed
 0.000000100000002 1 1 0
1  11 0 5.000000000000000 45.000000000000000
0

0101000
+110 14 -112 14 *
Wi

0101100
+128 22 -119 23 +117 23 +115 22 +113 22 -111 23 +109 23 +108 22 *
Ve
0.000000100000000
-17.199999999999999 10.199999999999999 0.000000000000000
0 0

0101101
*
Ed
 0.000000100000000 1 1 0
1  12 0 0.000000000000000 6.283185307179586
2  7 7 24 0.000000000000000 6.283185307179586
0

0101000
+106 25 -106 25 *
Wi

0101100
-105 0 *
Fa
0  0.000000100000000 4 21

0111000
+107 0 +104 0 *
Ve
0.000000100000002
-25.000000000000000 10.000000000000000 5.000000000000000
0 0

0101101
*
Ed
 0.000000100000000 1 1 0
1  13 0 -0.000000000000000 5.000000000000000
2  8 2 0 -0.000000000000000 5.000000000000000
4 G1 2 0 8 15
0

0101000
+120 16 -102 16 *
Ed
 0.000000100000000 1 1 0
1  14 0 3.141592653589793 4.712388980384690
2  9 2 0 3.141592653589793 4.712388980384690
0

0101000
+127 16 -102 16 *
Wi

0101100
+119 0 -126 0 +101 0 -100 0 *
Fa
0  0.000000100000000 2 0

0111000
+99 0 *
Ve
0.000000100000002
25.000000000000000 10.000000000000000 5.000000000000000
0 0

0101101
*
Ed
 0.000000100000000 1 1 0
1  15 0 -0.000000000000000 5.000000000000000
2  10 3 0 -0.000000000000000 5.000000000000000
4 G1 3 0 9 15
0

0101000
+118 16 -97 16 *
Ed
 0.000000100000000 1 1 0
1  16 0 3.141592653589793 4.712388980384690
2  11 3 0 3.141592653589793 4.712388980384690
0

0101000
+125 16 -97 16 *
Wi

0101100
+117 0 -124 0 +96 0 -95 0 *
Fa
0  0.000000100000000 3 0

0111000
+94 0 *
Ve
0.000000100000002
-25.000000000000000 -10.000000000000000 5.000000000000000
0 0

0101101
*
Ed
 0.000000100000002 1 1 0
1  17 0 5.000000000000000 25.000000000000000
0

0101000
+92 19 -102 19 *
Ve
0.000000100000002
25.000000000000000 -10.000000000000000 5.000000000000000
0 0

0101101
*
Ed
 0.000000100000002 1 1 0
1  18 0 5.000000000000000 25.000000000000000
0

0101000
+97 19 -90 19 *
Ve
0.000000100000002
-20.000000000000000 -15.000000000000000 5.000000000000000
0 0

0101101
*
Ed
 0.000000100000000 1 1 0
1  19 0 4.712388980384690 6.283185307179586
2  12 5 0 4.712388980384690 6.283185307179586
0

0101000
+92 16 -88 16 *
Ve
0.000000100000002
20.000000000000000 -15.000000000000000 5.000000000000000
0 0

0101101
*
Ed
 0.000000100000000 1 1 0
1  20 0 4.712388980384690 6.283185307179586
2  13 6 0 4.712388980384690 6.283185307179586
0

0101000
+90 16 -86 16 *
Ed
 0.000000100000002 1 1 0
1  21 0 5.000000000000000 45.000000000000000
0

0101000
+86 19 -88 19 *
Wi

0101100
+123 27 -100 23 +95 23 +91 27 +89 27 -87 23 +85 23 +84 27 *
Ve
0.000000100000000
18.499999999999996 13.500000000000000 5.000000000000000
0 0

0101101
*
Ve
0.000000100000000
-17.154751897480555 13.499999999999998 5.000000000000000
0 0

0101101
*
Ed
 0.000000100000000 1 1 0
1  22 0 0.000000000000000 35.654751897480551
0

0101000
-82 31 +81 31 *
Ve
0.000000100000000
23.499999999999996 8.500000000000000 5.000000000000000
0 0

0101101
*
Ed
 0.000000100000000 1 1 0
1  23 0 0.000000000000000 1.570796326794897
2  14 11 0 0.000000000000000 1.570796326794897
0

0101000
+82 16 -79 16 *
Ve
0.000000100000001
-23.500000000000004 7.154751897480559 5.000000000000000
0 0

0101101
*
Ed
 0.000000100000000 1 1 0
1  24 0 3.886863914533010 7.108710373031264
2  15 12 32 3.886863914533010 7.108710373031264
0

0101000
+77 31 -81 31 *
Ve
0.000000100000000
23.499999999999996 -8.500000000000000 5.000000000000000
0 0

0101101
*
Ed
 0.000000100000000 1 1 0
1  25 0 4.999999999999998 22.000000000000000
0

0101000
+79 31 -75 31 *
Ve
0.000000100000000
-23.500000000000004 -8.500000000000000 5.000000000000000
0 0

0101101
*
Ed
 0.000000100000000 1 1 0
1  26 0 5.000000000000000 20.654751897480558
0

0101000
+73 31 -77 31 *
Ve
0.000000100000000
18.499999999999996 -13.500000000000000 5.000000000000000
0 0

0101101
*
Ed
 0.000000100000000 1 1 0
1  27 0 1.570796326794897 3.141592653589793
2  16 13 0 1.570796326794897 3.141592653589793
0

0101000
+75 16 -71 16 *
Ve
0.000000100000000
-18.500000000000004 -13.500000000000000 5.000000000000000
0 0

0101101
*
Ed
 0.000000100000000 1 1 0
1  28 0 3.141592653589793 4.712388980384690
2  17 14 0 3.141592653589793 4.712388980384690
0

0101000
+69 16 -73 16 *
Ed
 0.000000100000000 1 1 0
1  29 0 5.000000000000000 42.000000000000000
0

0101000
+71 31 -69 31 *
Wi

0101100
-80 30 -78 23 -76 30 -74 30 -72 30 -70 23 -68 23 -67 30 *
Ve
0.000000100000000
-17.199999999999999 10.199999999999999 5.000000000000000
0 0

0101101
*
Ed
 0.000000100000000 1 1 0
1  30 0 0.000000000000000 6.283185307179586
2  18 7 0 0.000000000000000 6.283185307179586
0

0101000
+65 33 -65 33 *
Wi

0101100
+64 24 *
Fa
0  0.000000100000000 10 26

0111000
+83 0 +66 0 +63 0 *
Ed
 0.000000100000000 1 1 0
1  31 0 -0.000000000000000 5.000000000000000
2  19 5 0 -0.000000000000000 5.000000000000000
4 G1 8 15 5 0
0

0101000
+116 16 -92 16 *
Wi

0101100
-115 12 +61 0 -101 0 +91 18 *
Fa
0  0.000000100000000 8 0

0111000
+60 8 *
Ed
 0.000000100000000 1 1 0
1  32 0 -0.000000000000000 5.000000000000000
2  20 6 0 -0.000000000000000 5.000000000000000
4 G1 9 15 6 0
0

0101000
+114 16 -90 16 *
Wi

0101100
-113 12 +96 0 -58 0 +89 18 *
Fa
0  0.000000100000000 9 0

0111000
+57 8 *
Ed
 0.000000100000000 1 1 0
1  33 0 -0.000000000000000 5.000000000000000
2  21 5 0 -0.000000000000000 5.000000000000000
4 G1 5 0 15 15
0

0101000
+112 16 -88 16 *
Wi

0101100
+111 0 -61 0 +55 0 -87 0 *
Fa
0  0.000000100000000 5 0

0111000
+54 0 *
Ed
 0.000000100000000 1 1 0
1  34 0 -0.000000000000000 5.000000000000000
2  22 6 0 -0.000000000000000 5.000000000000000
4 G1 6 0 15 15
0

0101000
+110 16 -86 16 *
Wi

0101100
+109 0 -58 0 +52 0 -85 0 *
Fa
0  0.000000100000000 6 0

0111000
+51 0 *
Wi

0101100
-108 12 +52 0 -55 0 +84 18 *
Fa
0  0.000000100000000 15 0

0111000
+49 8 *
Ed
 0.000000100000000 1 1 0
1  35 0 0.000000000000000 5.000000000000000
3  23 24CN 7 0 0.000000000000000 5.000000000000000
0

0101000
+65 33 -106 33 *
Wi

0101100
-47 24 +105 0 +47 24 +64 24 *
Fa
0  0.000000100000000 7 24

0111000
+46 0 *
Ve
0.000000100000000
18.499999999999996 13.500000000000000 3.500000000000000
0 0

0101101
*
Ed
 0.000000100000000 1 1 0
1  36 0 -0.000000000000000 1.499999999999999
2  25 11 0 -0.000000000000000 1.499999999999999
4 G1 16 4 11 0
0

0101000
+82 16 -44 16 *
Ve
0.000000100000000
-17.154751897480555 13.499999999999998 3.500000000000000
0 0

0101101
*
Ed
 0.000000100000000 1 1 0
1  37 0 0.000000000000000 1.500000000000000
2  26 12 0 0.000000000000000 1.500000000000000
0

0101000
+81 37 -42 37 *
Ed
 0.000000100000000 1 1 0
1  38 0 0.000000000000000 35.654751897480551
0

0101000
-44 40 +42 40 *
Wi

0101100
-80 36 -43 0 +41 4 +40 39 *
Fa
0  0.000000100000000 16 0

0111000
+39 35 *
Ve
0.000000100000000
23.499999999999996 8.500000000000000 3.500000000000000
0 0

0101101
*
Ed
 0.000000100000000 1 1 0
1  39 0 -0.000000000000000 1.499999999999999
2  27 11 0 -0.000000000000000 1.499999999999999
4 G1 11 0 17 4
0

0101000
+79 16 -37 16 *
Ed
 0.000000100000000 1 1 0
1  40 0 0.000000000000000 1.570796326794897
2  28 11 0 0.000000000000000 1.570796326794897
0

0101000
+44 16 -37 16 *
Wi

0101100
+78 0 -43 0 +36 0 -35 0 *
Fa
0  0.000000100000000 11 0

0111000
+34 0 *
Ve
0.000000100000001
-23.500000000000004 7.154751897480559 3.500000000000000
0 0

0101101
*
Ed
 0.000000100000001 1 1 0
1  41 0 0.000000000000000 1.500000000000000
2  29 12 0 0.000000000000000 1.500000000000000
0

0101000
+77 37 -32 37 *
Ed
 0.000000100000000 1 1 0
1  42 0 3.886863914533010 7.108710373031264
2  30 12 43 3.886863914533010 7.108710373031264
0

0101000
+32 40 -42 40 *
Wi

0101100
+31 0 -41 0 -76 41 +30 42 *
Fa
0  0.000000100000000 12 0

0111000
+29 0 *
Ve
0.000000100000000
23.499999999999996 -8.500000000000000 3.500000000000000
0 0

0101101
*
Ed
 0.000000100000000 1 1 0
1  43 0 -0.000000000000000 1.499999999999999
2  31 13 0 -0.000000000000000 1.499999999999999
4 G1 17 4 13 0
0

0101000
+75 16 -27 16 *
Ed
 0.000000100000000 1 1 0
1  44 0 4.999999999999998 22.000000000000000
0

0101000
+37 40 -27 40 *
Wi

0101100
-74 36 +36 0 -26 0 +25 39 *
Fa
0  0.000000100000000 17 0

0111000
+24 35 *
Ve
0.000000100000000
-23.500000000000004 -8.500000000000000 3.500000000000000
0 0

0101101
*
Ed
 0.000000100000000 1 1 0
1  45 0 -0.000000000000000 1.499999999999999
2  32 14 0 -0.000000000000000 1.499999999999999
4 G1 18 4 14 0
0

0101000
+73 16 -22 16 *
Ed
 0.000000100000000 1 1 0
1  46 0 5.000000000000000 20.654751897480558
0

0101000
+22 40 -32 40 *
Wi

0101100
-72 36 +21 0 -31 4 +20 39 *
Fa
0  0.000000100000000 18 0

0111000
+19 35 *
Ve
0.000000100000000
18.499999999999996 -13.500000000000000 3.500000000000000
0 0

0101101
*
Ed
 0.000000100000000 1 1 0
1  47 0 -0.000000000000000 1.499999999999999
2  33 13 0 -0.000000000000000 1.499999999999999
4 G1 13 0 19 4
0

0101000
+71 16 -17 16 *
Ed
 0.000000100000000 1 1 0
1  48 0 1.570796326794897 3.141592653589793
2  34 13 0 1.570796326794897 3.141592653589793
0

0101000
+27 16 -17 16 *
Wi

0101100
+70 0 -26 0 +16 0 -15 0 *
Fa
0  0.000000100000000 13 0

0111000
+14 0 *
Ve
0.000000100000000
-18.500000000000004 -13.500000000000000 3.500000000000000
0 0

0101101
*
Ed
 0.000000100000000 1 1 0
1  49 0 -0.000000000000000 1.499999999999999
2  35 14 0 -0.000000000000000 1.499999999999999
4 G1 14 0 19 4
0

0101000
+69 16 -12 16 *
Ed
 0.000000100000000 1 1 0
1  50 0 3.141592653589793 4.712388980384690
2  36 14 0 3.141592653589793 4.712388980384690
0

0101000
+12 16 -22 16 *
Wi

0101100
+68 0 -11 0 +21 0 -10 0 *
Fa
0  0.000000100000000 14 0

0111000
+9 0 *
Ed
 0.000000100000000 1 1 0
1  51 0 5.000000000000000 42.000000000000000
0

0101000
+17 40 -12 40 *
Wi

0101100
-67 36 +16 0 -11 0 +7 39 *
Fa
0  0.000000100000000 19 0

0111000
+6 35 *
Wi

0101100
+40 39 +35 0 +30 39 +25 39 +20 39 +15 0 +10 0 +7 39 *
Fa
0  0.000000100000000 20 0

0111000
+4 45 *
Sh

0101100
+121 7 +103 0 +98 23 -93 23 -62 0 +59 7 +56 7 +53 23 -50 23 +48 7 
+45 0 +38 34 -33 23 +28 34 +23 34 +18 34 -13 23 -8 23 +5 34 -3 44 
*
So

1100000
+2 0 *

+1 1 